<?xml version="1.0" encoding="UTF-8" standalone="no"?><svg xmlns="http://www.w3.org/2000/svg" xmlns:xlink="http://www.w3.org/1999/xlink" contentScriptType="application/ecmascript" contentStyleType="text/css" height="793px" preserveAspectRatio="none" style="width:2108px;height:793px;" version="1.1" viewBox="0 0 2108 793" width="2108px" zoomAndPan="magnify"><defs><filter height="300%" id="f1hc3stvkoqlvj" width="300%" x="-1" y="-1"><feGaussianBlur result="blurOut" stdDeviation="2.0"/><feColorMatrix in="blurOut" result="blurOut2" type="matrix" values="0 0 0 0 0 0 0 0 0 0 0 0 0 0 0 0 0 0 .4 0"/><feOffset dx="4.0" dy="4.0" in="blurOut2" result="blurOut3"/><feBlend in="SourceGraphic" in2="blurOut3" mode="normal"/></filter></defs><g><text fill="#000000" font-family="sans-serif" font-size="18" lengthAdjust="spacingAndGlyphs" textLength="300" x="910.5" y="16.708">diagramme des classes de cellules</text><!--MD5=[f7217341b3bb6bbf768c7f0e049f8d09]
cluster Legend--><polygon fill="#ADD8E6" filter="url(#f1hc3stvkoqlvj)" points="627.5,44.9531,692.5,44.9531,699.5,67.25,2086.5,67.25,2086.5,397.9531,627.5,397.9531,627.5,44.9531" style="stroke: #000000; stroke-width: 1.5;"/><line style="stroke: #000000; stroke-width: 1.5;" x1="627.5" x2="699.5" y1="67.25" y2="67.25"/><text fill="#000000" font-family="sans-serif" font-size="14" font-weight="bold" lengthAdjust="spacingAndGlyphs" textLength="59" x="631.5" y="59.9482">Legend</text><!--MD5=[cf39a86b148c3d2a53e894bf08c046dd]
class I--><rect fill="#FEFECE" filter="url(#f1hc3stvkoqlvj)" height="136.8281" id="I" style="stroke: #A80036; stroke-width: 1.5;" width="382" x="643.5" y="162.4531"/><ellipse cx="801.75" cy="178.4531" fill="#B4A7E5" rx="11" ry="11" style="stroke: #A80036; stroke-width: 1.0;"/><path d="M797.6719,174.2188 L797.6719,172.0625 L805.0625,172.0625 L805.0625,174.2188 L802.5938,174.2188 L802.5938,182.2969 L805.0625,182.2969 L805.0625,184.4531 L797.6719,184.4531 L797.6719,182.2969 L800.1406,182.2969 L800.1406,174.2188 L797.6719,174.2188 Z "/><text fill="#000000" font-family="sans-serif" font-size="12" font-style="italic" lengthAdjust="spacingAndGlyphs" textLength="57" x="822.25" y="182.6074">Interface</text><line style="stroke: #A80036; stroke-width: 1.5;" x1="644.5" x2="1024.5" y1="194.4531" y2="194.4531"/><ellipse cx="654.5" cy="222.2578" fill="none" rx="3" ry="3" style="stroke: #038048; stroke-width: 1.0;"/><text fill="#000000" font-family="sans-serif" font-size="11" lengthAdjust="spacingAndGlyphs" text-decoration="underline" textLength="94" x="663.5" y="225.4683">CONST_PUBLIC :</text><text fill="#008000" font-family="sans-serif" font-size="11" lengthAdjust="spacingAndGlyphs" text-decoration="underline" textLength="24" x="761.5" y="225.4683">final</text><text fill="#000000" font-family="sans-serif" font-size="11" lengthAdjust="spacingAndGlyphs" text-decoration="underline" textLength="24" x="789.5" y="225.4683">type</text><line style="stroke: #A80036; stroke-width: 1.0; stroke-dasharray: 1.0,2.0;" x1="644.5" x2="746.5" y1="208.8555" y2="208.8555"/><text fill="#000000" font-family="sans-serif" font-size="11" lengthAdjust="spacingAndGlyphs" textLength="176" x="746.5" y="212.1636">"Seul type d'attribut authorisé"</text><line style="stroke: #A80036; stroke-width: 1.0; stroke-dasharray: 1.0,2.0;" x1="922.5" x2="1024.5" y1="208.8555" y2="208.8555"/><line style="stroke: #A80036; stroke-width: 1.0;" x1="644.5" x2="1024.5" y1="232.0625" y2="232.0625"/><line style="stroke: #A80036; stroke-width: 1.0;" x1="644.5" x2="1024.5" y1="234.0625" y2="234.0625"/><ellipse cx="654.5" cy="259.8672" fill="#84BE84" rx="3" ry="3" style="stroke: #038048; stroke-width: 1.0;"/><text fill="#000000" font-family="sans-serif" font-size="11" lengthAdjust="spacingAndGlyphs" textLength="324" x="663.5" y="263.0776">methodePublic(typeParams) : typeRetour # retourDefault</text><line style="stroke: #A80036; stroke-width: 1.0; stroke-dasharray: 1.0,2.0;" x1="644.5" x2="763" y1="246.4648" y2="246.4648"/><text fill="#000000" font-family="sans-serif" font-size="11" lengthAdjust="spacingAndGlyphs" textLength="143" x="763" y="249.7729">"Methodes de l'interface"</text><line style="stroke: #A80036; stroke-width: 1.0; stroke-dasharray: 1.0,2.0;" x1="906" x2="1024.5" y1="246.4648" y2="246.4648"/><ellipse cx="654.5" cy="289.4766" fill="#84BE84" rx="3" ry="3" style="stroke: #038048; stroke-width: 1.0;"/><text fill="#000000" font-family="sans-serif" font-size="11" lengthAdjust="spacingAndGlyphs" text-decoration="underline" textLength="356" x="663.5" y="292.687">methodePublicStatic(typeParams) : typeRetour # retourDefault</text><line style="stroke: #A80036; stroke-width: 1.0; stroke-dasharray: 1.0,2.0;" x1="644.5" x2="745.5" y1="276.0742" y2="276.0742"/><text fill="#000000" font-family="sans-serif" font-size="11" lengthAdjust="spacingAndGlyphs" textLength="178" x="745.5" y="279.3823">"Methodes static de l'interface"</text><line style="stroke: #A80036; stroke-width: 1.0; stroke-dasharray: 1.0,2.0;" x1="923.5" x2="1024.5" y1="276.0742" y2="276.0742"/><!--MD5=[a46ee5ce0ceb0380cf446a08a056dce4]
class A--><rect fill="#FEFECE" filter="url(#f1hc3stvkoqlvj)" height="302.4844" id="A" style="stroke: #A80036; stroke-width: 1.5;" width="395" x="1171" y="79.9531"/><ellipse cx="1318.75" cy="95.9531" fill="#A9DCDF" rx="11" ry="11" style="stroke: #A80036; stroke-width: 1.0;"/><path d="M1318.8594,91.2969 L1317.7031,96.375 L1320.0313,96.375 L1318.8594,91.2969 Z M1317.375,89.0625 L1320.3594,89.0625 L1323.7188,101.4531 L1321.2656,101.4531 L1320.5,98.3906 L1317.2188,98.3906 L1316.4688,101.4531 L1314.0313,101.4531 L1317.375,89.0625 Z "/><text fill="#000000" font-family="sans-serif" font-size="12" font-style="italic" lengthAdjust="spacingAndGlyphs" textLength="91" x="1339.25" y="100.1074">abstractClasse</text><line style="stroke: #A80036; stroke-width: 1.5;" x1="1172" x2="1565" y1="111.9531" y2="111.9531"/><rect fill="none" height="6" style="stroke: #C82930; stroke-width: 1.0;" width="6" x="1179" y="136.7578"/><text fill="#000000" font-family="sans-serif" font-size="11" lengthAdjust="spacingAndGlyphs" text-decoration="underline" textLength="120" x="1191" y="142.9683">CONST_PRIVEE : type</text><line style="stroke: #A80036; stroke-width: 1.0; stroke-dasharray: 1.0,2.0;" x1="1172" x2="1339.5" y1="126.3555" y2="126.3555"/><text fill="#000000" font-family="sans-serif" font-size="11" lengthAdjust="spacingAndGlyphs" textLength="58" x="1339.5" y="129.6636">Constante</text><line style="stroke: #A80036; stroke-width: 1.0; stroke-dasharray: 1.0,2.0;" x1="1397.5" x2="1565" y1="126.3555" y2="126.3555"/><rect fill="none" height="6" style="stroke: #C82930; stroke-width: 1.0;" width="6" x="1179" y="166.3672"/><text fill="#000000" font-family="sans-serif" font-size="11" lengthAdjust="spacingAndGlyphs" textLength="112" x="1191" y="172.5776">attributPrivee : type</text><polygon fill="none" points="1182,177.1719,1186,181.1719,1182,185.1719,1178,181.1719" style="stroke: #B38D22; stroke-width: 1.0;"/><text fill="#000000" font-family="sans-serif" font-size="11" lengthAdjust="spacingAndGlyphs" textLength="121" x="1191" y="185.3823">attributProtege : type</text><polygon fill="none" points="1182,190.9766,1178,196.9766,1186,196.9766" style="stroke: #1963A0; stroke-width: 1.0;"/><text fill="#000000" font-family="sans-serif" font-size="11" lengthAdjust="spacingAndGlyphs" textLength="124" x="1191" y="198.187">attributPackage : type</text><ellipse cx="1182" cy="207.7813" fill="none" rx="3" ry="3" style="stroke: #038048; stroke-width: 1.0;"/><text fill="#000000" font-family="sans-serif" font-size="11" lengthAdjust="spacingAndGlyphs" textLength="110" x="1191" y="210.9917">attributPublic : type</text><line style="stroke: #A80036; stroke-width: 1.0; stroke-dasharray: 1.0,2.0;" x1="1172" x2="1344.5" y1="155.9648" y2="155.9648"/><text fill="#000000" font-family="sans-serif" font-size="11" lengthAdjust="spacingAndGlyphs" textLength="48" x="1344.5" y="159.2729">Attributs</text><line style="stroke: #A80036; stroke-width: 1.0; stroke-dasharray: 1.0,2.0;" x1="1392.5" x2="1565" y1="155.9648" y2="155.9648"/><line style="stroke: #A80036; stroke-width: 1.0;" x1="1172" x2="1565" y1="217.5859" y2="217.5859"/><line style="stroke: #A80036; stroke-width: 1.0;" x1="1172" x2="1565" y1="219.5859" y2="219.5859"/><rect fill="#F24D5C" height="6" style="stroke: #C82930; stroke-width: 1.0;" width="6" x="1179" y="242.3906"/><text fill="#000000" font-family="sans-serif" font-size="11" lengthAdjust="spacingAndGlyphs" textLength="326" x="1191" y="248.6011">methodePrive2(typeParams) : typeRetour # retourDefault</text><polygon fill="#FFFF44" points="1182,253.1953,1186,257.1953,1182,261.1953,1178,257.1953" style="stroke: #B38D22; stroke-width: 1.0;"/><text fill="#000000" font-family="sans-serif" font-size="11" lengthAdjust="spacingAndGlyphs" textLength="335" x="1191" y="261.4058">methodeProtege(typeParams) : typeRetour # retourDefault</text><polygon fill="#4177AF" points="1182,267,1178,273,1186,273" style="stroke: #1963A0; stroke-width: 1.0;"/><text fill="#000000" font-family="sans-serif" font-size="11" lengthAdjust="spacingAndGlyphs" textLength="338" x="1191" y="274.2104">methodePackage(typeParams) : typeRetour # retourDefault</text><ellipse cx="1182" cy="283.8047" fill="#84BE84" rx="3" ry="3" style="stroke: #038048; stroke-width: 1.0;"/><text fill="#000000" font-family="sans-serif" font-size="11" lengthAdjust="spacingAndGlyphs" textLength="324" x="1191" y="287.0151">methodePublic(typeParams) : typeRetour # retourDefault</text><line style="stroke: #A80036; stroke-width: 1.0; stroke-dasharray: 1.0,2.0;" x1="1172" x2="1341" y1="231.9883" y2="231.9883"/><text fill="#000000" font-family="sans-serif" font-size="11" lengthAdjust="spacingAndGlyphs" textLength="55" x="1341" y="235.2964">Methodes</text><line style="stroke: #A80036; stroke-width: 1.0; stroke-dasharray: 1.0,2.0;" x1="1396" x2="1565" y1="231.9883" y2="231.9883"/><rect fill="#F24D5C" height="6" style="stroke: #C82930; stroke-width: 1.0;" width="6" x="1179" y="310.4141"/><text fill="#000000" font-family="sans-serif" font-size="11" lengthAdjust="spacingAndGlyphs" textLength="331" x="1191" y="316.6245">@methodePrive(typeParams) : typeRetour # retourDefault</text><line style="stroke: #A80036; stroke-width: 1.0; stroke-dasharray: 1.0,2.0;" x1="1172" x2="1314.5" y1="300.0117" y2="300.0117"/><text fill="#000000" font-family="sans-serif" font-size="11" lengthAdjust="spacingAndGlyphs" textLength="108" x="1314.5" y="303.3198">Methodes Override</text><line style="stroke: #A80036; stroke-width: 1.0; stroke-dasharray: 1.0,2.0;" x1="1422.5" x2="1565" y1="300.0117" y2="300.0117"/><rect fill="#F24D5C" height="6" style="stroke: #C82930; stroke-width: 1.0;" width="6" x="1179" y="340.0234"/><text fill="#000000" font-family="sans-serif" font-size="11" font-style="italic" lengthAdjust="spacingAndGlyphs" textLength="369" x="1191" y="346.2339">methodePriveAbstract(typeParams) : typeRetour # retourDefault</text><line style="stroke: #A80036; stroke-width: 1.0; stroke-dasharray: 1.0,2.0;" x1="1172" x2="1310" y1="329.6211" y2="329.6211"/><text fill="#000000" font-family="sans-serif" font-size="11" lengthAdjust="spacingAndGlyphs" textLength="117" x="1310" y="332.9292">Methodes abstraites</text><line style="stroke: #A80036; stroke-width: 1.0; stroke-dasharray: 1.0,2.0;" x1="1427" x2="1565" y1="329.6211" y2="329.6211"/><rect fill="#F24D5C" height="6" style="stroke: #C82930; stroke-width: 1.0;" width="6" x="1179" y="369.6328"/><text fill="#000000" font-family="sans-serif" font-size="11" lengthAdjust="spacingAndGlyphs" text-decoration="underline" textLength="351" x="1191" y="375.8433">methodePriveStatic(typeParams) : typeRetour # retourDefault</text><line style="stroke: #A80036; stroke-width: 1.0; stroke-dasharray: 1.0,2.0;" x1="1172" x2="1312.5" y1="359.2305" y2="359.2305"/><text fill="#000000" font-family="sans-serif" font-size="11" lengthAdjust="spacingAndGlyphs" textLength="112" x="1312.5" y="362.5386">Methodes statiques</text><line style="stroke: #A80036; stroke-width: 1.0; stroke-dasharray: 1.0,2.0;" x1="1424.5" x2="1565" y1="359.2305" y2="359.2305"/><!--MD5=[378b18254a1b2429f435e93f5e5cc50c]
class C--><rect fill="#FEFECE" filter="url(#f1hc3stvkoqlvj)" height="272.875" id="C" style="stroke: #A80036; stroke-width: 1.5;" width="384" x="1686.5" y="94.4531"/><ellipse cx="1853.75" cy="110.4531" fill="#ADD1B2" rx="11" ry="11" style="stroke: #A80036; stroke-width: 1.0;"/><path d="M1856.7188,116.0938 Q1856.1406,116.3906 1855.5,116.5313 Q1854.8594,116.6875 1854.1563,116.6875 Q1851.6563,116.6875 1850.3281,115.0469 Q1849.0156,113.3906 1849.0156,110.2656 Q1849.0156,107.1406 1850.3281,105.4844 Q1851.6563,103.8281 1854.1563,103.8281 Q1854.8594,103.8281 1855.5,103.9844 Q1856.1563,104.1406 1856.7188,104.4375 L1856.7188,107.1563 Q1856.0938,106.5781 1855.5,106.3125 Q1854.9063,106.0313 1854.2813,106.0313 Q1852.9375,106.0313 1852.25,107.1094 Q1851.5625,108.1719 1851.5625,110.2656 Q1851.5625,112.3594 1852.25,113.4375 Q1852.9375,114.5 1854.2813,114.5 Q1854.9063,114.5 1855.5,114.2344 Q1856.0938,113.9531 1856.7188,113.375 L1856.7188,116.0938 Z "/><text fill="#000000" font-family="sans-serif" font-size="12" lengthAdjust="spacingAndGlyphs" textLength="41" x="1874.25" y="114.6074">Classe</text><line style="stroke: #A80036; stroke-width: 1.5;" x1="1687.5" x2="2069.5" y1="126.4531" y2="126.4531"/><rect fill="none" height="6" style="stroke: #C82930; stroke-width: 1.0;" width="6" x="1694.5" y="151.2578"/><text fill="#000000" font-family="sans-serif" font-size="11" lengthAdjust="spacingAndGlyphs" text-decoration="underline" textLength="120" x="1706.5" y="157.4683">CONST_PRIVEE : type</text><line style="stroke: #A80036; stroke-width: 1.0; stroke-dasharray: 1.0,2.0;" x1="1687.5" x2="1849.5" y1="140.8555" y2="140.8555"/><text fill="#000000" font-family="sans-serif" font-size="11" lengthAdjust="spacingAndGlyphs" textLength="58" x="1849.5" y="144.1636">Constante</text><line style="stroke: #A80036; stroke-width: 1.0; stroke-dasharray: 1.0,2.0;" x1="1907.5" x2="2069.5" y1="140.8555" y2="140.8555"/><rect fill="none" height="6" style="stroke: #C82930; stroke-width: 1.0;" width="6" x="1694.5" y="180.8672"/><text fill="#000000" font-family="sans-serif" font-size="11" lengthAdjust="spacingAndGlyphs" textLength="112" x="1706.5" y="187.0776">attributPrivee : type</text><polygon fill="none" points="1697.5,191.6719,1701.5,195.6719,1697.5,199.6719,1693.5,195.6719" style="stroke: #B38D22; stroke-width: 1.0;"/><text fill="#000000" font-family="sans-serif" font-size="11" lengthAdjust="spacingAndGlyphs" textLength="121" x="1706.5" y="199.8823">attributProtege : type</text><polygon fill="none" points="1697.5,205.4766,1693.5,211.4766,1701.5,211.4766" style="stroke: #1963A0; stroke-width: 1.0;"/><text fill="#000000" font-family="sans-serif" font-size="11" lengthAdjust="spacingAndGlyphs" textLength="124" x="1706.5" y="212.687">attributPackage : type</text><ellipse cx="1697.5" cy="222.2813" fill="none" rx="3" ry="3" style="stroke: #038048; stroke-width: 1.0;"/><text fill="#000000" font-family="sans-serif" font-size="11" lengthAdjust="spacingAndGlyphs" textLength="110" x="1706.5" y="225.4917">attributPublic : type</text><line style="stroke: #A80036; stroke-width: 1.0; stroke-dasharray: 1.0,2.0;" x1="1687.5" x2="1854.5" y1="170.4648" y2="170.4648"/><text fill="#000000" font-family="sans-serif" font-size="11" lengthAdjust="spacingAndGlyphs" textLength="48" x="1854.5" y="173.7729">Attributs</text><line style="stroke: #A80036; stroke-width: 1.0; stroke-dasharray: 1.0,2.0;" x1="1902.5" x2="2069.5" y1="170.4648" y2="170.4648"/><line style="stroke: #A80036; stroke-width: 1.0;" x1="1687.5" x2="2069.5" y1="232.0859" y2="232.0859"/><line style="stroke: #A80036; stroke-width: 1.0;" x1="1687.5" x2="2069.5" y1="234.0859" y2="234.0859"/><rect fill="#F24D5C" height="6" style="stroke: #C82930; stroke-width: 1.0;" width="6" x="1694.5" y="256.8906"/><text fill="#000000" font-family="sans-serif" font-size="11" lengthAdjust="spacingAndGlyphs" textLength="326" x="1706.5" y="263.1011">methodePrive3(typeParams) : typeRetour # retourDefault</text><polygon fill="#FFFF44" points="1697.5,267.6953,1701.5,271.6953,1697.5,275.6953,1693.5,271.6953" style="stroke: #B38D22; stroke-width: 1.0;"/><text fill="#000000" font-family="sans-serif" font-size="11" lengthAdjust="spacingAndGlyphs" textLength="342" x="1706.5" y="275.9058">methodeProtege2(typeParams) : typeRetour # retourDefault</text><polygon fill="#4177AF" points="1697.5,281.5,1693.5,287.5,1701.5,287.5" style="stroke: #1963A0; stroke-width: 1.0;"/><text fill="#000000" font-family="sans-serif" font-size="11" lengthAdjust="spacingAndGlyphs" textLength="345" x="1706.5" y="288.7104">methodePackage2(typeParams) : typeRetour # retourDefault</text><ellipse cx="1697.5" cy="298.3047" fill="#84BE84" rx="3" ry="3" style="stroke: #038048; stroke-width: 1.0;"/><text fill="#000000" font-family="sans-serif" font-size="11" lengthAdjust="spacingAndGlyphs" textLength="331" x="1706.5" y="301.5151">methodePublic2(typeParams) : typeRetour # retourDefault</text><line style="stroke: #A80036; stroke-width: 1.0; stroke-dasharray: 1.0,2.0;" x1="1687.5" x2="1851" y1="246.4883" y2="246.4883"/><text fill="#000000" font-family="sans-serif" font-size="11" lengthAdjust="spacingAndGlyphs" textLength="55" x="1851" y="249.7964">Methodes</text><line style="stroke: #A80036; stroke-width: 1.0; stroke-dasharray: 1.0,2.0;" x1="1906" x2="2069.5" y1="246.4883" y2="246.4883"/><rect fill="#F24D5C" height="6" style="stroke: #C82930; stroke-width: 1.0;" width="6" x="1694.5" y="324.9141"/><text fill="#000000" font-family="sans-serif" font-size="11" lengthAdjust="spacingAndGlyphs" textLength="338" x="1706.5" y="331.1245">@methodePrive2(typeParams) : typeRetour # retourDefault</text><line style="stroke: #A80036; stroke-width: 1.0; stroke-dasharray: 1.0,2.0;" x1="1687.5" x2="1824.5" y1="314.5117" y2="314.5117"/><text fill="#000000" font-family="sans-serif" font-size="11" lengthAdjust="spacingAndGlyphs" textLength="108" x="1824.5" y="317.8198">Methodes Override</text><line style="stroke: #A80036; stroke-width: 1.0; stroke-dasharray: 1.0,2.0;" x1="1932.5" x2="2069.5" y1="314.5117" y2="314.5117"/><rect fill="#F24D5C" height="6" style="stroke: #C82930; stroke-width: 1.0;" width="6" x="1694.5" y="354.5234"/><text fill="#000000" font-family="sans-serif" font-size="11" lengthAdjust="spacingAndGlyphs" text-decoration="underline" textLength="358" x="1706.5" y="360.7339">methodePriveStatic2(typeParams) : typeRetour # retourDefault</text><line style="stroke: #A80036; stroke-width: 1.0; stroke-dasharray: 1.0,2.0;" x1="1687.5" x2="1822.5" y1="344.1211" y2="344.1211"/><text fill="#000000" font-family="sans-serif" font-size="11" lengthAdjust="spacingAndGlyphs" textLength="112" x="1822.5" y="347.4292">Methodes statiques</text><line style="stroke: #A80036; stroke-width: 1.0; stroke-dasharray: 1.0,2.0;" x1="1934.5" x2="2069.5" y1="344.1211" y2="344.1211"/><!--MD5=[a93424cbe6858bdf35e78a6bfcc497ec]
class IC--><rect fill="#FEFECE" filter="url(#f1hc3stvkoqlvj)" height="73.6094" id="IC" style="stroke: #A80036; stroke-width: 1.5;" width="126" x="482.5" y="193.9531"/><ellipse cx="530.25" cy="209.9531" fill="#B4A7E5" rx="11" ry="11" style="stroke: #A80036; stroke-width: 1.0;"/><path d="M526.1719,205.7188 L526.1719,203.5625 L533.5625,203.5625 L533.5625,205.7188 L531.0938,205.7188 L531.0938,213.7969 L533.5625,213.7969 L533.5625,215.9531 L526.1719,215.9531 L526.1719,213.7969 L528.6406,213.7969 L528.6406,205.7188 L526.1719,205.7188 Z "/><text fill="#000000" font-family="sans-serif" font-size="12" font-style="italic" lengthAdjust="spacingAndGlyphs" textLength="22" x="550.75" y="214.1074">Cell</text><line style="stroke: #A80036; stroke-width: 1.5;" x1="483.5" x2="607.5" y1="225.9531" y2="225.9531"/><line style="stroke: #A80036; stroke-width: 1.5;" x1="483.5" x2="607.5" y1="233.9531" y2="233.9531"/><ellipse cx="493.5" cy="244.9531" fill="#84BE84" rx="3" ry="3" style="stroke: #038048; stroke-width: 1.0;"/><text fill="#000000" font-family="sans-serif" font-size="11" font-style="italic" lengthAdjust="spacingAndGlyphs" textLength="100" x="502.5" y="248.1636">serialize() : String</text><ellipse cx="493.5" cy="257.7578" fill="#84BE84" rx="3" ry="3" style="stroke: #038048; stroke-width: 1.0;"/><text fill="#000000" font-family="sans-serif" font-size="11" font-style="italic" lengthAdjust="spacingAndGlyphs" textLength="97" x="502.5" y="260.9683">toString() : String</text><!--MD5=[c5d42a54fdad93ad451159023d9aea69]
class WC--><rect fill="#FEFECE" filter="url(#f1hc3stvkoqlvj)" height="311.2891" id="WC" style="stroke: #A80036; stroke-width: 1.5;" width="273" x="14" y="448.9531"/><ellipse cx="117.75" cy="464.9531" fill="#ADD1B2" rx="11" ry="11" style="stroke: #A80036; stroke-width: 1.0;"/><path d="M120.7188,470.5938 Q120.1406,470.8906 119.5,471.0313 Q118.8594,471.1875 118.1563,471.1875 Q115.6563,471.1875 114.3281,469.5469 Q113.0156,467.8906 113.0156,464.7656 Q113.0156,461.6406 114.3281,459.9844 Q115.6563,458.3281 118.1563,458.3281 Q118.8594,458.3281 119.5,458.4844 Q120.1563,458.6406 120.7188,458.9375 L120.7188,461.6563 Q120.0938,461.0781 119.5,460.8125 Q118.9063,460.5313 118.2813,460.5313 Q116.9375,460.5313 116.25,461.6094 Q115.5625,462.6719 115.5625,464.7656 Q115.5625,466.8594 116.25,467.9375 Q116.9375,469 118.2813,469 Q118.9063,469 119.5,468.7344 Q120.0938,468.4531 120.7188,467.875 L120.7188,470.5938 Z "/><text fill="#000000" font-family="sans-serif" font-size="12" lengthAdjust="spacingAndGlyphs" textLength="57" x="138.25" y="469.1074">WhiteCell</text><line style="stroke: #A80036; stroke-width: 1.5;" x1="15" x2="286" y1="480.9531" y2="480.9531"/><rect fill="none" height="6" style="stroke: #C82930; stroke-width: 1.0;" width="6" x="22" y="488.9531"/><text fill="#000000" font-family="sans-serif" font-size="11" lengthAdjust="spacingAndGlyphs" textLength="97" x="34" y="495.1636">correctValue : int</text><rect fill="none" height="6" style="stroke: #C82930; stroke-width: 1.0;" width="6" x="22" y="501.7578"/><text fill="#000000" font-family="sans-serif" font-size="11" lengthAdjust="spacingAndGlyphs" textLength="185" x="34" y="507.9683">value : int # Kakuro.NULL_VALUE</text><rect fill="none" height="6" style="stroke: #C82930; stroke-width: 1.0;" width="6" x="22" y="514.5625"/><text fill="#000000" font-family="sans-serif" font-size="11" lengthAdjust="spacingAndGlyphs" textLength="121" x="34" y="520.7729">notes : Set&lt;Integer&gt;</text><line style="stroke: #A80036; stroke-width: 1.0;" x1="15" x2="286" y1="527.3672" y2="527.3672"/><line style="stroke: #A80036; stroke-width: 1.0;" x1="15" x2="286" y1="529.3672" y2="529.3672"/><ellipse cx="25" cy="555.1719" fill="#84BE84" rx="3" ry="3" style="stroke: #038048; stroke-width: 1.0;"/><text fill="#000000" font-family="sans-serif" font-size="11" lengthAdjust="spacingAndGlyphs" text-decoration="underline" textLength="136" x="34" y="558.3823">WhiteCell(int) : WhiteCell</text><line style="stroke: #A80036; stroke-width: 1.0; stroke-dasharray: 1.0,2.0;" x1="15" x2="113.5" y1="541.7695" y2="541.7695"/><text fill="#000000" font-family="sans-serif" font-size="11" lengthAdjust="spacingAndGlyphs" textLength="74" x="113.5" y="545.0776">Constructeur</text><line style="stroke: #A80036; stroke-width: 1.0; stroke-dasharray: 1.0,2.0;" x1="187.5" x2="286" y1="541.7695" y2="541.7695"/><ellipse cx="25" cy="584.7813" fill="#84BE84" rx="3" ry="3" style="stroke: #038048; stroke-width: 1.0;"/><text fill="#000000" font-family="sans-serif" font-size="11" lengthAdjust="spacingAndGlyphs" textLength="148" x="34" y="587.9917">getCorrectValue(void) : int</text><ellipse cx="25" cy="597.5859" fill="#84BE84" rx="3" ry="3" style="stroke: #038048; stroke-width: 1.0;"/><text fill="#000000" font-family="sans-serif" font-size="11" lengthAdjust="spacingAndGlyphs" textLength="106" x="34" y="600.7964">getValue(void) : int</text><ellipse cx="25" cy="610.3906" fill="#84BE84" rx="3" ry="3" style="stroke: #038048; stroke-width: 1.0;"/><text fill="#000000" font-family="sans-serif" font-size="11" lengthAdjust="spacingAndGlyphs" textLength="149" x="34" y="613.6011">setValue(int) : Move # null</text><ellipse cx="25" cy="623.1953" fill="#84BE84" rx="3" ry="3" style="stroke: #038048; stroke-width: 1.0;"/><text fill="#000000" font-family="sans-serif" font-size="11" lengthAdjust="spacingAndGlyphs" textLength="171" x="34" y="626.4058">getNotes(void) : Set&lt;Integer&gt;</text><ellipse cx="25" cy="636" fill="#84BE84" rx="3" ry="3" style="stroke: #038048; stroke-width: 1.0;"/><text fill="#000000" font-family="sans-serif" font-size="11" lengthAdjust="spacingAndGlyphs" textLength="214" x="34" y="639.2104">setNotes(Set&lt;Integer&gt;) : Move # null</text><line style="stroke: #A80036; stroke-width: 1.0; stroke-dasharray: 1.0,2.0;" x1="15" x2="117.5" y1="571.3789" y2="571.3789"/><text fill="#000000" font-family="sans-serif" font-size="11" lengthAdjust="spacingAndGlyphs" textLength="66" x="117.5" y="574.687">Accesseurs</text><line style="stroke: #A80036; stroke-width: 1.0; stroke-dasharray: 1.0,2.0;" x1="183.5" x2="286" y1="571.3789" y2="571.3789"/><ellipse cx="25" cy="665.6094" fill="#84BE84" rx="3" ry="3" style="stroke: #038048; stroke-width: 1.0;"/><text fill="#000000" font-family="sans-serif" font-size="11" lengthAdjust="spacingAndGlyphs" textLength="247" x="34" y="668.8198">traiteMove(Move,boolean) : boolean # false</text><line style="stroke: #A80036; stroke-width: 1.0; stroke-dasharray: 1.0,2.0;" x1="15" x2="128" y1="652.207" y2="652.207"/><text fill="#000000" font-family="sans-serif" font-size="11" lengthAdjust="spacingAndGlyphs" textLength="45" x="128" y="655.5151">Modifier</text><line style="stroke: #A80036; stroke-width: 1.0; stroke-dasharray: 1.0,2.0;" x1="173" x2="286" y1="652.207" y2="652.207"/><ellipse cx="25" cy="695.2188" fill="#84BE84" rx="3" ry="3" style="stroke: #038048; stroke-width: 1.0;"/><text fill="#000000" font-family="sans-serif" font-size="11" lengthAdjust="spacingAndGlyphs" textLength="140" x="34" y="698.4292">isCorrect(void) : boolean</text><ellipse cx="25" cy="708.0234" fill="#84BE84" rx="3" ry="3" style="stroke: #038048; stroke-width: 1.0;"/><text fill="#000000" font-family="sans-serif" font-size="11" lengthAdjust="spacingAndGlyphs" textLength="140" x="34" y="711.2339">badValue(void) : boolean</text><line style="stroke: #A80036; stroke-width: 1.0; stroke-dasharray: 1.0,2.0;" x1="15" x2="127.5" y1="681.8164" y2="681.8164"/><text fill="#000000" font-family="sans-serif" font-size="11" lengthAdjust="spacingAndGlyphs" textLength="46" x="127.5" y="685.1245">Checker</text><line style="stroke: #A80036; stroke-width: 1.0; stroke-dasharray: 1.0,2.0;" x1="173.5" x2="286" y1="681.8164" y2="681.8164"/><ellipse cx="25" cy="737.6328" fill="#84BE84" rx="3" ry="3" style="stroke: #038048; stroke-width: 1.0;"/><text fill="#000000" font-family="sans-serif" font-size="11" lengthAdjust="spacingAndGlyphs" textLength="134" x="34" y="740.8433">@toString(void) : String</text><ellipse cx="25" cy="750.4375" fill="#84BE84" rx="3" ry="3" style="stroke: #038048; stroke-width: 1.0;"/><text fill="#000000" font-family="sans-serif" font-size="11" lengthAdjust="spacingAndGlyphs" textLength="136" x="34" y="753.6479">@serialize(void) : String</text><line style="stroke: #A80036; stroke-width: 1.0; stroke-dasharray: 1.0,2.0;" x1="15" x2="129" y1="724.2305" y2="724.2305"/><text fill="#000000" font-family="sans-serif" font-size="11" lengthAdjust="spacingAndGlyphs" textLength="43" x="129" y="727.5386">Afficher</text><line style="stroke: #A80036; stroke-width: 1.0; stroke-dasharray: 1.0,2.0;" x1="172" x2="286" y1="724.2305" y2="724.2305"/><path d="M330,575.4531 L330,630.8516 L541,630.8516 L541,585.4531 L531,575.4531 L330,575.4531 " fill="#FBFB77" filter="url(#f1hc3stvkoqlvj)" style="stroke: #A80036; stroke-width: 1.0;"/><path d="M531,575.4531 L531,585.4531 L541,585.4531 L531,575.4531 " fill="#FBFB77" style="stroke: #A80036; stroke-width: 1.0;"/><text fill="#000000" font-family="sans-serif" font-size="13" lengthAdjust="spacingAndGlyphs" textLength="179" x="336" y="592.52">Si il y à eu une modification,</text><text fill="#000000" font-family="sans-serif" font-size="13" lengthAdjust="spacingAndGlyphs" textLength="190" x="336" y="607.6528">créer un nouvelle objet 'Move'</text><text fill="#000000" font-family="sans-serif" font-size="13" lengthAdjust="spacingAndGlyphs" textLength="127" x="336" y="622.7856">afin de l'enregistrer.</text><!--MD5=[63bfe9915e95778fa37cde03beb0b815]
class BC--><rect fill="#FEFECE" filter="url(#f1hc3stvkoqlvj)" height="86.4141" id="BC" style="stroke: #A80036; stroke-width: 1.5;" width="162" x="576.5" y="559.9531"/><ellipse cx="625.75" cy="575.9531" fill="#ADD1B2" rx="11" ry="11" style="stroke: #A80036; stroke-width: 1.0;"/><path d="M628.7188,581.5938 Q628.1406,581.8906 627.5,582.0313 Q626.8594,582.1875 626.1563,582.1875 Q623.6563,582.1875 622.3281,580.5469 Q621.0156,578.8906 621.0156,575.7656 Q621.0156,572.6406 622.3281,570.9844 Q623.6563,569.3281 626.1563,569.3281 Q626.8594,569.3281 627.5,569.4844 Q628.1563,569.6406 628.7188,569.9375 L628.7188,572.6563 Q628.0938,572.0781 627.5,571.8125 Q626.9063,571.5313 626.2813,571.5313 Q624.9375,571.5313 624.25,572.6094 Q623.5625,573.6719 623.5625,575.7656 Q623.5625,577.8594 624.25,578.9375 Q624.9375,580 626.2813,580 Q626.9063,580 627.5,579.7344 Q628.0938,579.4531 628.7188,578.875 L628.7188,581.5938 Z "/><text fill="#000000" font-family="sans-serif" font-size="12" lengthAdjust="spacingAndGlyphs" textLength="55" x="646.25" y="580.1074">BlackCell</text><line style="stroke: #A80036; stroke-width: 1.5;" x1="577.5" x2="737.5" y1="591.9531" y2="591.9531"/><line style="stroke: #A80036; stroke-width: 1.5;" x1="577.5" x2="737.5" y1="599.9531" y2="599.9531"/><ellipse cx="587.5" cy="610.9531" fill="#84BE84" rx="3" ry="3" style="stroke: #038048; stroke-width: 1.0;"/><text fill="#000000" font-family="sans-serif" font-size="11" lengthAdjust="spacingAndGlyphs" text-decoration="underline" textLength="122" x="596.5" y="614.1636">BlackCell() : BlackCell</text><ellipse cx="587.5" cy="623.7578" fill="#84BE84" rx="3" ry="3" style="stroke: #038048; stroke-width: 1.0;"/><text fill="#000000" font-family="sans-serif" font-size="11" lengthAdjust="spacingAndGlyphs" textLength="136" x="596.5" y="626.9683">@serialize(void) : String</text><ellipse cx="587.5" cy="636.5625" fill="#84BE84" rx="3" ry="3" style="stroke: #038048; stroke-width: 1.0;"/><text fill="#000000" font-family="sans-serif" font-size="11" lengthAdjust="spacingAndGlyphs" textLength="134" x="596.5" y="639.7729">@toString(void) : String</text><!--MD5=[cd70c01538d5344d48b90b77869f8dc4]
class RC--><rect fill="#FEFECE" filter="url(#f1hc3stvkoqlvj)" height="188.0469" id="RC" style="stroke: #A80036; stroke-width: 1.5;" width="190" x="773.5" y="508.9531"/><ellipse cx="833.75" cy="524.9531" fill="#ADD1B2" rx="11" ry="11" style="stroke: #A80036; stroke-width: 1.0;"/><path d="M836.7188,530.5938 Q836.1406,530.8906 835.5,531.0313 Q834.8594,531.1875 834.1563,531.1875 Q831.6563,531.1875 830.3281,529.5469 Q829.0156,527.8906 829.0156,524.7656 Q829.0156,521.6406 830.3281,519.9844 Q831.6563,518.3281 834.1563,518.3281 Q834.8594,518.3281 835.5,518.4844 Q836.1563,518.6406 836.7188,518.9375 L836.7188,521.6563 Q836.0938,521.0781 835.5,520.8125 Q834.9063,520.5313 834.2813,520.5313 Q832.9375,520.5313 832.25,521.6094 Q831.5625,522.6719 831.5625,524.7656 Q831.5625,526.8594 832.25,527.9375 Q832.9375,529 834.2813,529 Q834.9063,529 835.5,528.7344 Q836.0938,528.4531 836.7188,527.875 L836.7188,530.5938 Z "/><text fill="#000000" font-family="sans-serif" font-size="12" lengthAdjust="spacingAndGlyphs" textLength="61" x="854.25" y="529.1074">ResultCell</text><line style="stroke: #A80036; stroke-width: 1.5;" x1="774.5" x2="962.5" y1="540.9531" y2="540.9531"/><rect fill="none" height="6" style="stroke: #C82930; stroke-width: 1.0;" width="6" x="781.5" y="548.9531"/><text fill="#000000" font-family="sans-serif" font-size="11" lengthAdjust="spacingAndGlyphs" textLength="46" x="793.5" y="555.1636">line : int</text><rect fill="none" height="6" style="stroke: #C82930; stroke-width: 1.0;" width="6" x="781.5" y="561.7578"/><text fill="#000000" font-family="sans-serif" font-size="11" lengthAdjust="spacingAndGlyphs" textLength="67" x="793.5" y="567.9683">column : int</text><line style="stroke: #A80036; stroke-width: 1.0;" x1="774.5" x2="962.5" y1="574.5625" y2="574.5625"/><line style="stroke: #A80036; stroke-width: 1.0;" x1="774.5" x2="962.5" y1="576.5625" y2="576.5625"/><ellipse cx="784.5" cy="602.3672" fill="#84BE84" rx="3" ry="3" style="stroke: #038048; stroke-width: 1.0;"/><text fill="#000000" font-family="sans-serif" font-size="11" lengthAdjust="spacingAndGlyphs" text-decoration="underline" textLength="164" x="793.5" y="605.5776">ResultCell(int,int) : ResultCell</text><line style="stroke: #A80036; stroke-width: 1.0; stroke-dasharray: 1.0,2.0;" x1="774.5" x2="831.5" y1="588.9648" y2="588.9648"/><text fill="#000000" font-family="sans-serif" font-size="11" lengthAdjust="spacingAndGlyphs" textLength="74" x="831.5" y="592.2729">Constructeur</text><line style="stroke: #A80036; stroke-width: 1.0; stroke-dasharray: 1.0,2.0;" x1="905.5" x2="962.5" y1="588.9648" y2="588.9648"/><ellipse cx="784.5" cy="631.9766" fill="#84BE84" rx="3" ry="3" style="stroke: #038048; stroke-width: 1.0;"/><text fill="#000000" font-family="sans-serif" font-size="11" lengthAdjust="spacingAndGlyphs" textLength="98" x="793.5" y="635.187">getLine(void) : int</text><ellipse cx="784.5" cy="644.7813" fill="#84BE84" rx="3" ry="3" style="stroke: #038048; stroke-width: 1.0;"/><text fill="#000000" font-family="sans-serif" font-size="11" lengthAdjust="spacingAndGlyphs" textLength="118" x="793.5" y="647.9917">getColumn(void) : int</text><line style="stroke: #A80036; stroke-width: 1.0; stroke-dasharray: 1.0,2.0;" x1="774.5" x2="839" y1="618.5742" y2="618.5742"/><text fill="#000000" font-family="sans-serif" font-size="11" lengthAdjust="spacingAndGlyphs" textLength="59" x="839" y="621.8823">Accesseur</text><line style="stroke: #A80036; stroke-width: 1.0; stroke-dasharray: 1.0,2.0;" x1="898" x2="962.5" y1="618.5742" y2="618.5742"/><ellipse cx="784.5" cy="674.3906" fill="#84BE84" rx="3" ry="3" style="stroke: #038048; stroke-width: 1.0;"/><text fill="#000000" font-family="sans-serif" font-size="11" lengthAdjust="spacingAndGlyphs" textLength="134" x="793.5" y="677.6011">@toString(void) : String</text><ellipse cx="784.5" cy="687.1953" fill="#84BE84" rx="3" ry="3" style="stroke: #038048; stroke-width: 1.0;"/><text fill="#000000" font-family="sans-serif" font-size="11" lengthAdjust="spacingAndGlyphs" textLength="136" x="793.5" y="690.4058">@serialize(void) : String</text><line style="stroke: #A80036; stroke-width: 1.0; stroke-dasharray: 1.0,2.0;" x1="774.5" x2="842.5" y1="660.9883" y2="660.9883"/><text fill="#000000" font-family="sans-serif" font-size="11" lengthAdjust="spacingAndGlyphs" textLength="52" x="842.5" y="664.2964">Affichage</text><line style="stroke: #A80036; stroke-width: 1.0; stroke-dasharray: 1.0,2.0;" x1="894.5" x2="962.5" y1="660.9883" y2="660.9883"/><!--MD5=[5af8fc529a01250b6751c9e4fd865732]
reverse link I to A--><path d="M1045.85,230.9531 C1087.07,230.9531 1130.15,230.9531 1170.91,230.9531 " fill="none" id="I&lt;-A" style="stroke: #A80036; stroke-width: 1.0; stroke-dasharray: 7.0,7.0;"/><polygon fill="none" points="1045.78,237.9531,1025.78,230.9531,1045.78,223.9531,1045.78,237.9531" style="stroke: #A80036; stroke-width: 1.0;"/><path d="M1047.75,193.9531 L1047.75,218.9531 L1144.75,218.9531 L1144.75,203.9531 L1134.75,193.9531 L1047.75,193.9531 " fill="#FBFB77" filter="url(#f1hc3stvkoqlvj)" style="stroke: #A80036; stroke-width: 1.0;"/><path d="M1134.75,193.9531 L1134.75,203.9531 L1144.75,203.9531 L1134.75,193.9531 " fill="#FBFB77" style="stroke: #A80036; stroke-width: 1.0;"/><text fill="#000000" font-family="sans-serif" font-size="13" lengthAdjust="spacingAndGlyphs" textLength="76" x="1053.75" y="211.02">implements</text><!--MD5=[259c92c73d8724ac5e32c440a6b5727d]
link I to A--><!--MD5=[518367c1e7fbaa215fad71504a99bd4f]
reverse link A to C--><path d="M1586.09,230.9531 C1619.41,230.9531 1653.59,230.9531 1686.3,230.9531 " fill="none" id="A&lt;-C" style="stroke: #A80036; stroke-width: 1.0;"/><polygon fill="none" points="1586.04,237.9531,1566.04,230.9531,1586.04,223.9531,1586.04,237.9531" style="stroke: #A80036; stroke-width: 1.0;"/><path d="M1588.25,193.9531 L1588.25,218.9531 L1660.25,218.9531 L1660.25,203.9531 L1650.25,193.9531 L1588.25,193.9531 " fill="#FBFB77" filter="url(#f1hc3stvkoqlvj)" style="stroke: #A80036; stroke-width: 1.0;"/><path d="M1650.25,193.9531 L1650.25,203.9531 L1660.25,203.9531 L1650.25,193.9531 " fill="#FBFB77" style="stroke: #A80036; stroke-width: 1.0;"/><text fill="#000000" font-family="sans-serif" font-size="13" lengthAdjust="spacingAndGlyphs" textLength="51" x="1594.25" y="211.02">extends</text><!--MD5=[e1650921a81fac0037ec207a42ac4e7e]
link A to C--><!--MD5=[e17713f0db85abcdc9d553941dbc5c97]
reverse link IC to WC--><path d="M490.3,281.5831 C442.83,324.4731 372.69,388.3031 312.5,444.9531 C306.8,450.3231 300.99,455.8131 295.15,461.3631 " fill="none" id="IC&lt;-WC" style="stroke: #A80036; stroke-width: 1.0; stroke-dasharray: 7.0,7.0;"/><polygon fill="none" points="485.64,276.3631,505.18,268.1631,495.02,286.7531,485.64,276.3631" style="stroke: #A80036; stroke-width: 1.0;"/><!--MD5=[c97ee12d2ae16bada49e90e66fbb8a99]
link WC to Nset--><path d="M288.5,608.9531 C301.82,612.4431 315.81,614.9631 329.65,616.6131 " fill="none" id="WC-Nset" style="stroke: #FFFF00; stroke-width: 1.0; stroke-dasharray: 7.0,7.0;"/><!--MD5=[4bcb03ac8f58ebc77d0c5cac058bfb45]
link Nset to WC--><path d="M329.76,629.7431 C315.97,631.7131 301.96,632.9531 288.5,632.9531 " fill="none" id="Nset-WC" style="stroke: #FFFF00; stroke-width: 1.0; stroke-dasharray: 7.0,7.0;"/><!--MD5=[c97ee12d2ae16bada49e90e66fbb8a99]
link WC to Nset--><!--MD5=[56c0d0b84d835021c2b29f53176a7791]
link IC to Nset--><!--MD5=[67631b5b0c543d2eb0b54888db4e1da8]
reverse link IC to BC--><path d="M562.33,287.5331 C584.89,362.0631 624.44,492.7431 644.72,559.7331 " fill="none" id="IC&lt;-BC" style="stroke: #A80036; stroke-width: 1.0; stroke-dasharray: 7.0,7.0;"/><polygon fill="none" points="555.54,289.2731,556.44,268.1031,568.94,285.2231,555.54,289.2731" style="stroke: #A80036; stroke-width: 1.0;"/><!--MD5=[f2418eb5ec1028c027874c1860597630]
reverse link IC to RC--><path d="M558.88,287.7031 C570.81,326.0331 592.03,375.3431 627.5,405.9531 C672.85,445.0831 707.83,410.0331 756.5,444.9531 C780.03,461.8331 800.45,485.2331 817.17,508.8231 " fill="none" id="IC&lt;-RC" style="stroke: #A80036; stroke-width: 1.0; stroke-dasharray: 7.0,7.0;"/><polygon fill="none" points="552.09,289.4331,553.31,268.2731,565.55,285.5731,552.09,289.4331" style="stroke: #A80036; stroke-width: 1.0;"/><!--MD5=[89463decfb8e21fa4d2ce3fd539e34d7]
link WC to BC--><!--MD5=[9785b835ba778ca654191cbf3fa5cd09]
link BC to RC--><text fill="#888888" font-family="sans-serif" font-size="10" lengthAdjust="spacingAndGlyphs" textLength="236" x="942.5" y="780.2354">Toutes les classes représentant une cellule du jeu</text><!--MD5=[669d4bebee97ea3ba9dc4acbb180a588]
@startuml classes_cell

title diagramme des classes de cellules

package "Legend" #lightblue {
	interface "Interface" AS I {
		.. "Seul type d'attribut authorisé" ..
		{field} {static} + CONST_PUBLIC : <color green>final</color> type
		==
		.. "Methodes de l'interface" ..
		{method} + methodePublic(typeParams) : typeRetour # retourDefault
		.. "Methodes static de l'interface" ..
		{method} {static} + methodePublicStatic(typeParams) : typeRetour # retourDefault
	}
	abstract class "abstractClasse" AS A {
		.. Constante ..
		{field} {static} - CONST_PRIVEE : type
		.. Attributs ..
		{field} - attributPrivee : type
		{field} # attributProtege : type
		{field} ~ attributPackage : type
		{field} + attributPublic : type
		==
		.. Methodes ..
		{method} - methodePrive2(typeParams) : typeRetour # retourDefault
		{method} # methodeProtege(typeParams) : typeRetour # retourDefault
		{method} ~ methodePackage(typeParams) : typeRetour # retourDefault
		{method} + methodePublic(typeParams) : typeRetour # retourDefault
		.. Methodes Override ..
		{method} - @methodePrive(typeParams) : typeRetour # retourDefault
		.. Methodes abstraites ..
		{method} {abstract} - methodePriveAbstract(typeParams) : typeRetour # retourDefault
		.. Methodes statiques ..
		{method} {static} - methodePriveStatic(typeParams) : typeRetour # retourDefault
	}
	abstract class A implements I
	note on link : implements
	class "Classe" AS C {
		.. Constante ..
		{field} {static} - CONST_PRIVEE : type
		.. Attributs ..
		{field} - attributPrivee : type
		{field} # attributProtege : type
		{field} ~ attributPackage : type
		{field} + attributPublic : type
		==
		.. Methodes ..
		{method} - methodePrive3(typeParams) : typeRetour # retourDefault
		{method} # methodeProtege2(typeParams) : typeRetour # retourDefault
		{method} ~ methodePackage2(typeParams) : typeRetour # retourDefault
		{method} + methodePublic2(typeParams) : typeRetour # retourDefault
		.. Methodes Override ..
		{method} - @methodePrive2(typeParams) : typeRetour # retourDefault
		.. Methodes statiques ..
		{method} {static} - methodePriveStatic2(typeParams) : typeRetour # retourDefault
	}
	class C extends A
	note on link : extends

	I -[hidden]right- A
	A -[hidden]right- C
}

interface "Cell" AS IC {
	{method} {abstract} + serialize() : String
	{method} {abstract} + toString() : String
}

class "WhiteCell" AS WC implements IC {
	{field} - correctValue : int
	{field} - value : int # Kakuro.NULL_VALUE
	{field} - notes : Set<Integer>
	==
	.. Constructeur ..
	{method} {static} + WhiteCell(int) : WhiteCell
	.. Accesseurs ..
	{method} + getCorrectValue(void) : int
	{method} + getValue(void) : int
	{method} + setValue(int) : Move # null
	{method} + getNotes(void) : Set<Integer>
	{method} + setNotes(Set<Integer>) : Move # null
	.. Modifier ..
	{method} + traiteMove(Move,boolean) : boolean # false
	.. Checker ..
	{method} + isCorrect(void) : boolean
	{method} + badValue(void) : boolean
	.. Afficher ..
	{method} + @toString(void) : String
	{method} + @serialize(void) : String
}
note AS Nset
	Si il y à eu une modification,
	créer un nouvelle objet 'Move'
	afin de l'enregistrer.
end note
WC::setValue .. Nset #yellow
Nset .. WC::setNotes #yellow
Nset -[hidden]l- WC
Nset -[hidden]l- IC

class "BlackCell" AS BC implements IC {
	{method} {static} + BlackCell() : BlackCell
	{method} + @serialize(void) : String
	{method} + @toString(void) : String
}

class "ResultCell" AS RC implements IC {
	{field} - line : int
	{field} - column : int
	==
	.. Constructeur ..
	{method} {static} + ResultCell(int,int) : ResultCell
	.. Accesseur ..
	{method} + getLine(void) : int
	{method} + getColumn(void) : int
	.. Affichage ..
	{method} + @toString(void) : String
	{method} + @serialize(void) : String
}

WC -[hidden]r- BC
BC -[hidden]r- RC

center footer Toutes les classes représentant une cellule du jeu
@enduml

PlantUML version 1.2020.02(Sun Mar 01 11:22:07 CET 2020)
(GPL source distribution)
Java Runtime: OpenJDK Runtime Environment
JVM: OpenJDK 64-Bit Server VM
Java Version: 17.0.9+9-Ubuntu-122.04
Operating System: Linux
Default Encoding: UTF-8
Language: en
Country: GB
--></g></svg>