<?xml version="1.0" encoding="UTF-8" standalone="no"?><svg xmlns="http://www.w3.org/2000/svg" xmlns:xlink="http://www.w3.org/1999/xlink" contentScriptType="application/ecmascript" contentStyleType="text/css" height="1054px" preserveAspectRatio="none" style="width:2231px;height:1054px;" version="1.1" viewBox="0 0 2231 1054" width="2231px" zoomAndPan="magnify"><defs><filter height="300%" id="f111godmchem2y" width="300%" x="-1" y="-1"><feGaussianBlur result="blurOut" stdDeviation="2.0"/><feColorMatrix in="blurOut" result="blurOut2" type="matrix" values="0 0 0 0 0 0 0 0 0 0 0 0 0 0 0 0 0 0 .4 0"/><feOffset dx="4.0" dy="4.0" in="blurOut2" result="blurOut3"/><feBlend in="SourceGraphic" in2="blurOut3" mode="normal"/></filter></defs><g><text fill="#000000" font-family="sans-serif" font-size="18" lengthAdjust="spacingAndGlyphs" textLength="354" x="944.5" y="16.708">diagramme de classes de la grille du jeu</text><!--MD5=[f7217341b3bb6bbf768c7f0e049f8d09]
cluster Legend--><polygon fill="#ADD8E6" filter="url(#f111godmchem2y)" points="22,44.9531,87,44.9531,94,67.25,1481,67.25,1481,397.9531,22,397.9531,22,44.9531" style="stroke: #000000; stroke-width: 1.5;"/><line style="stroke: #000000; stroke-width: 1.5;" x1="22" x2="94" y1="67.25" y2="67.25"/><text fill="#000000" font-family="sans-serif" font-size="14" font-weight="bold" lengthAdjust="spacingAndGlyphs" textLength="59" x="26" y="59.9482">Legend</text><!--MD5=[8c40d9dd5d31fe877751a06228577dc5]
cluster Grid--><polygon fill="#D3D3D3" filter="url(#f111godmchem2y)" points="1505,190.9531,1544,190.9531,1551,213.25,2209,213.25,2209,1005.9531,1505,1005.9531,1505,190.9531" style="stroke: #000000; stroke-width: 1.5;"/><line style="stroke: #000000; stroke-width: 1.5;" x1="1505" x2="1551" y1="213.25" y2="213.25"/><text fill="#000000" font-family="sans-serif" font-size="14" font-weight="bold" lengthAdjust="spacingAndGlyphs" textLength="33" x="1509" y="205.9482">Grid</text><!--MD5=[cf39a86b148c3d2a53e894bf08c046dd]
class I--><rect fill="#FEFECE" filter="url(#f111godmchem2y)" height="136.8281" id="I" style="stroke: #A80036; stroke-width: 1.5;" width="382" x="38" y="162.4531"/><ellipse cx="196.25" cy="178.4531" fill="#B4A7E5" rx="11" ry="11" style="stroke: #A80036; stroke-width: 1.0;"/><path d="M192.1719,174.2188 L192.1719,172.0625 L199.5625,172.0625 L199.5625,174.2188 L197.0938,174.2188 L197.0938,182.2969 L199.5625,182.2969 L199.5625,184.4531 L192.1719,184.4531 L192.1719,182.2969 L194.6406,182.2969 L194.6406,174.2188 L192.1719,174.2188 Z "/><text fill="#000000" font-family="sans-serif" font-size="12" font-style="italic" lengthAdjust="spacingAndGlyphs" textLength="57" x="216.75" y="182.6074">Interface</text><line style="stroke: #A80036; stroke-width: 1.5;" x1="39" x2="419" y1="194.4531" y2="194.4531"/><ellipse cx="49" cy="222.2578" fill="none" rx="3" ry="3" style="stroke: #038048; stroke-width: 1.0;"/><text fill="#000000" font-family="sans-serif" font-size="11" lengthAdjust="spacingAndGlyphs" text-decoration="underline" textLength="94" x="58" y="225.4683">CONST_PUBLIC :</text><text fill="#008000" font-family="sans-serif" font-size="11" lengthAdjust="spacingAndGlyphs" text-decoration="underline" textLength="24" x="156" y="225.4683">final</text><text fill="#000000" font-family="sans-serif" font-size="11" lengthAdjust="spacingAndGlyphs" text-decoration="underline" textLength="24" x="184" y="225.4683">type</text><line style="stroke: #A80036; stroke-width: 1.0; stroke-dasharray: 1.0,2.0;" x1="39" x2="141" y1="208.8555" y2="208.8555"/><text fill="#000000" font-family="sans-serif" font-size="11" lengthAdjust="spacingAndGlyphs" textLength="176" x="141" y="212.1636">"Seul type d'attribut authorisé"</text><line style="stroke: #A80036; stroke-width: 1.0; stroke-dasharray: 1.0,2.0;" x1="317" x2="419" y1="208.8555" y2="208.8555"/><line style="stroke: #A80036; stroke-width: 1.0;" x1="39" x2="419" y1="232.0625" y2="232.0625"/><line style="stroke: #A80036; stroke-width: 1.0;" x1="39" x2="419" y1="234.0625" y2="234.0625"/><ellipse cx="49" cy="259.8672" fill="#84BE84" rx="3" ry="3" style="stroke: #038048; stroke-width: 1.0;"/><text fill="#000000" font-family="sans-serif" font-size="11" lengthAdjust="spacingAndGlyphs" textLength="324" x="58" y="263.0776">methodePublic(typeParams) : typeRetour # retourDefault</text><line style="stroke: #A80036; stroke-width: 1.0; stroke-dasharray: 1.0,2.0;" x1="39" x2="157.5" y1="246.4648" y2="246.4648"/><text fill="#000000" font-family="sans-serif" font-size="11" lengthAdjust="spacingAndGlyphs" textLength="143" x="157.5" y="249.7729">"Methodes de l'interface"</text><line style="stroke: #A80036; stroke-width: 1.0; stroke-dasharray: 1.0,2.0;" x1="300.5" x2="419" y1="246.4648" y2="246.4648"/><ellipse cx="49" cy="289.4766" fill="#84BE84" rx="3" ry="3" style="stroke: #038048; stroke-width: 1.0;"/><text fill="#000000" font-family="sans-serif" font-size="11" lengthAdjust="spacingAndGlyphs" text-decoration="underline" textLength="356" x="58" y="292.687">methodePublicStatic(typeParams) : typeRetour # retourDefault</text><line style="stroke: #A80036; stroke-width: 1.0; stroke-dasharray: 1.0,2.0;" x1="39" x2="140" y1="276.0742" y2="276.0742"/><text fill="#000000" font-family="sans-serif" font-size="11" lengthAdjust="spacingAndGlyphs" textLength="178" x="140" y="279.3823">"Methodes static de l'interface"</text><line style="stroke: #A80036; stroke-width: 1.0; stroke-dasharray: 1.0,2.0;" x1="318" x2="419" y1="276.0742" y2="276.0742"/><!--MD5=[a46ee5ce0ceb0380cf446a08a056dce4]
class A--><rect fill="#FEFECE" filter="url(#f111godmchem2y)" height="302.4844" id="A" style="stroke: #A80036; stroke-width: 1.5;" width="395" x="565.5" y="79.9531"/><ellipse cx="713.25" cy="95.9531" fill="#A9DCDF" rx="11" ry="11" style="stroke: #A80036; stroke-width: 1.0;"/><path d="M713.3594,91.2969 L712.2031,96.375 L714.5313,96.375 L713.3594,91.2969 Z M711.875,89.0625 L714.8594,89.0625 L718.2188,101.4531 L715.7656,101.4531 L715,98.3906 L711.7188,98.3906 L710.9688,101.4531 L708.5313,101.4531 L711.875,89.0625 Z "/><text fill="#000000" font-family="sans-serif" font-size="12" font-style="italic" lengthAdjust="spacingAndGlyphs" textLength="91" x="733.75" y="100.1074">abstractClasse</text><line style="stroke: #A80036; stroke-width: 1.5;" x1="566.5" x2="959.5" y1="111.9531" y2="111.9531"/><rect fill="none" height="6" style="stroke: #C82930; stroke-width: 1.0;" width="6" x="573.5" y="136.7578"/><text fill="#000000" font-family="sans-serif" font-size="11" lengthAdjust="spacingAndGlyphs" text-decoration="underline" textLength="120" x="585.5" y="142.9683">CONST_PRIVEE : type</text><line style="stroke: #A80036; stroke-width: 1.0; stroke-dasharray: 1.0,2.0;" x1="566.5" x2="734" y1="126.3555" y2="126.3555"/><text fill="#000000" font-family="sans-serif" font-size="11" lengthAdjust="spacingAndGlyphs" textLength="58" x="734" y="129.6636">Constante</text><line style="stroke: #A80036; stroke-width: 1.0; stroke-dasharray: 1.0,2.0;" x1="792" x2="959.5" y1="126.3555" y2="126.3555"/><rect fill="none" height="6" style="stroke: #C82930; stroke-width: 1.0;" width="6" x="573.5" y="166.3672"/><text fill="#000000" font-family="sans-serif" font-size="11" lengthAdjust="spacingAndGlyphs" textLength="112" x="585.5" y="172.5776">attributPrivee : type</text><polygon fill="none" points="576.5,177.1719,580.5,181.1719,576.5,185.1719,572.5,181.1719" style="stroke: #B38D22; stroke-width: 1.0;"/><text fill="#000000" font-family="sans-serif" font-size="11" lengthAdjust="spacingAndGlyphs" textLength="121" x="585.5" y="185.3823">attributProtege : type</text><polygon fill="none" points="576.5,190.9766,572.5,196.9766,580.5,196.9766" style="stroke: #1963A0; stroke-width: 1.0;"/><text fill="#000000" font-family="sans-serif" font-size="11" lengthAdjust="spacingAndGlyphs" textLength="124" x="585.5" y="198.187">attributPackage : type</text><ellipse cx="576.5" cy="207.7813" fill="none" rx="3" ry="3" style="stroke: #038048; stroke-width: 1.0;"/><text fill="#000000" font-family="sans-serif" font-size="11" lengthAdjust="spacingAndGlyphs" textLength="110" x="585.5" y="210.9917">attributPublic : type</text><line style="stroke: #A80036; stroke-width: 1.0; stroke-dasharray: 1.0,2.0;" x1="566.5" x2="739" y1="155.9648" y2="155.9648"/><text fill="#000000" font-family="sans-serif" font-size="11" lengthAdjust="spacingAndGlyphs" textLength="48" x="739" y="159.2729">Attributs</text><line style="stroke: #A80036; stroke-width: 1.0; stroke-dasharray: 1.0,2.0;" x1="787" x2="959.5" y1="155.9648" y2="155.9648"/><line style="stroke: #A80036; stroke-width: 1.0;" x1="566.5" x2="959.5" y1="217.5859" y2="217.5859"/><line style="stroke: #A80036; stroke-width: 1.0;" x1="566.5" x2="959.5" y1="219.5859" y2="219.5859"/><rect fill="#F24D5C" height="6" style="stroke: #C82930; stroke-width: 1.0;" width="6" x="573.5" y="242.3906"/><text fill="#000000" font-family="sans-serif" font-size="11" lengthAdjust="spacingAndGlyphs" textLength="326" x="585.5" y="248.6011">methodePrive2(typeParams) : typeRetour # retourDefault</text><polygon fill="#FFFF44" points="576.5,253.1953,580.5,257.1953,576.5,261.1953,572.5,257.1953" style="stroke: #B38D22; stroke-width: 1.0;"/><text fill="#000000" font-family="sans-serif" font-size="11" lengthAdjust="spacingAndGlyphs" textLength="335" x="585.5" y="261.4058">methodeProtege(typeParams) : typeRetour # retourDefault</text><polygon fill="#4177AF" points="576.5,267,572.5,273,580.5,273" style="stroke: #1963A0; stroke-width: 1.0;"/><text fill="#000000" font-family="sans-serif" font-size="11" lengthAdjust="spacingAndGlyphs" textLength="338" x="585.5" y="274.2104">methodePackage(typeParams) : typeRetour # retourDefault</text><ellipse cx="576.5" cy="283.8047" fill="#84BE84" rx="3" ry="3" style="stroke: #038048; stroke-width: 1.0;"/><text fill="#000000" font-family="sans-serif" font-size="11" lengthAdjust="spacingAndGlyphs" textLength="324" x="585.5" y="287.0151">methodePublic(typeParams) : typeRetour # retourDefault</text><line style="stroke: #A80036; stroke-width: 1.0; stroke-dasharray: 1.0,2.0;" x1="566.5" x2="735.5" y1="231.9883" y2="231.9883"/><text fill="#000000" font-family="sans-serif" font-size="11" lengthAdjust="spacingAndGlyphs" textLength="55" x="735.5" y="235.2964">Methodes</text><line style="stroke: #A80036; stroke-width: 1.0; stroke-dasharray: 1.0,2.0;" x1="790.5" x2="959.5" y1="231.9883" y2="231.9883"/><rect fill="#F24D5C" height="6" style="stroke: #C82930; stroke-width: 1.0;" width="6" x="573.5" y="310.4141"/><text fill="#000000" font-family="sans-serif" font-size="11" lengthAdjust="spacingAndGlyphs" textLength="331" x="585.5" y="316.6245">@methodePrive(typeParams) : typeRetour # retourDefault</text><line style="stroke: #A80036; stroke-width: 1.0; stroke-dasharray: 1.0,2.0;" x1="566.5" x2="709" y1="300.0117" y2="300.0117"/><text fill="#000000" font-family="sans-serif" font-size="11" lengthAdjust="spacingAndGlyphs" textLength="108" x="709" y="303.3198">Methodes Override</text><line style="stroke: #A80036; stroke-width: 1.0; stroke-dasharray: 1.0,2.0;" x1="817" x2="959.5" y1="300.0117" y2="300.0117"/><rect fill="#F24D5C" height="6" style="stroke: #C82930; stroke-width: 1.0;" width="6" x="573.5" y="340.0234"/><text fill="#000000" font-family="sans-serif" font-size="11" font-style="italic" lengthAdjust="spacingAndGlyphs" textLength="369" x="585.5" y="346.2339">methodePriveAbstract(typeParams) : typeRetour # retourDefault</text><line style="stroke: #A80036; stroke-width: 1.0; stroke-dasharray: 1.0,2.0;" x1="566.5" x2="704.5" y1="329.6211" y2="329.6211"/><text fill="#000000" font-family="sans-serif" font-size="11" lengthAdjust="spacingAndGlyphs" textLength="117" x="704.5" y="332.9292">Methodes abstraites</text><line style="stroke: #A80036; stroke-width: 1.0; stroke-dasharray: 1.0,2.0;" x1="821.5" x2="959.5" y1="329.6211" y2="329.6211"/><rect fill="#F24D5C" height="6" style="stroke: #C82930; stroke-width: 1.0;" width="6" x="573.5" y="369.6328"/><text fill="#000000" font-family="sans-serif" font-size="11" lengthAdjust="spacingAndGlyphs" text-decoration="underline" textLength="351" x="585.5" y="375.8433">methodePriveStatic(typeParams) : typeRetour # retourDefault</text><line style="stroke: #A80036; stroke-width: 1.0; stroke-dasharray: 1.0,2.0;" x1="566.5" x2="707" y1="359.2305" y2="359.2305"/><text fill="#000000" font-family="sans-serif" font-size="11" lengthAdjust="spacingAndGlyphs" textLength="112" x="707" y="362.5386">Methodes statiques</text><line style="stroke: #A80036; stroke-width: 1.0; stroke-dasharray: 1.0,2.0;" x1="819" x2="959.5" y1="359.2305" y2="359.2305"/><!--MD5=[378b18254a1b2429f435e93f5e5cc50c]
class C--><rect fill="#FEFECE" filter="url(#f111godmchem2y)" height="272.875" id="C" style="stroke: #A80036; stroke-width: 1.5;" width="384" x="1081" y="94.4531"/><ellipse cx="1248.25" cy="110.4531" fill="#ADD1B2" rx="11" ry="11" style="stroke: #A80036; stroke-width: 1.0;"/><path d="M1251.2188,116.0938 Q1250.6406,116.3906 1250,116.5313 Q1249.3594,116.6875 1248.6563,116.6875 Q1246.1563,116.6875 1244.8281,115.0469 Q1243.5156,113.3906 1243.5156,110.2656 Q1243.5156,107.1406 1244.8281,105.4844 Q1246.1563,103.8281 1248.6563,103.8281 Q1249.3594,103.8281 1250,103.9844 Q1250.6563,104.1406 1251.2188,104.4375 L1251.2188,107.1563 Q1250.5938,106.5781 1250,106.3125 Q1249.4063,106.0313 1248.7813,106.0313 Q1247.4375,106.0313 1246.75,107.1094 Q1246.0625,108.1719 1246.0625,110.2656 Q1246.0625,112.3594 1246.75,113.4375 Q1247.4375,114.5 1248.7813,114.5 Q1249.4063,114.5 1250,114.2344 Q1250.5938,113.9531 1251.2188,113.375 L1251.2188,116.0938 Z "/><text fill="#000000" font-family="sans-serif" font-size="12" lengthAdjust="spacingAndGlyphs" textLength="41" x="1268.75" y="114.6074">Classe</text><line style="stroke: #A80036; stroke-width: 1.5;" x1="1082" x2="1464" y1="126.4531" y2="126.4531"/><rect fill="none" height="6" style="stroke: #C82930; stroke-width: 1.0;" width="6" x="1089" y="151.2578"/><text fill="#000000" font-family="sans-serif" font-size="11" lengthAdjust="spacingAndGlyphs" text-decoration="underline" textLength="120" x="1101" y="157.4683">CONST_PRIVEE : type</text><line style="stroke: #A80036; stroke-width: 1.0; stroke-dasharray: 1.0,2.0;" x1="1082" x2="1244" y1="140.8555" y2="140.8555"/><text fill="#000000" font-family="sans-serif" font-size="11" lengthAdjust="spacingAndGlyphs" textLength="58" x="1244" y="144.1636">Constante</text><line style="stroke: #A80036; stroke-width: 1.0; stroke-dasharray: 1.0,2.0;" x1="1302" x2="1464" y1="140.8555" y2="140.8555"/><rect fill="none" height="6" style="stroke: #C82930; stroke-width: 1.0;" width="6" x="1089" y="180.8672"/><text fill="#000000" font-family="sans-serif" font-size="11" lengthAdjust="spacingAndGlyphs" textLength="112" x="1101" y="187.0776">attributPrivee : type</text><polygon fill="none" points="1092,191.6719,1096,195.6719,1092,199.6719,1088,195.6719" style="stroke: #B38D22; stroke-width: 1.0;"/><text fill="#000000" font-family="sans-serif" font-size="11" lengthAdjust="spacingAndGlyphs" textLength="121" x="1101" y="199.8823">attributProtege : type</text><polygon fill="none" points="1092,205.4766,1088,211.4766,1096,211.4766" style="stroke: #1963A0; stroke-width: 1.0;"/><text fill="#000000" font-family="sans-serif" font-size="11" lengthAdjust="spacingAndGlyphs" textLength="124" x="1101" y="212.687">attributPackage : type</text><ellipse cx="1092" cy="222.2813" fill="none" rx="3" ry="3" style="stroke: #038048; stroke-width: 1.0;"/><text fill="#000000" font-family="sans-serif" font-size="11" lengthAdjust="spacingAndGlyphs" textLength="110" x="1101" y="225.4917">attributPublic : type</text><line style="stroke: #A80036; stroke-width: 1.0; stroke-dasharray: 1.0,2.0;" x1="1082" x2="1249" y1="170.4648" y2="170.4648"/><text fill="#000000" font-family="sans-serif" font-size="11" lengthAdjust="spacingAndGlyphs" textLength="48" x="1249" y="173.7729">Attributs</text><line style="stroke: #A80036; stroke-width: 1.0; stroke-dasharray: 1.0,2.0;" x1="1297" x2="1464" y1="170.4648" y2="170.4648"/><line style="stroke: #A80036; stroke-width: 1.0;" x1="1082" x2="1464" y1="232.0859" y2="232.0859"/><line style="stroke: #A80036; stroke-width: 1.0;" x1="1082" x2="1464" y1="234.0859" y2="234.0859"/><rect fill="#F24D5C" height="6" style="stroke: #C82930; stroke-width: 1.0;" width="6" x="1089" y="256.8906"/><text fill="#000000" font-family="sans-serif" font-size="11" lengthAdjust="spacingAndGlyphs" textLength="326" x="1101" y="263.1011">methodePrive3(typeParams) : typeRetour # retourDefault</text><polygon fill="#FFFF44" points="1092,267.6953,1096,271.6953,1092,275.6953,1088,271.6953" style="stroke: #B38D22; stroke-width: 1.0;"/><text fill="#000000" font-family="sans-serif" font-size="11" lengthAdjust="spacingAndGlyphs" textLength="342" x="1101" y="275.9058">methodeProtege2(typeParams) : typeRetour # retourDefault</text><polygon fill="#4177AF" points="1092,281.5,1088,287.5,1096,287.5" style="stroke: #1963A0; stroke-width: 1.0;"/><text fill="#000000" font-family="sans-serif" font-size="11" lengthAdjust="spacingAndGlyphs" textLength="345" x="1101" y="288.7104">methodePackage2(typeParams) : typeRetour # retourDefault</text><ellipse cx="1092" cy="298.3047" fill="#84BE84" rx="3" ry="3" style="stroke: #038048; stroke-width: 1.0;"/><text fill="#000000" font-family="sans-serif" font-size="11" lengthAdjust="spacingAndGlyphs" textLength="331" x="1101" y="301.5151">methodePublic2(typeParams) : typeRetour # retourDefault</text><line style="stroke: #A80036; stroke-width: 1.0; stroke-dasharray: 1.0,2.0;" x1="1082" x2="1245.5" y1="246.4883" y2="246.4883"/><text fill="#000000" font-family="sans-serif" font-size="11" lengthAdjust="spacingAndGlyphs" textLength="55" x="1245.5" y="249.7964">Methodes</text><line style="stroke: #A80036; stroke-width: 1.0; stroke-dasharray: 1.0,2.0;" x1="1300.5" x2="1464" y1="246.4883" y2="246.4883"/><rect fill="#F24D5C" height="6" style="stroke: #C82930; stroke-width: 1.0;" width="6" x="1089" y="324.9141"/><text fill="#000000" font-family="sans-serif" font-size="11" lengthAdjust="spacingAndGlyphs" textLength="338" x="1101" y="331.1245">@methodePrive2(typeParams) : typeRetour # retourDefault</text><line style="stroke: #A80036; stroke-width: 1.0; stroke-dasharray: 1.0,2.0;" x1="1082" x2="1219" y1="314.5117" y2="314.5117"/><text fill="#000000" font-family="sans-serif" font-size="11" lengthAdjust="spacingAndGlyphs" textLength="108" x="1219" y="317.8198">Methodes Override</text><line style="stroke: #A80036; stroke-width: 1.0; stroke-dasharray: 1.0,2.0;" x1="1327" x2="1464" y1="314.5117" y2="314.5117"/><rect fill="#F24D5C" height="6" style="stroke: #C82930; stroke-width: 1.0;" width="6" x="1089" y="354.5234"/><text fill="#000000" font-family="sans-serif" font-size="11" lengthAdjust="spacingAndGlyphs" text-decoration="underline" textLength="358" x="1101" y="360.7339">methodePriveStatic2(typeParams) : typeRetour # retourDefault</text><line style="stroke: #A80036; stroke-width: 1.0; stroke-dasharray: 1.0,2.0;" x1="1082" x2="1217" y1="344.1211" y2="344.1211"/><text fill="#000000" font-family="sans-serif" font-size="11" lengthAdjust="spacingAndGlyphs" textLength="112" x="1217" y="347.4292">Methodes statiques</text><line style="stroke: #A80036; stroke-width: 1.0; stroke-dasharray: 1.0,2.0;" x1="1329" x2="1464" y1="344.1211" y2="344.1211"/><!--MD5=[f7d100365dfbb5d32a283a41bfff7f49]
class GridIt--><rect fill="#FEFECE" filter="url(#f111godmchem2y)" height="201.6563" id="GridIt" style="stroke: #A80036; stroke-width: 1.5;" width="366" x="1578" y="787.9531"/><ellipse cx="1706.25" cy="803.9531" fill="#ADD1B2" rx="11" ry="11" style="stroke: #A80036; stroke-width: 1.0;"/><path d="M1709.2188,809.5938 Q1708.6406,809.8906 1708,810.0313 Q1707.3594,810.1875 1706.6563,810.1875 Q1704.1563,810.1875 1702.8281,808.5469 Q1701.5156,806.8906 1701.5156,803.7656 Q1701.5156,800.6406 1702.8281,798.9844 Q1704.1563,797.3281 1706.6563,797.3281 Q1707.3594,797.3281 1708,797.4844 Q1708.6563,797.6406 1709.2188,797.9375 L1709.2188,800.6563 Q1708.5938,800.0781 1708,799.8125 Q1707.4063,799.5313 1706.7813,799.5313 Q1705.4375,799.5313 1704.75,800.6094 Q1704.0625,801.6719 1704.0625,803.7656 Q1704.0625,805.8594 1704.75,806.9375 Q1705.4375,808 1706.7813,808 Q1707.4063,808 1708,807.7344 Q1708.5938,807.4531 1709.2188,806.875 L1709.2188,809.5938 Z "/><text fill="#000000" font-family="sans-serif" font-size="12" lengthAdjust="spacingAndGlyphs" textLength="101" x="1726.75" y="808.1074">Grid.GridIterator</text><line style="stroke: #A80036; stroke-width: 1.5;" x1="1579" x2="1943" y1="819.9531" y2="819.9531"/><rect fill="none" height="6" style="stroke: #C82930; stroke-width: 1.0;" width="6" x="1586" y="827.9531"/><text fill="#000000" font-family="sans-serif" font-size="11" lengthAdjust="spacingAndGlyphs" textLength="102" x="1598" y="834.1636">cell : Coord # null</text><rect fill="none" height="6" style="stroke: #C82930; stroke-width: 1.0;" width="6" x="1586" y="840.7578"/><text fill="#000000" font-family="sans-serif" font-size="11" lengthAdjust="spacingAndGlyphs" textLength="159" x="1598" y="846.9683">start : Coord # new Coord()</text><rect fill="none" height="6" style="stroke: #C82930; stroke-width: 1.0;" width="6" x="1586" y="853.5625"/><text fill="#000000" font-family="sans-serif" font-size="11" lengthAdjust="spacingAndGlyphs" textLength="211" x="1598" y="859.7729">end : Coord # Kakuro.getLastCoord()</text><rect fill="none" height="6" style="stroke: #C82930; stroke-width: 1.0;" width="6" x="1586" y="866.3672"/><text fill="#000000" font-family="sans-serif" font-size="11" lengthAdjust="spacingAndGlyphs" textLength="340" x="1598" y="872.5776">moveMethod : Function&lt;Coord,Boolean&gt; # c-&gt;(c.nextCell())</text><text fill="#000000" font-family="sans-serif" font-size="11" lengthAdjust="spacingAndGlyphs" textLength="131" x="1598" y="885.3823">block : boolean # false</text><text fill="#000000" font-family="sans-serif" font-size="11" lengthAdjust="spacingAndGlyphs" textLength="77" x="1598" y="898.187">nbReturn : int</text><line style="stroke: #A80036; stroke-width: 1.5;" x1="1579" x2="1943" y1="904.7813" y2="904.7813"/><polygon fill="#4177AF" points="1589,911.7813,1585,917.7813,1593,917.7813" style="stroke: #1963A0; stroke-width: 1.0;"/><text fill="#000000" font-family="sans-serif" font-size="11" lengthAdjust="spacingAndGlyphs" text-decoration="underline" textLength="175" x="1598" y="918.9917">GridIterator(void) : GridIterator</text><polygon fill="#4177AF" points="1589,924.5859,1585,930.5859,1593,930.5859" style="stroke: #1963A0; stroke-width: 1.0;"/><text fill="#000000" font-family="sans-serif" font-size="11" lengthAdjust="spacingAndGlyphs" text-decoration="underline" textLength="232" x="1598" y="931.7964">GridIterator(C,C,B,F&lt;C,B&gt;) : GridIterator</text><ellipse cx="1589" cy="941.3906" fill="#84BE84" rx="3" ry="3" style="stroke: #038048; stroke-width: 1.0;"/><text fill="#000000" font-family="sans-serif" font-size="11" lengthAdjust="spacingAndGlyphs" textLength="146" x="1598" y="944.6011">@hasNext(void) : boolean</text><ellipse cx="1589" cy="954.1953" fill="#84BE84" rx="3" ry="3" style="stroke: #038048; stroke-width: 1.0;"/><text fill="#000000" font-family="sans-serif" font-size="11" lengthAdjust="spacingAndGlyphs" textLength="100" x="1598" y="957.4058">@next(void) : Cell</text><rect fill="#F24D5C" height="6" style="stroke: #C82930; stroke-width: 1.0;" width="6" x="1586" y="964"/><text fill="#000000" font-family="sans-serif" font-size="11" lengthAdjust="spacingAndGlyphs" textLength="128" x="1598" y="970.2104">inBlock(void) : boolean</text><ellipse cx="1589" cy="979.8047" fill="#84BE84" rx="3" ry="3" style="stroke: #038048; stroke-width: 1.0;"/><text fill="#000000" font-family="sans-serif" font-size="11" lengthAdjust="spacingAndGlyphs" textLength="129" x="1598" y="983.0151">getCoord(void) : Coord</text><path d="M1979.5,863.9531 L1979.5,880.0859 L1727,979.207 L1979.5,888.0859 L1979.5,904.2188 A0,0 0 0 0 1979.5,904.2188 L2134.5,904.2188 A0,0 0 0 0 2134.5,904.2188 L2134.5,873.9531 L2124.5,863.9531 L1979.5,863.9531 A0,0 0 0 0 1979.5,863.9531 " fill="#FBFB77" filter="url(#f111godmchem2y)" style="stroke: #A80036; stroke-width: 1.0;"/><path d="M2124.5,863.9531 L2124.5,873.9531 L2134.5,873.9531 L2124.5,863.9531 " fill="#FBFB77" style="stroke: #A80036; stroke-width: 1.0;"/><text fill="#000000" font-family="sans-serif" font-size="13" lengthAdjust="spacingAndGlyphs" textLength="120" x="1985.5" y="881.02">Coordonnées de la</text><text fill="#000000" font-family="sans-serif" font-size="13" lengthAdjust="spacingAndGlyphs" textLength="134" x="1985.5" y="896.1528">dernière Cell envoyé.</text><ellipse cx="1526" cy="585.9531" fill="#FEFECE" filter="url(#f111godmchem2y)" rx="5" ry="5" style="stroke: #A80036; stroke-width: 1.5;"/><text fill="#000000" font-family="sans-serif" font-size="12" lengthAdjust="spacingAndGlyphs" textLength="99" x="1476.5" y="602.0918">java.util.Iterator</text><!--MD5=[1f24f7b92150e3316908f7910ce81742]
class Grid--><rect fill="#FEFECE" filter="url(#f111godmchem2y)" height="281.6797" id="Grid" style="stroke: #A80036; stroke-width: 1.5;" width="280" x="1913" y="444.9531"/><ellipse cx="2036.25" cy="460.9531" fill="#ADD1B2" rx="11" ry="11" style="stroke: #A80036; stroke-width: 1.0;"/><path d="M2039.2188,466.5938 Q2038.6406,466.8906 2038,467.0313 Q2037.3594,467.1875 2036.6563,467.1875 Q2034.1563,467.1875 2032.8281,465.5469 Q2031.5156,463.8906 2031.5156,460.7656 Q2031.5156,457.6406 2032.8281,455.9844 Q2034.1563,454.3281 2036.6563,454.3281 Q2037.3594,454.3281 2038,454.4844 Q2038.6563,454.6406 2039.2188,454.9375 L2039.2188,457.6563 Q2038.5938,457.0781 2038,456.8125 Q2037.4063,456.5313 2036.7813,456.5313 Q2035.4375,456.5313 2034.75,457.6094 Q2034.0625,458.6719 2034.0625,460.7656 Q2034.0625,462.8594 2034.75,463.9375 Q2035.4375,465 2036.7813,465 Q2037.4063,465 2038,464.7344 Q2038.5938,464.4531 2039.2188,463.875 L2039.2188,466.5938 Z "/><text fill="#000000" font-family="sans-serif" font-size="12" lengthAdjust="spacingAndGlyphs" textLength="25" x="2056.75" y="465.1074">Grid</text><line style="stroke: #A80036; stroke-width: 1.5;" x1="1914" x2="2192" y1="476.9531" y2="476.9531"/><rect fill="none" height="6" style="stroke: #C82930; stroke-width: 1.0;" width="6" x="1921" y="484.9531"/><text fill="#000000" font-family="sans-serif" font-size="11" lengthAdjust="spacingAndGlyphs" textLength="71" x="1933" y="491.1636">grid : Cell[][]</text><rect fill="none" height="6" style="stroke: #C82930; stroke-width: 1.0;" width="6" x="1921" y="497.7578"/><text fill="#000000" font-family="sans-serif" font-size="11" lengthAdjust="spacingAndGlyphs" textLength="174" x="1933" y="503.9683">lstCoordResCell : List&lt;Coord&gt;</text><line style="stroke: #A80036; stroke-width: 1.0;" x1="1914" x2="2192" y1="510.5625" y2="510.5625"/><line style="stroke: #A80036; stroke-width: 1.0;" x1="1914" x2="2192" y1="512.5625" y2="512.5625"/><ellipse cx="1924" cy="538.3672" fill="#84BE84" rx="3" ry="3" style="stroke: #038048; stroke-width: 1.0;"/><text fill="#000000" font-family="sans-serif" font-size="11" lengthAdjust="spacingAndGlyphs" textLength="166" x="1933" y="541.5776">new Grid(/*lstParam*/) : Grid</text><line style="stroke: #A80036; stroke-width: 1.0; stroke-dasharray: 1.0,2.0;" x1="1914" x2="2016" y1="524.9648" y2="524.9648"/><text fill="#000000" font-family="sans-serif" font-size="11" lengthAdjust="spacingAndGlyphs" textLength="74" x="2016" y="528.2729">Constructeur</text><line style="stroke: #A80036; stroke-width: 1.0; stroke-dasharray: 1.0,2.0;" x1="2090" x2="2192" y1="524.9648" y2="524.9648"/><ellipse cx="1924" cy="567.9766" fill="#84BE84" rx="3" ry="3" style="stroke: #038048; stroke-width: 1.0;"/><text fill="#000000" font-family="sans-serif" font-size="11" lengthAdjust="spacingAndGlyphs" textLength="114" x="1933" y="571.187">getCell(Coord) : Cell</text><ellipse cx="1924" cy="580.7813" fill="#84BE84" rx="3" ry="3" style="stroke: #038048; stroke-width: 1.0;"/><text fill="#000000" font-family="sans-serif" font-size="11" lengthAdjust="spacingAndGlyphs" textLength="228" x="1933" y="583.9917">getCell(GridIterator,Predicate&lt;T&gt;) : Cell</text><ellipse cx="1924" cy="593.5859" fill="#84BE84" rx="3" ry="3" style="stroke: #038048; stroke-width: 1.0;"/><text fill="#000000" font-family="sans-serif" font-size="11" lengthAdjust="spacingAndGlyphs" textLength="254" x="1933" y="596.7964">getCoord(GridIterator,Predicate&lt;T&gt;) : Coord</text><ellipse cx="1924" cy="606.3906" fill="#84BE84" rx="3" ry="3" style="stroke: #038048; stroke-width: 1.0;"/><text fill="#000000" font-family="sans-serif" font-size="11" lengthAdjust="spacingAndGlyphs" textLength="153" x="1933" y="609.6011">getLastCoord(void) : Coord</text><line style="stroke: #A80036; stroke-width: 1.0; stroke-dasharray: 1.0,2.0;" x1="1914" x2="1996" y1="554.5742" y2="554.5742"/><text fill="#000000" font-family="sans-serif" font-size="11" lengthAdjust="spacingAndGlyphs" textLength="114" x="1996" y="557.8823">Obtenire une cellule</text><line style="stroke: #A80036; stroke-width: 1.0; stroke-dasharray: 1.0,2.0;" x1="2110" x2="2192" y1="554.5742" y2="554.5742"/><ellipse cx="1924" cy="636" fill="#84BE84" rx="3" ry="3" style="stroke: #038048; stroke-width: 1.0;"/><text fill="#000000" font-family="sans-serif" font-size="11" lengthAdjust="spacingAndGlyphs" textLength="163" x="1933" y="639.2104">@iterator(void) : GridIterator</text><ellipse cx="1924" cy="648.8047" fill="#84BE84" rx="3" ry="3" style="stroke: #038048; stroke-width: 1.0;"/><text fill="#000000" font-family="sans-serif" font-size="11" lengthAdjust="spacingAndGlyphs" textLength="208" x="1933" y="652.0151">iterator(C,C,B,F&lt;C,B&gt;) : GridIterator</text><ellipse cx="1924" cy="661.6094" fill="#84BE84" rx="3" ry="3" style="stroke: #038048; stroke-width: 1.0;"/><text fill="#000000" font-family="sans-serif" font-size="11" lengthAdjust="spacingAndGlyphs" textLength="186" x="1933" y="664.8198">getAreas(Coord) : GridIterator[2]</text><ellipse cx="1924" cy="674.4141" fill="#84BE84" rx="3" ry="3" style="stroke: #038048; stroke-width: 1.0;"/><text fill="#000000" font-family="sans-serif" font-size="11" lengthAdjust="spacingAndGlyphs" textLength="183" x="1933" y="677.6245">getLineAreas(void) : GridIterator</text><ellipse cx="1924" cy="687.2188" fill="#84BE84" rx="3" ry="3" style="stroke: #038048; stroke-width: 1.0;"/><text fill="#000000" font-family="sans-serif" font-size="11" lengthAdjust="spacingAndGlyphs" textLength="203" x="1933" y="690.4292">getColumnAreas(void) : GridIterator</text><line style="stroke: #A80036; stroke-width: 1.0; stroke-dasharray: 1.0,2.0;" x1="1914" x2="2000.5" y1="622.5977" y2="622.5977"/><text fill="#000000" font-family="sans-serif" font-size="11" lengthAdjust="spacingAndGlyphs" textLength="105" x="2000.5" y="625.9058">Parcourire la grille</text><line style="stroke: #A80036; stroke-width: 1.0; stroke-dasharray: 1.0,2.0;" x1="2105.5" x2="2192" y1="622.5977" y2="622.5977"/><ellipse cx="1924" cy="716.8281" fill="#84BE84" rx="3" ry="3" style="stroke: #038048; stroke-width: 1.0;"/><text fill="#000000" font-family="sans-serif" font-size="11" lengthAdjust="spacingAndGlyphs" textLength="101" x="1933" y="720.0386">serialize() : String</text><line style="stroke: #A80036; stroke-width: 1.0; stroke-dasharray: 1.0,2.0;" x1="1914" x2="2034.5" y1="703.4258" y2="703.4258"/><text fill="#000000" font-family="sans-serif" font-size="11" lengthAdjust="spacingAndGlyphs" textLength="37" x="2034.5" y="706.7339">Autres</text><line style="stroke: #A80036; stroke-width: 1.0; stroke-dasharray: 1.0,2.0;" x1="2071.5" x2="2192" y1="703.4258" y2="703.4258"/><path d="M1566,472.9531 L1566,528.3516 A0,0 0 0 0 1566,528.3516 L1853,528.3516 A0,0 0 0 0 1853,528.3516 L1853,504.6523 L1917,567.3789 L1853,496.6523 L1853,482.9531 L1843,472.9531 L1566,472.9531 A0,0 0 0 0 1566,472.9531 " fill="#FBFB77" filter="url(#f111godmchem2y)" style="stroke: #A80036; stroke-width: 1.0;"/><path d="M1843,472.9531 L1843,482.9531 L1853,482.9531 L1843,472.9531 " fill="#FBFB77" style="stroke: #A80036; stroke-width: 1.0;"/><text fill="#000000" font-family="sans-serif" font-size="13" lengthAdjust="spacingAndGlyphs" textLength="266" x="1572" y="490.02">Cherche une cellule matchant le predicat,</text><text fill="#000000" font-family="sans-serif" font-size="13" lengthAdjust="spacingAndGlyphs" textLength="255" x="1572" y="505.1528">en se déplacant suivant la fonction (une</text><text fill="#000000" font-family="sans-serif" font-size="13" lengthAdjust="spacingAndGlyphs" textLength="194" x="1572" y="520.2856">méthode de Grid.GridIterator).</text><path d="M1566,538.3516 L1566,608.8828 A0,0 0 0 0 1566,608.8828 L1878,608.8828 A0,0 0 0 0 1878,608.8828 L1878,577.6172 L1917,648.207 L1878,569.6172 L1878,548.3516 L1868,538.3516 L1566,538.3516 A0,0 0 0 0 1566,538.3516 " fill="#FBFB77" filter="url(#f111godmchem2y)" style="stroke: #A80036; stroke-width: 1.0;"/><path d="M1868,538.3516 L1868,548.3516 L1878,548.3516 L1868,538.3516 " fill="#FBFB77" style="stroke: #A80036; stroke-width: 1.0;"/><text fill="#000000" font-family="sans-serif" font-size="13" lengthAdjust="spacingAndGlyphs" textLength="221" x="1572" y="555.4185">Crée un itérateur sur la grille allant</text><text fill="#000000" font-family="sans-serif" font-size="13" lengthAdjust="spacingAndGlyphs" textLength="291" x="1572" y="570.5513">du début(0,0) à la fin(Kakuro.LAST_COORD()).</text><text fill="#000000" font-family="sans-serif" font-size="13" lengthAdjust="spacingAndGlyphs" textLength="182" x="1572" y="585.6841">Le mode block est désactivé</text><text fill="#000000" font-family="sans-serif" font-size="13" lengthAdjust="spacingAndGlyphs" textLength="273" x="1572" y="600.8169">et le parcours est dans le sens par défault.</text><path d="M1566,618.8828 L1566,689.4141 A0,0 0 0 0 1566,689.4141 L1877,689.4141 A0,0 0 0 0 1877,689.4141 L1877,658.1484 L1917,716.2305 L1877,650.1484 L1877,628.8828 L1867,618.8828 L1566,618.8828 A0,0 0 0 0 1566,618.8828 " fill="#FBFB77" filter="url(#f111godmchem2y)" style="stroke: #A80036; stroke-width: 1.0;"/><path d="M1867,618.8828 L1867,628.8828 L1877,628.8828 L1867,618.8828 " fill="#FBFB77" style="stroke: #A80036; stroke-width: 1.0;"/><text fill="#000000" font-family="sans-serif" font-size="13" lengthAdjust="spacingAndGlyphs" textLength="290" x="1572" y="635.9497">Renvoit la liste des cellule, séparer par des '|'.</text><text fill="#000000" font-family="sans-serif" font-size="13" lengthAdjust="spacingAndGlyphs" textLength="226" x="1572" y="651.0825">Les lignes sont séparer par des '\n'.</text><text fill="#000000" font-family="sans-serif" font-size="13" lengthAdjust="spacingAndGlyphs" textLength="288" x="1572" y="666.2153">&gt; Exemple : "|B|B|W(5)|\\n|R(7,n)|W(n)|R(4,1)"</text><text fill="#000000" font-family="sans-serif" font-size="13" lengthAdjust="spacingAndGlyphs" textLength="198" x="1572" y="681.3481">&gt; Devient : "||5|\\n7,n|3|4,1|\\n"</text><ellipse cx="2053" cy="230.9531" fill="#FEFECE" filter="url(#f111godmchem2y)" rx="5" ry="5" style="stroke: #A80036; stroke-width: 1.5;"/><text fill="#000000" font-family="sans-serif" font-size="12" lengthAdjust="spacingAndGlyphs" textLength="108" x="1999" y="247.0918">java.lang.Iterable</text><!--MD5=[5af8fc529a01250b6751c9e4fd865732]
reverse link I to A--><path d="M440.35,230.9531 C481.57,230.9531 524.65,230.9531 565.41,230.9531 " fill="none" id="I&lt;-A" style="stroke: #A80036; stroke-width: 1.0; stroke-dasharray: 7.0,7.0;"/><polygon fill="none" points="440.28,237.9531,420.28,230.9531,440.28,223.9531,440.28,237.9531" style="stroke: #A80036; stroke-width: 1.0;"/><path d="M442.25,193.9531 L442.25,218.9531 L539.25,218.9531 L539.25,203.9531 L529.25,193.9531 L442.25,193.9531 " fill="#FBFB77" filter="url(#f111godmchem2y)" style="stroke: #A80036; stroke-width: 1.0;"/><path d="M529.25,193.9531 L529.25,203.9531 L539.25,203.9531 L529.25,193.9531 " fill="#FBFB77" style="stroke: #A80036; stroke-width: 1.0;"/><text fill="#000000" font-family="sans-serif" font-size="13" lengthAdjust="spacingAndGlyphs" textLength="76" x="448.25" y="211.02">implements</text><!--MD5=[259c92c73d8724ac5e32c440a6b5727d]
link I to A--><!--MD5=[518367c1e7fbaa215fad71504a99bd4f]
reverse link A to C--><path d="M980.59,230.9531 C1013.91,230.9531 1048.09,230.9531 1080.8,230.9531 " fill="none" id="A&lt;-C" style="stroke: #A80036; stroke-width: 1.0;"/><polygon fill="none" points="980.54,237.9531,960.54,230.9531,980.54,223.9531,980.54,237.9531" style="stroke: #A80036; stroke-width: 1.0;"/><path d="M982.75,193.9531 L982.75,218.9531 L1054.75,218.9531 L1054.75,203.9531 L1044.75,193.9531 L982.75,193.9531 " fill="#FBFB77" filter="url(#f111godmchem2y)" style="stroke: #A80036; stroke-width: 1.0;"/><path d="M1044.75,193.9531 L1044.75,203.9531 L1054.75,203.9531 L1044.75,193.9531 " fill="#FBFB77" style="stroke: #A80036; stroke-width: 1.0;"/><text fill="#000000" font-family="sans-serif" font-size="13" lengthAdjust="spacingAndGlyphs" textLength="51" x="988.75" y="211.02">extends</text><!--MD5=[e1650921a81fac0037ec207a42ac4e7e]
link A to C--><!--MD5=[50ddda66245f55aa46a39d41fda0c027]
link GridIt to GridIt$$$RIGHT--><!--MD5=[52e4a919a4a468bba29d2595d78f8adf]
link GridItlol63 to GridIt--><path d="M1525.62,591.2231 C1524.21,609.2331 1520.79,680.1131 1549,726.9531 C1562.47,749.3231 1580.32,769.6631 1599.96,787.7731 " fill="none" id="GridItlol63-GridIt" style="stroke: #A80036; stroke-width: 1.0;"/><!--MD5=[9aa4d8d2edbe2ff9ea4a7b9708ead3fd]
link Grid$$$LEFT to Grid--><!--MD5=[549e15ca79c8404054481c7c1a530188]
link Gridlol69 to Grid--><path d="M2053,236.1631 C2053,257.6331 2053,357.3131 2053,444.6331 " fill="none" id="Gridlol69-Grid" style="stroke: #A80036; stroke-width: 1.0;"/><!--MD5=[52e2628ec817b028c66df643db85b006]
link Grid to GridIt--><path d="M1916.83,727.3231 C1900.3,744.3631 1883.6,761.5731 1867.59,778.0831 " fill="none" id="Grid-&gt;GridIt" style="stroke: #A80036; stroke-width: 1.0;"/><polygon fill="#A80036" points="1858.24,787.7131,1865.2894,786.1947,1866.5991,779.1035,1859.5497,780.622,1858.24,787.7131" style="stroke: #A80036; stroke-width: 1.0;"/><text fill="#888888" font-family="sans-serif" font-size="10" lengthAdjust="spacingAndGlyphs" textLength="263" x="990" y="1041.2354">La classes stockant les cellules du jeu et les parcourant</text><!--MD5=[352bb9eb50f4e72de10ed0b5dce00fcf]
@startuml classes_grid

title diagramme de classes de la grille du jeu

package "Legend" #lightblue {
	interface "Interface" AS I {
		.. "Seul type d'attribut authorisé" ..
		{field} {static} + CONST_PUBLIC : <color green>final</color> type
		==
		.. "Methodes de l'interface" ..
		{method} + methodePublic(typeParams) : typeRetour # retourDefault
		.. "Methodes static de l'interface" ..
		{method} {static} + methodePublicStatic(typeParams) : typeRetour # retourDefault
	}
	abstract class "abstractClasse" AS A {
		.. Constante ..
		{field} {static} - CONST_PRIVEE : type
		.. Attributs ..
		{field} - attributPrivee : type
		{field} # attributProtege : type
		{field} ~ attributPackage : type
		{field} + attributPublic : type
		==
		.. Methodes ..
		{method} - methodePrive2(typeParams) : typeRetour # retourDefault
		{method} # methodeProtege(typeParams) : typeRetour # retourDefault
		{method} ~ methodePackage(typeParams) : typeRetour # retourDefault
		{method} + methodePublic(typeParams) : typeRetour # retourDefault
		.. Methodes Override ..
		{method} - @methodePrive(typeParams) : typeRetour # retourDefault
		.. Methodes abstraites ..
		{method} {abstract} - methodePriveAbstract(typeParams) : typeRetour # retourDefault
		.. Methodes statiques ..
		{method} {static} - methodePriveStatic(typeParams) : typeRetour # retourDefault
	}
	abstract class A implements I
	note on link : implements
	class "Classe" AS C {
		.. Constante ..
		{field} {static} - CONST_PRIVEE : type
		.. Attributs ..
		{field} - attributPrivee : type
		{field} # attributProtege : type
		{field} ~ attributPackage : type
		{field} + attributPublic : type
		==
		.. Methodes ..
		{method} - methodePrive3(typeParams) : typeRetour # retourDefault
		{method} # methodeProtege2(typeParams) : typeRetour # retourDefault
		{method} ~ methodePackage2(typeParams) : typeRetour # retourDefault
		{method} + methodePublic2(typeParams) : typeRetour # retourDefault
		.. Methodes Override ..
		{method} - @methodePrive2(typeParams) : typeRetour # retourDefault
		.. Methodes statiques ..
		{method} {static} - methodePriveStatic2(typeParams) : typeRetour # retourDefault
	}
	class C extends A
	note on link : extends

	I -[hidden]right- A
	A -[hidden]right- C
}

package "Grid" #lightgrey {

	class "Grid.GridIterator" AS GridIt {
		{field} - cell : Coord # null
		{field} - start : Coord # new Coord()
		{field} - end : Coord # Kakuro.getLastCoord()
		{field} - moveMethod : Function<Coord,Boolean> # c->(c.nextCell())
		{field} block : boolean # false
		{field} nbReturn : int
		{method} {static} ~ GridIterator(void) : GridIterator
		{method} {static} ~ GridIterator(C,C,B,F<C,B>) : GridIterator
		{method} + @hasNext(void) : boolean
		{method} + @next(void) : Cell
		{method} - inBlock(void) : boolean
		{method} + getCoord(void) : Coord
	}
	note right of GridIt::getCoord
		Coordonnées de la
		dernière Cell envoyé.
	end note
	java.util.Iterator ().. GridIt

	class "Grid" AS Grid{
		{field} - grid : Cell[][]
		{field} - lstCoordResCell : List<Coord>
		==
		.. Constructeur ..
		{method} + new Grid(/*lstParam*/) : Grid
		.. Obtenire une cellule ..
		{method} + getCell(Coord) : Cell
		{method} + getCell(GridIterator,Predicate<T>) : Cell
		{method} + getCoord(GridIterator,Predicate<T>) : Coord
		{method} + getLastCoord(void) : Coord
		.. Parcourire la grille ..
		{method} + @iterator(void) : GridIterator
		{method} + iterator(C,C,B,F<C,B>) : GridIterator
		{method} + getAreas(Coord) : GridIterator[2]
		{method} + getLineAreas(void) : GridIterator
		{method} + getColumnAreas(void) : GridIterator
		.. Autres ..
		{method} + serialize() : String
	}
	note left of Grid::getCell
		Cherche une cellule matchant le predicat,
		en se déplacant suivant la fonction (une
		méthode de Grid.GridIterator).
	end note
	note left of Grid::iterator
		Crée un itérateur sur la grille allant
		du début(0,0) à la fin(Kakuro.LAST_COORD()).
		Le mode block est désactivé
		et le parcours est dans le sens par défault.
	end note
	note left of Grid::serialize
		Renvoit la liste des cellule, séparer par des '|'.
		Les lignes sont séparer par des '\n'.
		> Exemple : "|B|B|W(5)|\\n|R(7,n)|W(n)|R(4,1)"
		> Devient : "||5|\\n7,n|3|4,1|\\n"
	end note
	java.lang.Iterable ()- - Grid
	Grid - -* GridIt
}

center footer La classes stockant les cellules du jeu et les parcourant
@enduml

PlantUML version 1.2020.02(Sun Mar 01 11:22:07 CET 2020)
(GPL source distribution)
Java Runtime: OpenJDK Runtime Environment
JVM: OpenJDK 64-Bit Server VM
Java Version: 17.0.9+9-Ubuntu-122.04
Operating System: Linux
Default Encoding: UTF-8
Language: en
Country: GB
--></g></svg>