<?xml version="1.0" encoding="UTF-8" standalone="no"?><svg xmlns="http://www.w3.org/2000/svg" xmlns:xlink="http://www.w3.org/1999/xlink" contentScriptType="application/ecmascript" contentStyleType="text/css" height="446px" preserveAspectRatio="none" style="width:2028px;height:446px;" version="1.1" viewBox="0 0 2028 446" width="2028px" zoomAndPan="magnify"><defs><filter height="300%" id="f1uf1umy8loyom" width="300%" x="-1" y="-1"><feGaussianBlur result="blurOut" stdDeviation="2.0"/><feColorMatrix in="blurOut" result="blurOut2" type="matrix" values="0 0 0 0 0 0 0 0 0 0 0 0 0 0 0 0 0 0 .4 0"/><feOffset dx="4.0" dy="4.0" in="blurOut2" result="blurOut3"/><feBlend in="SourceGraphic" in2="blurOut3" mode="normal"/></filter></defs><g><text fill="#000000" font-family="sans-serif" font-size="18" lengthAdjust="spacingAndGlyphs" textLength="361" x="839.5" y="16.708">diagramme de classes des erreurs du jeu</text><!--MD5=[f7217341b3bb6bbf768c7f0e049f8d09]
cluster Legend--><polygon fill="#ADD8E6" filter="url(#f1uf1umy8loyom)" points="22,44.9531,87,44.9531,94,67.25,1481,67.25,1481,397.9531,22,397.9531,22,44.9531" style="stroke: #000000; stroke-width: 1.5;"/><line style="stroke: #000000; stroke-width: 1.5;" x1="22" x2="94" y1="67.25" y2="67.25"/><text fill="#000000" font-family="sans-serif" font-size="14" font-weight="bold" lengthAdjust="spacingAndGlyphs" textLength="59" x="26" y="59.9482">Legend</text><!--MD5=[77d9f3ba0333437ce7407f559fb23290]
cluster error--><polygon fill="#D3D3D3" filter="url(#f1uf1umy8loyom)" points="1505,107.9531,1552,107.9531,1559,130.25,2006,130.25,2006,334.9531,1505,334.9531,1505,107.9531" style="stroke: #000000; stroke-width: 1.5;"/><line style="stroke: #000000; stroke-width: 1.5;" x1="1505" x2="1559" y1="130.25" y2="130.25"/><text fill="#000000" font-family="sans-serif" font-size="14" font-weight="bold" lengthAdjust="spacingAndGlyphs" textLength="41" x="1509" y="122.9482">error</text><!--MD5=[cf39a86b148c3d2a53e894bf08c046dd]
class I--><rect fill="#FEFECE" filter="url(#f1uf1umy8loyom)" height="136.8281" id="I" style="stroke: #A80036; stroke-width: 1.5;" width="382" x="38" y="162.4531"/><ellipse cx="196.25" cy="178.4531" fill="#B4A7E5" rx="11" ry="11" style="stroke: #A80036; stroke-width: 1.0;"/><path d="M192.1719,174.2188 L192.1719,172.0625 L199.5625,172.0625 L199.5625,174.2188 L197.0938,174.2188 L197.0938,182.2969 L199.5625,182.2969 L199.5625,184.4531 L192.1719,184.4531 L192.1719,182.2969 L194.6406,182.2969 L194.6406,174.2188 L192.1719,174.2188 Z "/><text fill="#000000" font-family="sans-serif" font-size="12" font-style="italic" lengthAdjust="spacingAndGlyphs" textLength="57" x="216.75" y="182.6074">Interface</text><line style="stroke: #A80036; stroke-width: 1.5;" x1="39" x2="419" y1="194.4531" y2="194.4531"/><ellipse cx="49" cy="222.2578" fill="none" rx="3" ry="3" style="stroke: #038048; stroke-width: 1.0;"/><text fill="#000000" font-family="sans-serif" font-size="11" lengthAdjust="spacingAndGlyphs" text-decoration="underline" textLength="94" x="58" y="225.4683">CONST_PUBLIC :</text><text fill="#008000" font-family="sans-serif" font-size="11" lengthAdjust="spacingAndGlyphs" text-decoration="underline" textLength="24" x="156" y="225.4683">final</text><text fill="#000000" font-family="sans-serif" font-size="11" lengthAdjust="spacingAndGlyphs" text-decoration="underline" textLength="24" x="184" y="225.4683">type</text><line style="stroke: #A80036; stroke-width: 1.0; stroke-dasharray: 1.0,2.0;" x1="39" x2="141" y1="208.8555" y2="208.8555"/><text fill="#000000" font-family="sans-serif" font-size="11" lengthAdjust="spacingAndGlyphs" textLength="176" x="141" y="212.1636">"Seul type d'attribut authorisé"</text><line style="stroke: #A80036; stroke-width: 1.0; stroke-dasharray: 1.0,2.0;" x1="317" x2="419" y1="208.8555" y2="208.8555"/><line style="stroke: #A80036; stroke-width: 1.0;" x1="39" x2="419" y1="232.0625" y2="232.0625"/><line style="stroke: #A80036; stroke-width: 1.0;" x1="39" x2="419" y1="234.0625" y2="234.0625"/><ellipse cx="49" cy="259.8672" fill="#84BE84" rx="3" ry="3" style="stroke: #038048; stroke-width: 1.0;"/><text fill="#000000" font-family="sans-serif" font-size="11" lengthAdjust="spacingAndGlyphs" textLength="324" x="58" y="263.0776">methodePublic(typeParams) : typeRetour # retourDefault</text><line style="stroke: #A80036; stroke-width: 1.0; stroke-dasharray: 1.0,2.0;" x1="39" x2="157.5" y1="246.4648" y2="246.4648"/><text fill="#000000" font-family="sans-serif" font-size="11" lengthAdjust="spacingAndGlyphs" textLength="143" x="157.5" y="249.7729">"Methodes de l'interface"</text><line style="stroke: #A80036; stroke-width: 1.0; stroke-dasharray: 1.0,2.0;" x1="300.5" x2="419" y1="246.4648" y2="246.4648"/><ellipse cx="49" cy="289.4766" fill="#84BE84" rx="3" ry="3" style="stroke: #038048; stroke-width: 1.0;"/><text fill="#000000" font-family="sans-serif" font-size="11" lengthAdjust="spacingAndGlyphs" text-decoration="underline" textLength="356" x="58" y="292.687">methodePublicStatic(typeParams) : typeRetour # retourDefault</text><line style="stroke: #A80036; stroke-width: 1.0; stroke-dasharray: 1.0,2.0;" x1="39" x2="140" y1="276.0742" y2="276.0742"/><text fill="#000000" font-family="sans-serif" font-size="11" lengthAdjust="spacingAndGlyphs" textLength="178" x="140" y="279.3823">"Methodes static de l'interface"</text><line style="stroke: #A80036; stroke-width: 1.0; stroke-dasharray: 1.0,2.0;" x1="318" x2="419" y1="276.0742" y2="276.0742"/><!--MD5=[a46ee5ce0ceb0380cf446a08a056dce4]
class A--><rect fill="#FEFECE" filter="url(#f1uf1umy8loyom)" height="302.4844" id="A" style="stroke: #A80036; stroke-width: 1.5;" width="395" x="565.5" y="79.9531"/><ellipse cx="713.25" cy="95.9531" fill="#A9DCDF" rx="11" ry="11" style="stroke: #A80036; stroke-width: 1.0;"/><path d="M713.3594,91.2969 L712.2031,96.375 L714.5313,96.375 L713.3594,91.2969 Z M711.875,89.0625 L714.8594,89.0625 L718.2188,101.4531 L715.7656,101.4531 L715,98.3906 L711.7188,98.3906 L710.9688,101.4531 L708.5313,101.4531 L711.875,89.0625 Z "/><text fill="#000000" font-family="sans-serif" font-size="12" font-style="italic" lengthAdjust="spacingAndGlyphs" textLength="91" x="733.75" y="100.1074">abstractClasse</text><line style="stroke: #A80036; stroke-width: 1.5;" x1="566.5" x2="959.5" y1="111.9531" y2="111.9531"/><rect fill="none" height="6" style="stroke: #C82930; stroke-width: 1.0;" width="6" x="573.5" y="136.7578"/><text fill="#000000" font-family="sans-serif" font-size="11" lengthAdjust="spacingAndGlyphs" text-decoration="underline" textLength="120" x="585.5" y="142.9683">CONST_PRIVEE : type</text><line style="stroke: #A80036; stroke-width: 1.0; stroke-dasharray: 1.0,2.0;" x1="566.5" x2="734" y1="126.3555" y2="126.3555"/><text fill="#000000" font-family="sans-serif" font-size="11" lengthAdjust="spacingAndGlyphs" textLength="58" x="734" y="129.6636">Constante</text><line style="stroke: #A80036; stroke-width: 1.0; stroke-dasharray: 1.0,2.0;" x1="792" x2="959.5" y1="126.3555" y2="126.3555"/><rect fill="none" height="6" style="stroke: #C82930; stroke-width: 1.0;" width="6" x="573.5" y="166.3672"/><text fill="#000000" font-family="sans-serif" font-size="11" lengthAdjust="spacingAndGlyphs" textLength="112" x="585.5" y="172.5776">attributPrivee : type</text><polygon fill="none" points="576.5,177.1719,580.5,181.1719,576.5,185.1719,572.5,181.1719" style="stroke: #B38D22; stroke-width: 1.0;"/><text fill="#000000" font-family="sans-serif" font-size="11" lengthAdjust="spacingAndGlyphs" textLength="121" x="585.5" y="185.3823">attributProtege : type</text><polygon fill="none" points="576.5,190.9766,572.5,196.9766,580.5,196.9766" style="stroke: #1963A0; stroke-width: 1.0;"/><text fill="#000000" font-family="sans-serif" font-size="11" lengthAdjust="spacingAndGlyphs" textLength="124" x="585.5" y="198.187">attributPackage : type</text><ellipse cx="576.5" cy="207.7813" fill="none" rx="3" ry="3" style="stroke: #038048; stroke-width: 1.0;"/><text fill="#000000" font-family="sans-serif" font-size="11" lengthAdjust="spacingAndGlyphs" textLength="110" x="585.5" y="210.9917">attributPublic : type</text><line style="stroke: #A80036; stroke-width: 1.0; stroke-dasharray: 1.0,2.0;" x1="566.5" x2="739" y1="155.9648" y2="155.9648"/><text fill="#000000" font-family="sans-serif" font-size="11" lengthAdjust="spacingAndGlyphs" textLength="48" x="739" y="159.2729">Attributs</text><line style="stroke: #A80036; stroke-width: 1.0; stroke-dasharray: 1.0,2.0;" x1="787" x2="959.5" y1="155.9648" y2="155.9648"/><line style="stroke: #A80036; stroke-width: 1.0;" x1="566.5" x2="959.5" y1="217.5859" y2="217.5859"/><line style="stroke: #A80036; stroke-width: 1.0;" x1="566.5" x2="959.5" y1="219.5859" y2="219.5859"/><rect fill="#F24D5C" height="6" style="stroke: #C82930; stroke-width: 1.0;" width="6" x="573.5" y="242.3906"/><text fill="#000000" font-family="sans-serif" font-size="11" lengthAdjust="spacingAndGlyphs" textLength="326" x="585.5" y="248.6011">methodePrive2(typeParams) : typeRetour # retourDefault</text><polygon fill="#FFFF44" points="576.5,253.1953,580.5,257.1953,576.5,261.1953,572.5,257.1953" style="stroke: #B38D22; stroke-width: 1.0;"/><text fill="#000000" font-family="sans-serif" font-size="11" lengthAdjust="spacingAndGlyphs" textLength="335" x="585.5" y="261.4058">methodeProtege(typeParams) : typeRetour # retourDefault</text><polygon fill="#4177AF" points="576.5,267,572.5,273,580.5,273" style="stroke: #1963A0; stroke-width: 1.0;"/><text fill="#000000" font-family="sans-serif" font-size="11" lengthAdjust="spacingAndGlyphs" textLength="338" x="585.5" y="274.2104">methodePackage(typeParams) : typeRetour # retourDefault</text><ellipse cx="576.5" cy="283.8047" fill="#84BE84" rx="3" ry="3" style="stroke: #038048; stroke-width: 1.0;"/><text fill="#000000" font-family="sans-serif" font-size="11" lengthAdjust="spacingAndGlyphs" textLength="324" x="585.5" y="287.0151">methodePublic(typeParams) : typeRetour # retourDefault</text><line style="stroke: #A80036; stroke-width: 1.0; stroke-dasharray: 1.0,2.0;" x1="566.5" x2="735.5" y1="231.9883" y2="231.9883"/><text fill="#000000" font-family="sans-serif" font-size="11" lengthAdjust="spacingAndGlyphs" textLength="55" x="735.5" y="235.2964">Methodes</text><line style="stroke: #A80036; stroke-width: 1.0; stroke-dasharray: 1.0,2.0;" x1="790.5" x2="959.5" y1="231.9883" y2="231.9883"/><rect fill="#F24D5C" height="6" style="stroke: #C82930; stroke-width: 1.0;" width="6" x="573.5" y="310.4141"/><text fill="#000000" font-family="sans-serif" font-size="11" lengthAdjust="spacingAndGlyphs" textLength="331" x="585.5" y="316.6245">@methodePrive(typeParams) : typeRetour # retourDefault</text><line style="stroke: #A80036; stroke-width: 1.0; stroke-dasharray: 1.0,2.0;" x1="566.5" x2="709" y1="300.0117" y2="300.0117"/><text fill="#000000" font-family="sans-serif" font-size="11" lengthAdjust="spacingAndGlyphs" textLength="108" x="709" y="303.3198">Methodes Override</text><line style="stroke: #A80036; stroke-width: 1.0; stroke-dasharray: 1.0,2.0;" x1="817" x2="959.5" y1="300.0117" y2="300.0117"/><rect fill="#F24D5C" height="6" style="stroke: #C82930; stroke-width: 1.0;" width="6" x="573.5" y="340.0234"/><text fill="#000000" font-family="sans-serif" font-size="11" font-style="italic" lengthAdjust="spacingAndGlyphs" textLength="369" x="585.5" y="346.2339">methodePriveAbstract(typeParams) : typeRetour # retourDefault</text><line style="stroke: #A80036; stroke-width: 1.0; stroke-dasharray: 1.0,2.0;" x1="566.5" x2="704.5" y1="329.6211" y2="329.6211"/><text fill="#000000" font-family="sans-serif" font-size="11" lengthAdjust="spacingAndGlyphs" textLength="117" x="704.5" y="332.9292">Methodes abstraites</text><line style="stroke: #A80036; stroke-width: 1.0; stroke-dasharray: 1.0,2.0;" x1="821.5" x2="959.5" y1="329.6211" y2="329.6211"/><rect fill="#F24D5C" height="6" style="stroke: #C82930; stroke-width: 1.0;" width="6" x="573.5" y="369.6328"/><text fill="#000000" font-family="sans-serif" font-size="11" lengthAdjust="spacingAndGlyphs" text-decoration="underline" textLength="351" x="585.5" y="375.8433">methodePriveStatic(typeParams) : typeRetour # retourDefault</text><line style="stroke: #A80036; stroke-width: 1.0; stroke-dasharray: 1.0,2.0;" x1="566.5" x2="707" y1="359.2305" y2="359.2305"/><text fill="#000000" font-family="sans-serif" font-size="11" lengthAdjust="spacingAndGlyphs" textLength="112" x="707" y="362.5386">Methodes statiques</text><line style="stroke: #A80036; stroke-width: 1.0; stroke-dasharray: 1.0,2.0;" x1="819" x2="959.5" y1="359.2305" y2="359.2305"/><!--MD5=[378b18254a1b2429f435e93f5e5cc50c]
class C--><rect fill="#FEFECE" filter="url(#f1uf1umy8loyom)" height="272.875" id="C" style="stroke: #A80036; stroke-width: 1.5;" width="384" x="1081" y="94.4531"/><ellipse cx="1248.25" cy="110.4531" fill="#ADD1B2" rx="11" ry="11" style="stroke: #A80036; stroke-width: 1.0;"/><path d="M1251.2188,116.0938 Q1250.6406,116.3906 1250,116.5313 Q1249.3594,116.6875 1248.6563,116.6875 Q1246.1563,116.6875 1244.8281,115.0469 Q1243.5156,113.3906 1243.5156,110.2656 Q1243.5156,107.1406 1244.8281,105.4844 Q1246.1563,103.8281 1248.6563,103.8281 Q1249.3594,103.8281 1250,103.9844 Q1250.6563,104.1406 1251.2188,104.4375 L1251.2188,107.1563 Q1250.5938,106.5781 1250,106.3125 Q1249.4063,106.0313 1248.7813,106.0313 Q1247.4375,106.0313 1246.75,107.1094 Q1246.0625,108.1719 1246.0625,110.2656 Q1246.0625,112.3594 1246.75,113.4375 Q1247.4375,114.5 1248.7813,114.5 Q1249.4063,114.5 1250,114.2344 Q1250.5938,113.9531 1251.2188,113.375 L1251.2188,116.0938 Z "/><text fill="#000000" font-family="sans-serif" font-size="12" lengthAdjust="spacingAndGlyphs" textLength="41" x="1268.75" y="114.6074">Classe</text><line style="stroke: #A80036; stroke-width: 1.5;" x1="1082" x2="1464" y1="126.4531" y2="126.4531"/><rect fill="none" height="6" style="stroke: #C82930; stroke-width: 1.0;" width="6" x="1089" y="151.2578"/><text fill="#000000" font-family="sans-serif" font-size="11" lengthAdjust="spacingAndGlyphs" text-decoration="underline" textLength="120" x="1101" y="157.4683">CONST_PRIVEE : type</text><line style="stroke: #A80036; stroke-width: 1.0; stroke-dasharray: 1.0,2.0;" x1="1082" x2="1244" y1="140.8555" y2="140.8555"/><text fill="#000000" font-family="sans-serif" font-size="11" lengthAdjust="spacingAndGlyphs" textLength="58" x="1244" y="144.1636">Constante</text><line style="stroke: #A80036; stroke-width: 1.0; stroke-dasharray: 1.0,2.0;" x1="1302" x2="1464" y1="140.8555" y2="140.8555"/><rect fill="none" height="6" style="stroke: #C82930; stroke-width: 1.0;" width="6" x="1089" y="180.8672"/><text fill="#000000" font-family="sans-serif" font-size="11" lengthAdjust="spacingAndGlyphs" textLength="112" x="1101" y="187.0776">attributPrivee : type</text><polygon fill="none" points="1092,191.6719,1096,195.6719,1092,199.6719,1088,195.6719" style="stroke: #B38D22; stroke-width: 1.0;"/><text fill="#000000" font-family="sans-serif" font-size="11" lengthAdjust="spacingAndGlyphs" textLength="121" x="1101" y="199.8823">attributProtege : type</text><polygon fill="none" points="1092,205.4766,1088,211.4766,1096,211.4766" style="stroke: #1963A0; stroke-width: 1.0;"/><text fill="#000000" font-family="sans-serif" font-size="11" lengthAdjust="spacingAndGlyphs" textLength="124" x="1101" y="212.687">attributPackage : type</text><ellipse cx="1092" cy="222.2813" fill="none" rx="3" ry="3" style="stroke: #038048; stroke-width: 1.0;"/><text fill="#000000" font-family="sans-serif" font-size="11" lengthAdjust="spacingAndGlyphs" textLength="110" x="1101" y="225.4917">attributPublic : type</text><line style="stroke: #A80036; stroke-width: 1.0; stroke-dasharray: 1.0,2.0;" x1="1082" x2="1249" y1="170.4648" y2="170.4648"/><text fill="#000000" font-family="sans-serif" font-size="11" lengthAdjust="spacingAndGlyphs" textLength="48" x="1249" y="173.7729">Attributs</text><line style="stroke: #A80036; stroke-width: 1.0; stroke-dasharray: 1.0,2.0;" x1="1297" x2="1464" y1="170.4648" y2="170.4648"/><line style="stroke: #A80036; stroke-width: 1.0;" x1="1082" x2="1464" y1="232.0859" y2="232.0859"/><line style="stroke: #A80036; stroke-width: 1.0;" x1="1082" x2="1464" y1="234.0859" y2="234.0859"/><rect fill="#F24D5C" height="6" style="stroke: #C82930; stroke-width: 1.0;" width="6" x="1089" y="256.8906"/><text fill="#000000" font-family="sans-serif" font-size="11" lengthAdjust="spacingAndGlyphs" textLength="326" x="1101" y="263.1011">methodePrive3(typeParams) : typeRetour # retourDefault</text><polygon fill="#FFFF44" points="1092,267.6953,1096,271.6953,1092,275.6953,1088,271.6953" style="stroke: #B38D22; stroke-width: 1.0;"/><text fill="#000000" font-family="sans-serif" font-size="11" lengthAdjust="spacingAndGlyphs" textLength="342" x="1101" y="275.9058">methodeProtege2(typeParams) : typeRetour # retourDefault</text><polygon fill="#4177AF" points="1092,281.5,1088,287.5,1096,287.5" style="stroke: #1963A0; stroke-width: 1.0;"/><text fill="#000000" font-family="sans-serif" font-size="11" lengthAdjust="spacingAndGlyphs" textLength="345" x="1101" y="288.7104">methodePackage2(typeParams) : typeRetour # retourDefault</text><ellipse cx="1092" cy="298.3047" fill="#84BE84" rx="3" ry="3" style="stroke: #038048; stroke-width: 1.0;"/><text fill="#000000" font-family="sans-serif" font-size="11" lengthAdjust="spacingAndGlyphs" textLength="331" x="1101" y="301.5151">methodePublic2(typeParams) : typeRetour # retourDefault</text><line style="stroke: #A80036; stroke-width: 1.0; stroke-dasharray: 1.0,2.0;" x1="1082" x2="1245.5" y1="246.4883" y2="246.4883"/><text fill="#000000" font-family="sans-serif" font-size="11" lengthAdjust="spacingAndGlyphs" textLength="55" x="1245.5" y="249.7964">Methodes</text><line style="stroke: #A80036; stroke-width: 1.0; stroke-dasharray: 1.0,2.0;" x1="1300.5" x2="1464" y1="246.4883" y2="246.4883"/><rect fill="#F24D5C" height="6" style="stroke: #C82930; stroke-width: 1.0;" width="6" x="1089" y="324.9141"/><text fill="#000000" font-family="sans-serif" font-size="11" lengthAdjust="spacingAndGlyphs" textLength="338" x="1101" y="331.1245">@methodePrive2(typeParams) : typeRetour # retourDefault</text><line style="stroke: #A80036; stroke-width: 1.0; stroke-dasharray: 1.0,2.0;" x1="1082" x2="1219" y1="314.5117" y2="314.5117"/><text fill="#000000" font-family="sans-serif" font-size="11" lengthAdjust="spacingAndGlyphs" textLength="108" x="1219" y="317.8198">Methodes Override</text><line style="stroke: #A80036; stroke-width: 1.0; stroke-dasharray: 1.0,2.0;" x1="1327" x2="1464" y1="314.5117" y2="314.5117"/><rect fill="#F24D5C" height="6" style="stroke: #C82930; stroke-width: 1.0;" width="6" x="1089" y="354.5234"/><text fill="#000000" font-family="sans-serif" font-size="11" lengthAdjust="spacingAndGlyphs" text-decoration="underline" textLength="358" x="1101" y="360.7339">methodePriveStatic2(typeParams) : typeRetour # retourDefault</text><line style="stroke: #A80036; stroke-width: 1.0; stroke-dasharray: 1.0,2.0;" x1="1082" x2="1217" y1="344.1211" y2="344.1211"/><text fill="#000000" font-family="sans-serif" font-size="11" lengthAdjust="spacingAndGlyphs" textLength="112" x="1217" y="347.4292">Methodes statiques</text><line style="stroke: #A80036; stroke-width: 1.0; stroke-dasharray: 1.0,2.0;" x1="1329" x2="1464" y1="344.1211" y2="344.1211"/><!--MD5=[bc5a321c1ca7955ce8db83d18482fadb]
class TError--><rect fill="#FEFECE" filter="url(#f1uf1umy8loyom)" height="124.8281" id="TError" style="stroke: #A80036; stroke-width: 1.5;" width="149" x="1841.5" y="168.4531"/><ellipse cx="1867.75" cy="184.4531" fill="#EB937F" rx="11" ry="11" style="stroke: #A80036; stroke-width: 1.0;"/><path d="M1871.8594,190.4531 L1864.1406,190.4531 L1864.1406,178.0625 L1871.8594,178.0625 L1871.8594,180.2188 L1866.5938,180.2188 L1866.5938,182.8906 L1871.3594,182.8906 L1871.3594,185.0469 L1866.5938,185.0469 L1866.5938,188.2969 L1871.8594,188.2969 L1871.8594,190.4531 Z "/><text fill="#000000" font-family="sans-serif" font-size="12" lengthAdjust="spacingAndGlyphs" textLength="92" x="1884.25" y="188.6074">TypeEntryError</text><line style="stroke: #A80036; stroke-width: 1.5;" x1="1842.5" x2="1989.5" y1="200.4531" y2="200.4531"/><text fill="#000000" font-family="sans-serif" font-size="11" lengthAdjust="spacingAndGlyphs" textLength="42" x="1847.5" y="214.6636">NOERR,</text><text fill="#000000" font-family="sans-serif" font-size="11" lengthAdjust="spacingAndGlyphs" textLength="50" x="1847.5" y="227.4683">DOUBLE,</text><text fill="#000000" font-family="sans-serif" font-size="11" lengthAdjust="spacingAndGlyphs" textLength="113" x="1847.5" y="240.2729">OVER_RESULT_LINE,</text><text fill="#000000" font-family="sans-serif" font-size="11" lengthAdjust="spacingAndGlyphs" textLength="137" x="1847.5" y="253.0776">OVER_RESULT_COLUMN,</text><text fill="#000000" font-family="sans-serif" font-size="11" lengthAdjust="spacingAndGlyphs" textLength="35" x="1847.5" y="265.8823">VALUE</text><line style="stroke: #A80036; stroke-width: 1.5;" x1="1842.5" x2="1989.5" y1="272.4766" y2="272.4766"/><ellipse cx="1852.5" cy="283.4766" fill="#84BE84" rx="3" ry="3" style="stroke: #038048; stroke-width: 1.0;"/><text fill="#000000" font-family="sans-serif" font-size="11" lengthAdjust="spacingAndGlyphs" textLength="122" x="1861.5" y="286.687">toString(void) : String</text><!--MD5=[b8cfd8c4119a3b0a7a46bfc5fc780f85]
class Error--><rect fill="#FEFECE" filter="url(#f1uf1umy8loyom)" height="176.0469" id="Error" style="stroke: #A80036; stroke-width: 1.5;" width="285" x="1521.5" y="142.9531"/><ellipse cx="1628.25" cy="158.9531" fill="#ADD1B2" rx="11" ry="11" style="stroke: #A80036; stroke-width: 1.0;"/><path d="M1631.2188,164.5938 Q1630.6406,164.8906 1630,165.0313 Q1629.3594,165.1875 1628.6563,165.1875 Q1626.1563,165.1875 1624.8281,163.5469 Q1623.5156,161.8906 1623.5156,158.7656 Q1623.5156,155.6406 1624.8281,153.9844 Q1626.1563,152.3281 1628.6563,152.3281 Q1629.3594,152.3281 1630,152.4844 Q1630.6563,152.6406 1631.2188,152.9375 L1631.2188,155.6563 Q1630.5938,155.0781 1630,154.8125 Q1629.4063,154.5313 1628.7813,154.5313 Q1627.4375,154.5313 1626.75,155.6094 Q1626.0625,156.6719 1626.0625,158.7656 Q1626.0625,160.8594 1626.75,161.9375 Q1627.4375,163 1628.7813,163 Q1629.4063,163 1630,162.7344 Q1630.5938,162.4531 1631.2188,161.875 L1631.2188,164.5938 Z "/><text fill="#000000" font-family="sans-serif" font-size="12" lengthAdjust="spacingAndGlyphs" textLength="63" x="1648.75" y="163.1074">EntryError</text><line style="stroke: #A80036; stroke-width: 1.5;" x1="1522.5" x2="1805.5" y1="174.9531" y2="174.9531"/><ellipse cx="1532.5" cy="185.9531" fill="none" rx="3" ry="3" style="stroke: #038048; stroke-width: 1.0;"/><text fill="#000000" font-family="sans-serif" font-size="11" lengthAdjust="spacingAndGlyphs" textLength="78" x="1541.5" y="189.1636">coord : Coord</text><ellipse cx="1532.5" cy="198.7578" fill="none" rx="3" ry="3" style="stroke: #038048; stroke-width: 1.0;"/><text fill="#000000" font-family="sans-serif" font-size="11" lengthAdjust="spacingAndGlyphs" textLength="126" x="1541.5" y="201.9683">error : TypeEntryError</text><line style="stroke: #A80036; stroke-width: 1.5;" x1="1522.5" x2="1805.5" y1="208.5625" y2="208.5625"/><ellipse cx="1532.5" cy="219.5625" fill="#84BE84" rx="3" ry="3" style="stroke: #038048; stroke-width: 1.0;"/><text fill="#000000" font-family="sans-serif" font-size="11" lengthAdjust="spacingAndGlyphs" text-decoration="underline" textLength="159" x="1541.5" y="222.7729">EntryError(void) : EntryError</text><ellipse cx="1532.5" cy="232.3672" fill="#84BE84" rx="3" ry="3" style="stroke: #038048; stroke-width: 1.0;"/><text fill="#000000" font-family="sans-serif" font-size="11" lengthAdjust="spacingAndGlyphs" text-decoration="underline" textLength="170" x="1541.5" y="235.5776">EntryError(Coord) : EntryError</text><ellipse cx="1532.5" cy="245.1719" fill="#84BE84" rx="3" ry="3" style="stroke: #038048; stroke-width: 1.0;"/><text fill="#000000" font-family="sans-serif" font-size="11" lengthAdjust="spacingAndGlyphs" text-decoration="underline" textLength="221" x="1541.5" y="248.3823">EntryError(TypeEntryError) : EntryError</text><ellipse cx="1532.5" cy="257.9766" fill="#84BE84" rx="3" ry="3" style="stroke: #038048; stroke-width: 1.0;"/><text fill="#000000" font-family="sans-serif" font-size="11" lengthAdjust="spacingAndGlyphs" text-decoration="underline" textLength="259" x="1541.5" y="261.187">EntryError(Coord,TypeEntryError) : EntryError</text><ellipse cx="1532.5" cy="270.7813" fill="#84BE84" rx="3" ry="3" style="stroke: #038048; stroke-width: 1.0;"/><text fill="#000000" font-family="sans-serif" font-size="11" lengthAdjust="spacingAndGlyphs" textLength="129" x="1541.5" y="273.9917">getCoord(void) : Coord</text><ellipse cx="1532.5" cy="283.5859" fill="#84BE84" rx="3" ry="3" style="stroke: #038048; stroke-width: 1.0;"/><text fill="#000000" font-family="sans-serif" font-size="11" lengthAdjust="spacingAndGlyphs" textLength="129" x="1541.5" y="286.7964">setCoord(Coord) : void</text><ellipse cx="1532.5" cy="296.3906" fill="#84BE84" rx="3" ry="3" style="stroke: #038048; stroke-width: 1.0;"/><text fill="#000000" font-family="sans-serif" font-size="11" lengthAdjust="spacingAndGlyphs" textLength="146" x="1541.5" y="299.6011">getError(void) : TypeError</text><ellipse cx="1532.5" cy="309.1953" fill="#84BE84" rx="3" ry="3" style="stroke: #038048; stroke-width: 1.0;"/><text fill="#000000" font-family="sans-serif" font-size="11" lengthAdjust="spacingAndGlyphs" textLength="146" x="1541.5" y="312.4058">setError(TypeError) : void</text><!--MD5=[5af8fc529a01250b6751c9e4fd865732]
reverse link I to A--><path d="M440.35,230.9531 C481.57,230.9531 524.65,230.9531 565.41,230.9531 " fill="none" id="I&lt;-A" style="stroke: #A80036; stroke-width: 1.0; stroke-dasharray: 7.0,7.0;"/><polygon fill="none" points="440.28,237.9531,420.28,230.9531,440.28,223.9531,440.28,237.9531" style="stroke: #A80036; stroke-width: 1.0;"/><path d="M442.25,193.9531 L442.25,218.9531 L539.25,218.9531 L539.25,203.9531 L529.25,193.9531 L442.25,193.9531 " fill="#FBFB77" filter="url(#f1uf1umy8loyom)" style="stroke: #A80036; stroke-width: 1.0;"/><path d="M529.25,193.9531 L529.25,203.9531 L539.25,203.9531 L529.25,193.9531 " fill="#FBFB77" style="stroke: #A80036; stroke-width: 1.0;"/><text fill="#000000" font-family="sans-serif" font-size="13" lengthAdjust="spacingAndGlyphs" textLength="76" x="448.25" y="211.02">implements</text><!--MD5=[259c92c73d8724ac5e32c440a6b5727d]
link I to A--><!--MD5=[518367c1e7fbaa215fad71504a99bd4f]
reverse link A to C--><path d="M980.59,230.9531 C1013.91,230.9531 1048.09,230.9531 1080.8,230.9531 " fill="none" id="A&lt;-C" style="stroke: #A80036; stroke-width: 1.0;"/><polygon fill="none" points="980.54,237.9531,960.54,230.9531,980.54,223.9531,980.54,237.9531" style="stroke: #A80036; stroke-width: 1.0;"/><path d="M982.75,193.9531 L982.75,218.9531 L1054.75,218.9531 L1054.75,203.9531 L1044.75,193.9531 L982.75,193.9531 " fill="#FBFB77" filter="url(#f1uf1umy8loyom)" style="stroke: #A80036; stroke-width: 1.0;"/><path d="M1044.75,193.9531 L1044.75,203.9531 L1054.75,203.9531 L1044.75,193.9531 " fill="#FBFB77" style="stroke: #A80036; stroke-width: 1.0;"/><text fill="#000000" font-family="sans-serif" font-size="13" lengthAdjust="spacingAndGlyphs" textLength="51" x="988.75" y="211.02">extends</text><!--MD5=[e1650921a81fac0037ec207a42ac4e7e]
link A to C--><text fill="#888888" font-family="sans-serif" font-size="10" lengthAdjust="spacingAndGlyphs" textLength="257" x="891.5" y="433.2354">Les erreurs que le joueur à fait (ex: mauvaise valeur)</text><!--MD5=[bf2074ede5c7b81cd82e8960a12d04fa]
@startuml classes_error

title diagramme de classes des erreurs du jeu

package "Legend" #lightblue {
	interface "Interface" AS I {
		.. "Seul type d'attribut authorisé" ..
		{field} {static} + CONST_PUBLIC : <color green>final</color> type
		==
		.. "Methodes de l'interface" ..
		{method} + methodePublic(typeParams) : typeRetour # retourDefault
		.. "Methodes static de l'interface" ..
		{method} {static} + methodePublicStatic(typeParams) : typeRetour # retourDefault
	}
	abstract class "abstractClasse" AS A {
		.. Constante ..
		{field} {static} - CONST_PRIVEE : type
		.. Attributs ..
		{field} - attributPrivee : type
		{field} # attributProtege : type
		{field} ~ attributPackage : type
		{field} + attributPublic : type
		==
		.. Methodes ..
		{method} - methodePrive2(typeParams) : typeRetour # retourDefault
		{method} # methodeProtege(typeParams) : typeRetour # retourDefault
		{method} ~ methodePackage(typeParams) : typeRetour # retourDefault
		{method} + methodePublic(typeParams) : typeRetour # retourDefault
		.. Methodes Override ..
		{method} - @methodePrive(typeParams) : typeRetour # retourDefault
		.. Methodes abstraites ..
		{method} {abstract} - methodePriveAbstract(typeParams) : typeRetour # retourDefault
		.. Methodes statiques ..
		{method} {static} - methodePriveStatic(typeParams) : typeRetour # retourDefault
	}
	abstract class A implements I
	note on link : implements
	class "Classe" AS C {
		.. Constante ..
		{field} {static} - CONST_PRIVEE : type
		.. Attributs ..
		{field} - attributPrivee : type
		{field} # attributProtege : type
		{field} ~ attributPackage : type
		{field} + attributPublic : type
		==
		.. Methodes ..
		{method} - methodePrive3(typeParams) : typeRetour # retourDefault
		{method} # methodeProtege2(typeParams) : typeRetour # retourDefault
		{method} ~ methodePackage2(typeParams) : typeRetour # retourDefault
		{method} + methodePublic2(typeParams) : typeRetour # retourDefault
		.. Methodes Override ..
		{method} - @methodePrive2(typeParams) : typeRetour # retourDefault
		.. Methodes statiques ..
		{method} {static} - methodePriveStatic2(typeParams) : typeRetour # retourDefault
	}
	class C extends A
	note on link : extends

	I -[hidden]right- A
	A -[hidden]right- C
}

package "error" #lightgrey {
	Enum "TypeEntryError" AS TError {
		NOERR,
		DOUBLE,
		OVER_RESULT_LINE,
		OVER_RESULT_COLUMN,
		VALUE
		{method} + toString(void) : String
	}
	class "EntryError" AS Error {
		{field} + coord : Coord
		{field} + error : TypeEntryError
		{method} {static} + EntryError(void) : EntryError
		{method} {static} + EntryError(Coord) : EntryError
		{method} {static} + EntryError(TypeEntryError) : EntryError
		{method} {static} + EntryError(Coord,TypeEntryError) : EntryError
		{method} + getCoord(void) : Coord
		{method} + setCoord(Coord) : void
		{method} + getError(void) : TypeError
		{method} + setError(TypeError) : void
	}
}

center footer Les erreurs que le joueur à fait (ex: mauvaise valeur)
@enduml

PlantUML version 1.2020.02(Sun Mar 01 11:22:07 CET 2020)
(GPL source distribution)
Java Runtime: OpenJDK Runtime Environment
JVM: OpenJDK 64-Bit Server VM
Java Version: 17.0.9+9-Ubuntu-122.04
Operating System: Linux
Default Encoding: UTF-8
Language: en
Country: GB
--></g></svg>