<?xml version="1.0" encoding="UTF-8" standalone="no"?><svg xmlns="http://www.w3.org/2000/svg" xmlns:xlink="http://www.w3.org/1999/xlink" contentScriptType="application/ecmascript" contentStyleType="text/css" height="402px" preserveAspectRatio="none" style="width:1112px;height:402px;" version="1.1" viewBox="0 0 1112 402" width="1112px" zoomAndPan="magnify"><defs><filter height="300%" id="f19n1u9e85qpth" width="300%" x="-1" y="-1"><feGaussianBlur result="blurOut" stdDeviation="2.0"/><feColorMatrix in="blurOut" result="blurOut2" type="matrix" values="0 0 0 0 0 0 0 0 0 0 0 0 0 0 0 0 0 0 .4 0"/><feOffset dx="4.0" dy="4.0" in="blurOut2" result="blurOut3"/><feBlend in="SourceGraphic" in2="blurOut3" mode="normal"/></filter></defs><g><text fill="#000000" font-family="sans-serif" font-size="18" lengthAdjust="spacingAndGlyphs" textLength="380" x="372" y="16.708">"Diagramme de classes des erreurs du jeu"</text><!--MD5=[86674ab5735079aa6b5321d691891463]
cluster legend--><polygon fill="#ADD8E6" filter="url(#f19n1u9e85qpth)" points="22,44.9531,82,44.9531,89,67.25,565,67.25,565,353.9531,22,353.9531,22,44.9531" style="stroke: #000000; stroke-width: 1.5;"/><line style="stroke: #000000; stroke-width: 1.5;" x1="22" x2="89" y1="67.25" y2="67.25"/><text fill="#000000" font-family="sans-serif" font-size="14" font-weight="bold" lengthAdjust="spacingAndGlyphs" textLength="54" x="26" y="59.9482">legend</text><!--MD5=[77d9f3ba0333437ce7407f559fb23290]
cluster error--><polygon fill="#D3D3D3" filter="url(#f19n1u9e85qpth)" points="589,85.9531,636,85.9531,643,108.25,1090,108.25,1090,312.9531,589,312.9531,589,85.9531" style="stroke: #000000; stroke-width: 1.5;"/><line style="stroke: #000000; stroke-width: 1.5;" x1="589" x2="643" y1="108.25" y2="108.25"/><text fill="#000000" font-family="sans-serif" font-size="14" font-weight="bold" lengthAdjust="spacingAndGlyphs" textLength="41" x="593" y="100.9482">error</text><!--MD5=[4cac391c179f8787f20d7dddb517ad5a]
class G--><rect fill="#FEFECE" filter="url(#f19n1u9e85qpth)" height="258.0078" id="G" style="stroke: #A80036; stroke-width: 1.5;" width="364" x="185" y="79.9531"/><ellipse cx="293.25" cy="98.9219" fill="#FFFFFF" rx="11" ry="11" style="stroke: #A80036; stroke-width: 1.0;"/><path d="M292.7344,99.4844 Q290.875,98.7813 290.2188,98.0156 Q289.5781,97.2344 289.5781,95.9219 Q289.5781,94.2344 290.6563,93.2656 Q291.7344,92.2969 293.6094,92.2969 Q294.4688,92.2969 295.3125,92.5 Q296.1719,92.6875 297.0156,93.0781 L297.0156,95.4688 Q296.2344,94.9063 295.4063,94.625 Q294.5938,94.3281 293.7969,94.3281 Q292.9219,94.3281 292.4375,94.6875 Q291.9688,95.0469 291.9688,95.7031 Q291.9688,96.2188 292.3125,96.5625 Q292.6563,96.8906 293.75,97.2969 L294.8125,97.7031 Q296.2969,98.25 297,99.1563 Q297.7188,100.0625 297.7188,101.4375 Q297.7188,103.3125 296.6094,104.2344 Q295.5,105.1563 293.25,105.1563 Q292.3281,105.1563 291.4063,104.9375 Q290.4844,104.7188 289.625,104.2969 L289.625,101.7656 Q290.5938,102.4531 291.5156,102.7969 Q292.4375,103.1406 293.3281,103.1406 Q294.2344,103.1406 294.7344,102.7344 Q295.2344,102.3125 295.2344,101.5781 Q295.2344,101.0156 294.8906,100.6094 Q294.5625,100.1875 293.9375,99.9375 L292.7344,99.4844 Z "/><text fill="#000000" font-family="sans-serif" font-size="12" font-style="italic" lengthAdjust="spacingAndGlyphs" textLength="73" x="311.75" y="96.0918">«Singleton»</text><text fill="#000000" font-family="sans-serif" font-size="12" lengthAdjust="spacingAndGlyphs" textLength="49" x="323.75" y="110.0605">General</text><rect fill="#FFFFFF" height="15.9688" style="stroke: #000000; stroke-width: 1.0; stroke-dasharray: 2.0,2.0;" width="68" x="484" y="76.9531"/><text fill="#000000" font-family="sans-serif" font-size="12" font-style="italic" lengthAdjust="spacingAndGlyphs" textLength="58" x="489" y="89.0918">? general</text><line style="stroke: #A80036; stroke-width: 1.5;" x1="186" x2="548" y1="117.8906" y2="117.8906"/><rect fill="none" height="6" style="stroke: #C82930; stroke-width: 1.0;" width="6" x="193" y="142.6953"/><text fill="#000000" font-family="sans-serif" font-size="11" lengthAdjust="spacingAndGlyphs" textLength="112" x="205" y="148.9058">attributPrivee : type</text><polygon fill="none" points="196,153.5,200,157.5,196,161.5,192,157.5" style="stroke: #B38D22; stroke-width: 1.0;"/><text fill="#000000" font-family="sans-serif" font-size="11" lengthAdjust="spacingAndGlyphs" textLength="121" x="205" y="161.7104">attributProtege : type</text><polygon fill="none" points="196,167.3047,192,173.3047,200,173.3047" style="stroke: #1963A0; stroke-width: 1.0;"/><text fill="#000000" font-family="sans-serif" font-size="11" lengthAdjust="spacingAndGlyphs" textLength="124" x="205" y="174.5151">attributPackage : type</text><ellipse cx="196" cy="184.1094" fill="none" rx="3" ry="3" style="stroke: #038048; stroke-width: 1.0;"/><text fill="#000000" font-family="sans-serif" font-size="11" lengthAdjust="spacingAndGlyphs" textLength="110" x="205" y="187.3198">attributPublic : type</text><line style="stroke: #A80036; stroke-width: 1.0; stroke-dasharray: 1.0,2.0;" x1="186" x2="343" y1="132.293" y2="132.293"/><text fill="#000000" font-family="sans-serif" font-size="11" lengthAdjust="spacingAndGlyphs" textLength="48" x="343" y="135.6011">Attributs</text><line style="stroke: #A80036; stroke-width: 1.0; stroke-dasharray: 1.0,2.0;" x1="391" x2="548" y1="132.293" y2="132.293"/><line style="stroke: #A80036; stroke-width: 1.0;" x1="186" x2="548" y1="193.9141" y2="193.9141"/><line style="stroke: #A80036; stroke-width: 1.0;" x1="186" x2="548" y1="195.9141" y2="195.9141"/><rect fill="#F24D5C" height="6" style="stroke: #C82930; stroke-width: 1.0;" width="6" x="193" y="218.7188"/><text fill="#000000" font-family="sans-serif" font-size="11" lengthAdjust="spacingAndGlyphs" textLength="319" x="205" y="224.9292">methodePrive(typeParams) : typeRetour # retourDefault</text><polygon fill="#FFFF44" points="196,229.5234,200,233.5234,196,237.5234,192,233.5234" style="stroke: #B38D22; stroke-width: 1.0;"/><text fill="#000000" font-family="sans-serif" font-size="11" lengthAdjust="spacingAndGlyphs" textLength="335" x="205" y="237.7339">methodeProtege(typeParams) : typeRetour # retourDefault</text><polygon fill="#4177AF" points="196,243.3281,192,249.3281,200,249.3281" style="stroke: #1963A0; stroke-width: 1.0;"/><text fill="#000000" font-family="sans-serif" font-size="11" lengthAdjust="spacingAndGlyphs" textLength="338" x="205" y="250.5386">methodePackage(typeParams) : typeRetour # retourDefault</text><ellipse cx="196" cy="260.1328" fill="#84BE84" rx="3" ry="3" style="stroke: #038048; stroke-width: 1.0;"/><text fill="#000000" font-family="sans-serif" font-size="11" lengthAdjust="spacingAndGlyphs" textLength="324" x="205" y="263.3433">methodePublic(typeParams) : typeRetour # retourDefault</text><line style="stroke: #A80036; stroke-width: 1.0; stroke-dasharray: 1.0,2.0;" x1="186" x2="339.5" y1="208.3164" y2="208.3164"/><text fill="#000000" font-family="sans-serif" font-size="11" lengthAdjust="spacingAndGlyphs" textLength="55" x="339.5" y="211.6245">Méthodes</text><line style="stroke: #A80036; stroke-width: 1.0; stroke-dasharray: 1.0,2.0;" x1="394.5" x2="548" y1="208.3164" y2="208.3164"/><text fill="#000000" font-family="sans-serif" font-size="11" lengthAdjust="spacingAndGlyphs" textLength="352" x="191" y="292.9526">@methodeOverride(typeParams) : typeRetour # retourDefault</text><text fill="#000000" font-family="sans-serif" font-size="11" font-style="italic" lengthAdjust="spacingAndGlyphs" textLength="340" x="191" y="305.7573">methodeAbstract(typeParams) : typeRetour # retourDefault</text><text fill="#000000" font-family="sans-serif" font-size="11" lengthAdjust="spacingAndGlyphs" text-decoration="underline" textLength="323" x="191" y="318.562">methodeStatic(typeParams) : typeRetour # retourDefault</text><text fill="#008000" font-family="sans-serif" font-size="11" lengthAdjust="spacingAndGlyphs" text-decoration="underline" textLength="24" x="191" y="331.3667">final</text><text fill="#000000" font-family="sans-serif" font-size="11" lengthAdjust="spacingAndGlyphs" text-decoration="underline" textLength="317" x="219" y="331.3667">methodeFinal(typeParams) : typeRetour # retourDefault</text><line style="stroke: #A80036; stroke-width: 1.0; stroke-dasharray: 1.0,2.0;" x1="186" x2="313.5" y1="276.3398" y2="276.3398"/><text fill="#000000" font-family="sans-serif" font-size="11" lengthAdjust="spacingAndGlyphs" textLength="107" x="313.5" y="279.6479">Méthodes Speciale</text><line style="stroke: #A80036; stroke-width: 1.0; stroke-dasharray: 1.0,2.0;" x1="420.5" x2="548" y1="276.3398" y2="276.3398"/><!--MD5=[54d0f7ca6f9898010b87b67e67e7a5e0]
class E--><rect fill="#FEFECE" filter="url(#f19n1u9e85qpth)" height="86.4141" id="E" style="stroke: #A80036; stroke-width: 1.5;" width="112" x="38" y="165.9531"/><ellipse cx="53" cy="181.9531" fill="#EB937F" rx="11" ry="11" style="stroke: #A80036; stroke-width: 1.0;"/><path d="M57.1094,187.9531 L49.3906,187.9531 L49.3906,175.5625 L57.1094,175.5625 L57.1094,177.7188 L51.8438,177.7188 L51.8438,180.3906 L56.6094,180.3906 L56.6094,182.5469 L51.8438,182.5469 L51.8438,185.7969 L57.1094,185.7969 L57.1094,187.9531 Z "/><text fill="#000000" font-family="sans-serif" font-size="12" lengthAdjust="spacingAndGlyphs" textLength="80" x="67" y="186.1074">Enumeration</text><line style="stroke: #A80036; stroke-width: 1.5;" x1="39" x2="149" y1="197.9531" y2="197.9531"/><text fill="#000000" font-family="sans-serif" font-size="11" lengthAdjust="spacingAndGlyphs" textLength="41" x="44" y="212.1636">value1,</text><text fill="#000000" font-family="sans-serif" font-size="11" lengthAdjust="spacingAndGlyphs" textLength="41" x="44" y="224.9683">value2,</text><text fill="#000000" font-family="sans-serif" font-size="11" lengthAdjust="spacingAndGlyphs" textLength="12" x="44" y="237.7729">...</text><line style="stroke: #A80036; stroke-width: 1.5;" x1="39" x2="149" y1="244.3672" y2="244.3672"/><!--MD5=[bc5a321c1ca7955ce8db83d18482fadb]
class TError--><rect fill="#FEFECE" filter="url(#f19n1u9e85qpth)" height="124.8281" id="TError" style="stroke: #A80036; stroke-width: 1.5;" width="149" x="925.5" y="146.4531"/><ellipse cx="951.75" cy="162.4531" fill="#EB937F" rx="11" ry="11" style="stroke: #A80036; stroke-width: 1.0;"/><path d="M955.8594,168.4531 L948.1406,168.4531 L948.1406,156.0625 L955.8594,156.0625 L955.8594,158.2188 L950.5938,158.2188 L950.5938,160.8906 L955.3594,160.8906 L955.3594,163.0469 L950.5938,163.0469 L950.5938,166.2969 L955.8594,166.2969 L955.8594,168.4531 Z "/><text fill="#000000" font-family="sans-serif" font-size="12" lengthAdjust="spacingAndGlyphs" textLength="92" x="968.25" y="166.6074">TypeEntryError</text><line style="stroke: #A80036; stroke-width: 1.5;" x1="926.5" x2="1073.5" y1="178.4531" y2="178.4531"/><text fill="#000000" font-family="sans-serif" font-size="11" lengthAdjust="spacingAndGlyphs" textLength="42" x="931.5" y="192.6636">NOERR,</text><text fill="#000000" font-family="sans-serif" font-size="11" lengthAdjust="spacingAndGlyphs" textLength="50" x="931.5" y="205.4683">DOUBLE,</text><text fill="#000000" font-family="sans-serif" font-size="11" lengthAdjust="spacingAndGlyphs" textLength="113" x="931.5" y="218.2729">OVER_RESULT_LINE,</text><text fill="#000000" font-family="sans-serif" font-size="11" lengthAdjust="spacingAndGlyphs" textLength="137" x="931.5" y="231.0776">OVER_RESULT_COLUMN,</text><text fill="#000000" font-family="sans-serif" font-size="11" lengthAdjust="spacingAndGlyphs" textLength="35" x="931.5" y="243.8823">VALUE</text><line style="stroke: #A80036; stroke-width: 1.5;" x1="926.5" x2="1073.5" y1="250.4766" y2="250.4766"/><ellipse cx="936.5" cy="261.4766" fill="#84BE84" rx="3" ry="3" style="stroke: #038048; stroke-width: 1.0;"/><text fill="#000000" font-family="sans-serif" font-size="11" lengthAdjust="spacingAndGlyphs" textLength="122" x="945.5" y="264.687">toString(void) : String</text><!--MD5=[b8cfd8c4119a3b0a7a46bfc5fc780f85]
class Error--><rect fill="#FEFECE" filter="url(#f19n1u9e85qpth)" height="176.0469" id="Error" style="stroke: #A80036; stroke-width: 1.5;" width="285" x="605.5" y="120.9531"/><ellipse cx="712.25" cy="136.9531" fill="#ADD1B2" rx="11" ry="11" style="stroke: #A80036; stroke-width: 1.0;"/><path d="M715.2188,142.5938 Q714.6406,142.8906 714,143.0313 Q713.3594,143.1875 712.6563,143.1875 Q710.1563,143.1875 708.8281,141.5469 Q707.5156,139.8906 707.5156,136.7656 Q707.5156,133.6406 708.8281,131.9844 Q710.1563,130.3281 712.6563,130.3281 Q713.3594,130.3281 714,130.4844 Q714.6563,130.6406 715.2188,130.9375 L715.2188,133.6563 Q714.5938,133.0781 714,132.8125 Q713.4063,132.5313 712.7813,132.5313 Q711.4375,132.5313 710.75,133.6094 Q710.0625,134.6719 710.0625,136.7656 Q710.0625,138.8594 710.75,139.9375 Q711.4375,141 712.7813,141 Q713.4063,141 714,140.7344 Q714.5938,140.4531 715.2188,139.875 L715.2188,142.5938 Z "/><text fill="#000000" font-family="sans-serif" font-size="12" lengthAdjust="spacingAndGlyphs" textLength="63" x="732.75" y="141.1074">EntryError</text><line style="stroke: #A80036; stroke-width: 1.5;" x1="606.5" x2="889.5" y1="152.9531" y2="152.9531"/><ellipse cx="616.5" cy="163.9531" fill="none" rx="3" ry="3" style="stroke: #038048; stroke-width: 1.0;"/><text fill="#000000" font-family="sans-serif" font-size="11" lengthAdjust="spacingAndGlyphs" textLength="78" x="625.5" y="167.1636">coord : Coord</text><ellipse cx="616.5" cy="176.7578" fill="none" rx="3" ry="3" style="stroke: #038048; stroke-width: 1.0;"/><text fill="#000000" font-family="sans-serif" font-size="11" lengthAdjust="spacingAndGlyphs" textLength="126" x="625.5" y="179.9683">error : TypeEntryError</text><line style="stroke: #A80036; stroke-width: 1.5;" x1="606.5" x2="889.5" y1="186.5625" y2="186.5625"/><ellipse cx="616.5" cy="197.5625" fill="#84BE84" rx="3" ry="3" style="stroke: #038048; stroke-width: 1.0;"/><text fill="#000000" font-family="sans-serif" font-size="11" lengthAdjust="spacingAndGlyphs" text-decoration="underline" textLength="159" x="625.5" y="200.7729">EntryError(void) : EntryError</text><ellipse cx="616.5" cy="210.3672" fill="#84BE84" rx="3" ry="3" style="stroke: #038048; stroke-width: 1.0;"/><text fill="#000000" font-family="sans-serif" font-size="11" lengthAdjust="spacingAndGlyphs" text-decoration="underline" textLength="170" x="625.5" y="213.5776">EntryError(Coord) : EntryError</text><ellipse cx="616.5" cy="223.1719" fill="#84BE84" rx="3" ry="3" style="stroke: #038048; stroke-width: 1.0;"/><text fill="#000000" font-family="sans-serif" font-size="11" lengthAdjust="spacingAndGlyphs" text-decoration="underline" textLength="221" x="625.5" y="226.3823">EntryError(TypeEntryError) : EntryError</text><ellipse cx="616.5" cy="235.9766" fill="#84BE84" rx="3" ry="3" style="stroke: #038048; stroke-width: 1.0;"/><text fill="#000000" font-family="sans-serif" font-size="11" lengthAdjust="spacingAndGlyphs" text-decoration="underline" textLength="259" x="625.5" y="239.187">EntryError(Coord,TypeEntryError) : EntryError</text><ellipse cx="616.5" cy="248.7813" fill="#84BE84" rx="3" ry="3" style="stroke: #038048; stroke-width: 1.0;"/><text fill="#000000" font-family="sans-serif" font-size="11" lengthAdjust="spacingAndGlyphs" textLength="129" x="625.5" y="251.9917">getCoord(void) : Coord</text><ellipse cx="616.5" cy="261.5859" fill="#84BE84" rx="3" ry="3" style="stroke: #038048; stroke-width: 1.0;"/><text fill="#000000" font-family="sans-serif" font-size="11" lengthAdjust="spacingAndGlyphs" textLength="129" x="625.5" y="264.7964">setCoord(Coord) : void</text><ellipse cx="616.5" cy="274.3906" fill="#84BE84" rx="3" ry="3" style="stroke: #038048; stroke-width: 1.0;"/><text fill="#000000" font-family="sans-serif" font-size="11" lengthAdjust="spacingAndGlyphs" textLength="146" x="625.5" y="277.6011">getError(void) : TypeError</text><ellipse cx="616.5" cy="287.1953" fill="#84BE84" rx="3" ry="3" style="stroke: #038048; stroke-width: 1.0;"/><text fill="#000000" font-family="sans-serif" font-size="11" lengthAdjust="spacingAndGlyphs" textLength="146" x="625.5" y="290.4058">setError(TypeError) : void</text><text fill="#888888" font-family="sans-serif" font-size="10" lengthAdjust="spacingAndGlyphs" textLength="267" x="428.5" y="389.2354">"Les erreurs que le joueur a fait (ex: mauvaise valeur)"</text><!--MD5=[f57966d06423cdaf66c0838745923f46]
@startuml error

title "Diagramme de classes des erreurs du jeu"

package "legend" #lightblue {
  class "General" AS G < ? general > << (S,#FFFFFF) Singleton >> {
    .. Attributs ..
    {field} - attributPrivee : type
    {field} # attributProtege : type
    {field} ~ attributPackage : type
    {field} + attributPublic : type
    ==
    .. Méthodes ..
    {method} - methodePrive(typeParams) : typeRetour # retourDefault
    {method} # methodeProtege(typeParams) : typeRetour # retourDefault
    {method} ~ methodePackage(typeParams) : typeRetour # retourDefault
    {method} + methodePublic(typeParams) : typeRetour # retourDefault
    .. Méthodes Speciale ..
    {method} @methodeOverride(typeParams) : typeRetour # retourDefault
    {method} {abstract} methodeAbstract(typeParams) : typeRetour # retourDefault
    {method} {static} methodeStatic(typeParams) : typeRetour # retourDefault
    {method} {static} <color green>final</color> methodeFinal(typeParams) : typeRetour # retourDefault
  }


    enum "Enumeration" AS E {
      value1,
      value2,
      ...
    }
}

package "error" #lightgrey {
	enum "TypeEntryError" AS TError {
		NOERR,
		DOUBLE,
		OVER_RESULT_LINE,
		OVER_RESULT_COLUMN,
		VALUE
		{method} + toString(void) : String
	}
	class "EntryError" AS Error {
		{field} + coord : Coord
		{field} + error : TypeEntryError
		{method} {static} + EntryError(void) : EntryError
		{method} {static} + EntryError(Coord) : EntryError
		{method} {static} + EntryError(TypeEntryError) : EntryError
		{method} {static} + EntryError(Coord,TypeEntryError) : EntryError
		{method} + getCoord(void) : Coord
		{method} + setCoord(Coord) : void
		{method} + getError(void) : TypeError
		{method} + setError(TypeError) : void
	}
}

center footer "Les erreurs que le joueur a fait (ex: mauvaise valeur)"
@enduml

PlantUML version 1.2020.02(Sun Mar 01 11:22:07 CET 2020)
(GPL source distribution)
Java Runtime: OpenJDK Runtime Environment
JVM: OpenJDK 64-Bit Server VM
Java Version: 17.0.10+7-Ubuntu-122.04.1
Operating System: Linux
Default Encoding: UTF-8
Language: en
Country: GB
--></g></svg>