<?xml version="1.0" encoding="UTF-8" standalone="no"?><svg xmlns="http://www.w3.org/2000/svg" xmlns:xlink="http://www.w3.org/1999/xlink" contentScriptType="application/ecmascript" contentStyleType="text/css" height="534px" preserveAspectRatio="none" style="width:716px;height:534px;" version="1.1" viewBox="0 0 716 534" width="716px" zoomAndPan="magnify"><defs><filter height="300%" id="f1uo7veih8jgep" width="300%" x="-1" y="-1"><feGaussianBlur result="blurOut" stdDeviation="2.0"/><feColorMatrix in="blurOut" result="blurOut2" type="matrix" values="0 0 0 0 0 0 0 0 0 0 0 0 0 0 0 0 0 0 .4 0"/><feOffset dx="4.0" dy="4.0" in="blurOut2" result="blurOut3"/><feBlend in="SourceGraphic" in2="blurOut3" mode="normal"/></filter></defs><g><text fill="#000000" font-family="sans-serif" font-size="18" lengthAdjust="spacingAndGlyphs" textLength="419" x="152" y="16.708">diagramme de la classe gérant les coordonnées</text><!--MD5=[393caf2efdab419c7cb0a264777a7604]
class Coord--><rect fill="#FEFECE" filter="url(#f1uo7veih8jgep)" height="472.9453" id="Coord" style="stroke: #A80036; stroke-width: 1.5;" width="275" x="430" y="28.9531"/><ellipse cx="544.75" cy="44.9531" fill="#ADD1B2" rx="11" ry="11" style="stroke: #A80036; stroke-width: 1.0;"/><path d="M547.7188,50.5938 Q547.1406,50.8906 546.5,51.0313 Q545.8594,51.1875 545.1563,51.1875 Q542.6563,51.1875 541.3281,49.5469 Q540.0156,47.8906 540.0156,44.7656 Q540.0156,41.6406 541.3281,39.9844 Q542.6563,38.3281 545.1563,38.3281 Q545.8594,38.3281 546.5,38.4844 Q547.1563,38.6406 547.7188,38.9375 L547.7188,41.6563 Q547.0938,41.0781 546.5,40.8125 Q545.9063,40.5313 545.2813,40.5313 Q543.9375,40.5313 543.25,41.6094 Q542.5625,42.6719 542.5625,44.7656 Q542.5625,46.8594 543.25,47.9375 Q543.9375,49 545.2813,49 Q545.9063,49 546.5,48.7344 Q547.0938,48.4531 547.7188,47.875 L547.7188,50.5938 Z "/><text fill="#000000" font-family="sans-serif" font-size="12" lengthAdjust="spacingAndGlyphs" textLength="37" x="565.25" y="49.1074">Coord</text><line style="stroke: #A80036; stroke-width: 1.5;" x1="431" x2="704" y1="60.9531" y2="60.9531"/><rect fill="none" height="6" style="stroke: #C82930; stroke-width: 1.0;" width="6" x="438" y="68.9531"/><text fill="#000000" font-family="sans-serif" font-size="11" lengthAdjust="spacingAndGlyphs" textLength="72" x="450" y="75.1636">numCell : int</text><line style="stroke: #A80036; stroke-width: 1.0;" x1="431" x2="704" y1="81.7578" y2="81.7578"/><line style="stroke: #A80036; stroke-width: 1.0;" x1="431" x2="704" y1="83.7578" y2="83.7578"/><ellipse cx="441" cy="109.5625" fill="#84BE84" rx="3" ry="3" style="stroke: #038048; stroke-width: 1.0;"/><text fill="#000000" font-family="sans-serif" font-size="11" lengthAdjust="spacingAndGlyphs" text-decoration="underline" textLength="115" x="450" y="112.7729">new Coord() : Coord</text><ellipse cx="441" cy="122.3672" fill="#84BE84" rx="3" ry="3" style="stroke: #038048; stroke-width: 1.0;"/><text fill="#000000" font-family="sans-serif" font-size="11" lengthAdjust="spacingAndGlyphs" text-decoration="underline" textLength="149" x="450" y="125.5776">new Coord(String) : Coord</text><ellipse cx="441" cy="135.1719" fill="#84BE84" rx="3" ry="3" style="stroke: #038048; stroke-width: 1.0;"/><text fill="#000000" font-family="sans-serif" font-size="11" lengthAdjust="spacingAndGlyphs" text-decoration="underline" textLength="147" x="450" y="138.3823">new Coord(int,int) : Coord</text><ellipse cx="441" cy="147.9766" fill="#84BE84" rx="3" ry="3" style="stroke: #038048; stroke-width: 1.0;"/><text fill="#000000" font-family="sans-serif" font-size="11" lengthAdjust="spacingAndGlyphs" text-decoration="underline" textLength="129" x="450" y="151.187">new Coord(int) : Coord</text><line style="stroke: #A80036; stroke-width: 1.0; stroke-dasharray: 1.0,2.0;" x1="431" x2="527" y1="96.1602" y2="96.1602"/><text fill="#000000" font-family="sans-serif" font-size="11" lengthAdjust="spacingAndGlyphs" textLength="81" x="527" y="99.4683">Constructeurs</text><line style="stroke: #A80036; stroke-width: 1.0; stroke-dasharray: 1.0,2.0;" x1="608" x2="704" y1="96.1602" y2="96.1602"/><ellipse cx="441" cy="177.5859" fill="#84BE84" rx="3" ry="3" style="stroke: #038048; stroke-width: 1.0;"/><text fill="#000000" font-family="sans-serif" font-size="11" lengthAdjust="spacingAndGlyphs" textLength="105" x="450" y="180.7964">getId(void) : String</text><line style="stroke: #A80036; stroke-width: 1.0; stroke-dasharray: 1.0,2.0;" x1="431" x2="500.5" y1="164.1836" y2="164.1836"/><text fill="#000000" font-family="sans-serif" font-size="11" lengthAdjust="spacingAndGlyphs" textLength="134" x="500.5" y="167.4917">Accesseurs graphiques</text><line style="stroke: #A80036; stroke-width: 1.0; stroke-dasharray: 1.0,2.0;" x1="634.5" x2="704" y1="164.1836" y2="164.1836"/><ellipse cx="441" cy="207.1953" fill="#84BE84" rx="3" ry="3" style="stroke: #038048; stroke-width: 1.0;"/><text fill="#000000" font-family="sans-serif" font-size="11" lengthAdjust="spacingAndGlyphs" textLength="98" x="450" y="210.4058">getLine(void) : int</text><ellipse cx="441" cy="220" fill="#84BE84" rx="3" ry="3" style="stroke: #038048; stroke-width: 1.0;"/><text fill="#000000" font-family="sans-serif" font-size="11" lengthAdjust="spacingAndGlyphs" textLength="118" x="450" y="223.2104">getColumn(void) : int</text><line style="stroke: #A80036; stroke-width: 1.0; stroke-dasharray: 1.0,2.0;" x1="431" x2="508" y1="193.793" y2="193.793"/><text fill="#000000" font-family="sans-serif" font-size="11" lengthAdjust="spacingAndGlyphs" textLength="119" x="508" y="197.1011">Accesseurs matriciel</text><line style="stroke: #A80036; stroke-width: 1.0; stroke-dasharray: 1.0,2.0;" x1="627" x2="704" y1="193.793" y2="193.793"/><ellipse cx="441" cy="249.6094" fill="#84BE84" rx="3" ry="3" style="stroke: #038048; stroke-width: 1.0;"/><text fill="#000000" font-family="sans-serif" font-size="11" lengthAdjust="spacingAndGlyphs" textLength="108" x="450" y="252.8198">getIndice(void) : int</text><rect fill="#F24D5C" height="6" style="stroke: #C82930; stroke-width: 1.0;" width="6" x="438" y="259.4141"/><text fill="#000000" font-family="sans-serif" font-size="11" lengthAdjust="spacingAndGlyphs" textLength="108" x="450" y="265.6245">setIndice(int) : void</text><line style="stroke: #A80036; stroke-width: 1.0; stroke-dasharray: 1.0,2.0;" x1="431" x2="518.5" y1="236.207" y2="236.207"/><text fill="#000000" font-family="sans-serif" font-size="11" lengthAdjust="spacingAndGlyphs" textLength="98" x="518.5" y="239.5151">Accesseur linaire</text><line style="stroke: #A80036; stroke-width: 1.0; stroke-dasharray: 1.0,2.0;" x1="616.5" x2="704" y1="236.207" y2="236.207"/><ellipse cx="441" cy="292.0234" fill="#84BE84" rx="3" ry="3" style="stroke: #038048; stroke-width: 1.0;"/><text fill="#000000" font-family="sans-serif" font-size="11" lengthAdjust="spacingAndGlyphs" textLength="212" x="450" y="295.2339">nextCell(void) : boolean // EndOfLine?</text><ellipse cx="441" cy="304.8281" fill="#84BE84" rx="3" ry="3" style="stroke: #038048; stroke-width: 1.0;"/><text fill="#000000" font-family="sans-serif" font-size="11" lengthAdjust="spacingAndGlyphs" textLength="244" x="450" y="308.0386">previousCell(void) : boolean // StartOfLine?</text><ellipse cx="441" cy="317.6328" fill="#84BE84" rx="3" ry="3" style="stroke: #038048; stroke-width: 1.0;"/><text fill="#000000" font-family="sans-serif" font-size="11" lengthAdjust="spacingAndGlyphs" textLength="209" x="450" y="320.8433">nextLine(void) : boolean // EndOfCol?</text><ellipse cx="441" cy="330.4375" fill="#84BE84" rx="3" ry="3" style="stroke: #038048; stroke-width: 1.0;"/><text fill="#000000" font-family="sans-serif" font-size="11" lengthAdjust="spacingAndGlyphs" textLength="237" x="450" y="333.6479">previousLine(void) : boolean //StartOfCol?</text><ellipse cx="441" cy="343.2422" fill="#84BE84" rx="3" ry="3" style="stroke: #038048; stroke-width: 1.0;"/><text fill="#000000" font-family="sans-serif" font-size="11" lengthAdjust="spacingAndGlyphs" textLength="189" x="450" y="346.4526">newColumn(void) : boolean //true</text><ellipse cx="441" cy="356.0469" fill="#84BE84" rx="3" ry="3" style="stroke: #038048; stroke-width: 1.0;"/><text fill="#000000" font-family="sans-serif" font-size="11" lengthAdjust="spacingAndGlyphs" textLength="183" x="450" y="359.2573">oldColumn(void) : boolean //true</text><ellipse cx="441" cy="368.8516" fill="#84BE84" rx="3" ry="3" style="stroke: #038048; stroke-width: 1.0;"/><text fill="#000000" font-family="sans-serif" font-size="11" lengthAdjust="spacingAndGlyphs" textLength="169" x="450" y="372.062">newLine(void) : boolean //true</text><ellipse cx="441" cy="381.6563" fill="#84BE84" rx="3" ry="3" style="stroke: #038048; stroke-width: 1.0;"/><text fill="#000000" font-family="sans-serif" font-size="11" lengthAdjust="spacingAndGlyphs" textLength="163" x="450" y="384.8667">oldLine(void) : boolean //true</text><ellipse cx="441" cy="394.4609" fill="#84BE84" rx="3" ry="3" style="stroke: #038048; stroke-width: 1.0;"/><text fill="#000000" font-family="sans-serif" font-size="11" lengthAdjust="spacingAndGlyphs" textLength="249" x="450" y="397.6714">moveCoord(Supplier&lt;Boolean&gt;,nbRep) : int</text><line style="stroke: #A80036; stroke-width: 1.0; stroke-dasharray: 1.0,2.0;" x1="431" x2="541.5" y1="278.6211" y2="278.6211"/><text fill="#000000" font-family="sans-serif" font-size="11" lengthAdjust="spacingAndGlyphs" textLength="52" x="541.5" y="281.9292">Modifieur</text><line style="stroke: #A80036; stroke-width: 1.0; stroke-dasharray: 1.0,2.0;" x1="593.5" x2="704" y1="278.6211" y2="278.6211"/><ellipse cx="441" cy="424.0703" fill="#84BE84" rx="3" ry="3" style="stroke: #038048; stroke-width: 1.0;"/><text fill="#000000" font-family="sans-serif" font-size="11" lengthAdjust="spacingAndGlyphs" textLength="150" x="450" y="427.2808">equals(Object o) : boolean</text><ellipse cx="441" cy="436.875" fill="#84BE84" rx="3" ry="3" style="stroke: #038048; stroke-width: 1.0;"/><text fill="#000000" font-family="sans-serif" font-size="11" lengthAdjust="spacingAndGlyphs" textLength="142" x="450" y="440.0854">compareTo(Coord c) : int</text><line style="stroke: #A80036; stroke-width: 1.0; stroke-dasharray: 1.0,2.0;" x1="431" x2="529.5" y1="410.668" y2="410.668"/><text fill="#000000" font-family="sans-serif" font-size="11" lengthAdjust="spacingAndGlyphs" textLength="76" x="529.5" y="413.9761">Comparaison</text><line style="stroke: #A80036; stroke-width: 1.0; stroke-dasharray: 1.0,2.0;" x1="605.5" x2="704" y1="410.668" y2="410.668"/><ellipse cx="441" cy="466.4844" fill="#84BE84" rx="3" ry="3" style="stroke: #038048; stroke-width: 1.0;"/><text fill="#000000" font-family="sans-serif" font-size="11" lengthAdjust="spacingAndGlyphs" textLength="103" x="450" y="469.6948">copy(void) : Coord</text><ellipse cx="441" cy="479.2891" fill="#84BE84" rx="3" ry="3" style="stroke: #038048; stroke-width: 1.0;"/><text fill="#000000" font-family="sans-serif" font-size="11" lengthAdjust="spacingAndGlyphs" textLength="114" x="450" y="482.4995">copy(Coord) : Coord</text><ellipse cx="441" cy="492.0938" fill="#84BE84" rx="3" ry="3" style="stroke: #038048; stroke-width: 1.0;"/><text fill="#000000" font-family="sans-serif" font-size="11" lengthAdjust="spacingAndGlyphs" textLength="115" x="450" y="495.3042">exist(void) : boolean</text><line style="stroke: #A80036; stroke-width: 1.0; stroke-dasharray: 1.0,2.0;" x1="431" x2="549" y1="453.082" y2="453.082"/><text fill="#000000" font-family="sans-serif" font-size="11" lengthAdjust="spacingAndGlyphs" textLength="37" x="549" y="456.3901">Autres</text><line style="stroke: #A80036; stroke-width: 1.0; stroke-dasharray: 1.0,2.0;" x1="586" x2="704" y1="453.082" y2="453.082"/><path d="M6,214.9531 L6,255.2188 A0,0 0 0 0 6,255.2188 L298,255.2188 A0,0 0 0 0 298,255.2188 L298,239.0859 L434,176.9883 L298,231.0859 L298,224.9531 L288,214.9531 L6,214.9531 A0,0 0 0 0 6,214.9531 " fill="#FBFB77" filter="url(#f1uo7veih8jgep)" style="stroke: #A80036; stroke-width: 1.0;"/><path d="M288,214.9531 L288,224.9531 L298,224.9531 L288,214.9531 " fill="#FBFB77" style="stroke: #A80036; stroke-width: 1.0;"/><text fill="#000000" font-family="sans-serif" font-size="13" lengthAdjust="spacingAndGlyphs" textLength="178" x="12" y="232.02">id : Coordonnée d'une case,</text><text fill="#000000" font-family="sans-serif" font-size="13" lengthAdjust="spacingAndGlyphs" textLength="271" x="12" y="247.1528">pour le controleur de l'interface graphique.</text><path d="M6,265.2188 L6,305.4844 A0,0 0 0 0 6,305.4844 L395,305.4844 A0,0 0 0 0 395,305.4844 L395,289.3516 L434,206.5977 L395,281.3516 L395,275.2188 L385,265.2188 L6,265.2188 A0,0 0 0 0 6,265.2188 " fill="#FBFB77" filter="url(#f1uo7veih8jgep)" style="stroke: #A80036; stroke-width: 1.0;"/><path d="M385,265.2188 L385,275.2188 L395,275.2188 L385,265.2188 " fill="#FBFB77" style="stroke: #A80036; stroke-width: 1.0;"/><text fill="#000000" font-family="sans-serif" font-size="13" lengthAdjust="spacingAndGlyphs" textLength="255" x="12" y="282.2856">line &amp; column : Coordonnée d'une case,</text><text fill="#000000" font-family="sans-serif" font-size="13" lengthAdjust="spacingAndGlyphs" textLength="368" x="12" y="297.4185">pour le moteur de jeu (la classe gérant la matrice de jeu).</text><!--MD5=[361cad903ff6a448b585aae08e81353d]
link Coord$$$LEFT to Coord--><text fill="#888888" font-family="sans-serif" font-size="10" lengthAdjust="spacingAndGlyphs" textLength="437" x="143" y="521.2354">Sert d'interface entre plusieurs modules n'utilisant pas le même système de coordonnées.</text><!--MD5=[217d95f7fb210fdf38ec4dd384fcf1e3]
@startuml classes_coord

title diagramme de la classe gérant les coordonnées

class "Coord" AS Coord {
	{field} - numCell : int
	==
	.. Constructeurs ..
	{method} {static} + new Coord() : Coord
	{method} {static} + new Coord(String) : Coord
	{method} {static} + new Coord(int,int) : Coord
	{method} {static} + new Coord(int) : Coord
	.. Accesseurs graphiques ..
	{method} + getId(void) : String
	.. Accesseurs matriciel ..
	{method} + getLine(void) : int
	{method} + getColumn(void) : int
	.. Accesseur linaire ..
	{method} + getIndice(void) : int
	{method} - setIndice(int) : void
	.. Modifieur ..
	{method} + nextCell(void) : boolean // EndOfLine?
	{method} + previousCell(void) : boolean // StartOfLine?
	{method} + nextLine(void) : boolean // EndOfCol?
	{method} + previousLine(void) : boolean //StartOfCol?
	{method} + newColumn(void) : boolean //true
	{method} + oldColumn(void) : boolean //true
	{method} + newLine(void) : boolean //true
	{method} + oldLine(void) : boolean //true
	{method} + moveCoord(Supplier<Boolean>,nbRep) : int
	.. Comparaison ..
	{method} + equals(Object o) : boolean
	{method} + compareTo(Coord c) : int
	.. Autres ..
	{method} + copy(void) : Coord
	{method} + copy(Coord) : Coord
	{method} + exist(void) : boolean
}
note left of Coord::getId
	id : Coordonnée d'une case,
	pour le controleur de l'interface graphique.
	end note
	note left of Coord::getLine
	line & column : Coordonnée d'une case,
	pour le moteur de jeu (la classe gérant la matrice de jeu).
end note

center footer Sert d'interface entre plusieurs modules n'utilisant pas le même système de coordonnées.
@enduml

PlantUML version 1.2020.02(Sun Mar 01 11:22:07 CET 2020)
(GPL source distribution)
Java Runtime: OpenJDK Runtime Environment
JVM: OpenJDK 64-Bit Server VM
Java Version: 17.0.9+9-Ubuntu-122.04
Operating System: Linux
Default Encoding: UTF-8
Language: en
Country: GB
--></g></svg>