<?xml version="1.0" encoding="UTF-8" standalone="no"?><svg xmlns="http://www.w3.org/2000/svg" xmlns:xlink="http://www.w3.org/1999/xlink" contentScriptType="application/ecmascript" contentStyleType="text/css" height="766px" preserveAspectRatio="none" style="width:2227px;height:766px;" version="1.1" viewBox="0 0 2227 766" width="2227px" zoomAndPan="magnify"><defs><filter height="300%" id="f1usb6efdv1r4y" width="300%" x="-1" y="-1"><feGaussianBlur result="blurOut" stdDeviation="2.0"/><feColorMatrix in="blurOut" result="blurOut2" type="matrix" values="0 0 0 0 0 0 0 0 0 0 0 0 0 0 0 0 0 0 .4 0"/><feOffset dx="4.0" dy="4.0" in="blurOut2" result="blurOut3"/><feBlend in="SourceGraphic" in2="blurOut3" mode="normal"/></filter></defs><g><text fill="#000000" font-family="sans-serif" font-size="18" lengthAdjust="spacingAndGlyphs" textLength="469" x="882" y="16.708">diagramme des classes responsable des règles du jeu</text><!--MD5=[f7217341b3bb6bbf768c7f0e049f8d09]
cluster Legend--><polygon fill="#ADD8E6" filter="url(#f1usb6efdv1r4y)" points="22,195.4531,87,195.4531,94,217.75,1481,217.75,1481,548.4531,22,548.4531,22,195.4531" style="stroke: #000000; stroke-width: 1.5;"/><line style="stroke: #000000; stroke-width: 1.5;" x1="22" x2="94" y1="217.75" y2="217.75"/><text fill="#000000" font-family="sans-serif" font-size="14" font-weight="bold" lengthAdjust="spacingAndGlyphs" textLength="59" x="26" y="210.4482">Legend</text><!--MD5=[cf39a86b148c3d2a53e894bf08c046dd]
class I--><rect fill="#FEFECE" filter="url(#f1usb6efdv1r4y)" height="136.8281" id="I" style="stroke: #A80036; stroke-width: 1.5;" width="382" x="38" y="312.9531"/><ellipse cx="196.25" cy="328.9531" fill="#B4A7E5" rx="11" ry="11" style="stroke: #A80036; stroke-width: 1.0;"/><path d="M192.1719,324.7188 L192.1719,322.5625 L199.5625,322.5625 L199.5625,324.7188 L197.0938,324.7188 L197.0938,332.7969 L199.5625,332.7969 L199.5625,334.9531 L192.1719,334.9531 L192.1719,332.7969 L194.6406,332.7969 L194.6406,324.7188 L192.1719,324.7188 Z "/><text fill="#000000" font-family="sans-serif" font-size="12" font-style="italic" lengthAdjust="spacingAndGlyphs" textLength="57" x="216.75" y="333.1074">Interface</text><line style="stroke: #A80036; stroke-width: 1.5;" x1="39" x2="419" y1="344.9531" y2="344.9531"/><ellipse cx="49" cy="372.7578" fill="none" rx="3" ry="3" style="stroke: #038048; stroke-width: 1.0;"/><text fill="#000000" font-family="sans-serif" font-size="11" lengthAdjust="spacingAndGlyphs" text-decoration="underline" textLength="94" x="58" y="375.9683">CONST_PUBLIC :</text><text fill="#008000" font-family="sans-serif" font-size="11" lengthAdjust="spacingAndGlyphs" text-decoration="underline" textLength="24" x="156" y="375.9683">final</text><text fill="#000000" font-family="sans-serif" font-size="11" lengthAdjust="spacingAndGlyphs" text-decoration="underline" textLength="24" x="184" y="375.9683">type</text><line style="stroke: #A80036; stroke-width: 1.0; stroke-dasharray: 1.0,2.0;" x1="39" x2="141" y1="359.3555" y2="359.3555"/><text fill="#000000" font-family="sans-serif" font-size="11" lengthAdjust="spacingAndGlyphs" textLength="176" x="141" y="362.6636">"Seul type d'attribut authorisé"</text><line style="stroke: #A80036; stroke-width: 1.0; stroke-dasharray: 1.0,2.0;" x1="317" x2="419" y1="359.3555" y2="359.3555"/><line style="stroke: #A80036; stroke-width: 1.0;" x1="39" x2="419" y1="382.5625" y2="382.5625"/><line style="stroke: #A80036; stroke-width: 1.0;" x1="39" x2="419" y1="384.5625" y2="384.5625"/><ellipse cx="49" cy="410.3672" fill="#84BE84" rx="3" ry="3" style="stroke: #038048; stroke-width: 1.0;"/><text fill="#000000" font-family="sans-serif" font-size="11" lengthAdjust="spacingAndGlyphs" textLength="324" x="58" y="413.5776">methodePublic(typeParams) : typeRetour # retourDefault</text><line style="stroke: #A80036; stroke-width: 1.0; stroke-dasharray: 1.0,2.0;" x1="39" x2="157.5" y1="396.9648" y2="396.9648"/><text fill="#000000" font-family="sans-serif" font-size="11" lengthAdjust="spacingAndGlyphs" textLength="143" x="157.5" y="400.2729">"Methodes de l'interface"</text><line style="stroke: #A80036; stroke-width: 1.0; stroke-dasharray: 1.0,2.0;" x1="300.5" x2="419" y1="396.9648" y2="396.9648"/><ellipse cx="49" cy="439.9766" fill="#84BE84" rx="3" ry="3" style="stroke: #038048; stroke-width: 1.0;"/><text fill="#000000" font-family="sans-serif" font-size="11" lengthAdjust="spacingAndGlyphs" text-decoration="underline" textLength="356" x="58" y="443.187">methodePublicStatic(typeParams) : typeRetour # retourDefault</text><line style="stroke: #A80036; stroke-width: 1.0; stroke-dasharray: 1.0,2.0;" x1="39" x2="140" y1="426.5742" y2="426.5742"/><text fill="#000000" font-family="sans-serif" font-size="11" lengthAdjust="spacingAndGlyphs" textLength="178" x="140" y="429.8823">"Methodes static de l'interface"</text><line style="stroke: #A80036; stroke-width: 1.0; stroke-dasharray: 1.0,2.0;" x1="318" x2="419" y1="426.5742" y2="426.5742"/><!--MD5=[a46ee5ce0ceb0380cf446a08a056dce4]
class A--><rect fill="#FEFECE" filter="url(#f1usb6efdv1r4y)" height="302.4844" id="A" style="stroke: #A80036; stroke-width: 1.5;" width="395" x="565.5" y="230.4531"/><ellipse cx="713.25" cy="246.4531" fill="#A9DCDF" rx="11" ry="11" style="stroke: #A80036; stroke-width: 1.0;"/><path d="M713.3594,241.7969 L712.2031,246.875 L714.5313,246.875 L713.3594,241.7969 Z M711.875,239.5625 L714.8594,239.5625 L718.2188,251.9531 L715.7656,251.9531 L715,248.8906 L711.7188,248.8906 L710.9688,251.9531 L708.5313,251.9531 L711.875,239.5625 Z "/><text fill="#000000" font-family="sans-serif" font-size="12" font-style="italic" lengthAdjust="spacingAndGlyphs" textLength="91" x="733.75" y="250.6074">abstractClasse</text><line style="stroke: #A80036; stroke-width: 1.5;" x1="566.5" x2="959.5" y1="262.4531" y2="262.4531"/><rect fill="none" height="6" style="stroke: #C82930; stroke-width: 1.0;" width="6" x="573.5" y="287.2578"/><text fill="#000000" font-family="sans-serif" font-size="11" lengthAdjust="spacingAndGlyphs" text-decoration="underline" textLength="120" x="585.5" y="293.4683">CONST_PRIVEE : type</text><line style="stroke: #A80036; stroke-width: 1.0; stroke-dasharray: 1.0,2.0;" x1="566.5" x2="734" y1="276.8555" y2="276.8555"/><text fill="#000000" font-family="sans-serif" font-size="11" lengthAdjust="spacingAndGlyphs" textLength="58" x="734" y="280.1636">Constante</text><line style="stroke: #A80036; stroke-width: 1.0; stroke-dasharray: 1.0,2.0;" x1="792" x2="959.5" y1="276.8555" y2="276.8555"/><rect fill="none" height="6" style="stroke: #C82930; stroke-width: 1.0;" width="6" x="573.5" y="316.8672"/><text fill="#000000" font-family="sans-serif" font-size="11" lengthAdjust="spacingAndGlyphs" textLength="112" x="585.5" y="323.0776">attributPrivee : type</text><polygon fill="none" points="576.5,327.6719,580.5,331.6719,576.5,335.6719,572.5,331.6719" style="stroke: #B38D22; stroke-width: 1.0;"/><text fill="#000000" font-family="sans-serif" font-size="11" lengthAdjust="spacingAndGlyphs" textLength="121" x="585.5" y="335.8823">attributProtege : type</text><polygon fill="none" points="576.5,341.4766,572.5,347.4766,580.5,347.4766" style="stroke: #1963A0; stroke-width: 1.0;"/><text fill="#000000" font-family="sans-serif" font-size="11" lengthAdjust="spacingAndGlyphs" textLength="124" x="585.5" y="348.687">attributPackage : type</text><ellipse cx="576.5" cy="358.2813" fill="none" rx="3" ry="3" style="stroke: #038048; stroke-width: 1.0;"/><text fill="#000000" font-family="sans-serif" font-size="11" lengthAdjust="spacingAndGlyphs" textLength="110" x="585.5" y="361.4917">attributPublic : type</text><line style="stroke: #A80036; stroke-width: 1.0; stroke-dasharray: 1.0,2.0;" x1="566.5" x2="739" y1="306.4648" y2="306.4648"/><text fill="#000000" font-family="sans-serif" font-size="11" lengthAdjust="spacingAndGlyphs" textLength="48" x="739" y="309.7729">Attributs</text><line style="stroke: #A80036; stroke-width: 1.0; stroke-dasharray: 1.0,2.0;" x1="787" x2="959.5" y1="306.4648" y2="306.4648"/><line style="stroke: #A80036; stroke-width: 1.0;" x1="566.5" x2="959.5" y1="368.0859" y2="368.0859"/><line style="stroke: #A80036; stroke-width: 1.0;" x1="566.5" x2="959.5" y1="370.0859" y2="370.0859"/><rect fill="#F24D5C" height="6" style="stroke: #C82930; stroke-width: 1.0;" width="6" x="573.5" y="392.8906"/><text fill="#000000" font-family="sans-serif" font-size="11" lengthAdjust="spacingAndGlyphs" textLength="326" x="585.5" y="399.1011">methodePrive2(typeParams) : typeRetour # retourDefault</text><polygon fill="#FFFF44" points="576.5,403.6953,580.5,407.6953,576.5,411.6953,572.5,407.6953" style="stroke: #B38D22; stroke-width: 1.0;"/><text fill="#000000" font-family="sans-serif" font-size="11" lengthAdjust="spacingAndGlyphs" textLength="335" x="585.5" y="411.9058">methodeProtege(typeParams) : typeRetour # retourDefault</text><polygon fill="#4177AF" points="576.5,417.5,572.5,423.5,580.5,423.5" style="stroke: #1963A0; stroke-width: 1.0;"/><text fill="#000000" font-family="sans-serif" font-size="11" lengthAdjust="spacingAndGlyphs" textLength="338" x="585.5" y="424.7104">methodePackage(typeParams) : typeRetour # retourDefault</text><ellipse cx="576.5" cy="434.3047" fill="#84BE84" rx="3" ry="3" style="stroke: #038048; stroke-width: 1.0;"/><text fill="#000000" font-family="sans-serif" font-size="11" lengthAdjust="spacingAndGlyphs" textLength="324" x="585.5" y="437.5151">methodePublic(typeParams) : typeRetour # retourDefault</text><line style="stroke: #A80036; stroke-width: 1.0; stroke-dasharray: 1.0,2.0;" x1="566.5" x2="735.5" y1="382.4883" y2="382.4883"/><text fill="#000000" font-family="sans-serif" font-size="11" lengthAdjust="spacingAndGlyphs" textLength="55" x="735.5" y="385.7964">Methodes</text><line style="stroke: #A80036; stroke-width: 1.0; stroke-dasharray: 1.0,2.0;" x1="790.5" x2="959.5" y1="382.4883" y2="382.4883"/><rect fill="#F24D5C" height="6" style="stroke: #C82930; stroke-width: 1.0;" width="6" x="573.5" y="460.9141"/><text fill="#000000" font-family="sans-serif" font-size="11" lengthAdjust="spacingAndGlyphs" textLength="331" x="585.5" y="467.1245">@methodePrive(typeParams) : typeRetour # retourDefault</text><line style="stroke: #A80036; stroke-width: 1.0; stroke-dasharray: 1.0,2.0;" x1="566.5" x2="709" y1="450.5117" y2="450.5117"/><text fill="#000000" font-family="sans-serif" font-size="11" lengthAdjust="spacingAndGlyphs" textLength="108" x="709" y="453.8198">Methodes Override</text><line style="stroke: #A80036; stroke-width: 1.0; stroke-dasharray: 1.0,2.0;" x1="817" x2="959.5" y1="450.5117" y2="450.5117"/><rect fill="#F24D5C" height="6" style="stroke: #C82930; stroke-width: 1.0;" width="6" x="573.5" y="490.5234"/><text fill="#000000" font-family="sans-serif" font-size="11" font-style="italic" lengthAdjust="spacingAndGlyphs" textLength="369" x="585.5" y="496.7339">methodePriveAbstract(typeParams) : typeRetour # retourDefault</text><line style="stroke: #A80036; stroke-width: 1.0; stroke-dasharray: 1.0,2.0;" x1="566.5" x2="704.5" y1="480.1211" y2="480.1211"/><text fill="#000000" font-family="sans-serif" font-size="11" lengthAdjust="spacingAndGlyphs" textLength="117" x="704.5" y="483.4292">Methodes abstraites</text><line style="stroke: #A80036; stroke-width: 1.0; stroke-dasharray: 1.0,2.0;" x1="821.5" x2="959.5" y1="480.1211" y2="480.1211"/><rect fill="#F24D5C" height="6" style="stroke: #C82930; stroke-width: 1.0;" width="6" x="573.5" y="520.1328"/><text fill="#000000" font-family="sans-serif" font-size="11" lengthAdjust="spacingAndGlyphs" text-decoration="underline" textLength="351" x="585.5" y="526.3433">methodePriveStatic(typeParams) : typeRetour # retourDefault</text><line style="stroke: #A80036; stroke-width: 1.0; stroke-dasharray: 1.0,2.0;" x1="566.5" x2="707" y1="509.7305" y2="509.7305"/><text fill="#000000" font-family="sans-serif" font-size="11" lengthAdjust="spacingAndGlyphs" textLength="112" x="707" y="513.0386">Methodes statiques</text><line style="stroke: #A80036; stroke-width: 1.0; stroke-dasharray: 1.0,2.0;" x1="819" x2="959.5" y1="509.7305" y2="509.7305"/><!--MD5=[378b18254a1b2429f435e93f5e5cc50c]
class C--><rect fill="#FEFECE" filter="url(#f1usb6efdv1r4y)" height="272.875" id="C" style="stroke: #A80036; stroke-width: 1.5;" width="384" x="1081" y="244.9531"/><ellipse cx="1248.25" cy="260.9531" fill="#ADD1B2" rx="11" ry="11" style="stroke: #A80036; stroke-width: 1.0;"/><path d="M1251.2188,266.5938 Q1250.6406,266.8906 1250,267.0313 Q1249.3594,267.1875 1248.6563,267.1875 Q1246.1563,267.1875 1244.8281,265.5469 Q1243.5156,263.8906 1243.5156,260.7656 Q1243.5156,257.6406 1244.8281,255.9844 Q1246.1563,254.3281 1248.6563,254.3281 Q1249.3594,254.3281 1250,254.4844 Q1250.6563,254.6406 1251.2188,254.9375 L1251.2188,257.6563 Q1250.5938,257.0781 1250,256.8125 Q1249.4063,256.5313 1248.7813,256.5313 Q1247.4375,256.5313 1246.75,257.6094 Q1246.0625,258.6719 1246.0625,260.7656 Q1246.0625,262.8594 1246.75,263.9375 Q1247.4375,265 1248.7813,265 Q1249.4063,265 1250,264.7344 Q1250.5938,264.4531 1251.2188,263.875 L1251.2188,266.5938 Z "/><text fill="#000000" font-family="sans-serif" font-size="12" lengthAdjust="spacingAndGlyphs" textLength="41" x="1268.75" y="265.1074">Classe</text><line style="stroke: #A80036; stroke-width: 1.5;" x1="1082" x2="1464" y1="276.9531" y2="276.9531"/><rect fill="none" height="6" style="stroke: #C82930; stroke-width: 1.0;" width="6" x="1089" y="301.7578"/><text fill="#000000" font-family="sans-serif" font-size="11" lengthAdjust="spacingAndGlyphs" text-decoration="underline" textLength="120" x="1101" y="307.9683">CONST_PRIVEE : type</text><line style="stroke: #A80036; stroke-width: 1.0; stroke-dasharray: 1.0,2.0;" x1="1082" x2="1244" y1="291.3555" y2="291.3555"/><text fill="#000000" font-family="sans-serif" font-size="11" lengthAdjust="spacingAndGlyphs" textLength="58" x="1244" y="294.6636">Constante</text><line style="stroke: #A80036; stroke-width: 1.0; stroke-dasharray: 1.0,2.0;" x1="1302" x2="1464" y1="291.3555" y2="291.3555"/><rect fill="none" height="6" style="stroke: #C82930; stroke-width: 1.0;" width="6" x="1089" y="331.3672"/><text fill="#000000" font-family="sans-serif" font-size="11" lengthAdjust="spacingAndGlyphs" textLength="112" x="1101" y="337.5776">attributPrivee : type</text><polygon fill="none" points="1092,342.1719,1096,346.1719,1092,350.1719,1088,346.1719" style="stroke: #B38D22; stroke-width: 1.0;"/><text fill="#000000" font-family="sans-serif" font-size="11" lengthAdjust="spacingAndGlyphs" textLength="121" x="1101" y="350.3823">attributProtege : type</text><polygon fill="none" points="1092,355.9766,1088,361.9766,1096,361.9766" style="stroke: #1963A0; stroke-width: 1.0;"/><text fill="#000000" font-family="sans-serif" font-size="11" lengthAdjust="spacingAndGlyphs" textLength="124" x="1101" y="363.187">attributPackage : type</text><ellipse cx="1092" cy="372.7813" fill="none" rx="3" ry="3" style="stroke: #038048; stroke-width: 1.0;"/><text fill="#000000" font-family="sans-serif" font-size="11" lengthAdjust="spacingAndGlyphs" textLength="110" x="1101" y="375.9917">attributPublic : type</text><line style="stroke: #A80036; stroke-width: 1.0; stroke-dasharray: 1.0,2.0;" x1="1082" x2="1249" y1="320.9648" y2="320.9648"/><text fill="#000000" font-family="sans-serif" font-size="11" lengthAdjust="spacingAndGlyphs" textLength="48" x="1249" y="324.2729">Attributs</text><line style="stroke: #A80036; stroke-width: 1.0; stroke-dasharray: 1.0,2.0;" x1="1297" x2="1464" y1="320.9648" y2="320.9648"/><line style="stroke: #A80036; stroke-width: 1.0;" x1="1082" x2="1464" y1="382.5859" y2="382.5859"/><line style="stroke: #A80036; stroke-width: 1.0;" x1="1082" x2="1464" y1="384.5859" y2="384.5859"/><rect fill="#F24D5C" height="6" style="stroke: #C82930; stroke-width: 1.0;" width="6" x="1089" y="407.3906"/><text fill="#000000" font-family="sans-serif" font-size="11" lengthAdjust="spacingAndGlyphs" textLength="326" x="1101" y="413.6011">methodePrive3(typeParams) : typeRetour # retourDefault</text><polygon fill="#FFFF44" points="1092,418.1953,1096,422.1953,1092,426.1953,1088,422.1953" style="stroke: #B38D22; stroke-width: 1.0;"/><text fill="#000000" font-family="sans-serif" font-size="11" lengthAdjust="spacingAndGlyphs" textLength="342" x="1101" y="426.4058">methodeProtege2(typeParams) : typeRetour # retourDefault</text><polygon fill="#4177AF" points="1092,432,1088,438,1096,438" style="stroke: #1963A0; stroke-width: 1.0;"/><text fill="#000000" font-family="sans-serif" font-size="11" lengthAdjust="spacingAndGlyphs" textLength="345" x="1101" y="439.2104">methodePackage2(typeParams) : typeRetour # retourDefault</text><ellipse cx="1092" cy="448.8047" fill="#84BE84" rx="3" ry="3" style="stroke: #038048; stroke-width: 1.0;"/><text fill="#000000" font-family="sans-serif" font-size="11" lengthAdjust="spacingAndGlyphs" textLength="331" x="1101" y="452.0151">methodePublic2(typeParams) : typeRetour # retourDefault</text><line style="stroke: #A80036; stroke-width: 1.0; stroke-dasharray: 1.0,2.0;" x1="1082" x2="1245.5" y1="396.9883" y2="396.9883"/><text fill="#000000" font-family="sans-serif" font-size="11" lengthAdjust="spacingAndGlyphs" textLength="55" x="1245.5" y="400.2964">Methodes</text><line style="stroke: #A80036; stroke-width: 1.0; stroke-dasharray: 1.0,2.0;" x1="1300.5" x2="1464" y1="396.9883" y2="396.9883"/><rect fill="#F24D5C" height="6" style="stroke: #C82930; stroke-width: 1.0;" width="6" x="1089" y="475.4141"/><text fill="#000000" font-family="sans-serif" font-size="11" lengthAdjust="spacingAndGlyphs" textLength="338" x="1101" y="481.6245">@methodePrive2(typeParams) : typeRetour # retourDefault</text><line style="stroke: #A80036; stroke-width: 1.0; stroke-dasharray: 1.0,2.0;" x1="1082" x2="1219" y1="465.0117" y2="465.0117"/><text fill="#000000" font-family="sans-serif" font-size="11" lengthAdjust="spacingAndGlyphs" textLength="108" x="1219" y="468.3198">Methodes Override</text><line style="stroke: #A80036; stroke-width: 1.0; stroke-dasharray: 1.0,2.0;" x1="1327" x2="1464" y1="465.0117" y2="465.0117"/><rect fill="#F24D5C" height="6" style="stroke: #C82930; stroke-width: 1.0;" width="6" x="1089" y="505.0234"/><text fill="#000000" font-family="sans-serif" font-size="11" lengthAdjust="spacingAndGlyphs" text-decoration="underline" textLength="358" x="1101" y="511.2339">methodePriveStatic2(typeParams) : typeRetour # retourDefault</text><line style="stroke: #A80036; stroke-width: 1.0; stroke-dasharray: 1.0,2.0;" x1="1082" x2="1217" y1="494.6211" y2="494.6211"/><text fill="#000000" font-family="sans-serif" font-size="11" lengthAdjust="spacingAndGlyphs" textLength="112" x="1217" y="497.9292">Methodes statiques</text><line style="stroke: #A80036; stroke-width: 1.0; stroke-dasharray: 1.0,2.0;" x1="1329" x2="1464" y1="494.6211" y2="494.6211"/><!--MD5=[b6dcce5e5ef3c84b0b048d11301373dd]
class Game--><rect fill="#FEFECE" filter="url(#f1usb6efdv1r4y)" height="704.5625" id="Game" style="stroke: #A80036; stroke-width: 1.5;" width="365" x="1500.5" y="28.9531"/><ellipse cx="1639.75" cy="47.9219" fill="#FF7700" rx="11" ry="11" style="stroke: #A80036; stroke-width: 1.0;"/><path d="M1639.2344,48.4844 Q1637.375,47.7813 1636.7188,47.0156 Q1636.0781,46.2344 1636.0781,44.9219 Q1636.0781,43.2344 1637.1563,42.2656 Q1638.2344,41.2969 1640.1094,41.2969 Q1640.9688,41.2969 1641.8125,41.5 Q1642.6719,41.6875 1643.5156,42.0781 L1643.5156,44.4688 Q1642.7344,43.9063 1641.9063,43.625 Q1641.0938,43.3281 1640.2969,43.3281 Q1639.4219,43.3281 1638.9375,43.6875 Q1638.4688,44.0469 1638.4688,44.7031 Q1638.4688,45.2188 1638.8125,45.5625 Q1639.1563,45.8906 1640.25,46.2969 L1641.3125,46.7031 Q1642.7969,47.25 1643.5,48.1563 Q1644.2188,49.0625 1644.2188,50.4375 Q1644.2188,52.3125 1643.1094,53.2344 Q1642,54.1563 1639.75,54.1563 Q1638.8281,54.1563 1637.9063,53.9375 Q1636.9844,53.7188 1636.125,53.2969 L1636.125,50.7656 Q1637.0938,51.4531 1638.0156,51.7969 Q1638.9375,52.1406 1639.8281,52.1406 Q1640.7344,52.1406 1641.2344,51.7344 Q1641.7344,51.3125 1641.7344,50.5781 Q1641.7344,50.0156 1641.3906,49.6094 Q1641.0625,49.1875 1640.4375,48.9375 L1639.2344,48.4844 Z "/><text fill="#000000" font-family="sans-serif" font-size="12" font-style="italic" lengthAdjust="spacingAndGlyphs" textLength="82" x="1658.25" y="45.0918">«Jeu chargé»</text><text fill="#000000" font-family="sans-serif" font-size="12" lengthAdjust="spacingAndGlyphs" textLength="36" x="1681.25" y="59.0605">Game</text><line style="stroke: #A80036; stroke-width: 1.5;" x1="1501.5" x2="1864.5" y1="66.8906" y2="66.8906"/><rect fill="none" height="6" style="stroke: #C82930; stroke-width: 1.0;" width="6" x="1508.5" y="91.6953"/><text fill="#000000" font-family="sans-serif" font-size="11" lengthAdjust="spacingAndGlyphs" text-decoration="underline" textLength="78" x="1520.5" y="97.9058">game : Game</text><rect fill="none" height="6" style="stroke: #C82930; stroke-width: 1.0;" width="6" x="1508.5" y="104.5"/><text fill="#000000" font-family="sans-serif" font-size="11" lengthAdjust="spacingAndGlyphs" textLength="78" x="1520.5" y="110.7104">cstMaxValue :</text><text fill="#008000" font-family="sans-serif" font-size="11" lengthAdjust="spacingAndGlyphs" textLength="24" x="1602.5" y="110.7104">final</text><text fill="#000000" font-family="sans-serif" font-size="11" lengthAdjust="spacingAndGlyphs" textLength="14" x="1630.5" y="110.7104">int</text><rect fill="none" height="6" style="stroke: #C82930; stroke-width: 1.0;" width="6" x="1508.5" y="117.3047"/><text fill="#000000" font-family="sans-serif" font-size="11" lengthAdjust="spacingAndGlyphs" textLength="75" x="1520.5" y="123.5151">cstMinValue :</text><text fill="#008000" font-family="sans-serif" font-size="11" lengthAdjust="spacingAndGlyphs" textLength="24" x="1599.5" y="123.5151">final</text><text fill="#000000" font-family="sans-serif" font-size="11" lengthAdjust="spacingAndGlyphs" textLength="14" x="1627.5" y="123.5151">int</text><line style="stroke: #A80036; stroke-width: 1.0; stroke-dasharray: 1.0,2.0;" x1="1501.5" x2="1650.5" y1="81.293" y2="81.293"/><text fill="#000000" font-family="sans-serif" font-size="11" lengthAdjust="spacingAndGlyphs" textLength="65" x="1650.5" y="84.6011">Constantes</text><line style="stroke: #A80036; stroke-width: 1.0; stroke-dasharray: 1.0,2.0;" x1="1715.5" x2="1864.5" y1="81.293" y2="81.293"/><rect fill="none" height="6" style="stroke: #C82930; stroke-width: 1.0;" width="6" x="1508.5" y="146.9141"/><text fill="#000000" font-family="sans-serif" font-size="11" lengthAdjust="spacingAndGlyphs" textLength="137" x="1520.5" y="153.1245">Deque&lt;Move&gt; lstMoves</text><rect fill="none" height="6" style="stroke: #C82930; stroke-width: 1.0;" width="6" x="1508.5" y="159.7188"/><text fill="#000000" font-family="sans-serif" font-size="11" lengthAdjust="spacingAndGlyphs" textLength="175" x="1520.5" y="165.9292">Deque&lt;Move&gt; lstMovesCancel</text><rect fill="none" height="6" style="stroke: #C82930; stroke-width: 1.0;" width="6" x="1508.5" y="172.5234"/><text fill="#000000" font-family="sans-serif" font-size="11" lengthAdjust="spacingAndGlyphs" textLength="179" x="1520.5" y="178.7339">List&lt;EntryError&gt; lstEntryErrors</text><rect fill="none" height="6" style="stroke: #C82930; stroke-width: 1.0;" width="6" x="1508.5" y="185.3281"/><text fill="#000000" font-family="sans-serif" font-size="11" lengthAdjust="spacingAndGlyphs" textLength="88" x="1520.5" y="191.5386">int correctState</text><rect fill="none" height="6" style="stroke: #C82930; stroke-width: 1.0;" width="6" x="1508.5" y="198.1328"/><text fill="#000000" font-family="sans-serif" font-size="11" lengthAdjust="spacingAndGlyphs" textLength="50" x="1520.5" y="204.3433">Grid grid</text><rect fill="none" height="6" style="stroke: #C82930; stroke-width: 1.0;" width="6" x="1508.5" y="210.9375"/><text fill="#000000" font-family="sans-serif" font-size="11" lengthAdjust="spacingAndGlyphs" textLength="155" x="1520.5" y="217.1479">IntBinaryOperation function</text><line style="stroke: #A80036; stroke-width: 1.0; stroke-dasharray: 1.0,2.0;" x1="1501.5" x2="1656.5" y1="136.5117" y2="136.5117"/><text fill="#000000" font-family="sans-serif" font-size="11" lengthAdjust="spacingAndGlyphs" textLength="53" x="1656.5" y="139.8198">Variables</text><line style="stroke: #A80036; stroke-width: 1.0; stroke-dasharray: 1.0,2.0;" x1="1709.5" x2="1864.5" y1="136.5117" y2="136.5117"/><line style="stroke: #A80036; stroke-width: 1.0;" x1="1501.5" x2="1864.5" y1="223.7422" y2="223.7422"/><line style="stroke: #A80036; stroke-width: 1.0;" x1="1501.5" x2="1864.5" y1="225.7422" y2="225.7422"/><rect fill="#F24D5C" height="6" style="stroke: #C82930; stroke-width: 1.0;" width="6" x="1508.5" y="248.5469"/><text fill="#000000" font-family="sans-serif" font-size="11" lengthAdjust="spacingAndGlyphs" text-decoration="underline" textLength="115" x="1520.5" y="254.7573">new Game() : Game</text><ellipse cx="1511.5" cy="264.3516" fill="#84BE84" rx="3" ry="3" style="stroke: #038048; stroke-width: 1.0;"/><text fill="#000000" font-family="sans-serif" font-size="11" lengthAdjust="spacingAndGlyphs" text-decoration="underline" textLength="206" x="1520.5" y="267.562">createGame(/*lstParam*/) : boolean</text><ellipse cx="1511.5" cy="277.1563" fill="#84BE84" rx="3" ry="3" style="stroke: #038048; stroke-width: 1.0;"/><text fill="#000000" font-family="sans-serif" font-size="11" lengthAdjust="spacingAndGlyphs" text-decoration="underline" textLength="209" x="1520.5" y="280.3667">chargeGame(/*lstParam*/) : boolean</text><line style="stroke: #A80036; stroke-width: 1.0; stroke-dasharray: 1.0,2.0;" x1="1501.5" x2="1646" y1="238.1445" y2="238.1445"/><text fill="#000000" font-family="sans-serif" font-size="11" lengthAdjust="spacingAndGlyphs" textLength="74" x="1646" y="241.4526">Constructeur</text><line style="stroke: #A80036; stroke-width: 1.0; stroke-dasharray: 1.0,2.0;" x1="1720" x2="1864.5" y1="238.1445" y2="238.1445"/><ellipse cx="1511.5" cy="306.7656" fill="#84BE84" rx="3" ry="3" style="stroke: #038048; stroke-width: 1.0;"/><text fill="#000000" font-family="sans-serif" font-size="11" lengthAdjust="spacingAndGlyphs" text-decoration="underline" textLength="128" x="1520.5" y="309.9761">getMaxValue(void) : int</text><ellipse cx="1511.5" cy="319.5703" fill="#84BE84" rx="3" ry="3" style="stroke: #038048; stroke-width: 1.0;"/><text fill="#000000" font-family="sans-serif" font-size="11" lengthAdjust="spacingAndGlyphs" text-decoration="underline" textLength="125" x="1520.5" y="322.7808">getMinValue(void) : int</text><ellipse cx="1511.5" cy="332.375" fill="#84BE84" rx="3" ry="3" style="stroke: #038048; stroke-width: 1.0;"/><text fill="#000000" font-family="sans-serif" font-size="11" lengthAdjust="spacingAndGlyphs" text-decoration="underline" textLength="127" x="1520.5" y="335.5854">getNullValue(void) : int</text><ellipse cx="1511.5" cy="345.1797" fill="#84BE84" rx="3" ry="3" style="stroke: #038048; stroke-width: 1.0;"/><text fill="#000000" font-family="sans-serif" font-size="11" lengthAdjust="spacingAndGlyphs" text-decoration="underline" textLength="153" x="1520.5" y="348.3901">getLastCoord(void) : Coord</text><ellipse cx="1511.5" cy="357.9844" fill="#84BE84" rx="3" ry="3" style="stroke: #038048; stroke-width: 1.0;"/><text fill="#000000" font-family="sans-serif" font-size="11" lengthAdjust="spacingAndGlyphs" text-decoration="underline" textLength="120" x="1520.5" y="361.1948">getInstance() : Game</text><line style="stroke: #A80036; stroke-width: 1.0; stroke-dasharray: 1.0,2.0;" x1="1501.5" x2="1597" y1="293.3633" y2="293.3633"/><text fill="#000000" font-family="sans-serif" font-size="11" lengthAdjust="spacingAndGlyphs" textLength="172" x="1597" y="296.6714">Accesseur sur les Constantes</text><line style="stroke: #A80036; stroke-width: 1.0; stroke-dasharray: 1.0,2.0;" x1="1769" x2="1864.5" y1="293.3633" y2="293.3633"/><ellipse cx="1511.5" cy="387.5938" fill="#84BE84" rx="3" ry="3" style="stroke: #038048; stroke-width: 1.0;"/><text fill="#000000" font-family="sans-serif" font-size="11" lengthAdjust="spacingAndGlyphs" textLength="328" x="1520.5" y="390.8042">getEntryErrors(Predicate&lt;EntryError&gt;) : List&lt;EntryError&gt;</text><ellipse cx="1511.5" cy="400.3984" fill="#84BE84" rx="3" ry="3" style="stroke: #038048; stroke-width: 1.0;"/><text fill="#000000" font-family="sans-serif" font-size="11" lengthAdjust="spacingAndGlyphs" textLength="127" x="1520.5" y="403.6089">getCell(Coord) : String</text><ellipse cx="1511.5" cy="413.2031" fill="#84BE84" rx="3" ry="3" style="stroke: #038048; stroke-width: 1.0;"/><text fill="#000000" font-family="sans-serif" font-size="11" lengthAdjust="spacingAndGlyphs" textLength="124" x="1520.5" y="416.4136">affCell(Coord) : String</text><ellipse cx="1511.5" cy="426.0078" fill="#84BE84" rx="3" ry="3" style="stroke: #038048; stroke-width: 1.0;"/><text fill="#000000" font-family="sans-serif" font-size="11" lengthAdjust="spacingAndGlyphs" textLength="182" x="1520.5" y="429.2183">getNotes(Coord) : Set&lt;Integer&gt;</text><line style="stroke: #A80036; stroke-width: 1.0; stroke-dasharray: 1.0,2.0;" x1="1501.5" x2="1653.5" y1="374.1914" y2="374.1914"/><text fill="#000000" font-family="sans-serif" font-size="11" lengthAdjust="spacingAndGlyphs" textLength="59" x="1653.5" y="377.4995">Accesseur</text><line style="stroke: #A80036; stroke-width: 1.0; stroke-dasharray: 1.0,2.0;" x1="1712.5" x2="1864.5" y1="374.1914" y2="374.1914"/><ellipse cx="1511.5" cy="455.6172" fill="#84BE84" rx="3" ry="3" style="stroke: #038048; stroke-width: 1.0;"/><text fill="#000000" font-family="sans-serif" font-size="11" lengthAdjust="spacingAndGlyphs" textLength="193" x="1520.5" y="458.8276">update(Consumer&lt;Coord&gt;) : void</text><ellipse cx="1511.5" cy="468.4219" fill="#84BE84" rx="3" ry="3" style="stroke: #038048; stroke-width: 1.0;"/><text fill="#000000" font-family="sans-serif" font-size="11" lengthAdjust="spacingAndGlyphs" textLength="137" x="1520.5" y="471.6323">updateCell(Coord) : void</text><ellipse cx="1511.5" cy="481.2266" fill="#84BE84" rx="3" ry="3" style="stroke: #038048; stroke-width: 1.0;"/><text fill="#000000" font-family="sans-serif" font-size="11" lengthAdjust="spacingAndGlyphs" textLength="133" x="1520.5" y="484.437">updateErr(Coord) : void</text><line style="stroke: #A80036; stroke-width: 1.0; stroke-dasharray: 1.0,2.0;" x1="1501.5" x2="1657" y1="442.2148" y2="442.2148"/><text fill="#000000" font-family="sans-serif" font-size="11" lengthAdjust="spacingAndGlyphs" textLength="52" x="1657" y="445.5229">Affichage</text><line style="stroke: #A80036; stroke-width: 1.0; stroke-dasharray: 1.0,2.0;" x1="1709" x2="1864.5" y1="442.2148" y2="442.2148"/><ellipse cx="1511.5" cy="510.8359" fill="#84BE84" rx="3" ry="3" style="stroke: #038048; stroke-width: 1.0;"/><text fill="#000000" font-family="sans-serif" font-size="11" lengthAdjust="spacingAndGlyphs" textLength="113" x="1520.5" y="514.0464">set(Coord,int) : void</text><ellipse cx="1511.5" cy="523.6406" fill="#84BE84" rx="3" ry="3" style="stroke: #038048; stroke-width: 1.0;"/><text fill="#000000" font-family="sans-serif" font-size="11" lengthAdjust="spacingAndGlyphs" textLength="176" x="1520.5" y="526.8511">set(Coord,Set&lt;Integer&gt;) : void</text><ellipse cx="1511.5" cy="536.4453" fill="#84BE84" rx="3" ry="3" style="stroke: #038048; stroke-width: 1.0;"/><text fill="#000000" font-family="sans-serif" font-size="11" lengthAdjust="spacingAndGlyphs" textLength="105" x="1520.5" y="539.6558">undo(void) : Coord</text><ellipse cx="1511.5" cy="549.25" fill="#84BE84" rx="3" ry="3" style="stroke: #038048; stroke-width: 1.0;"/><text fill="#000000" font-family="sans-serif" font-size="11" lengthAdjust="spacingAndGlyphs" textLength="103" x="1520.5" y="552.4604">redo(void) : Coord</text><ellipse cx="1511.5" cy="562.0547" fill="#84BE84" rx="3" ry="3" style="stroke: #038048; stroke-width: 1.0;"/><text fill="#000000" font-family="sans-serif" font-size="11" lengthAdjust="spacingAndGlyphs" textLength="191" x="1520.5" y="565.2651">backToLastCorrect(void) : Coord[]</text><rect fill="#F24D5C" height="6" style="stroke: #C82930; stroke-width: 1.0;" width="6" x="1508.5" y="571.8594"/><text fill="#000000" font-family="sans-serif" font-size="11" lengthAdjust="spacingAndGlyphs" textLength="339" x="1520.5" y="578.0698">swapDeque(Deque&lt;Move&gt;,Deque&lt;Move&gt;,boolean) : Coord</text><line style="stroke: #A80036; stroke-width: 1.0; stroke-dasharray: 1.0,2.0;" x1="1501.5" x2="1649.5" y1="497.4336" y2="497.4336"/><text fill="#000000" font-family="sans-serif" font-size="11" lengthAdjust="spacingAndGlyphs" textLength="67" x="1649.5" y="500.7417">Modification</text><line style="stroke: #A80036; stroke-width: 1.0; stroke-dasharray: 1.0,2.0;" x1="1716.5" x2="1864.5" y1="497.4336" y2="497.4336"/><ellipse cx="1511.5" cy="604.4688" fill="#84BE84" rx="3" ry="3" style="stroke: #038048; stroke-width: 1.0;"/><text fill="#000000" font-family="sans-serif" font-size="11" lengthAdjust="spacingAndGlyphs" textLength="98" x="1520.5" y="607.6792">check(void) : void</text><ellipse cx="1511.5" cy="617.2734" fill="#84BE84" rx="3" ry="3" style="stroke: #038048; stroke-width: 1.0;"/><text fill="#000000" font-family="sans-serif" font-size="11" lengthAdjust="spacingAndGlyphs" textLength="109" x="1520.5" y="620.4839">check(Coord) : void</text><ellipse cx="1511.5" cy="630.0781" fill="#84BE84" rx="3" ry="3" style="stroke: #038048; stroke-width: 1.0;"/><text fill="#000000" font-family="sans-serif" font-size="11" lengthAdjust="spacingAndGlyphs" textLength="240" x="1520.5" y="633.2886">check(Grid.GridIterator,boolean) : boolean</text><rect fill="#F24D5C" height="6" style="stroke: #C82930; stroke-width: 1.0;" width="6" x="1508.5" y="639.8828"/><text fill="#000000" font-family="sans-serif" font-size="11" lengthAdjust="spacingAndGlyphs" textLength="170" x="1520.5" y="646.0933">checkCorrectState(void) : void</text><rect fill="#F24D5C" height="6" style="stroke: #C82930; stroke-width: 1.0;" width="6" x="1508.5" y="652.6875"/><text fill="#000000" font-family="sans-serif" font-size="11" lengthAdjust="spacingAndGlyphs" textLength="146" x="1520.5" y="658.8979">addError(EntryErro) : void</text><line style="stroke: #A80036; stroke-width: 1.0; stroke-dasharray: 1.0,2.0;" x1="1501.5" x2="1666" y1="591.0664" y2="591.0664"/><text fill="#000000" font-family="sans-serif" font-size="11" lengthAdjust="spacingAndGlyphs" textLength="34" x="1666" y="594.3745">Check</text><line style="stroke: #A80036; stroke-width: 1.0; stroke-dasharray: 1.0,2.0;" x1="1700" x2="1864.5" y1="591.0664" y2="591.0664"/><ellipse cx="1511.5" cy="685.2969" fill="#84BE84" rx="3" ry="3" style="stroke: #038048; stroke-width: 1.0;"/><text fill="#000000" font-family="sans-serif" font-size="11" lengthAdjust="spacingAndGlyphs" textLength="70" x="1520.5" y="688.5073">save() : void</text><ellipse cx="1511.5" cy="698.1016" fill="#84BE84" rx="3" ry="3" style="stroke: #038048; stroke-width: 1.0;"/><text fill="#000000" font-family="sans-serif" font-size="11" lengthAdjust="spacingAndGlyphs" textLength="64" x="1520.5" y="701.312">quit() : void</text><ellipse cx="1511.5" cy="710.9063" fill="#84BE84" rx="3" ry="3" style="stroke: #038048; stroke-width: 1.0;"/><text fill="#000000" font-family="sans-serif" font-size="11" lengthAdjust="spacingAndGlyphs" textLength="67" x="1520.5" y="714.1167">help() : void</text><ellipse cx="1511.5" cy="723.7109" fill="#84BE84" rx="3" ry="3" style="stroke: #038048; stroke-width: 1.0;"/><text fill="#000000" font-family="sans-serif" font-size="11" lengthAdjust="spacingAndGlyphs" textLength="101" x="1520.5" y="726.9214">serialize() : String</text><line style="stroke: #A80036; stroke-width: 1.0; stroke-dasharray: 1.0,2.0;" x1="1501.5" x2="1664.5" y1="671.8945" y2="671.8945"/><text fill="#000000" font-family="sans-serif" font-size="11" lengthAdjust="spacingAndGlyphs" textLength="37" x="1664.5" y="675.2026">Autres</text><line style="stroke: #A80036; stroke-width: 1.0; stroke-dasharray: 1.0,2.0;" x1="1701.5" x2="1864.5" y1="671.8945" y2="671.8945"/><path d="M1901,210.4531 L1901,234.1523 L1726.5,263.7539 L1901,242.1523 L1901,265.8516 A0,0 0 0 0 1901,265.8516 L2160,265.8516 A0,0 0 0 0 2160,265.8516 L2160,220.4531 L2150,210.4531 L1901,210.4531 A0,0 0 0 0 1901,210.4531 " fill="#FBFB77" filter="url(#f1usb6efdv1r4y)" style="stroke: #A80036; stroke-width: 1.0;"/><path d="M2150,210.4531 L2150,220.4531 L2160,220.4531 L2150,210.4531 " fill="#FBFB77" style="stroke: #A80036; stroke-width: 1.0;"/><text fill="#000000" font-family="sans-serif" font-size="13" lengthAdjust="spacingAndGlyphs" textLength="238" x="1907" y="227.52">Crée une instance de la classe Game</text><text fill="#000000" font-family="sans-serif" font-size="13" lengthAdjust="spacingAndGlyphs" textLength="231" x="1907" y="242.6528">et supprime l'ancienne instance, si il</text><text fill="#000000" font-family="sans-serif" font-size="13" lengthAdjust="spacingAndGlyphs" textLength="94" x="1907" y="257.7856">y en avait une.</text><path d="M1901,275.8516 L1901,284.418 L1713.5,455.0195 L1901,292.418 L1901,300.9844 A0,0 0 0 0 1901,300.9844 L2215,300.9844 A0,0 0 0 0 2215,300.9844 L2215,285.8516 L2205,275.8516 L1901,275.8516 A0,0 0 0 0 1901,275.8516 " fill="#FBFB77" filter="url(#f1usb6efdv1r4y)" style="stroke: #A80036; stroke-width: 1.0;"/><path d="M2205,275.8516 L2205,285.8516 L2215,285.8516 L2205,275.8516 " fill="#FBFB77" style="stroke: #A80036; stroke-width: 1.0;"/><text fill="#000000" font-family="sans-serif" font-size="13" lengthAdjust="spacingAndGlyphs" textLength="293" x="1907" y="292.9185">Appel les méthodes d'affichage du contrôleur.</text><path d="M1901,310.9844 L1901,342.25 L1633.5,510.2383 L1901,350.25 L1901,381.5156 A0,0 0 0 0 1901,381.5156 L2178,381.5156 A0,0 0 0 0 2178,381.5156 L2178,320.9844 L2168,310.9844 L1901,310.9844 A0,0 0 0 0 1901,310.9844 " fill="#FBFB77" filter="url(#f1usb6efdv1r4y)" style="stroke: #A80036; stroke-width: 1.0;"/><path d="M2168,310.9844 L2168,320.9844 L2178,320.9844 L2168,310.9844 " fill="#FBFB77" style="stroke: #A80036; stroke-width: 1.0;"/><text fill="#000000" font-family="sans-serif" font-size="13" lengthAdjust="spacingAndGlyphs" textLength="190" x="1907" y="328.0513">Les méthode modifiant le jeu,</text><text fill="#000000" font-family="sans-serif" font-size="13" lengthAdjust="spacingAndGlyphs" textLength="204" x="1907" y="343.1841">ordonne au controleur d'afficher</text><text fill="#000000" font-family="sans-serif" font-size="13" lengthAdjust="spacingAndGlyphs" textLength="256" x="1907" y="358.3169">leur nouvelle état, après avoir actualiser</text><text fill="#000000" font-family="sans-serif" font-size="13" lengthAdjust="spacingAndGlyphs" textLength="122" x="1907" y="373.4497">la liste des erreurs.</text><path d="M1901,391.5156 L1901,400.082 L1618.5,603.8711 L1901,408.082 L1901,416.6484 A0,0 0 0 0 1901,416.6484 L2102,416.6484 A0,0 0 0 0 2102,416.6484 L2102,401.5156 L2092,391.5156 L1901,391.5156 A0,0 0 0 0 1901,391.5156 " fill="#FBFB77" filter="url(#f1usb6efdv1r4y)" style="stroke: #A80036; stroke-width: 1.0;"/><path d="M2092,391.5156 L2092,401.5156 L2102,401.5156 L2092,391.5156 " fill="#FBFB77" style="stroke: #A80036; stroke-width: 1.0;"/><text fill="#000000" font-family="sans-serif" font-size="13" lengthAdjust="spacingAndGlyphs" textLength="180" x="1907" y="408.5825">Actualise la liste des erreurs</text><path d="M1901,426.6484 L1901,480.6133 L1621.5,723.1133 L1901,488.6133 L1901,542.5781 A0,0 0 0 0 1901,542.5781 L2195,542.5781 A0,0 0 0 0 2195,542.5781 L2195,436.6484 L2185,426.6484 L1901,426.6484 A0,0 0 0 0 1901,426.6484 " fill="#FBFB77" filter="url(#f1usb6efdv1r4y)" style="stroke: #A80036; stroke-width: 1.0;"/><path d="M2185,426.6484 L2185,436.6484 L2195,436.6484 L2185,426.6484 " fill="#FBFB77" style="stroke: #A80036; stroke-width: 1.0;"/><text fill="#000000" font-family="sans-serif" font-size="13" lengthAdjust="spacingAndGlyphs" textLength="171" x="1907" y="443.7153">Renvoit la liste des cellule :</text><text fill="#000000" font-family="sans-serif" font-size="13" lengthAdjust="spacingAndGlyphs" textLength="69" x="1907" y="458.8481">- Noire : "|"</text><text fill="#000000" font-family="sans-serif" font-size="13" lengthAdjust="spacingAndGlyphs" textLength="138" x="1907" y="473.981">- Blanche : "&lt;value&gt;"</text><text fill="#000000" font-family="sans-serif" font-size="13" lengthAdjust="spacingAndGlyphs" textLength="204" x="1907" y="489.1138">- Resultat : "&lt;line&gt;,&lt;column&gt;|"</text><text fill="#000000" font-family="sans-serif" font-size="13" lengthAdjust="spacingAndGlyphs" textLength="134" x="1907" y="504.2466">- nouvelle ligne : "\\n"</text><text fill="#000000" font-family="sans-serif" font-size="13" lengthAdjust="spacingAndGlyphs" textLength="273" x="1907" y="519.3794">Exemple : "|B|B|W(5)|\\n|R(7,n)|W(n)|R(4,1)"</text><text fill="#000000" font-family="sans-serif" font-size="13" lengthAdjust="spacingAndGlyphs" textLength="183" x="1907" y="534.5122">Devient : "||5|\\n7,n|3|4,1|\\n"</text><!--MD5=[5af8fc529a01250b6751c9e4fd865732]
reverse link I to A--><path d="M440.35,381.4531 C481.57,381.4531 524.65,381.4531 565.41,381.4531 " fill="none" id="I&lt;-A" style="stroke: #A80036; stroke-width: 1.0; stroke-dasharray: 7.0,7.0;"/><polygon fill="none" points="440.28,388.4531,420.28,381.4531,440.28,374.4531,440.28,388.4531" style="stroke: #A80036; stroke-width: 1.0;"/><path d="M442.25,344.4531 L442.25,369.4531 L539.25,369.4531 L539.25,354.4531 L529.25,344.4531 L442.25,344.4531 " fill="#FBFB77" filter="url(#f1usb6efdv1r4y)" style="stroke: #A80036; stroke-width: 1.0;"/><path d="M529.25,344.4531 L529.25,354.4531 L539.25,354.4531 L529.25,344.4531 " fill="#FBFB77" style="stroke: #A80036; stroke-width: 1.0;"/><text fill="#000000" font-family="sans-serif" font-size="13" lengthAdjust="spacingAndGlyphs" textLength="76" x="448.25" y="361.52">implements</text><!--MD5=[259c92c73d8724ac5e32c440a6b5727d]
link I to A--><!--MD5=[518367c1e7fbaa215fad71504a99bd4f]
reverse link A to C--><path d="M980.59,381.4531 C1013.91,381.4531 1048.09,381.4531 1080.8,381.4531 " fill="none" id="A&lt;-C" style="stroke: #A80036; stroke-width: 1.0;"/><polygon fill="none" points="980.54,388.4531,960.54,381.4531,980.54,374.4531,980.54,388.4531" style="stroke: #A80036; stroke-width: 1.0;"/><path d="M982.75,344.4531 L982.75,369.4531 L1054.75,369.4531 L1054.75,354.4531 L1044.75,344.4531 L982.75,344.4531 " fill="#FBFB77" filter="url(#f1usb6efdv1r4y)" style="stroke: #A80036; stroke-width: 1.0;"/><path d="M1044.75,344.4531 L1044.75,354.4531 L1054.75,354.4531 L1044.75,344.4531 " fill="#FBFB77" style="stroke: #A80036; stroke-width: 1.0;"/><text fill="#000000" font-family="sans-serif" font-size="13" lengthAdjust="spacingAndGlyphs" textLength="51" x="988.75" y="361.52">extends</text><!--MD5=[e1650921a81fac0037ec207a42ac4e7e]
link A to C--><!--MD5=[7cdbe534455278feb1ee5928bb85b154]
link Game to Game$$$RIGHT--><text fill="#888888" font-family="sans-serif" font-size="10" lengthAdjust="spacingAndGlyphs" textLength="304" x="964.5" y="753.2354">Chaques classe est responsable des règles de son mode de jeu</text><!--MD5=[44ab29038c7664651fa08b65d739f8e6]
@startuml classes_game

title diagramme des classes responsable des règles du jeu

package "Legend" #lightblue {
	interface "Interface" AS I {
		.. "Seul type d'attribut authorisé" ..
		{field} {static} + CONST_PUBLIC : <color green>final</color> type
		==
		.. "Methodes de l'interface" ..
		{method} + methodePublic(typeParams) : typeRetour # retourDefault
		.. "Methodes static de l'interface" ..
		{method} {static} + methodePublicStatic(typeParams) : typeRetour # retourDefault
	}
	abstract class "abstractClasse" AS A {
		.. Constante ..
		{field} {static} - CONST_PRIVEE : type
		.. Attributs ..
		{field} - attributPrivee : type
		{field} # attributProtege : type
		{field} ~ attributPackage : type
		{field} + attributPublic : type
		==
		.. Methodes ..
		{method} - methodePrive2(typeParams) : typeRetour # retourDefault
		{method} # methodeProtege(typeParams) : typeRetour # retourDefault
		{method} ~ methodePackage(typeParams) : typeRetour # retourDefault
		{method} + methodePublic(typeParams) : typeRetour # retourDefault
		.. Methodes Override ..
		{method} - @methodePrive(typeParams) : typeRetour # retourDefault
		.. Methodes abstraites ..
		{method} {abstract} - methodePriveAbstract(typeParams) : typeRetour # retourDefault
		.. Methodes statiques ..
		{method} {static} - methodePriveStatic(typeParams) : typeRetour # retourDefault
	}
	abstract class A implements I
	note on link : implements
	class "Classe" AS C {
		.. Constante ..
		{field} {static} - CONST_PRIVEE : type
		.. Attributs ..
		{field} - attributPrivee : type
		{field} # attributProtege : type
		{field} ~ attributPackage : type
		{field} + attributPublic : type
		==
		.. Methodes ..
		{method} - methodePrive3(typeParams) : typeRetour # retourDefault
		{method} # methodeProtege2(typeParams) : typeRetour # retourDefault
		{method} ~ methodePackage2(typeParams) : typeRetour # retourDefault
		{method} + methodePublic2(typeParams) : typeRetour # retourDefault
		.. Methodes Override ..
		{method} - @methodePrive2(typeParams) : typeRetour # retourDefault
		.. Methodes statiques ..
		{method} {static} - methodePriveStatic2(typeParams) : typeRetour # retourDefault
	}
	class C extends A
	note on link : extends

	I -[hidden]right- A
	A -[hidden]right- C
}

class "Game" AS Game << (S,#FF7700) Jeu chargé >> {
	.. Constantes ..
	{field} {static} - game : Game
	{field} - cstMaxValue : <color green>final</color> int
	{field} - cstMinValue : <color green>final</color> int
	.. Variables ..
	{field} - Deque<Move> lstMoves
	{field} - Deque<Move> lstMovesCancel
	{field} - List<EntryError> lstEntryErrors
	{field} - int correctState
	{field} - Grid grid
	{field} - IntBinaryOperation function
	==
	.. Constructeur ..
	{method} {static} - new Game() : Game
	{method} {static} + createGame(/*lstParam*/) : boolean
	{method} {static} + chargeGame(/*lstParam*/) : boolean
	.. Accesseur sur les Constantes ..
	{method} {static} + getMaxValue(void) : int
	{method} {static} + getMinValue(void) : int
	{method} {static} + getNullValue(void) : int
	{method} {static} + getLastCoord(void) : Coord
	{method} {static} + getInstance() : Game
	.. Accesseur ..
	{method} + getEntryErrors(Predicate<EntryError>) : List<EntryError>
	{method} + getCell(Coord) : String
	{method} + affCell(Coord) : String
	{method} + getNotes(Coord) : Set<Integer>
	.. Affichage ..
	{method} + update(Consumer<Coord>) : void
	{method} + updateCell(Coord) : void
	{method} + updateErr(Coord) : void
	.. Modification ..
	{method} + set(Coord,int) : void
	{method} + set(Coord,Set<Integer>) : void
	{method} + undo(void) : Coord
	{method} + redo(void) : Coord
	{method} + backToLastCorrect(void) : Coord[]
	{method} - swapDeque(Deque<Move>,Deque<Move>,boolean) : Coord
	.. Check ..
	{method} + check(void) : void
	{method} + check(Coord) : void
	{method} + check(Grid.GridIterator,boolean) : boolean
	{method} - checkCorrectState(void) : void
	{method} - addError(EntryErro) : void
	.. Autres ..
	{method} + save() : void
	{method} + quit() : void
	{method} + help() : void
	{method} + serialize() : String
}
note right of Game::createGame
Crée une instance de la classe Game
et supprime l'ancienne instance, si il
y en avait une.
	end note
	note right of Game::update
	Appel les méthodes d'affichage du contrôleur.
end note
note right of Game::set
Les méthode modifiant le jeu,
ordonne au controleur d'afficher
leur nouvelle état, après avoir actualiser
la liste des erreurs.
	end note
	note right of Game::check
	Actualise la liste des erreurs
end note
note right of Game::serialize()
Renvoit la liste des cellule :
- Noire : "|"
- Blanche : "<value>"
- Resultat : "<line>,<column>|"
- nouvelle ligne : "\\n"
Exemple : "|B|B|W(5)|\\n|R(7,n)|W(n)|R(4,1)"
Devient : "||5|\\n7,n|3|4,1|\\n"
	end note

center footer Chaques classe est responsable des règles de son mode de jeu

@enduml

PlantUML version 1.2020.02(Sun Mar 01 11:22:07 CET 2020)
(GPL source distribution)
Java Runtime: OpenJDK Runtime Environment
JVM: OpenJDK 64-Bit Server VM
Java Version: 17.0.9+9-Ubuntu-122.04
Operating System: Linux
Default Encoding: UTF-8
Language: en
Country: GB
--></g></svg>