<?xml version="1.0" encoding="UTF-8" standalone="no"?><svg xmlns="http://www.w3.org/2000/svg" xmlns:xlink="http://www.w3.org/1999/xlink" contentScriptType="application/ecmascript" contentStyleType="text/css" height="534px" preserveAspectRatio="none" style="width:1148px;height:534px;" version="1.1" viewBox="0 0 1148 534" width="1148px" zoomAndPan="magnify"><defs><filter height="300%" id="f1ptotcct5j5r9" width="300%" x="-1" y="-1"><feGaussianBlur result="blurOut" stdDeviation="2.0"/><feColorMatrix in="blurOut" result="blurOut2" type="matrix" values="0 0 0 0 0 0 0 0 0 0 0 0 0 0 0 0 0 0 .4 0"/><feOffset dx="4.0" dy="4.0" in="blurOut2" result="blurOut3"/><feBlend in="SourceGraphic" in2="blurOut3" mode="normal"/></filter></defs><g><text fill="#000000" font-family="sans-serif" font-size="18" lengthAdjust="spacingAndGlyphs" textLength="438" x="361" y="16.708">"Diagramme de la classe gérant les coordonnées"</text><!--MD5=[86674ab5735079aa6b5321d691891463]
cluster legend--><polygon fill="#ADD8E6" filter="url(#f1ptotcct5j5r9)" points="730,101.4531,790,101.4531,797,123.75,1126,123.75,1126,410.4531,730,410.4531,730,101.4531" style="stroke: #000000; stroke-width: 1.5;"/><line style="stroke: #000000; stroke-width: 1.5;" x1="730" x2="797" y1="123.75" y2="123.75"/><text fill="#000000" font-family="sans-serif" font-size="14" font-weight="bold" lengthAdjust="spacingAndGlyphs" textLength="54" x="734" y="116.4482">legend</text><!--MD5=[4cac391c179f8787f20d7dddb517ad5a]
class G--><rect fill="#FEFECE" filter="url(#f1ptotcct5j5r9)" height="258.0078" id="G" style="stroke: #A80036; stroke-width: 1.5;" width="364" x="746" y="136.4531"/><ellipse cx="854.25" cy="155.4219" fill="#FFFFFF" rx="11" ry="11" style="stroke: #A80036; stroke-width: 1.0;"/><path d="M853.7344,155.9844 Q851.875,155.2813 851.2188,154.5156 Q850.5781,153.7344 850.5781,152.4219 Q850.5781,150.7344 851.6563,149.7656 Q852.7344,148.7969 854.6094,148.7969 Q855.4688,148.7969 856.3125,149 Q857.1719,149.1875 858.0156,149.5781 L858.0156,151.9688 Q857.2344,151.4063 856.4063,151.125 Q855.5938,150.8281 854.7969,150.8281 Q853.9219,150.8281 853.4375,151.1875 Q852.9688,151.5469 852.9688,152.2031 Q852.9688,152.7188 853.3125,153.0625 Q853.6563,153.3906 854.75,153.7969 L855.8125,154.2031 Q857.2969,154.75 858,155.6563 Q858.7188,156.5625 858.7188,157.9375 Q858.7188,159.8125 857.6094,160.7344 Q856.5,161.6563 854.25,161.6563 Q853.3281,161.6563 852.4063,161.4375 Q851.4844,161.2188 850.625,160.7969 L850.625,158.2656 Q851.5938,158.9531 852.5156,159.2969 Q853.4375,159.6406 854.3281,159.6406 Q855.2344,159.6406 855.7344,159.2344 Q856.2344,158.8125 856.2344,158.0781 Q856.2344,157.5156 855.8906,157.1094 Q855.5625,156.6875 854.9375,156.4375 L853.7344,155.9844 Z "/><text fill="#000000" font-family="sans-serif" font-size="12" font-style="italic" lengthAdjust="spacingAndGlyphs" textLength="73" x="872.75" y="152.5918">«Singleton»</text><text fill="#000000" font-family="sans-serif" font-size="12" lengthAdjust="spacingAndGlyphs" textLength="49" x="884.75" y="166.5605">General</text><rect fill="#FFFFFF" height="15.9688" style="stroke: #000000; stroke-width: 1.0; stroke-dasharray: 2.0,2.0;" width="68" x="1045" y="133.4531"/><text fill="#000000" font-family="sans-serif" font-size="12" font-style="italic" lengthAdjust="spacingAndGlyphs" textLength="58" x="1050" y="145.5918">? general</text><line style="stroke: #A80036; stroke-width: 1.5;" x1="747" x2="1109" y1="174.3906" y2="174.3906"/><rect fill="none" height="6" style="stroke: #C82930; stroke-width: 1.0;" width="6" x="754" y="199.1953"/><text fill="#000000" font-family="sans-serif" font-size="11" lengthAdjust="spacingAndGlyphs" textLength="112" x="766" y="205.4058">attributPrivee : type</text><polygon fill="none" points="757,210,761,214,757,218,753,214" style="stroke: #B38D22; stroke-width: 1.0;"/><text fill="#000000" font-family="sans-serif" font-size="11" lengthAdjust="spacingAndGlyphs" textLength="121" x="766" y="218.2104">attributProtege : type</text><polygon fill="none" points="757,223.8047,753,229.8047,761,229.8047" style="stroke: #1963A0; stroke-width: 1.0;"/><text fill="#000000" font-family="sans-serif" font-size="11" lengthAdjust="spacingAndGlyphs" textLength="124" x="766" y="231.0151">attributPackage : type</text><ellipse cx="757" cy="240.6094" fill="none" rx="3" ry="3" style="stroke: #038048; stroke-width: 1.0;"/><text fill="#000000" font-family="sans-serif" font-size="11" lengthAdjust="spacingAndGlyphs" textLength="110" x="766" y="243.8198">attributPublic : type</text><line style="stroke: #A80036; stroke-width: 1.0; stroke-dasharray: 1.0,2.0;" x1="747" x2="904" y1="188.793" y2="188.793"/><text fill="#000000" font-family="sans-serif" font-size="11" lengthAdjust="spacingAndGlyphs" textLength="48" x="904" y="192.1011">Attributs</text><line style="stroke: #A80036; stroke-width: 1.0; stroke-dasharray: 1.0,2.0;" x1="952" x2="1109" y1="188.793" y2="188.793"/><line style="stroke: #A80036; stroke-width: 1.0;" x1="747" x2="1109" y1="250.4141" y2="250.4141"/><line style="stroke: #A80036; stroke-width: 1.0;" x1="747" x2="1109" y1="252.4141" y2="252.4141"/><rect fill="#F24D5C" height="6" style="stroke: #C82930; stroke-width: 1.0;" width="6" x="754" y="275.2188"/><text fill="#000000" font-family="sans-serif" font-size="11" lengthAdjust="spacingAndGlyphs" textLength="319" x="766" y="281.4292">methodePrive(typeParams) : typeRetour # retourDefault</text><polygon fill="#FFFF44" points="757,286.0234,761,290.0234,757,294.0234,753,290.0234" style="stroke: #B38D22; stroke-width: 1.0;"/><text fill="#000000" font-family="sans-serif" font-size="11" lengthAdjust="spacingAndGlyphs" textLength="335" x="766" y="294.2339">methodeProtege(typeParams) : typeRetour # retourDefault</text><polygon fill="#4177AF" points="757,299.8281,753,305.8281,761,305.8281" style="stroke: #1963A0; stroke-width: 1.0;"/><text fill="#000000" font-family="sans-serif" font-size="11" lengthAdjust="spacingAndGlyphs" textLength="338" x="766" y="307.0386">methodePackage(typeParams) : typeRetour # retourDefault</text><ellipse cx="757" cy="316.6328" fill="#84BE84" rx="3" ry="3" style="stroke: #038048; stroke-width: 1.0;"/><text fill="#000000" font-family="sans-serif" font-size="11" lengthAdjust="spacingAndGlyphs" textLength="324" x="766" y="319.8433">methodePublic(typeParams) : typeRetour # retourDefault</text><line style="stroke: #A80036; stroke-width: 1.0; stroke-dasharray: 1.0,2.0;" x1="747" x2="900.5" y1="264.8164" y2="264.8164"/><text fill="#000000" font-family="sans-serif" font-size="11" lengthAdjust="spacingAndGlyphs" textLength="55" x="900.5" y="268.1245">Methodes</text><line style="stroke: #A80036; stroke-width: 1.0; stroke-dasharray: 1.0,2.0;" x1="955.5" x2="1109" y1="264.8164" y2="264.8164"/><text fill="#000000" font-family="sans-serif" font-size="11" lengthAdjust="spacingAndGlyphs" textLength="352" x="752" y="349.4526">@methodeOverride(typeParams) : typeRetour # retourDefault</text><text fill="#000000" font-family="sans-serif" font-size="11" font-style="italic" lengthAdjust="spacingAndGlyphs" textLength="340" x="752" y="362.2573">methodeAbstract(typeParams) : typeRetour # retourDefault</text><text fill="#000000" font-family="sans-serif" font-size="11" lengthAdjust="spacingAndGlyphs" text-decoration="underline" textLength="323" x="752" y="375.062">methodeStatic(typeParams) : typeRetour # retourDefault</text><text fill="#008000" font-family="sans-serif" font-size="11" lengthAdjust="spacingAndGlyphs" text-decoration="underline" textLength="24" x="752" y="387.8667">final</text><text fill="#000000" font-family="sans-serif" font-size="11" lengthAdjust="spacingAndGlyphs" text-decoration="underline" textLength="317" x="780" y="387.8667">methodeFinal(typeParams) : typeRetour # retourDefault</text><line style="stroke: #A80036; stroke-width: 1.0; stroke-dasharray: 1.0,2.0;" x1="747" x2="874.5" y1="332.8398" y2="332.8398"/><text fill="#000000" font-family="sans-serif" font-size="11" lengthAdjust="spacingAndGlyphs" textLength="107" x="874.5" y="336.1479">Methodes Speciale</text><line style="stroke: #A80036; stroke-width: 1.0; stroke-dasharray: 1.0,2.0;" x1="981.5" x2="1109" y1="332.8398" y2="332.8398"/><!--MD5=[393caf2efdab419c7cb0a264777a7604]
class Coord--><rect fill="#FEFECE" filter="url(#f1ptotcct5j5r9)" height="472.9453" id="Coord" style="stroke: #A80036; stroke-width: 1.5;" width="275" x="435.5" y="28.9531"/><ellipse cx="550.25" cy="44.9531" fill="#ADD1B2" rx="11" ry="11" style="stroke: #A80036; stroke-width: 1.0;"/><path d="M553.2188,50.5938 Q552.6406,50.8906 552,51.0313 Q551.3594,51.1875 550.6563,51.1875 Q548.1563,51.1875 546.8281,49.5469 Q545.5156,47.8906 545.5156,44.7656 Q545.5156,41.6406 546.8281,39.9844 Q548.1563,38.3281 550.6563,38.3281 Q551.3594,38.3281 552,38.4844 Q552.6563,38.6406 553.2188,38.9375 L553.2188,41.6563 Q552.5938,41.0781 552,40.8125 Q551.4063,40.5313 550.7813,40.5313 Q549.4375,40.5313 548.75,41.6094 Q548.0625,42.6719 548.0625,44.7656 Q548.0625,46.8594 548.75,47.9375 Q549.4375,49 550.7813,49 Q551.4063,49 552,48.7344 Q552.5938,48.4531 553.2188,47.875 L553.2188,50.5938 Z "/><text fill="#000000" font-family="sans-serif" font-size="12" lengthAdjust="spacingAndGlyphs" textLength="37" x="570.75" y="49.1074">Coord</text><line style="stroke: #A80036; stroke-width: 1.5;" x1="436.5" x2="709.5" y1="60.9531" y2="60.9531"/><rect fill="none" height="6" style="stroke: #C82930; stroke-width: 1.0;" width="6" x="443.5" y="68.9531"/><text fill="#000000" font-family="sans-serif" font-size="11" lengthAdjust="spacingAndGlyphs" textLength="72" x="455.5" y="75.1636">numCell : int</text><line style="stroke: #A80036; stroke-width: 1.0;" x1="436.5" x2="709.5" y1="81.7578" y2="81.7578"/><line style="stroke: #A80036; stroke-width: 1.0;" x1="436.5" x2="709.5" y1="83.7578" y2="83.7578"/><ellipse cx="446.5" cy="109.5625" fill="#84BE84" rx="3" ry="3" style="stroke: #038048; stroke-width: 1.0;"/><text fill="#000000" font-family="sans-serif" font-size="11" lengthAdjust="spacingAndGlyphs" text-decoration="underline" textLength="138" x="455.5" y="112.7729">new Coord(void) : Coord</text><ellipse cx="446.5" cy="122.3672" fill="#84BE84" rx="3" ry="3" style="stroke: #038048; stroke-width: 1.0;"/><text fill="#000000" font-family="sans-serif" font-size="11" lengthAdjust="spacingAndGlyphs" text-decoration="underline" textLength="149" x="455.5" y="125.5776">new Coord(String) : Coord</text><ellipse cx="446.5" cy="135.1719" fill="#84BE84" rx="3" ry="3" style="stroke: #038048; stroke-width: 1.0;"/><text fill="#000000" font-family="sans-serif" font-size="11" lengthAdjust="spacingAndGlyphs" text-decoration="underline" textLength="147" x="455.5" y="138.3823">new Coord(int,int) : Coord</text><ellipse cx="446.5" cy="147.9766" fill="#84BE84" rx="3" ry="3" style="stroke: #038048; stroke-width: 1.0;"/><text fill="#000000" font-family="sans-serif" font-size="11" lengthAdjust="spacingAndGlyphs" text-decoration="underline" textLength="129" x="455.5" y="151.187">new Coord(int) : Coord</text><line style="stroke: #A80036; stroke-width: 1.0; stroke-dasharray: 1.0,2.0;" x1="436.5" x2="532.5" y1="96.1602" y2="96.1602"/><text fill="#000000" font-family="sans-serif" font-size="11" lengthAdjust="spacingAndGlyphs" textLength="81" x="532.5" y="99.4683">Constructeurs</text><line style="stroke: #A80036; stroke-width: 1.0; stroke-dasharray: 1.0,2.0;" x1="613.5" x2="709.5" y1="96.1602" y2="96.1602"/><ellipse cx="446.5" cy="177.5859" fill="#84BE84" rx="3" ry="3" style="stroke: #038048; stroke-width: 1.0;"/><text fill="#000000" font-family="sans-serif" font-size="11" lengthAdjust="spacingAndGlyphs" textLength="105" x="455.5" y="180.7964">getId(void) : String</text><line style="stroke: #A80036; stroke-width: 1.0; stroke-dasharray: 1.0,2.0;" x1="436.5" x2="506" y1="164.1836" y2="164.1836"/><text fill="#000000" font-family="sans-serif" font-size="11" lengthAdjust="spacingAndGlyphs" textLength="134" x="506" y="167.4917">Accesseurs graphiques</text><line style="stroke: #A80036; stroke-width: 1.0; stroke-dasharray: 1.0,2.0;" x1="640" x2="709.5" y1="164.1836" y2="164.1836"/><ellipse cx="446.5" cy="207.1953" fill="#84BE84" rx="3" ry="3" style="stroke: #038048; stroke-width: 1.0;"/><text fill="#000000" font-family="sans-serif" font-size="11" lengthAdjust="spacingAndGlyphs" textLength="98" x="455.5" y="210.4058">getLine(void) : int</text><ellipse cx="446.5" cy="220" fill="#84BE84" rx="3" ry="3" style="stroke: #038048; stroke-width: 1.0;"/><text fill="#000000" font-family="sans-serif" font-size="11" lengthAdjust="spacingAndGlyphs" textLength="118" x="455.5" y="223.2104">getColumn(void) : int</text><line style="stroke: #A80036; stroke-width: 1.0; stroke-dasharray: 1.0,2.0;" x1="436.5" x2="513.5" y1="193.793" y2="193.793"/><text fill="#000000" font-family="sans-serif" font-size="11" lengthAdjust="spacingAndGlyphs" textLength="119" x="513.5" y="197.1011">Accesseurs matriciel</text><line style="stroke: #A80036; stroke-width: 1.0; stroke-dasharray: 1.0,2.0;" x1="632.5" x2="709.5" y1="193.793" y2="193.793"/><ellipse cx="446.5" cy="249.6094" fill="#84BE84" rx="3" ry="3" style="stroke: #038048; stroke-width: 1.0;"/><text fill="#000000" font-family="sans-serif" font-size="11" lengthAdjust="spacingAndGlyphs" textLength="108" x="455.5" y="252.8198">getIndice(void) : int</text><rect fill="#F24D5C" height="6" style="stroke: #C82930; stroke-width: 1.0;" width="6" x="443.5" y="259.4141"/><text fill="#000000" font-family="sans-serif" font-size="11" lengthAdjust="spacingAndGlyphs" textLength="108" x="455.5" y="265.6245">setIndice(int) : void</text><line style="stroke: #A80036; stroke-width: 1.0; stroke-dasharray: 1.0,2.0;" x1="436.5" x2="524" y1="236.207" y2="236.207"/><text fill="#000000" font-family="sans-serif" font-size="11" lengthAdjust="spacingAndGlyphs" textLength="98" x="524" y="239.5151">Accesseur linaire</text><line style="stroke: #A80036; stroke-width: 1.0; stroke-dasharray: 1.0,2.0;" x1="622" x2="709.5" y1="236.207" y2="236.207"/><ellipse cx="446.5" cy="292.0234" fill="#84BE84" rx="3" ry="3" style="stroke: #038048; stroke-width: 1.0;"/><text fill="#000000" font-family="sans-serif" font-size="11" lengthAdjust="spacingAndGlyphs" textLength="212" x="455.5" y="295.2339">nextCell(void) : boolean // EndOfLine?</text><ellipse cx="446.5" cy="304.8281" fill="#84BE84" rx="3" ry="3" style="stroke: #038048; stroke-width: 1.0;"/><text fill="#000000" font-family="sans-serif" font-size="11" lengthAdjust="spacingAndGlyphs" textLength="244" x="455.5" y="308.0386">previousCell(void) : boolean // StartOfLine?</text><ellipse cx="446.5" cy="317.6328" fill="#84BE84" rx="3" ry="3" style="stroke: #038048; stroke-width: 1.0;"/><text fill="#000000" font-family="sans-serif" font-size="11" lengthAdjust="spacingAndGlyphs" textLength="209" x="455.5" y="320.8433">nextLine(void) : boolean // EndOfCol?</text><ellipse cx="446.5" cy="330.4375" fill="#84BE84" rx="3" ry="3" style="stroke: #038048; stroke-width: 1.0;"/><text fill="#000000" font-family="sans-serif" font-size="11" lengthAdjust="spacingAndGlyphs" textLength="237" x="455.5" y="333.6479">previousLine(void) : boolean //StartOfCol?</text><ellipse cx="446.5" cy="343.2422" fill="#84BE84" rx="3" ry="3" style="stroke: #038048; stroke-width: 1.0;"/><text fill="#000000" font-family="sans-serif" font-size="11" lengthAdjust="spacingAndGlyphs" textLength="189" x="455.5" y="346.4526">newColumn(void) : boolean //true</text><ellipse cx="446.5" cy="356.0469" fill="#84BE84" rx="3" ry="3" style="stroke: #038048; stroke-width: 1.0;"/><text fill="#000000" font-family="sans-serif" font-size="11" lengthAdjust="spacingAndGlyphs" textLength="183" x="455.5" y="359.2573">oldColumn(void) : boolean //true</text><ellipse cx="446.5" cy="368.8516" fill="#84BE84" rx="3" ry="3" style="stroke: #038048; stroke-width: 1.0;"/><text fill="#000000" font-family="sans-serif" font-size="11" lengthAdjust="spacingAndGlyphs" textLength="169" x="455.5" y="372.062">newLine(void) : boolean //true</text><ellipse cx="446.5" cy="381.6563" fill="#84BE84" rx="3" ry="3" style="stroke: #038048; stroke-width: 1.0;"/><text fill="#000000" font-family="sans-serif" font-size="11" lengthAdjust="spacingAndGlyphs" textLength="163" x="455.5" y="384.8667">oldLine(void) : boolean //true</text><ellipse cx="446.5" cy="394.4609" fill="#84BE84" rx="3" ry="3" style="stroke: #038048; stroke-width: 1.0;"/><text fill="#000000" font-family="sans-serif" font-size="11" lengthAdjust="spacingAndGlyphs" textLength="249" x="455.5" y="397.6714">moveCoord(Supplier&lt;Boolean&gt;,nbRep) : int</text><line style="stroke: #A80036; stroke-width: 1.0; stroke-dasharray: 1.0,2.0;" x1="436.5" x2="547" y1="278.6211" y2="278.6211"/><text fill="#000000" font-family="sans-serif" font-size="11" lengthAdjust="spacingAndGlyphs" textLength="52" x="547" y="281.9292">Modifieur</text><line style="stroke: #A80036; stroke-width: 1.0; stroke-dasharray: 1.0,2.0;" x1="599" x2="709.5" y1="278.6211" y2="278.6211"/><ellipse cx="446.5" cy="424.0703" fill="#84BE84" rx="3" ry="3" style="stroke: #038048; stroke-width: 1.0;"/><text fill="#000000" font-family="sans-serif" font-size="11" lengthAdjust="spacingAndGlyphs" textLength="150" x="455.5" y="427.2808">equals(Object o) : boolean</text><ellipse cx="446.5" cy="436.875" fill="#84BE84" rx="3" ry="3" style="stroke: #038048; stroke-width: 1.0;"/><text fill="#000000" font-family="sans-serif" font-size="11" lengthAdjust="spacingAndGlyphs" textLength="142" x="455.5" y="440.0854">compareTo(Coord c) : int</text><line style="stroke: #A80036; stroke-width: 1.0; stroke-dasharray: 1.0,2.0;" x1="436.5" x2="535" y1="410.668" y2="410.668"/><text fill="#000000" font-family="sans-serif" font-size="11" lengthAdjust="spacingAndGlyphs" textLength="76" x="535" y="413.9761">Comparaison</text><line style="stroke: #A80036; stroke-width: 1.0; stroke-dasharray: 1.0,2.0;" x1="611" x2="709.5" y1="410.668" y2="410.668"/><ellipse cx="446.5" cy="466.4844" fill="#84BE84" rx="3" ry="3" style="stroke: #038048; stroke-width: 1.0;"/><text fill="#000000" font-family="sans-serif" font-size="11" lengthAdjust="spacingAndGlyphs" textLength="103" x="455.5" y="469.6948">copy(void) : Coord</text><ellipse cx="446.5" cy="479.2891" fill="#84BE84" rx="3" ry="3" style="stroke: #038048; stroke-width: 1.0;"/><text fill="#000000" font-family="sans-serif" font-size="11" lengthAdjust="spacingAndGlyphs" textLength="114" x="455.5" y="482.4995">copy(Coord) : Coord</text><ellipse cx="446.5" cy="492.0938" fill="#84BE84" rx="3" ry="3" style="stroke: #038048; stroke-width: 1.0;"/><text fill="#000000" font-family="sans-serif" font-size="11" lengthAdjust="spacingAndGlyphs" textLength="115" x="455.5" y="495.3042">exist(void) : boolean</text><line style="stroke: #A80036; stroke-width: 1.0; stroke-dasharray: 1.0,2.0;" x1="436.5" x2="554.5" y1="453.082" y2="453.082"/><text fill="#000000" font-family="sans-serif" font-size="11" lengthAdjust="spacingAndGlyphs" textLength="37" x="554.5" y="456.3901">Autres</text><line style="stroke: #A80036; stroke-width: 1.0; stroke-dasharray: 1.0,2.0;" x1="591.5" x2="709.5" y1="453.082" y2="453.082"/><path d="M6,214.9531 L6,255.2188 A0,0 0 0 0 6,255.2188 L307,255.2188 A0,0 0 0 0 307,255.2188 L307,239.0859 L439.5,176.9883 L307,231.0859 L307,224.9531 L297,214.9531 L6,214.9531 A0,0 0 0 0 6,214.9531 " fill="#FBFB77" filter="url(#f1ptotcct5j5r9)" style="stroke: #A80036; stroke-width: 1.0;"/><path d="M297,214.9531 L297,224.9531 L307,224.9531 L297,214.9531 " fill="#FBFB77" style="stroke: #A80036; stroke-width: 1.0;"/><text fill="#000000" font-family="sans-serif" font-size="13" lengthAdjust="spacingAndGlyphs" textLength="183" x="12" y="232.02">id : "Coordonnée d'une case,</text><text fill="#000000" font-family="sans-serif" font-size="13" lengthAdjust="spacingAndGlyphs" textLength="280" x="12" y="247.1528">pour le controleur de l'interface graphique. "</text><path d="M6,265.2188 L6,305.4844 A0,0 0 0 0 6,305.4844 L400,305.4844 A0,0 0 0 0 400,305.4844 L400,289.3516 L439.5,206.5977 L400,281.3516 L400,275.2188 L390,265.2188 L6,265.2188 A0,0 0 0 0 6,265.2188 " fill="#FBFB77" filter="url(#f1ptotcct5j5r9)" style="stroke: #A80036; stroke-width: 1.0;"/><path d="M390,265.2188 L390,275.2188 L400,275.2188 L390,265.2188 " fill="#FBFB77" style="stroke: #A80036; stroke-width: 1.0;"/><text fill="#000000" font-family="sans-serif" font-size="13" lengthAdjust="spacingAndGlyphs" textLength="260" x="12" y="282.2856">line &amp; column : "Coordonnée d'une case,</text><text fill="#000000" font-family="sans-serif" font-size="13" lengthAdjust="spacingAndGlyphs" textLength="373" x="12" y="297.4185">pour le moteur de jeu (la classe gérant la matrice de jeu)."</text><!--MD5=[361cad903ff6a448b585aae08e81353d]
link Coord$$$LEFT to Coord--><text fill="#888888" font-family="sans-serif" font-size="10" lengthAdjust="spacingAndGlyphs" textLength="447" x="356.5" y="521.2354">"Sert d'interface entre plusieurs modules n'utilisant pas le même système de coordonnées."</text><!--MD5=[44d6962e7ba9911b494bbbdbae6e9a55]
@startuml Coord

title "Diagramme de la classe gérant les coordonnées"

package "legend" #lightblue {
  class "General" AS G < ? general > << (S,#FFFFFF) Singleton >> {
    .. Attributs ..
    {field} - attributPrivee : type
    {field} # attributProtege : type
    {field} ~ attributPackage : type
    {field} + attributPublic : type
    ==
    .. Methodes ..
    {method} - methodePrive(typeParams) : typeRetour # retourDefault
    {method} # methodeProtege(typeParams) : typeRetour # retourDefault
    {method} ~ methodePackage(typeParams) : typeRetour # retourDefault
    {method} + methodePublic(typeParams) : typeRetour # retourDefault
    .. Methodes Speciale ..
    {method} @methodeOverride(typeParams) : typeRetour # retourDefault
    {method} {abstract} methodeAbstract(typeParams) : typeRetour # retourDefault
    {method} {static} methodeStatic(typeParams) : typeRetour # retourDefault
    {method} {static} <color green>final</color> methodeFinal(typeParams) : typeRetour # retourDefault
  }


}

class "Coord" AS Coord {
	{field} - numCell : int
	==
	.. Constructeurs ..
  {method} {static} + new Coord(void) : Coord
	{method} {static} + new Coord(String) : Coord
	{method} {static} + new Coord(int,int) : Coord
	{method} {static} + new Coord(int) : Coord
	.. Accesseurs graphiques ..
	{method} + getId(void) : String
	.. Accesseurs matriciel ..
	{method} + getLine(void) : int
	{method} + getColumn(void) : int
	.. Accesseur linaire ..
	{method} + getIndice(void) : int
	{method} - setIndice(int) : void
	.. Modifieur ..
	{method} + nextCell(void) : boolean // EndOfLine?
	{method} + previousCell(void) : boolean // StartOfLine?
	{method} + nextLine(void) : boolean // EndOfCol?
	{method} + previousLine(void) : boolean //StartOfCol?
	{method} + newColumn(void) : boolean //true
	{method} + oldColumn(void) : boolean //true
	{method} + newLine(void) : boolean //true
	{method} + oldLine(void) : boolean //true
	{method} + moveCoord(Supplier<Boolean>,nbRep) : int
	.. Comparaison ..
	{method} + equals(Object o) : boolean
	{method} + compareTo(Coord c) : int
	.. Autres ..
	{method} + copy(void) : Coord
	{method} + copy(Coord) : Coord
	{method} + exist(void) : boolean
}
note left of Coord::getId
	id : "Coordonnée d'une case,
	pour le controleur de l'interface graphique. "
end note
note left of Coord::getLine
	line & column : "Coordonnée d'une case,
	pour le moteur de jeu (la classe gérant la matrice de jeu)."
end note

center footer "Sert d'interface entre plusieurs modules n'utilisant pas le même système de coordonnées."
@enduml

PlantUML version 1.2020.02(Sun Mar 01 11:22:07 CET 2020)
(GPL source distribution)
Java Runtime: OpenJDK Runtime Environment
JVM: OpenJDK 64-Bit Server VM
Java Version: 17.0.9+9-Ubuntu-122.04
Operating System: Linux
Default Encoding: UTF-8
Language: en
Country: GB
--></g></svg>