<?xml version="1.0" encoding="UTF-8" standalone="no"?><svg xmlns="http://www.w3.org/2000/svg" xmlns:xlink="http://www.w3.org/1999/xlink" contentScriptType="application/ecmascript" contentStyleType="text/css" height="766px" preserveAspectRatio="none" style="width:1302px;height:766px;" version="1.1" viewBox="0 0 1302 766" width="1302px" zoomAndPan="magnify"><defs><filter height="300%" id="f1bdn9njalhxhb" width="300%" x="-1" y="-1"><feGaussianBlur result="blurOut" stdDeviation="2.0"/><feColorMatrix in="blurOut" result="blurOut2" type="matrix" values="0 0 0 0 0 0 0 0 0 0 0 0 0 0 0 0 0 0 .4 0"/><feOffset dx="4.0" dy="4.0" in="blurOut2" result="blurOut3"/><feBlend in="SourceGraphic" in2="blurOut3" mode="normal"/></filter></defs><g><text fill="#000000" font-family="sans-serif" font-size="18" lengthAdjust="spacingAndGlyphs" textLength="488" x="413.5" y="16.708">"Diagramme des classes responsable des règles du jeu"</text><!--MD5=[86674ab5735079aa6b5321d691891463]
cluster legend--><polygon fill="#ADD8E6" filter="url(#f1bdn9njalhxhb)" points="749.5,196.4531,809.5,196.4531,816.5,218.75,1280.5,218.75,1280.5,547.4531,749.5,547.4531,749.5,196.4531" style="stroke: #000000; stroke-width: 1.5;"/><line style="stroke: #000000; stroke-width: 1.5;" x1="749.5" x2="816.5" y1="218.75" y2="218.75"/><text fill="#000000" font-family="sans-serif" font-size="14" font-weight="bold" lengthAdjust="spacingAndGlyphs" textLength="54" x="753.5" y="211.4482">legend</text><!--MD5=[4cac391c179f8787f20d7dddb517ad5a]
class G--><rect fill="#FEFECE" filter="url(#f1bdn9njalhxhb)" height="300.4219" id="G" style="stroke: #A80036; stroke-width: 1.5;" width="364" x="900.5" y="231.4531"/><ellipse cx="1008.75" cy="250.4219" fill="#FFFFFF" rx="11" ry="11" style="stroke: #A80036; stroke-width: 1.0;"/><path d="M1008.2344,250.9844 Q1006.375,250.2813 1005.7188,249.5156 Q1005.0781,248.7344 1005.0781,247.4219 Q1005.0781,245.7344 1006.1563,244.7656 Q1007.2344,243.7969 1009.1094,243.7969 Q1009.9688,243.7969 1010.8125,244 Q1011.6719,244.1875 1012.5156,244.5781 L1012.5156,246.9688 Q1011.7344,246.4063 1010.9063,246.125 Q1010.0938,245.8281 1009.2969,245.8281 Q1008.4219,245.8281 1007.9375,246.1875 Q1007.4688,246.5469 1007.4688,247.2031 Q1007.4688,247.7188 1007.8125,248.0625 Q1008.1563,248.3906 1009.25,248.7969 L1010.3125,249.2031 Q1011.7969,249.75 1012.5,250.6563 Q1013.2188,251.5625 1013.2188,252.9375 Q1013.2188,254.8125 1012.1094,255.7344 Q1011,256.6563 1008.75,256.6563 Q1007.8281,256.6563 1006.9063,256.4375 Q1005.9844,256.2188 1005.125,255.7969 L1005.125,253.2656 Q1006.0938,253.9531 1007.0156,254.2969 Q1007.9375,254.6406 1008.8281,254.6406 Q1009.7344,254.6406 1010.2344,254.2344 Q1010.7344,253.8125 1010.7344,253.0781 Q1010.7344,252.5156 1010.3906,252.1094 Q1010.0625,251.6875 1009.4375,251.4375 L1008.2344,250.9844 Z "/><text fill="#000000" font-family="sans-serif" font-size="12" font-style="italic" lengthAdjust="spacingAndGlyphs" textLength="73" x="1027.25" y="247.5918">«Singleton»</text><text fill="#000000" font-family="sans-serif" font-size="12" lengthAdjust="spacingAndGlyphs" textLength="49" x="1039.25" y="261.5605">General</text><rect fill="#FFFFFF" height="15.9688" style="stroke: #000000; stroke-width: 1.0; stroke-dasharray: 2.0,2.0;" width="68" x="1199.5" y="228.4531"/><text fill="#000000" font-family="sans-serif" font-size="12" font-style="italic" lengthAdjust="spacingAndGlyphs" textLength="58" x="1204.5" y="240.5918">? general</text><line style="stroke: #A80036; stroke-width: 1.5;" x1="901.5" x2="1263.5" y1="269.3906" y2="269.3906"/><text fill="#000000" font-family="sans-serif" font-size="11" lengthAdjust="spacingAndGlyphs" text-decoration="underline" textLength="151" x="906.5" y="300.4058">VAR_CLASSE_PRIVEE : type</text><text fill="#000000" font-family="sans-serif" font-size="11" lengthAdjust="spacingAndGlyphs" text-decoration="underline" textLength="94" x="906.5" y="313.2104">CONST_PUBLIC :</text><text fill="#008000" font-family="sans-serif" font-size="11" lengthAdjust="spacingAndGlyphs" text-decoration="underline" textLength="24" x="1004.5" y="313.2104">final</text><text fill="#000000" font-family="sans-serif" font-size="11" lengthAdjust="spacingAndGlyphs" text-decoration="underline" textLength="24" x="1032.5" y="313.2104">type</text><line style="stroke: #A80036; stroke-width: 1.0; stroke-dasharray: 1.0,2.0;" x1="901.5" x2="1050" y1="283.793" y2="283.793"/><text fill="#000000" font-family="sans-serif" font-size="11" lengthAdjust="spacingAndGlyphs" textLength="65" x="1050" y="287.1011">Constantes</text><line style="stroke: #A80036; stroke-width: 1.0; stroke-dasharray: 1.0,2.0;" x1="1115" x2="1263.5" y1="283.793" y2="283.793"/><rect fill="none" height="6" style="stroke: #C82930; stroke-width: 1.0;" width="6" x="908.5" y="336.6094"/><text fill="#000000" font-family="sans-serif" font-size="11" lengthAdjust="spacingAndGlyphs" textLength="112" x="920.5" y="342.8198">attributPrivee : type</text><polygon fill="none" points="911.5,347.4141,915.5,351.4141,911.5,355.4141,907.5,351.4141" style="stroke: #B38D22; stroke-width: 1.0;"/><text fill="#000000" font-family="sans-serif" font-size="11" lengthAdjust="spacingAndGlyphs" textLength="121" x="920.5" y="355.6245">attributProtege : type</text><polygon fill="none" points="911.5,361.2188,907.5,367.2188,915.5,367.2188" style="stroke: #1963A0; stroke-width: 1.0;"/><text fill="#000000" font-family="sans-serif" font-size="11" lengthAdjust="spacingAndGlyphs" textLength="124" x="920.5" y="368.4292">attributPackage : type</text><ellipse cx="911.5" cy="378.0234" fill="none" rx="3" ry="3" style="stroke: #038048; stroke-width: 1.0;"/><text fill="#000000" font-family="sans-serif" font-size="11" lengthAdjust="spacingAndGlyphs" textLength="110" x="920.5" y="381.2339">attributPublic : type</text><line style="stroke: #A80036; stroke-width: 1.0; stroke-dasharray: 1.0,2.0;" x1="901.5" x2="1058.5" y1="326.207" y2="326.207"/><text fill="#000000" font-family="sans-serif" font-size="11" lengthAdjust="spacingAndGlyphs" textLength="48" x="1058.5" y="329.5151">Attributs</text><line style="stroke: #A80036; stroke-width: 1.0; stroke-dasharray: 1.0,2.0;" x1="1106.5" x2="1263.5" y1="326.207" y2="326.207"/><line style="stroke: #A80036; stroke-width: 1.0;" x1="901.5" x2="1263.5" y1="387.8281" y2="387.8281"/><line style="stroke: #A80036; stroke-width: 1.0;" x1="901.5" x2="1263.5" y1="389.8281" y2="389.8281"/><rect fill="#F24D5C" height="6" style="stroke: #C82930; stroke-width: 1.0;" width="6" x="908.5" y="412.6328"/><text fill="#000000" font-family="sans-serif" font-size="11" lengthAdjust="spacingAndGlyphs" textLength="319" x="920.5" y="418.8433">methodePrive(typeParams) : typeRetour # retourDefault</text><polygon fill="#FFFF44" points="911.5,423.4375,915.5,427.4375,911.5,431.4375,907.5,427.4375" style="stroke: #B38D22; stroke-width: 1.0;"/><text fill="#000000" font-family="sans-serif" font-size="11" lengthAdjust="spacingAndGlyphs" textLength="335" x="920.5" y="431.6479">methodeProtege(typeParams) : typeRetour # retourDefault</text><polygon fill="#4177AF" points="911.5,437.2422,907.5,443.2422,915.5,443.2422" style="stroke: #1963A0; stroke-width: 1.0;"/><text fill="#000000" font-family="sans-serif" font-size="11" lengthAdjust="spacingAndGlyphs" textLength="338" x="920.5" y="444.4526">methodePackage(typeParams) : typeRetour # retourDefault</text><ellipse cx="911.5" cy="454.0469" fill="#84BE84" rx="3" ry="3" style="stroke: #038048; stroke-width: 1.0;"/><text fill="#000000" font-family="sans-serif" font-size="11" lengthAdjust="spacingAndGlyphs" textLength="324" x="920.5" y="457.2573">methodePublic(typeParams) : typeRetour # retourDefault</text><line style="stroke: #A80036; stroke-width: 1.0; stroke-dasharray: 1.0,2.0;" x1="901.5" x2="1055" y1="402.2305" y2="402.2305"/><text fill="#000000" font-family="sans-serif" font-size="11" lengthAdjust="spacingAndGlyphs" textLength="55" x="1055" y="405.5386">Méthodes</text><line style="stroke: #A80036; stroke-width: 1.0; stroke-dasharray: 1.0,2.0;" x1="1110" x2="1263.5" y1="402.2305" y2="402.2305"/><text fill="#000000" font-family="sans-serif" font-size="11" lengthAdjust="spacingAndGlyphs" textLength="352" x="906.5" y="486.8667">@methodeOverride(typeParams) : typeRetour # retourDefault</text><text fill="#000000" font-family="sans-serif" font-size="11" font-style="italic" lengthAdjust="spacingAndGlyphs" textLength="340" x="906.5" y="499.6714">methodeAbstract(typeParams) : typeRetour # retourDefault</text><text fill="#000000" font-family="sans-serif" font-size="11" lengthAdjust="spacingAndGlyphs" text-decoration="underline" textLength="323" x="906.5" y="512.4761">methodeStatic(typeParams) : typeRetour # retourDefault</text><text fill="#008000" font-family="sans-serif" font-size="11" lengthAdjust="spacingAndGlyphs" text-decoration="underline" textLength="24" x="906.5" y="525.2808">final</text><text fill="#000000" font-family="sans-serif" font-size="11" lengthAdjust="spacingAndGlyphs" text-decoration="underline" textLength="317" x="934.5" y="525.2808">methodeFinal(typeParams) : typeRetour # retourDefault</text><line style="stroke: #A80036; stroke-width: 1.0; stroke-dasharray: 1.0,2.0;" x1="901.5" x2="1029" y1="470.2539" y2="470.2539"/><text fill="#000000" font-family="sans-serif" font-size="11" lengthAdjust="spacingAndGlyphs" textLength="107" x="1029" y="473.562">Méthodes Speciale</text><line style="stroke: #A80036; stroke-width: 1.0; stroke-dasharray: 1.0,2.0;" x1="1136" x2="1263.5" y1="470.2539" y2="470.2539"/><!--MD5=[8d919f42174a8592853f0e252dac1126]
class S--><rect fill="#FEFECE" filter="url(#f1bdn9njalhxhb)" height="53.9375" id="S" style="stroke: #A80036; stroke-width: 1.5;" width="99" x="766" y="354.4531"/><ellipse cx="781" cy="373.4219" fill="#FF7700" rx="11" ry="11" style="stroke: #A80036; stroke-width: 1.0;"/><path d="M780.4844,373.9844 Q778.625,373.2813 777.9688,372.5156 Q777.3281,371.7344 777.3281,370.4219 Q777.3281,368.7344 778.4063,367.7656 Q779.4844,366.7969 781.3594,366.7969 Q782.2188,366.7969 783.0625,367 Q783.9219,367.1875 784.7656,367.5781 L784.7656,369.9688 Q783.9844,369.4063 783.1563,369.125 Q782.3438,368.8281 781.5469,368.8281 Q780.6719,368.8281 780.1875,369.1875 Q779.7188,369.5469 779.7188,370.2031 Q779.7188,370.7188 780.0625,371.0625 Q780.4063,371.3906 781.5,371.7969 L782.5625,372.2031 Q784.0469,372.75 784.75,373.6563 Q785.4688,374.5625 785.4688,375.9375 Q785.4688,377.8125 784.3594,378.7344 Q783.25,379.6563 781,379.6563 Q780.0781,379.6563 779.1563,379.4375 Q778.2344,379.2188 777.375,378.7969 L777.375,376.2656 Q778.3438,376.9531 779.2656,377.2969 Q780.1875,377.6406 781.0781,377.6406 Q781.9844,377.6406 782.4844,377.2344 Q782.9844,376.8125 782.9844,376.0781 Q782.9844,375.5156 782.6406,375.1094 Q782.3125,374.6875 781.6875,374.4375 L780.4844,373.9844 Z "/><text fill="#000000" font-family="sans-serif" font-size="12" font-style="italic" lengthAdjust="spacingAndGlyphs" textLength="71" x="793" y="370.5918">«singleton»</text><text fill="#000000" font-family="sans-serif" font-size="12" lengthAdjust="spacingAndGlyphs" textLength="59" x="799" y="384.5605">Singleton</text><line style="stroke: #A80036; stroke-width: 1.5;" x1="767" x2="864" y1="392.3906" y2="392.3906"/><line style="stroke: #A80036; stroke-width: 1.5;" x1="767" x2="864" y1="400.3906" y2="400.3906"/><!--MD5=[b6dcce5e5ef3c84b0b048d11301373dd]
class Game--><rect fill="#FEFECE" filter="url(#f1bdn9njalhxhb)" height="704.5625" id="Game" style="stroke: #A80036; stroke-width: 1.5;" width="365" x="6" y="28.9531"/><ellipse cx="145.25" cy="47.9219" fill="#FF7700" rx="11" ry="11" style="stroke: #A80036; stroke-width: 1.0;"/><path d="M144.7344,48.4844 Q142.875,47.7813 142.2188,47.0156 Q141.5781,46.2344 141.5781,44.9219 Q141.5781,43.2344 142.6563,42.2656 Q143.7344,41.2969 145.6094,41.2969 Q146.4688,41.2969 147.3125,41.5 Q148.1719,41.6875 149.0156,42.0781 L149.0156,44.4688 Q148.2344,43.9063 147.4063,43.625 Q146.5938,43.3281 145.7969,43.3281 Q144.9219,43.3281 144.4375,43.6875 Q143.9688,44.0469 143.9688,44.7031 Q143.9688,45.2188 144.3125,45.5625 Q144.6563,45.8906 145.75,46.2969 L146.8125,46.7031 Q148.2969,47.25 149,48.1563 Q149.7188,49.0625 149.7188,50.4375 Q149.7188,52.3125 148.6094,53.2344 Q147.5,54.1563 145.25,54.1563 Q144.3281,54.1563 143.4063,53.9375 Q142.4844,53.7188 141.625,53.2969 L141.625,50.7656 Q142.5938,51.4531 143.5156,51.7969 Q144.4375,52.1406 145.3281,52.1406 Q146.2344,52.1406 146.7344,51.7344 Q147.2344,51.3125 147.2344,50.5781 Q147.2344,50.0156 146.8906,49.6094 Q146.5625,49.1875 145.9375,48.9375 L144.7344,48.4844 Z "/><text fill="#000000" font-family="sans-serif" font-size="12" font-style="italic" lengthAdjust="spacingAndGlyphs" textLength="82" x="163.75" y="45.0918">«Jeu chargé»</text><text fill="#000000" font-family="sans-serif" font-size="12" lengthAdjust="spacingAndGlyphs" textLength="36" x="186.75" y="59.0605">Game</text><line style="stroke: #A80036; stroke-width: 1.5;" x1="7" x2="370" y1="66.8906" y2="66.8906"/><rect fill="none" height="6" style="stroke: #C82930; stroke-width: 1.0;" width="6" x="14" y="91.6953"/><text fill="#000000" font-family="sans-serif" font-size="11" lengthAdjust="spacingAndGlyphs" text-decoration="underline" textLength="78" x="26" y="97.9058">game : Game</text><rect fill="none" height="6" style="stroke: #C82930; stroke-width: 1.0;" width="6" x="14" y="104.5"/><text fill="#000000" font-family="sans-serif" font-size="11" lengthAdjust="spacingAndGlyphs" textLength="78" x="26" y="110.7104">cstMaxValue :</text><text fill="#008000" font-family="sans-serif" font-size="11" lengthAdjust="spacingAndGlyphs" textLength="24" x="108" y="110.7104">final</text><text fill="#000000" font-family="sans-serif" font-size="11" lengthAdjust="spacingAndGlyphs" textLength="14" x="136" y="110.7104">int</text><rect fill="none" height="6" style="stroke: #C82930; stroke-width: 1.0;" width="6" x="14" y="117.3047"/><text fill="#000000" font-family="sans-serif" font-size="11" lengthAdjust="spacingAndGlyphs" textLength="75" x="26" y="123.5151">cstMinValue :</text><text fill="#008000" font-family="sans-serif" font-size="11" lengthAdjust="spacingAndGlyphs" textLength="24" x="105" y="123.5151">final</text><text fill="#000000" font-family="sans-serif" font-size="11" lengthAdjust="spacingAndGlyphs" textLength="14" x="133" y="123.5151">int</text><line style="stroke: #A80036; stroke-width: 1.0; stroke-dasharray: 1.0,2.0;" x1="7" x2="156" y1="81.293" y2="81.293"/><text fill="#000000" font-family="sans-serif" font-size="11" lengthAdjust="spacingAndGlyphs" textLength="65" x="156" y="84.6011">Constantes</text><line style="stroke: #A80036; stroke-width: 1.0; stroke-dasharray: 1.0,2.0;" x1="221" x2="370" y1="81.293" y2="81.293"/><rect fill="none" height="6" style="stroke: #C82930; stroke-width: 1.0;" width="6" x="14" y="146.9141"/><text fill="#000000" font-family="sans-serif" font-size="11" lengthAdjust="spacingAndGlyphs" textLength="137" x="26" y="153.1245">Deque&lt;Move&gt; lstMoves</text><rect fill="none" height="6" style="stroke: #C82930; stroke-width: 1.0;" width="6" x="14" y="159.7188"/><text fill="#000000" font-family="sans-serif" font-size="11" lengthAdjust="spacingAndGlyphs" textLength="175" x="26" y="165.9292">Deque&lt;Move&gt; lstMovesCancel</text><rect fill="none" height="6" style="stroke: #C82930; stroke-width: 1.0;" width="6" x="14" y="172.5234"/><text fill="#000000" font-family="sans-serif" font-size="11" lengthAdjust="spacingAndGlyphs" textLength="179" x="26" y="178.7339">List&lt;EntryError&gt; lstEntryErrors</text><rect fill="none" height="6" style="stroke: #C82930; stroke-width: 1.0;" width="6" x="14" y="185.3281"/><text fill="#000000" font-family="sans-serif" font-size="11" lengthAdjust="spacingAndGlyphs" textLength="88" x="26" y="191.5386">int correctState</text><rect fill="none" height="6" style="stroke: #C82930; stroke-width: 1.0;" width="6" x="14" y="198.1328"/><text fill="#000000" font-family="sans-serif" font-size="11" lengthAdjust="spacingAndGlyphs" textLength="50" x="26" y="204.3433">Grid grid</text><rect fill="none" height="6" style="stroke: #C82930; stroke-width: 1.0;" width="6" x="14" y="210.9375"/><text fill="#000000" font-family="sans-serif" font-size="11" lengthAdjust="spacingAndGlyphs" textLength="155" x="26" y="217.1479">IntBinaryOperation function</text><line style="stroke: #A80036; stroke-width: 1.0; stroke-dasharray: 1.0,2.0;" x1="7" x2="162" y1="136.5117" y2="136.5117"/><text fill="#000000" font-family="sans-serif" font-size="11" lengthAdjust="spacingAndGlyphs" textLength="53" x="162" y="139.8198">Variables</text><line style="stroke: #A80036; stroke-width: 1.0; stroke-dasharray: 1.0,2.0;" x1="215" x2="370" y1="136.5117" y2="136.5117"/><line style="stroke: #A80036; stroke-width: 1.0;" x1="7" x2="370" y1="223.7422" y2="223.7422"/><line style="stroke: #A80036; stroke-width: 1.0;" x1="7" x2="370" y1="225.7422" y2="225.7422"/><rect fill="#F24D5C" height="6" style="stroke: #C82930; stroke-width: 1.0;" width="6" x="14" y="248.5469"/><text fill="#000000" font-family="sans-serif" font-size="11" lengthAdjust="spacingAndGlyphs" text-decoration="underline" textLength="115" x="26" y="254.7573">new Game() : Game</text><ellipse cx="17" cy="264.3516" fill="#84BE84" rx="3" ry="3" style="stroke: #038048; stroke-width: 1.0;"/><text fill="#000000" font-family="sans-serif" font-size="11" lengthAdjust="spacingAndGlyphs" text-decoration="underline" textLength="206" x="26" y="267.562">createGame(/*lstParam*/) : boolean</text><ellipse cx="17" cy="277.1563" fill="#84BE84" rx="3" ry="3" style="stroke: #038048; stroke-width: 1.0;"/><text fill="#000000" font-family="sans-serif" font-size="11" lengthAdjust="spacingAndGlyphs" text-decoration="underline" textLength="209" x="26" y="280.3667">chargeGame(/*lstParam*/) : boolean</text><line style="stroke: #A80036; stroke-width: 1.0; stroke-dasharray: 1.0,2.0;" x1="7" x2="148" y1="238.1445" y2="238.1445"/><text fill="#000000" font-family="sans-serif" font-size="11" lengthAdjust="spacingAndGlyphs" textLength="81" x="148" y="241.4526">Constructeurs</text><line style="stroke: #A80036; stroke-width: 1.0; stroke-dasharray: 1.0,2.0;" x1="229" x2="370" y1="238.1445" y2="238.1445"/><ellipse cx="17" cy="306.7656" fill="#84BE84" rx="3" ry="3" style="stroke: #038048; stroke-width: 1.0;"/><text fill="#000000" font-family="sans-serif" font-size="11" lengthAdjust="spacingAndGlyphs" text-decoration="underline" textLength="128" x="26" y="309.9761">getMaxValue(void) : int</text><ellipse cx="17" cy="319.5703" fill="#84BE84" rx="3" ry="3" style="stroke: #038048; stroke-width: 1.0;"/><text fill="#000000" font-family="sans-serif" font-size="11" lengthAdjust="spacingAndGlyphs" text-decoration="underline" textLength="125" x="26" y="322.7808">getMinValue(void) : int</text><ellipse cx="17" cy="332.375" fill="#84BE84" rx="3" ry="3" style="stroke: #038048; stroke-width: 1.0;"/><text fill="#000000" font-family="sans-serif" font-size="11" lengthAdjust="spacingAndGlyphs" text-decoration="underline" textLength="127" x="26" y="335.5854">getNullValue(void) : int</text><ellipse cx="17" cy="345.1797" fill="#84BE84" rx="3" ry="3" style="stroke: #038048; stroke-width: 1.0;"/><text fill="#000000" font-family="sans-serif" font-size="11" lengthAdjust="spacingAndGlyphs" text-decoration="underline" textLength="153" x="26" y="348.3901">getLastCoord(void) : Coord</text><ellipse cx="17" cy="357.9844" fill="#84BE84" rx="3" ry="3" style="stroke: #038048; stroke-width: 1.0;"/><text fill="#000000" font-family="sans-serif" font-size="11" lengthAdjust="spacingAndGlyphs" text-decoration="underline" textLength="120" x="26" y="361.1948">getInstance() : Game</text><line style="stroke: #A80036; stroke-width: 1.0; stroke-dasharray: 1.0,2.0;" x1="7" x2="99" y1="293.3633" y2="293.3633"/><text fill="#000000" font-family="sans-serif" font-size="11" lengthAdjust="spacingAndGlyphs" textLength="179" x="99" y="296.6714">Accesseurs sur les Constantes</text><line style="stroke: #A80036; stroke-width: 1.0; stroke-dasharray: 1.0,2.0;" x1="278" x2="370" y1="293.3633" y2="293.3633"/><ellipse cx="17" cy="387.5938" fill="#84BE84" rx="3" ry="3" style="stroke: #038048; stroke-width: 1.0;"/><text fill="#000000" font-family="sans-serif" font-size="11" lengthAdjust="spacingAndGlyphs" textLength="328" x="26" y="390.8042">getEntryErrors(Predicate&lt;EntryError&gt;) : List&lt;EntryError&gt;</text><ellipse cx="17" cy="400.3984" fill="#84BE84" rx="3" ry="3" style="stroke: #038048; stroke-width: 1.0;"/><text fill="#000000" font-family="sans-serif" font-size="11" lengthAdjust="spacingAndGlyphs" textLength="127" x="26" y="403.6089">getCell(Coord) : String</text><ellipse cx="17" cy="413.2031" fill="#84BE84" rx="3" ry="3" style="stroke: #038048; stroke-width: 1.0;"/><text fill="#000000" font-family="sans-serif" font-size="11" lengthAdjust="spacingAndGlyphs" textLength="124" x="26" y="416.4136">affCell(Coord) : String</text><ellipse cx="17" cy="426.0078" fill="#84BE84" rx="3" ry="3" style="stroke: #038048; stroke-width: 1.0;"/><text fill="#000000" font-family="sans-serif" font-size="11" lengthAdjust="spacingAndGlyphs" textLength="182" x="26" y="429.2183">getNotes(Coord) : Set&lt;Integer&gt;</text><line style="stroke: #A80036; stroke-width: 1.0; stroke-dasharray: 1.0,2.0;" x1="7" x2="155.5" y1="374.1914" y2="374.1914"/><text fill="#000000" font-family="sans-serif" font-size="11" lengthAdjust="spacingAndGlyphs" textLength="66" x="155.5" y="377.4995">Accesseurs</text><line style="stroke: #A80036; stroke-width: 1.0; stroke-dasharray: 1.0,2.0;" x1="221.5" x2="370" y1="374.1914" y2="374.1914"/><ellipse cx="17" cy="455.6172" fill="#84BE84" rx="3" ry="3" style="stroke: #038048; stroke-width: 1.0;"/><text fill="#000000" font-family="sans-serif" font-size="11" lengthAdjust="spacingAndGlyphs" textLength="193" x="26" y="458.8276">update(Consumer&lt;Coord&gt;) : void</text><ellipse cx="17" cy="468.4219" fill="#84BE84" rx="3" ry="3" style="stroke: #038048; stroke-width: 1.0;"/><text fill="#000000" font-family="sans-serif" font-size="11" lengthAdjust="spacingAndGlyphs" textLength="137" x="26" y="471.6323">updateCell(Coord) : void</text><ellipse cx="17" cy="481.2266" fill="#84BE84" rx="3" ry="3" style="stroke: #038048; stroke-width: 1.0;"/><text fill="#000000" font-family="sans-serif" font-size="11" lengthAdjust="spacingAndGlyphs" textLength="133" x="26" y="484.437">updateErr(Coord) : void</text><line style="stroke: #A80036; stroke-width: 1.0; stroke-dasharray: 1.0,2.0;" x1="7" x2="162.5" y1="442.2148" y2="442.2148"/><text fill="#000000" font-family="sans-serif" font-size="11" lengthAdjust="spacingAndGlyphs" textLength="52" x="162.5" y="445.5229">Affichage</text><line style="stroke: #A80036; stroke-width: 1.0; stroke-dasharray: 1.0,2.0;" x1="214.5" x2="370" y1="442.2148" y2="442.2148"/><ellipse cx="17" cy="510.8359" fill="#84BE84" rx="3" ry="3" style="stroke: #038048; stroke-width: 1.0;"/><text fill="#000000" font-family="sans-serif" font-size="11" lengthAdjust="spacingAndGlyphs" textLength="113" x="26" y="514.0464">set(Coord,int) : void</text><ellipse cx="17" cy="523.6406" fill="#84BE84" rx="3" ry="3" style="stroke: #038048; stroke-width: 1.0;"/><text fill="#000000" font-family="sans-serif" font-size="11" lengthAdjust="spacingAndGlyphs" textLength="176" x="26" y="526.8511">set(Coord,Set&lt;Integer&gt;) : void</text><ellipse cx="17" cy="536.4453" fill="#84BE84" rx="3" ry="3" style="stroke: #038048; stroke-width: 1.0;"/><text fill="#000000" font-family="sans-serif" font-size="11" lengthAdjust="spacingAndGlyphs" textLength="105" x="26" y="539.6558">undo(void) : Coord</text><ellipse cx="17" cy="549.25" fill="#84BE84" rx="3" ry="3" style="stroke: #038048; stroke-width: 1.0;"/><text fill="#000000" font-family="sans-serif" font-size="11" lengthAdjust="spacingAndGlyphs" textLength="103" x="26" y="552.4604">redo(void) : Coord</text><ellipse cx="17" cy="562.0547" fill="#84BE84" rx="3" ry="3" style="stroke: #038048; stroke-width: 1.0;"/><text fill="#000000" font-family="sans-serif" font-size="11" lengthAdjust="spacingAndGlyphs" textLength="191" x="26" y="565.2651">backToLastCorrect(void) : Coord[]</text><rect fill="#F24D5C" height="6" style="stroke: #C82930; stroke-width: 1.0;" width="6" x="14" y="571.8594"/><text fill="#000000" font-family="sans-serif" font-size="11" lengthAdjust="spacingAndGlyphs" textLength="339" x="26" y="578.0698">swapDeque(Deque&lt;Move&gt;,Deque&lt;Move&gt;,boolean) : Coord</text><line style="stroke: #A80036; stroke-width: 1.0; stroke-dasharray: 1.0,2.0;" x1="7" x2="151.5" y1="497.4336" y2="497.4336"/><text fill="#000000" font-family="sans-serif" font-size="11" lengthAdjust="spacingAndGlyphs" textLength="74" x="151.5" y="500.7417">Modifications</text><line style="stroke: #A80036; stroke-width: 1.0; stroke-dasharray: 1.0,2.0;" x1="225.5" x2="370" y1="497.4336" y2="497.4336"/><ellipse cx="17" cy="604.4688" fill="#84BE84" rx="3" ry="3" style="stroke: #038048; stroke-width: 1.0;"/><text fill="#000000" font-family="sans-serif" font-size="11" lengthAdjust="spacingAndGlyphs" textLength="98" x="26" y="607.6792">check(void) : void</text><ellipse cx="17" cy="617.2734" fill="#84BE84" rx="3" ry="3" style="stroke: #038048; stroke-width: 1.0;"/><text fill="#000000" font-family="sans-serif" font-size="11" lengthAdjust="spacingAndGlyphs" textLength="109" x="26" y="620.4839">check(Coord) : void</text><ellipse cx="17" cy="630.0781" fill="#84BE84" rx="3" ry="3" style="stroke: #038048; stroke-width: 1.0;"/><text fill="#000000" font-family="sans-serif" font-size="11" lengthAdjust="spacingAndGlyphs" textLength="240" x="26" y="633.2886">check(Grid.GridIterator,boolean) : boolean</text><rect fill="#F24D5C" height="6" style="stroke: #C82930; stroke-width: 1.0;" width="6" x="14" y="639.8828"/><text fill="#000000" font-family="sans-serif" font-size="11" lengthAdjust="spacingAndGlyphs" textLength="170" x="26" y="646.0933">checkCorrectState(void) : void</text><rect fill="#F24D5C" height="6" style="stroke: #C82930; stroke-width: 1.0;" width="6" x="14" y="652.6875"/><text fill="#000000" font-family="sans-serif" font-size="11" lengthAdjust="spacingAndGlyphs" textLength="146" x="26" y="658.8979">addError(EntryErro) : void</text><line style="stroke: #A80036; stroke-width: 1.0; stroke-dasharray: 1.0,2.0;" x1="7" x2="153.5" y1="591.0664" y2="591.0664"/><text fill="#000000" font-family="sans-serif" font-size="11" lengthAdjust="spacingAndGlyphs" textLength="70" x="153.5" y="594.3745">Vérifications</text><line style="stroke: #A80036; stroke-width: 1.0; stroke-dasharray: 1.0,2.0;" x1="223.5" x2="370" y1="591.0664" y2="591.0664"/><ellipse cx="17" cy="685.2969" fill="#84BE84" rx="3" ry="3" style="stroke: #038048; stroke-width: 1.0;"/><text fill="#000000" font-family="sans-serif" font-size="11" lengthAdjust="spacingAndGlyphs" textLength="70" x="26" y="688.5073">save() : void</text><ellipse cx="17" cy="698.1016" fill="#84BE84" rx="3" ry="3" style="stroke: #038048; stroke-width: 1.0;"/><text fill="#000000" font-family="sans-serif" font-size="11" lengthAdjust="spacingAndGlyphs" textLength="64" x="26" y="701.312">quit() : void</text><ellipse cx="17" cy="710.9063" fill="#84BE84" rx="3" ry="3" style="stroke: #038048; stroke-width: 1.0;"/><text fill="#000000" font-family="sans-serif" font-size="11" lengthAdjust="spacingAndGlyphs" textLength="67" x="26" y="714.1167">help() : void</text><ellipse cx="17" cy="723.7109" fill="#84BE84" rx="3" ry="3" style="stroke: #038048; stroke-width: 1.0;"/><text fill="#000000" font-family="sans-serif" font-size="11" lengthAdjust="spacingAndGlyphs" textLength="101" x="26" y="726.9214">serialize() : String</text><line style="stroke: #A80036; stroke-width: 1.0; stroke-dasharray: 1.0,2.0;" x1="7" x2="170" y1="671.8945" y2="671.8945"/><text fill="#000000" font-family="sans-serif" font-size="11" lengthAdjust="spacingAndGlyphs" textLength="37" x="170" y="675.2026">Autres</text><line style="stroke: #A80036; stroke-width: 1.0; stroke-dasharray: 1.0,2.0;" x1="207" x2="370" y1="671.8945" y2="671.8945"/><path d="M406.5,217.9531 L406.5,241.6523 L232,263.7539 L406.5,249.6523 L406.5,273.3516 A0,0 0 0 0 406.5,273.3516 L670.5,273.3516 A0,0 0 0 0 670.5,273.3516 L670.5,227.9531 L660.5,217.9531 L406.5,217.9531 A0,0 0 0 0 406.5,217.9531 " fill="#FBFB77" filter="url(#f1bdn9njalhxhb)" style="stroke: #A80036; stroke-width: 1.0;"/><path d="M660.5,217.9531 L660.5,227.9531 L670.5,227.9531 L660.5,217.9531 " fill="#FBFB77" style="stroke: #A80036; stroke-width: 1.0;"/><text fill="#000000" font-family="sans-serif" font-size="13" lengthAdjust="spacingAndGlyphs" textLength="243" x="412.5" y="235.02">"Crée une instance de la classe Game</text><text fill="#000000" font-family="sans-serif" font-size="13" lengthAdjust="spacingAndGlyphs" textLength="231" x="412.5" y="250.1528">et supprime l'ancienne instance, si il</text><text fill="#000000" font-family="sans-serif" font-size="13" lengthAdjust="spacingAndGlyphs" textLength="99" x="412.5" y="265.2856">y en avait une."</text><path d="M406.5,283.3516 L406.5,291.918 L219,455.0195 L406.5,299.918 L406.5,308.4844 A0,0 0 0 0 406.5,308.4844 L730.5,308.4844 A0,0 0 0 0 730.5,308.4844 L730.5,293.3516 L720.5,283.3516 L406.5,283.3516 A0,0 0 0 0 406.5,283.3516 " fill="#FBFB77" filter="url(#f1bdn9njalhxhb)" style="stroke: #A80036; stroke-width: 1.0;"/><path d="M720.5,283.3516 L720.5,293.3516 L730.5,293.3516 L720.5,283.3516 " fill="#FBFB77" style="stroke: #A80036; stroke-width: 1.0;"/><text fill="#000000" font-family="sans-serif" font-size="13" lengthAdjust="spacingAndGlyphs" textLength="303" x="412.5" y="300.4185">"Appel les méthodes d'affichage du contrôleur."</text><path d="M406.5,318.4844 L406.5,349.75 L139,510.2383 L406.5,357.75 L406.5,389.0156 A0,0 0 0 0 406.5,389.0156 L672.5,389.0156 A0,0 0 0 0 672.5,389.0156 L672.5,328.4844 L662.5,318.4844 L406.5,318.4844 A0,0 0 0 0 406.5,318.4844 " fill="#FBFB77" filter="url(#f1bdn9njalhxhb)" style="stroke: #A80036; stroke-width: 1.0;"/><path d="M662.5,318.4844 L662.5,328.4844 L672.5,328.4844 L662.5,318.4844 " fill="#FBFB77" style="stroke: #A80036; stroke-width: 1.0;"/><text fill="#000000" font-family="sans-serif" font-size="13" lengthAdjust="spacingAndGlyphs" textLength="202" x="412.5" y="335.5513">"Les méthodes modifiant le jeu,</text><text fill="#000000" font-family="sans-serif" font-size="13" lengthAdjust="spacingAndGlyphs" textLength="204" x="412.5" y="350.6841">ordonne au contrôleur d'afficher</text><text fill="#000000" font-family="sans-serif" font-size="13" lengthAdjust="spacingAndGlyphs" textLength="245" x="412.5" y="365.8169">leur nouvel état, après avoir actualiser</text><text fill="#000000" font-family="sans-serif" font-size="13" lengthAdjust="spacingAndGlyphs" textLength="127" x="412.5" y="380.9497">la liste des erreurs."</text><path d="M406.5,399.0156 L406.5,407.582 L124,603.8711 L406.5,415.582 L406.5,424.1484 A0,0 0 0 0 406.5,424.1484 L617.5,424.1484 A0,0 0 0 0 617.5,424.1484 L617.5,409.0156 L607.5,399.0156 L406.5,399.0156 A0,0 0 0 0 406.5,399.0156 " fill="#FBFB77" filter="url(#f1bdn9njalhxhb)" style="stroke: #A80036; stroke-width: 1.0;"/><path d="M607.5,399.0156 L607.5,409.0156 L617.5,409.0156 L607.5,399.0156 " fill="#FBFB77" style="stroke: #A80036; stroke-width: 1.0;"/><text fill="#000000" font-family="sans-serif" font-size="13" lengthAdjust="spacingAndGlyphs" textLength="190" x="412.5" y="416.0825">"Actualise la liste des erreurs"</text><path d="M406.5,434.1484 L406.5,480.5469 L127,723.1133 L406.5,488.5469 L406.5,534.9453 A0,0 0 0 0 406.5,534.9453 L700.5,534.9453 A0,0 0 0 0 700.5,534.9453 L700.5,444.1484 L690.5,434.1484 L406.5,434.1484 A0,0 0 0 0 406.5,434.1484 " fill="#FBFB77" filter="url(#f1bdn9njalhxhb)" style="stroke: #A80036; stroke-width: 1.0;"/><path d="M690.5,434.1484 L690.5,444.1484 L700.5,444.1484 L690.5,434.1484 " fill="#FBFB77" style="stroke: #A80036; stroke-width: 1.0;"/><text fill="#000000" font-family="sans-serif" font-size="13" lengthAdjust="spacingAndGlyphs" textLength="69" x="412.5" y="451.2153">- Noire : "|"</text><text fill="#000000" font-family="sans-serif" font-size="13" lengthAdjust="spacingAndGlyphs" textLength="138" x="412.5" y="466.3481">- Blanche : "&lt;value&gt;"</text><text fill="#000000" font-family="sans-serif" font-size="13" lengthAdjust="spacingAndGlyphs" textLength="204" x="412.5" y="481.481">- Resultat : "&lt;line&gt;,&lt;column&gt;|"</text><text fill="#000000" font-family="sans-serif" font-size="13" lengthAdjust="spacingAndGlyphs" textLength="134" x="412.5" y="496.6138">- nouvelle ligne : "\\n"</text><text fill="#000000" font-family="sans-serif" font-size="13" lengthAdjust="spacingAndGlyphs" textLength="273" x="412.5" y="511.7466">Exemple : "|B|B|W(5)|\\n|R(7,n)|W(n)|R(4,1)"</text><text fill="#000000" font-family="sans-serif" font-size="13" lengthAdjust="spacingAndGlyphs" textLength="186" x="412.5" y="526.8794">Devient : "||5|\\n7,n|3|4,1|\\n"'</text><!--MD5=[7cdbe534455278feb1ee5928bb85b154]
link Game to Game$$$RIGHT--><text fill="#888888" font-family="sans-serif" font-size="10" lengthAdjust="spacingAndGlyphs" textLength="299" x="508" y="753.2354">Chaque classe est responsable des règles de son mode de jeu</text><!--MD5=[2f074296d9792177861c7821a4b39e62]
@startuml Game

title "Diagramme des classes responsable des règles du jeu"

package "legend" #lightblue {
  class "General" AS G < ? general > << (S,#FFFFFF) Singleton >> {
    .. Constantes ..
    {field} {static} VAR_CLASSE_PRIVEE : type
    {field} {static} CONST_PUBLIC : <color green>final</color> type
    .. Attributs ..
    {field} - attributPrivee : type
    {field} # attributProtege : type
    {field} ~ attributPackage : type
    {field} + attributPublic : type
    ==
    .. Méthodes ..
    {method} - methodePrive(typeParams) : typeRetour # retourDefault
    {method} # methodeProtege(typeParams) : typeRetour # retourDefault
    {method} ~ methodePackage(typeParams) : typeRetour # retourDefault
    {method} + methodePublic(typeParams) : typeRetour # retourDefault
    .. Méthodes Speciale ..
    {method} @methodeOverride(typeParams) : typeRetour # retourDefault
    {method} {abstract} methodeAbstract(typeParams) : typeRetour # retourDefault
    {method} {static} methodeStatic(typeParams) : typeRetour # retourDefault
    {method} {static} <color green>final</color> methodeFinal(typeParams) : typeRetour # retourDefault
  }


    class "Singleton" AS S << (S,#FF7700) singleton >>
}

class "Game" AS Game << (S,#FF7700) Jeu chargé >> {
	.. Constantes ..
	{field} {static} - game : Game
	{field} - cstMaxValue : <color green>final</color> int
	{field} - cstMinValue : <color green>final</color> int
	.. Variables ..
	{field} - Deque<Move> lstMoves
	{field} - Deque<Move> lstMovesCancel
	{field} - List<EntryError> lstEntryErrors
	{field} - int correctState
	{field} - Grid grid
	{field} - IntBinaryOperation function
	==
	.. Constructeurs ..
	{method} {static} - new Game() : Game
	{method} {static} + createGame(/*lstParam*/) : boolean
	{method} {static} + chargeGame(/*lstParam*/) : boolean
	.. Accesseurs sur les Constantes ..
	{method} {static} + getMaxValue(void) : int
	{method} {static} + getMinValue(void) : int
	{method} {static} + getNullValue(void) : int
	{method} {static} + getLastCoord(void) : Coord
	{method} {static} + getInstance() : Game
	.. Accesseurs ..
	{method} + getEntryErrors(Predicate<EntryError>) : List<EntryError>
	{method} + getCell(Coord) : String
	{method} + affCell(Coord) : String
	{method} + getNotes(Coord) : Set<Integer>
	.. Affichage ..
	{method} + update(Consumer<Coord>) : void
	{method} + updateCell(Coord) : void
	{method} + updateErr(Coord) : void
	.. Modifications ..
	{method} + set(Coord,int) : void
	{method} + set(Coord,Set<Integer>) : void
	{method} + undo(void) : Coord
	{method} + redo(void) : Coord
	{method} + backToLastCorrect(void) : Coord[]
	{method} - swapDeque(Deque<Move>,Deque<Move>,boolean) : Coord
	.. Vérifications ..
	{method} + check(void) : void
	{method} + check(Coord) : void
	{method} + check(Grid.GridIterator,boolean) : boolean
	{method} - checkCorrectState(void) : void
	{method} - addError(EntryErro) : void
	.. Autres ..
	{method} + save() : void
	{method} + quit() : void
	{method} + help() : void
	{method} + serialize() : String
}
note right of Game::createGame
  "Crée une instance de la classe Game
  et supprime l'ancienne instance, si il
  y en avait une."
end note
note right of Game::update
  "Appel les méthodes d'affichage du contrôleur."
end note
note right of Game::set
  "Les méthodes modifiant le jeu,
  ordonne au contrôleur d'afficher
  leur nouvel état, après avoir actualiser
  la liste des erreurs."
end note
note right of Game::check
  "Actualise la liste des erreurs"
end note
note right of Game::serialize()
  - Noire : "|"
  - Blanche : "<value>"
  - Resultat : "<line>,<column>|"
  - nouvelle ligne : "\\n"
  Exemple : "|B|B|W(5)|\\n|R(7,n)|W(n)|R(4,1)"
  Devient : "||5|\\n7,n|3|4,1|\\n"'
end note

center footer Chaque classe est responsable des règles de son mode de jeu

@enduml

PlantUML version 1.2020.02(Sun Mar 01 11:22:07 CET 2020)
(GPL source distribution)
Java Runtime: OpenJDK Runtime Environment
JVM: OpenJDK 64-Bit Server VM
Java Version: 17.0.10+7-Ubuntu-122.04.1
Operating System: Linux
Default Encoding: UTF-8
Language: en
Country: GB
--></g></svg>