<?xml version="1.0" encoding="UTF-8" standalone="no"?><svg xmlns="http://www.w3.org/2000/svg" xmlns:xlink="http://www.w3.org/1999/xlink" contentScriptType="application/ecmascript" contentStyleType="text/css" height="591px" preserveAspectRatio="none" style="width:1502px;height:591px;" version="1.1" viewBox="0 0 1502 591" width="1502px" zoomAndPan="magnify"><defs><filter height="300%" id="f15kxa1igqvpam" width="300%" x="-1" y="-1"><feGaussianBlur result="blurOut" stdDeviation="2.0"/><feColorMatrix in="blurOut" result="blurOut2" type="matrix" values="0 0 0 0 0 0 0 0 0 0 0 0 0 0 0 0 0 0 .4 0"/><feOffset dx="4.0" dy="4.0" in="blurOut2" result="blurOut3"/><feBlend in="SourceGraphic" in2="blurOut3" mode="normal"/></filter></defs><g><text fill="#000000" font-family="sans-serif" font-size="18" lengthAdjust="spacingAndGlyphs" textLength="319" x="598" y="16.708">"Diagramme des classes de cellules"</text><!--MD5=[86674ab5735079aa6b5321d691891463]
cluster legend--><polygon fill="#ADD8E6" filter="url(#f15kxa1igqvpam)" points="977.5,44.9531,1037.5,44.9531,1044.5,67.25,1480.5,67.25,1480.5,542.9531,977.5,542.9531,977.5,44.9531" style="stroke: #000000; stroke-width: 1.5;"/><line style="stroke: #000000; stroke-width: 1.5;" x1="977.5" x2="1044.5" y1="67.25" y2="67.25"/><text fill="#000000" font-family="sans-serif" font-size="14" font-weight="bold" lengthAdjust="spacingAndGlyphs" textLength="54" x="981.5" y="59.9482">legend</text><!--MD5=[4cac391c179f8787f20d7dddb517ad5a]
class G--><rect fill="#FEFECE" filter="url(#f15kxa1igqvpam)" height="258.0078" id="G" style="stroke: #A80036; stroke-width: 1.5;" width="364" x="1100.5" y="268.9531"/><ellipse cx="1208.75" cy="287.9219" fill="#FFFFFF" rx="11" ry="11" style="stroke: #A80036; stroke-width: 1.0;"/><path d="M1208.2344,288.4844 Q1206.375,287.7813 1205.7188,287.0156 Q1205.0781,286.2344 1205.0781,284.9219 Q1205.0781,283.2344 1206.1563,282.2656 Q1207.2344,281.2969 1209.1094,281.2969 Q1209.9688,281.2969 1210.8125,281.5 Q1211.6719,281.6875 1212.5156,282.0781 L1212.5156,284.4688 Q1211.7344,283.9063 1210.9063,283.625 Q1210.0938,283.3281 1209.2969,283.3281 Q1208.4219,283.3281 1207.9375,283.6875 Q1207.4688,284.0469 1207.4688,284.7031 Q1207.4688,285.2188 1207.8125,285.5625 Q1208.1563,285.8906 1209.25,286.2969 L1210.3125,286.7031 Q1211.7969,287.25 1212.5,288.1563 Q1213.2188,289.0625 1213.2188,290.4375 Q1213.2188,292.3125 1212.1094,293.2344 Q1211,294.1563 1208.75,294.1563 Q1207.8281,294.1563 1206.9063,293.9375 Q1205.9844,293.7188 1205.125,293.2969 L1205.125,290.7656 Q1206.0938,291.4531 1207.0156,291.7969 Q1207.9375,292.1406 1208.8281,292.1406 Q1209.7344,292.1406 1210.2344,291.7344 Q1210.7344,291.3125 1210.7344,290.5781 Q1210.7344,290.0156 1210.3906,289.6094 Q1210.0625,289.1875 1209.4375,288.9375 L1208.2344,288.4844 Z "/><text fill="#000000" font-family="sans-serif" font-size="12" font-style="italic" lengthAdjust="spacingAndGlyphs" textLength="73" x="1227.25" y="285.0918">«Singleton»</text><text fill="#000000" font-family="sans-serif" font-size="12" lengthAdjust="spacingAndGlyphs" textLength="49" x="1239.25" y="299.0605">General</text><rect fill="#FFFFFF" height="15.9688" style="stroke: #000000; stroke-width: 1.0; stroke-dasharray: 2.0,2.0;" width="68" x="1399.5" y="265.9531"/><text fill="#000000" font-family="sans-serif" font-size="12" font-style="italic" lengthAdjust="spacingAndGlyphs" textLength="58" x="1404.5" y="278.0918">? general</text><line style="stroke: #A80036; stroke-width: 1.5;" x1="1101.5" x2="1463.5" y1="306.8906" y2="306.8906"/><rect fill="none" height="6" style="stroke: #C82930; stroke-width: 1.0;" width="6" x="1108.5" y="331.6953"/><text fill="#000000" font-family="sans-serif" font-size="11" lengthAdjust="spacingAndGlyphs" textLength="112" x="1120.5" y="337.9058">attributPrivee : type</text><polygon fill="none" points="1111.5,342.5,1115.5,346.5,1111.5,350.5,1107.5,346.5" style="stroke: #B38D22; stroke-width: 1.0;"/><text fill="#000000" font-family="sans-serif" font-size="11" lengthAdjust="spacingAndGlyphs" textLength="121" x="1120.5" y="350.7104">attributProtege : type</text><polygon fill="none" points="1111.5,356.3047,1107.5,362.3047,1115.5,362.3047" style="stroke: #1963A0; stroke-width: 1.0;"/><text fill="#000000" font-family="sans-serif" font-size="11" lengthAdjust="spacingAndGlyphs" textLength="124" x="1120.5" y="363.5151">attributPackage : type</text><ellipse cx="1111.5" cy="373.1094" fill="none" rx="3" ry="3" style="stroke: #038048; stroke-width: 1.0;"/><text fill="#000000" font-family="sans-serif" font-size="11" lengthAdjust="spacingAndGlyphs" textLength="110" x="1120.5" y="376.3198">attributPublic : type</text><line style="stroke: #A80036; stroke-width: 1.0; stroke-dasharray: 1.0,2.0;" x1="1101.5" x2="1258.5" y1="321.293" y2="321.293"/><text fill="#000000" font-family="sans-serif" font-size="11" lengthAdjust="spacingAndGlyphs" textLength="48" x="1258.5" y="324.6011">Attributs</text><line style="stroke: #A80036; stroke-width: 1.0; stroke-dasharray: 1.0,2.0;" x1="1306.5" x2="1463.5" y1="321.293" y2="321.293"/><line style="stroke: #A80036; stroke-width: 1.0;" x1="1101.5" x2="1463.5" y1="382.9141" y2="382.9141"/><line style="stroke: #A80036; stroke-width: 1.0;" x1="1101.5" x2="1463.5" y1="384.9141" y2="384.9141"/><rect fill="#F24D5C" height="6" style="stroke: #C82930; stroke-width: 1.0;" width="6" x="1108.5" y="407.7188"/><text fill="#000000" font-family="sans-serif" font-size="11" lengthAdjust="spacingAndGlyphs" textLength="319" x="1120.5" y="413.9292">methodePrive(typeParams) : typeRetour # retourDefault</text><polygon fill="#FFFF44" points="1111.5,418.5234,1115.5,422.5234,1111.5,426.5234,1107.5,422.5234" style="stroke: #B38D22; stroke-width: 1.0;"/><text fill="#000000" font-family="sans-serif" font-size="11" lengthAdjust="spacingAndGlyphs" textLength="335" x="1120.5" y="426.7339">methodeProtege(typeParams) : typeRetour # retourDefault</text><polygon fill="#4177AF" points="1111.5,432.3281,1107.5,438.3281,1115.5,438.3281" style="stroke: #1963A0; stroke-width: 1.0;"/><text fill="#000000" font-family="sans-serif" font-size="11" lengthAdjust="spacingAndGlyphs" textLength="338" x="1120.5" y="439.5386">methodePackage(typeParams) : typeRetour # retourDefault</text><ellipse cx="1111.5" cy="449.1328" fill="#84BE84" rx="3" ry="3" style="stroke: #038048; stroke-width: 1.0;"/><text fill="#000000" font-family="sans-serif" font-size="11" lengthAdjust="spacingAndGlyphs" textLength="324" x="1120.5" y="452.3433">methodePublic(typeParams) : typeRetour # retourDefault</text><line style="stroke: #A80036; stroke-width: 1.0; stroke-dasharray: 1.0,2.0;" x1="1101.5" x2="1255" y1="397.3164" y2="397.3164"/><text fill="#000000" font-family="sans-serif" font-size="11" lengthAdjust="spacingAndGlyphs" textLength="55" x="1255" y="400.6245">Méthodes</text><line style="stroke: #A80036; stroke-width: 1.0; stroke-dasharray: 1.0,2.0;" x1="1310" x2="1463.5" y1="397.3164" y2="397.3164"/><text fill="#000000" font-family="sans-serif" font-size="11" lengthAdjust="spacingAndGlyphs" textLength="352" x="1106.5" y="481.9526">@methodeOverride(typeParams) : typeRetour # retourDefault</text><text fill="#000000" font-family="sans-serif" font-size="11" font-style="italic" lengthAdjust="spacingAndGlyphs" textLength="340" x="1106.5" y="494.7573">methodeAbstract(typeParams) : typeRetour # retourDefault</text><text fill="#000000" font-family="sans-serif" font-size="11" lengthAdjust="spacingAndGlyphs" text-decoration="underline" textLength="323" x="1106.5" y="507.562">methodeStatic(typeParams) : typeRetour # retourDefault</text><text fill="#008000" font-family="sans-serif" font-size="11" lengthAdjust="spacingAndGlyphs" text-decoration="underline" textLength="24" x="1106.5" y="520.3667">final</text><text fill="#000000" font-family="sans-serif" font-size="11" lengthAdjust="spacingAndGlyphs" text-decoration="underline" textLength="317" x="1134.5" y="520.3667">methodeFinal(typeParams) : typeRetour # retourDefault</text><line style="stroke: #A80036; stroke-width: 1.0; stroke-dasharray: 1.0,2.0;" x1="1101.5" x2="1229" y1="465.3398" y2="465.3398"/><text fill="#000000" font-family="sans-serif" font-size="11" lengthAdjust="spacingAndGlyphs" textLength="107" x="1229" y="468.6479">Méthodes Speciale</text><line style="stroke: #A80036; stroke-width: 1.0; stroke-dasharray: 1.0,2.0;" x1="1336" x2="1463.5" y1="465.3398" y2="465.3398"/><!--MD5=[cf39a86b148c3d2a53e894bf08c046dd]
class I--><rect fill="#FEFECE" filter="url(#f15kxa1igqvpam)" height="48" id="I" style="stroke: #A80036; stroke-width: 1.5;" width="89" x="1057" y="79.9531"/><ellipse cx="1072" cy="95.9531" fill="#B4A7E5" rx="11" ry="11" style="stroke: #A80036; stroke-width: 1.0;"/><path d="M1067.9219,91.7188 L1067.9219,89.5625 L1075.3125,89.5625 L1075.3125,91.7188 L1072.8438,91.7188 L1072.8438,99.7969 L1075.3125,99.7969 L1075.3125,101.9531 L1067.9219,101.9531 L1067.9219,99.7969 L1070.3906,99.7969 L1070.3906,91.7188 L1067.9219,91.7188 Z "/><text fill="#000000" font-family="sans-serif" font-size="12" font-style="italic" lengthAdjust="spacingAndGlyphs" textLength="57" x="1086" y="100.1074">Interface</text><line style="stroke: #A80036; stroke-width: 1.5;" x1="1058" x2="1145" y1="111.9531" y2="111.9531"/><line style="stroke: #A80036; stroke-width: 1.5;" x1="1058" x2="1145" y1="119.9531" y2="119.9531"/><!--MD5=[378b18254a1b2429f435e93f5e5cc50c]
class C--><rect fill="#FEFECE" filter="url(#f15kxa1igqvpam)" height="48" id="C" style="stroke: #A80036; stroke-width: 1.5;" width="72" x="993.5" y="373.9531"/><ellipse cx="1008.5" cy="389.9531" fill="#ADD1B2" rx="11" ry="11" style="stroke: #A80036; stroke-width: 1.0;"/><path d="M1011.4688,395.5938 Q1010.8906,395.8906 1010.25,396.0313 Q1009.6094,396.1875 1008.9063,396.1875 Q1006.4063,396.1875 1005.0781,394.5469 Q1003.7656,392.8906 1003.7656,389.7656 Q1003.7656,386.6406 1005.0781,384.9844 Q1006.4063,383.3281 1008.9063,383.3281 Q1009.6094,383.3281 1010.25,383.4844 Q1010.9063,383.6406 1011.4688,383.9375 L1011.4688,386.6563 Q1010.8438,386.0781 1010.25,385.8125 Q1009.6563,385.5313 1009.0313,385.5313 Q1007.6875,385.5313 1007,386.6094 Q1006.3125,387.6719 1006.3125,389.7656 Q1006.3125,391.8594 1007,392.9375 Q1007.6875,394 1009.0313,394 Q1009.6563,394 1010.25,393.7344 Q1010.8438,393.4531 1011.4688,392.875 L1011.4688,395.5938 Z "/><text fill="#000000" font-family="sans-serif" font-size="12" lengthAdjust="spacingAndGlyphs" textLength="40" x="1022.5" y="394.1074">classe</text><line style="stroke: #A80036; stroke-width: 1.5;" x1="994.5" x2="1064.5" y1="405.9531" y2="405.9531"/><line style="stroke: #A80036; stroke-width: 1.5;" x1="994.5" x2="1064.5" y1="413.9531" y2="413.9531"/><!--MD5=[a93424cbe6858bdf35e78a6bfcc497ec]
class IC--><rect fill="#FEFECE" filter="url(#f15kxa1igqvpam)" height="73.6094" id="IC" style="stroke: #A80036; stroke-width: 1.5;" width="126" x="434.5" y="66.9531"/><ellipse cx="482.25" cy="82.9531" fill="#B4A7E5" rx="11" ry="11" style="stroke: #A80036; stroke-width: 1.0;"/><path d="M478.1719,78.7188 L478.1719,76.5625 L485.5625,76.5625 L485.5625,78.7188 L483.0938,78.7188 L483.0938,86.7969 L485.5625,86.7969 L485.5625,88.9531 L478.1719,88.9531 L478.1719,86.7969 L480.6406,86.7969 L480.6406,78.7188 L478.1719,78.7188 Z "/><text fill="#000000" font-family="sans-serif" font-size="12" font-style="italic" lengthAdjust="spacingAndGlyphs" textLength="22" x="502.75" y="87.1074">Cell</text><line style="stroke: #A80036; stroke-width: 1.5;" x1="435.5" x2="559.5" y1="98.9531" y2="98.9531"/><line style="stroke: #A80036; stroke-width: 1.5;" x1="435.5" x2="559.5" y1="106.9531" y2="106.9531"/><ellipse cx="445.5" cy="117.9531" fill="#84BE84" rx="3" ry="3" style="stroke: #038048; stroke-width: 1.0;"/><text fill="#000000" font-family="sans-serif" font-size="11" font-style="italic" lengthAdjust="spacingAndGlyphs" textLength="100" x="454.5" y="121.1636">serialize() : String</text><ellipse cx="445.5" cy="130.7578" fill="#84BE84" rx="3" ry="3" style="stroke: #038048; stroke-width: 1.0;"/><text fill="#000000" font-family="sans-serif" font-size="11" font-style="italic" lengthAdjust="spacingAndGlyphs" textLength="97" x="454.5" y="133.9683">toString() : String</text><!--MD5=[c5d42a54fdad93ad451159023d9aea69]
class WC--><rect fill="#FEFECE" filter="url(#f15kxa1igqvpam)" height="311.2891" id="WC" style="stroke: #A80036; stroke-width: 1.5;" width="273" x="14" y="243.9531"/><ellipse cx="117.75" cy="259.9531" fill="#ADD1B2" rx="11" ry="11" style="stroke: #A80036; stroke-width: 1.0;"/><path d="M120.7188,265.5938 Q120.1406,265.8906 119.5,266.0313 Q118.8594,266.1875 118.1563,266.1875 Q115.6563,266.1875 114.3281,264.5469 Q113.0156,262.8906 113.0156,259.7656 Q113.0156,256.6406 114.3281,254.9844 Q115.6563,253.3281 118.1563,253.3281 Q118.8594,253.3281 119.5,253.4844 Q120.1563,253.6406 120.7188,253.9375 L120.7188,256.6563 Q120.0938,256.0781 119.5,255.8125 Q118.9063,255.5313 118.2813,255.5313 Q116.9375,255.5313 116.25,256.6094 Q115.5625,257.6719 115.5625,259.7656 Q115.5625,261.8594 116.25,262.9375 Q116.9375,264 118.2813,264 Q118.9063,264 119.5,263.7344 Q120.0938,263.4531 120.7188,262.875 L120.7188,265.5938 Z "/><text fill="#000000" font-family="sans-serif" font-size="12" lengthAdjust="spacingAndGlyphs" textLength="57" x="138.25" y="264.1074">WhiteCell</text><line style="stroke: #A80036; stroke-width: 1.5;" x1="15" x2="286" y1="275.9531" y2="275.9531"/><rect fill="none" height="6" style="stroke: #C82930; stroke-width: 1.0;" width="6" x="22" y="283.9531"/><text fill="#000000" font-family="sans-serif" font-size="11" lengthAdjust="spacingAndGlyphs" textLength="97" x="34" y="290.1636">correctValue : int</text><rect fill="none" height="6" style="stroke: #C82930; stroke-width: 1.0;" width="6" x="22" y="296.7578"/><text fill="#000000" font-family="sans-serif" font-size="11" lengthAdjust="spacingAndGlyphs" textLength="185" x="34" y="302.9683">value : int # Kakuro.NULL_VALUE</text><rect fill="none" height="6" style="stroke: #C82930; stroke-width: 1.0;" width="6" x="22" y="309.5625"/><text fill="#000000" font-family="sans-serif" font-size="11" lengthAdjust="spacingAndGlyphs" textLength="121" x="34" y="315.7729">notes : Set&lt;Integer&gt;</text><line style="stroke: #A80036; stroke-width: 1.0;" x1="15" x2="286" y1="322.3672" y2="322.3672"/><line style="stroke: #A80036; stroke-width: 1.0;" x1="15" x2="286" y1="324.3672" y2="324.3672"/><ellipse cx="25" cy="350.1719" fill="#84BE84" rx="3" ry="3" style="stroke: #038048; stroke-width: 1.0;"/><text fill="#000000" font-family="sans-serif" font-size="11" lengthAdjust="spacingAndGlyphs" text-decoration="underline" textLength="136" x="34" y="353.3823">WhiteCell(int) : WhiteCell</text><line style="stroke: #A80036; stroke-width: 1.0; stroke-dasharray: 1.0,2.0;" x1="15" x2="113.5" y1="336.7695" y2="336.7695"/><text fill="#000000" font-family="sans-serif" font-size="11" lengthAdjust="spacingAndGlyphs" textLength="74" x="113.5" y="340.0776">Constructeur</text><line style="stroke: #A80036; stroke-width: 1.0; stroke-dasharray: 1.0,2.0;" x1="187.5" x2="286" y1="336.7695" y2="336.7695"/><ellipse cx="25" cy="379.7813" fill="#84BE84" rx="3" ry="3" style="stroke: #038048; stroke-width: 1.0;"/><text fill="#000000" font-family="sans-serif" font-size="11" lengthAdjust="spacingAndGlyphs" textLength="148" x="34" y="382.9917">getCorrectValue(void) : int</text><ellipse cx="25" cy="392.5859" fill="#84BE84" rx="3" ry="3" style="stroke: #038048; stroke-width: 1.0;"/><text fill="#000000" font-family="sans-serif" font-size="11" lengthAdjust="spacingAndGlyphs" textLength="106" x="34" y="395.7964">getValue(void) : int</text><ellipse cx="25" cy="405.3906" fill="#84BE84" rx="3" ry="3" style="stroke: #038048; stroke-width: 1.0;"/><text fill="#000000" font-family="sans-serif" font-size="11" lengthAdjust="spacingAndGlyphs" textLength="149" x="34" y="408.6011">setValue(int) : Move # null</text><ellipse cx="25" cy="418.1953" fill="#84BE84" rx="3" ry="3" style="stroke: #038048; stroke-width: 1.0;"/><text fill="#000000" font-family="sans-serif" font-size="11" lengthAdjust="spacingAndGlyphs" textLength="171" x="34" y="421.4058">getNotes(void) : Set&lt;Integer&gt;</text><ellipse cx="25" cy="431" fill="#84BE84" rx="3" ry="3" style="stroke: #038048; stroke-width: 1.0;"/><text fill="#000000" font-family="sans-serif" font-size="11" lengthAdjust="spacingAndGlyphs" textLength="214" x="34" y="434.2104">setNotes(Set&lt;Integer&gt;) : Move # null</text><line style="stroke: #A80036; stroke-width: 1.0; stroke-dasharray: 1.0,2.0;" x1="15" x2="117.5" y1="366.3789" y2="366.3789"/><text fill="#000000" font-family="sans-serif" font-size="11" lengthAdjust="spacingAndGlyphs" textLength="66" x="117.5" y="369.687">Accesseurs</text><line style="stroke: #A80036; stroke-width: 1.0; stroke-dasharray: 1.0,2.0;" x1="183.5" x2="286" y1="366.3789" y2="366.3789"/><ellipse cx="25" cy="460.6094" fill="#84BE84" rx="3" ry="3" style="stroke: #038048; stroke-width: 1.0;"/><text fill="#000000" font-family="sans-serif" font-size="11" lengthAdjust="spacingAndGlyphs" textLength="247" x="34" y="463.8198">traiteMove(Move,boolean) : boolean # false</text><line style="stroke: #A80036; stroke-width: 1.0; stroke-dasharray: 1.0,2.0;" x1="15" x2="128" y1="447.207" y2="447.207"/><text fill="#000000" font-family="sans-serif" font-size="11" lengthAdjust="spacingAndGlyphs" textLength="45" x="128" y="450.5151">Modifier</text><line style="stroke: #A80036; stroke-width: 1.0; stroke-dasharray: 1.0,2.0;" x1="173" x2="286" y1="447.207" y2="447.207"/><ellipse cx="25" cy="490.2188" fill="#84BE84" rx="3" ry="3" style="stroke: #038048; stroke-width: 1.0;"/><text fill="#000000" font-family="sans-serif" font-size="11" lengthAdjust="spacingAndGlyphs" textLength="140" x="34" y="493.4292">isCorrect(void) : boolean</text><ellipse cx="25" cy="503.0234" fill="#84BE84" rx="3" ry="3" style="stroke: #038048; stroke-width: 1.0;"/><text fill="#000000" font-family="sans-serif" font-size="11" lengthAdjust="spacingAndGlyphs" textLength="140" x="34" y="506.2339">badValue(void) : boolean</text><line style="stroke: #A80036; stroke-width: 1.0; stroke-dasharray: 1.0,2.0;" x1="15" x2="127.5" y1="476.8164" y2="476.8164"/><text fill="#000000" font-family="sans-serif" font-size="11" lengthAdjust="spacingAndGlyphs" textLength="46" x="127.5" y="480.1245">Checker</text><line style="stroke: #A80036; stroke-width: 1.0; stroke-dasharray: 1.0,2.0;" x1="173.5" x2="286" y1="476.8164" y2="476.8164"/><ellipse cx="25" cy="532.6328" fill="#84BE84" rx="3" ry="3" style="stroke: #038048; stroke-width: 1.0;"/><text fill="#000000" font-family="sans-serif" font-size="11" lengthAdjust="spacingAndGlyphs" textLength="134" x="34" y="535.8433">@toString(void) : String</text><ellipse cx="25" cy="545.4375" fill="#84BE84" rx="3" ry="3" style="stroke: #038048; stroke-width: 1.0;"/><text fill="#000000" font-family="sans-serif" font-size="11" lengthAdjust="spacingAndGlyphs" textLength="136" x="34" y="548.6479">@serialize(void) : String</text><line style="stroke: #A80036; stroke-width: 1.0; stroke-dasharray: 1.0,2.0;" x1="15" x2="129" y1="519.2305" y2="519.2305"/><text fill="#000000" font-family="sans-serif" font-size="11" lengthAdjust="spacingAndGlyphs" textLength="43" x="129" y="522.5386">Afficher</text><line style="stroke: #A80036; stroke-width: 1.0; stroke-dasharray: 1.0,2.0;" x1="172" x2="286" y1="519.2305" y2="519.2305"/><path d="M330.5,370.4531 L330.5,425.8516 L536.5,425.8516 L536.5,380.4531 L526.5,370.4531 L330.5,370.4531 " fill="#FBFB77" filter="url(#f15kxa1igqvpam)" style="stroke: #A80036; stroke-width: 1.0;"/><path d="M526.5,370.4531 L526.5,380.4531 L536.5,380.4531 L526.5,370.4531 " fill="#FBFB77" style="stroke: #A80036; stroke-width: 1.0;"/><text fill="#000000" font-family="sans-serif" font-size="13" lengthAdjust="spacingAndGlyphs" textLength="184" x="336.5" y="387.52">"Si il y a eu une modification,</text><text fill="#000000" font-family="sans-serif" font-size="13" lengthAdjust="spacingAndGlyphs" textLength="185" x="336.5" y="402.6528">crée un nouvelle objet 'Move'</text><text fill="#000000" font-family="sans-serif" font-size="13" lengthAdjust="spacingAndGlyphs" textLength="132" x="336.5" y="417.7856">afin de l'enregistrer."</text><!--MD5=[63bfe9915e95778fa37cde03beb0b815]
class BC--><rect fill="#FEFECE" filter="url(#f15kxa1igqvpam)" height="86.4141" id="BC" style="stroke: #A80036; stroke-width: 1.5;" width="162" x="571.5" y="354.9531"/><ellipse cx="620.75" cy="370.9531" fill="#ADD1B2" rx="11" ry="11" style="stroke: #A80036; stroke-width: 1.0;"/><path d="M623.7188,376.5938 Q623.1406,376.8906 622.5,377.0313 Q621.8594,377.1875 621.1563,377.1875 Q618.6563,377.1875 617.3281,375.5469 Q616.0156,373.8906 616.0156,370.7656 Q616.0156,367.6406 617.3281,365.9844 Q618.6563,364.3281 621.1563,364.3281 Q621.8594,364.3281 622.5,364.4844 Q623.1563,364.6406 623.7188,364.9375 L623.7188,367.6563 Q623.0938,367.0781 622.5,366.8125 Q621.9063,366.5313 621.2813,366.5313 Q619.9375,366.5313 619.25,367.6094 Q618.5625,368.6719 618.5625,370.7656 Q618.5625,372.8594 619.25,373.9375 Q619.9375,375 621.2813,375 Q621.9063,375 622.5,374.7344 Q623.0938,374.4531 623.7188,373.875 L623.7188,376.5938 Z "/><text fill="#000000" font-family="sans-serif" font-size="12" lengthAdjust="spacingAndGlyphs" textLength="55" x="641.25" y="375.1074">BlackCell</text><line style="stroke: #A80036; stroke-width: 1.5;" x1="572.5" x2="732.5" y1="386.9531" y2="386.9531"/><line style="stroke: #A80036; stroke-width: 1.5;" x1="572.5" x2="732.5" y1="394.9531" y2="394.9531"/><ellipse cx="582.5" cy="405.9531" fill="#84BE84" rx="3" ry="3" style="stroke: #038048; stroke-width: 1.0;"/><text fill="#000000" font-family="sans-serif" font-size="11" lengthAdjust="spacingAndGlyphs" text-decoration="underline" textLength="122" x="591.5" y="409.1636">BlackCell() : BlackCell</text><ellipse cx="582.5" cy="418.7578" fill="#84BE84" rx="3" ry="3" style="stroke: #038048; stroke-width: 1.0;"/><text fill="#000000" font-family="sans-serif" font-size="11" lengthAdjust="spacingAndGlyphs" textLength="136" x="591.5" y="421.9683">@serialize(void) : String</text><ellipse cx="582.5" cy="431.5625" fill="#84BE84" rx="3" ry="3" style="stroke: #038048; stroke-width: 1.0;"/><text fill="#000000" font-family="sans-serif" font-size="11" lengthAdjust="spacingAndGlyphs" textLength="134" x="591.5" y="434.7729">@toString(void) : String</text><!--MD5=[cd70c01538d5344d48b90b77869f8dc4]
class RC--><rect fill="#FEFECE" filter="url(#f15kxa1igqvpam)" height="188.0469" id="RC" style="stroke: #A80036; stroke-width: 1.5;" width="190" x="768.5" y="303.9531"/><ellipse cx="828.75" cy="319.9531" fill="#ADD1B2" rx="11" ry="11" style="stroke: #A80036; stroke-width: 1.0;"/><path d="M831.7188,325.5938 Q831.1406,325.8906 830.5,326.0313 Q829.8594,326.1875 829.1563,326.1875 Q826.6563,326.1875 825.3281,324.5469 Q824.0156,322.8906 824.0156,319.7656 Q824.0156,316.6406 825.3281,314.9844 Q826.6563,313.3281 829.1563,313.3281 Q829.8594,313.3281 830.5,313.4844 Q831.1563,313.6406 831.7188,313.9375 L831.7188,316.6563 Q831.0938,316.0781 830.5,315.8125 Q829.9063,315.5313 829.2813,315.5313 Q827.9375,315.5313 827.25,316.6094 Q826.5625,317.6719 826.5625,319.7656 Q826.5625,321.8594 827.25,322.9375 Q827.9375,324 829.2813,324 Q829.9063,324 830.5,323.7344 Q831.0938,323.4531 831.7188,322.875 L831.7188,325.5938 Z "/><text fill="#000000" font-family="sans-serif" font-size="12" lengthAdjust="spacingAndGlyphs" textLength="61" x="849.25" y="324.1074">ResultCell</text><line style="stroke: #A80036; stroke-width: 1.5;" x1="769.5" x2="957.5" y1="335.9531" y2="335.9531"/><rect fill="none" height="6" style="stroke: #C82930; stroke-width: 1.0;" width="6" x="776.5" y="343.9531"/><text fill="#000000" font-family="sans-serif" font-size="11" lengthAdjust="spacingAndGlyphs" textLength="46" x="788.5" y="350.1636">line : int</text><rect fill="none" height="6" style="stroke: #C82930; stroke-width: 1.0;" width="6" x="776.5" y="356.7578"/><text fill="#000000" font-family="sans-serif" font-size="11" lengthAdjust="spacingAndGlyphs" textLength="67" x="788.5" y="362.9683">column : int</text><line style="stroke: #A80036; stroke-width: 1.0;" x1="769.5" x2="957.5" y1="369.5625" y2="369.5625"/><line style="stroke: #A80036; stroke-width: 1.0;" x1="769.5" x2="957.5" y1="371.5625" y2="371.5625"/><ellipse cx="779.5" cy="397.3672" fill="#84BE84" rx="3" ry="3" style="stroke: #038048; stroke-width: 1.0;"/><text fill="#000000" font-family="sans-serif" font-size="11" lengthAdjust="spacingAndGlyphs" text-decoration="underline" textLength="164" x="788.5" y="400.5776">ResultCell(int,int) : ResultCell</text><line style="stroke: #A80036; stroke-width: 1.0; stroke-dasharray: 1.0,2.0;" x1="769.5" x2="826.5" y1="383.9648" y2="383.9648"/><text fill="#000000" font-family="sans-serif" font-size="11" lengthAdjust="spacingAndGlyphs" textLength="74" x="826.5" y="387.2729">Constructeur</text><line style="stroke: #A80036; stroke-width: 1.0; stroke-dasharray: 1.0,2.0;" x1="900.5" x2="957.5" y1="383.9648" y2="383.9648"/><ellipse cx="779.5" cy="426.9766" fill="#84BE84" rx="3" ry="3" style="stroke: #038048; stroke-width: 1.0;"/><text fill="#000000" font-family="sans-serif" font-size="11" lengthAdjust="spacingAndGlyphs" textLength="98" x="788.5" y="430.187">getLine(void) : int</text><ellipse cx="779.5" cy="439.7813" fill="#84BE84" rx="3" ry="3" style="stroke: #038048; stroke-width: 1.0;"/><text fill="#000000" font-family="sans-serif" font-size="11" lengthAdjust="spacingAndGlyphs" textLength="118" x="788.5" y="442.9917">getColumn(void) : int</text><line style="stroke: #A80036; stroke-width: 1.0; stroke-dasharray: 1.0,2.0;" x1="769.5" x2="834" y1="413.5742" y2="413.5742"/><text fill="#000000" font-family="sans-serif" font-size="11" lengthAdjust="spacingAndGlyphs" textLength="59" x="834" y="416.8823">Accesseur</text><line style="stroke: #A80036; stroke-width: 1.0; stroke-dasharray: 1.0,2.0;" x1="893" x2="957.5" y1="413.5742" y2="413.5742"/><ellipse cx="779.5" cy="469.3906" fill="#84BE84" rx="3" ry="3" style="stroke: #038048; stroke-width: 1.0;"/><text fill="#000000" font-family="sans-serif" font-size="11" lengthAdjust="spacingAndGlyphs" textLength="134" x="788.5" y="472.6011">@toString(void) : String</text><ellipse cx="779.5" cy="482.1953" fill="#84BE84" rx="3" ry="3" style="stroke: #038048; stroke-width: 1.0;"/><text fill="#000000" font-family="sans-serif" font-size="11" lengthAdjust="spacingAndGlyphs" textLength="136" x="788.5" y="485.4058">@serialize(void) : String</text><line style="stroke: #A80036; stroke-width: 1.0; stroke-dasharray: 1.0,2.0;" x1="769.5" x2="837.5" y1="455.9883" y2="455.9883"/><text fill="#000000" font-family="sans-serif" font-size="11" lengthAdjust="spacingAndGlyphs" textLength="52" x="837.5" y="459.2964">Affichage</text><line style="stroke: #A80036; stroke-width: 1.0; stroke-dasharray: 1.0,2.0;" x1="889.5" x2="957.5" y1="455.9883" y2="455.9883"/><!--MD5=[439f155fa1a810255a1eba0f4c8cb404]
link I to G--><!--MD5=[80a3efbc162ec9a29a5e48a2a8b8bfdd]
link C to G--><!--MD5=[9e041c2ba63db187d232968a1fc20e16]
reverse link I to C--><path d="M1090.93,147.8131 C1075.48,210.4831 1047.25,324.9731 1035.2,373.8431 " fill="none" id="I&lt;-C" style="stroke: #A80036; stroke-width: 1.0; stroke-dasharray: 7.0,7.0;"/><polygon fill="none" points="1084.15,146.0931,1095.73,128.3531,1097.74,149.4531,1084.15,146.0931" style="stroke: #A80036; stroke-width: 1.0;"/><path d="M1088.5,175.9531 L1088.5,200.9531 L1205.5,200.9531 L1205.5,185.9531 L1195.5,175.9531 L1088.5,175.9531 " fill="#FBFB77" filter="url(#f15kxa1igqvpam)" style="stroke: #A80036; stroke-width: 1.0;"/><path d="M1195.5,175.9531 L1195.5,185.9531 L1205.5,185.9531 L1195.5,175.9531 " fill="#FBFB77" style="stroke: #A80036; stroke-width: 1.0;"/><text fill="#000000" font-family="sans-serif" font-size="13" lengthAdjust="spacingAndGlyphs" textLength="96" x="1094.5" y="193.02">C implements I</text><!--MD5=[e17713f0db85abcdc9d553941dbc5c97]
reverse link IC to WC--><path d="M427.13,152.8231 C391.84,177.6931 348.95,209.2431 312.5,239.9531 C306.81,244.7431 301.07,249.6931 295.32,254.7431 " fill="none" id="IC&lt;-WC" style="stroke: #A80036; stroke-width: 1.0; stroke-dasharray: 7.0,7.0;"/><polygon fill="none" points="423.38,146.9031,443.79,141.1831,431.4,158.3731,423.38,146.9031" style="stroke: #A80036; stroke-width: 1.0;"/><!--MD5=[c97ee12d2ae16bada49e90e66fbb8a99]
link WC to Nset--><path d="M288.5,403.9531 C298.74,406.6731 309.38,408.8031 320.04,410.3931 " fill="none" id="WC-Nset" style="stroke: #FFFF00; stroke-width: 1.0; stroke-dasharray: 7.0,7.0;"/><line style="stroke: #FFFF00; stroke-width: 1.0;" x1="320.04" x2="330.26" y1="410.3931" y2="411.7531"/><!--MD5=[4bcb03ac8f58ebc77d0c5cac058bfb45]
link Nset to WC--><path d="M330.38,424.5731 C319.79,426.1431 309.04,427.2731 298.52,427.7331 " fill="none" id="Nset-WC" style="stroke: #FFFF00; stroke-width: 1.0; stroke-dasharray: 7.0,7.0;"/><line style="stroke: #FFFF00; stroke-width: 1.0;" x1="298.52" x2="288.5" y1="427.7331" y2="427.9531"/><!--MD5=[c97ee12d2ae16bada49e90e66fbb8a99]
link WC to Nset--><!--MD5=[56c0d0b84d835021c2b29f53176a7791]
link IC to Nset--><!--MD5=[67631b5b0c543d2eb0b54888db4e1da8]
reverse link IC to BC--><path d="M526.16,158.9431 C556.18,215.4931 602.7,303.1331 630.13,354.8031 " fill="none" id="IC&lt;-BC" style="stroke: #A80036; stroke-width: 1.0; stroke-dasharray: 7.0,7.0;"/><polygon fill="none" points="519.86,162.0031,516.66,141.0531,532.22,155.4331,519.86,162.0031" style="stroke: #A80036; stroke-width: 1.0;"/><!--MD5=[f2418eb5ec1028c027874c1860597630]
reverse link IC to RC--><path d="M579.29,137.0731 C631.94,160.3931 699.77,195.5831 750.5,239.9531 C771.48,258.3031 790.74,281.2531 807.18,303.9031 " fill="none" id="IC&lt;-RC" style="stroke: #A80036; stroke-width: 1.0; stroke-dasharray: 7.0,7.0;"/><polygon fill="none" points="576.23,143.3731,560.63,129.0231,581.77,130.5231,576.23,143.3731" style="stroke: #A80036; stroke-width: 1.0;"/><!--MD5=[89463decfb8e21fa4d2ce3fd539e34d7]
link WC to BC--><!--MD5=[9785b835ba778ca654191cbf3fa5cd09]
link BC to RC--><text fill="#888888" font-family="sans-serif" font-size="10" lengthAdjust="spacingAndGlyphs" textLength="246" x="634.5" y="578.2354">"Toutes les classes représentant une cellule du jeu"</text><!--MD5=[fcf14ac9c0301782d6d1e7e14eb8318f]
@startuml cell

title "Diagramme des classes de cellules"

package "legend" #lightblue {
  class "General" AS G < ? general > << (S,#FFFFFF) Singleton >> {
    .. Attributs ..
    {field} - attributPrivee : type
    {field} # attributProtege : type
    {field} ~ attributPackage : type
    {field} + attributPublic : type
    ==
    .. Méthodes ..
    {method} - methodePrive(typeParams) : typeRetour # retourDefault
    {method} # methodeProtege(typeParams) : typeRetour # retourDefault
    {method} ~ methodePackage(typeParams) : typeRetour # retourDefault
    {method} + methodePublic(typeParams) : typeRetour # retourDefault
    .. Méthodes Speciale ..
    {method} @methodeOverride(typeParams) : typeRetour # retourDefault
    {method} {abstract} methodeAbstract(typeParams) : typeRetour # retourDefault
    {method} {static} methodeStatic(typeParams) : typeRetour # retourDefault
    {method} {static} <color green>final</color> methodeFinal(typeParams) : typeRetour # retourDefault
  }

    interface "Interface" AS I
    I -[hidden]r- -> G
    class "classe" AS C
    C -[hidden]r-> G

      class C implements I
      note on link : C implements I
}

interface "Cell" AS IC {
	{method} {abstract} + serialize() : String
	{method} {abstract} + toString() : String
}

class "WhiteCell" AS WC implements IC {
	{field} - correctValue : int
	{field} - value : int # Kakuro.NULL_VALUE
	{field} - notes : Set<Integer>
	==
	.. Constructeur ..
	{method} {static} + WhiteCell(int) : WhiteCell
	.. Accesseurs ..
	{method} + getCorrectValue(void) : int
	{method} + getValue(void) : int
	{method} + setValue(int) : Move # null
	{method} + getNotes(void) : Set<Integer>
	{method} + setNotes(Set<Integer>) : Move # null
	.. Modifier ..
	{method} + traiteMove(Move,boolean) : boolean # false
	.. Checker ..
	{method} + isCorrect(void) : boolean
	{method} + badValue(void) : boolean
	.. Afficher ..
	{method} + @toString(void) : String
	{method} + @serialize(void) : String
}
note AS Nset
	"Si il y a eu une modification,
	crée un nouvelle objet 'Move'
	afin de l'enregistrer."
end note
WC::setValue .. Nset #yellow
Nset .. WC::setNotes #yellow
Nset -[hidden]l- WC
Nset -[hidden]l- IC

class "BlackCell" AS BC implements IC {
	{method} {static} + BlackCell() : BlackCell
	{method} + @serialize(void) : String
	{method} + @toString(void) : String
}

class "ResultCell" AS RC implements IC {
	{field} - line : int
	{field} - column : int
	==
	.. Constructeur ..
	{method} {static} + ResultCell(int,int) : ResultCell
	.. Accesseur ..
	{method} + getLine(void) : int
	{method} + getColumn(void) : int
	.. Affichage ..
	{method} + @toString(void) : String
	{method} + @serialize(void) : String
}

WC -[hidden]r- BC
BC -[hidden]r- RC

center footer "Toutes les classes représentant une cellule du jeu"
@enduml

PlantUML version 1.2020.02(Sun Mar 01 11:22:07 CET 2020)
(GPL source distribution)
Java Runtime: OpenJDK Runtime Environment
JVM: OpenJDK 64-Bit Server VM
Java Version: 17.0.10+7-Ubuntu-122.04.1
Operating System: Linux
Default Encoding: UTF-8
Language: en
Country: GB
--></g></svg>