<?xml version="1.0" encoding="us-ascii" standalone="no"?><svg xmlns="http://www.w3.org/2000/svg" xmlns:xlink="http://www.w3.org/1999/xlink" contentStyleType="text/css" height="484px" preserveAspectRatio="none" style="width:1696px;height:484px;background:#FFFFFF;" version="1.1" viewBox="0 0 1696 484" width="1696px" zoomAndPan="magnify"><defs/><g><text fill="#000000" font-family="sans-serif" font-size="14" font-weight="bold" lengthAdjust="spacing" textLength="274" x="704" y="22.9951">Legend des diagramme de classes</text><!--cluster Legend--><g id="cluster_Legend"><path d="M8.5,43.2969 L68.5,43.2969 A3.75,3.75 0 0 1 71,45.7969 L78,65.5938 L1686.5,65.5938 A2.5,2.5 0 0 1 1689,68.0938 L1689,456.7969 A2.5,2.5 0 0 1 1686.5,459.2969 L8.5,459.2969 A2.5,2.5 0 0 1 6,456.7969 L6,45.7969 A2.5,2.5 0 0 1 8.5,43.2969 " fill="#ADD8E6" style="stroke:#000000;stroke-width:1.5;"/><line style="stroke:#000000;stroke-width:1.5;" x1="6" x2="78" y1="65.5938" y2="65.5938"/><text fill="#000000" font-family="sans-serif" font-size="14" font-weight="bold" lengthAdjust="spacing" textLength="59" x="10" y="58.292">Legend</text></g><!--class I--><g id="elem_I"><rect codeLine="6" fill="#F1F1F1" height="157.7813" id="I" rx="2.5" ry="2.5" style="stroke:#181818;stroke-width:0.5;" width="460" x="22" y="181.7969"/><ellipse cx="217.25" cy="197.7969" fill="#B4A7E5" rx="11" ry="11" style="stroke:#181818;stroke-width:1.0;"/><path d="M213.2813,204.2969 L213.2813,202.5938 L215.6406,202.3281 L215.6406,194.125 L213.2813,193.8594 L213.2813,192.1563 L220.4219,192.1563 L220.4219,193.8594 L218,194.125 L218,202.3281 L220.4219,202.5938 L220.4219,204.2969 L213.2813,204.2969 Z " fill="#000000"/><text fill="#000000" font-family="sans-serif" font-size="14" font-style="italic" lengthAdjust="spacing" textLength="61" x="237.75" y="202.6436">Interface</text><line style="stroke:#181818;stroke-width:0.5;" x1="23" x2="481" y1="213.7969" y2="213.7969"/><ellipse cx="33" cy="247.7422" fill="none" rx="3" ry="3" style="stroke:#038048;stroke-width:1.0;"/><text fill="#000000" font-family="sans-serif" font-size="14" lengthAdjust="spacing" text-decoration="underline" textLength="114" x="42" y="251.0889">CONST_PUBLIC :</text><text fill="#008000" font-family="sans-serif" font-size="14" lengthAdjust="spacing" text-decoration="underline" textLength="27" x="160" y="251.0889">final</text><text fill="#000000" font-family="sans-serif" font-size="14" lengthAdjust="spacing" text-decoration="underline" textLength="30" x="191" y="251.0889">type</text><line style="stroke:#181818;stroke-width:1.0;stroke-dasharray:1.0,2.0;" x1="23" x2="153" y1="229.9453" y2="229.9453"/><text fill="#000000" font-family="sans-serif" font-size="14" lengthAdjust="spacing" textLength="198" x="153" y="234.292">Seul type d'attribut authoris&#233;</text><line style="stroke:#181818;stroke-width:1.0;stroke-dasharray:1.0,2.0;" x1="351" x2="481" y1="229.9453" y2="229.9453"/><line style="stroke:#181818;stroke-width:1.0;" x1="23" x2="481" y1="258.3906" y2="258.3906"/><line style="stroke:#181818;stroke-width:1.0;" x1="23" x2="481" y1="260.3906" y2="260.3906"/><ellipse cx="33" cy="292.3359" fill="#84BE84" rx="3" ry="3" style="stroke:#038048;stroke-width:1.0;"/><text fill="#000000" font-family="sans-serif" font-size="14" lengthAdjust="spacing" textLength="396" x="42" y="295.6826">methodePublic(typeParams) : typeRetour # retourDefault</text><line style="stroke:#181818;stroke-width:1.0;stroke-dasharray:1.0,2.0;" x1="23" x2="171" y1="274.5391" y2="274.5391"/><text fill="#000000" font-family="sans-serif" font-size="14" lengthAdjust="spacing" textLength="162" x="171" y="278.8857">Methodes de l'interface</text><line style="stroke:#181818;stroke-width:1.0;stroke-dasharray:1.0,2.0;" x1="333" x2="481" y1="274.5391" y2="274.5391"/><ellipse cx="33" cy="328.9297" fill="#84BE84" rx="3" ry="3" style="stroke:#038048;stroke-width:1.0;"/><text fill="#000000" font-family="sans-serif" font-size="14" lengthAdjust="spacing" text-decoration="underline" textLength="434" x="42" y="332.2764">methodePublicStatic(typeParams) : typeRetour # retourDefault</text><line style="stroke:#181818;stroke-width:1.0;stroke-dasharray:1.0,2.0;" x1="23" x2="150.5" y1="311.1328" y2="311.1328"/><text fill="#000000" font-family="sans-serif" font-size="14" lengthAdjust="spacing" textLength="203" x="150.5" y="315.4795">Methodes static de l'interface</text><line style="stroke:#181818;stroke-width:1.0;stroke-dasharray:1.0,2.0;" x1="353.5" x2="481" y1="311.1328" y2="311.1328"/></g><!--class A--><g id="elem_A"><rect codeLine="36" fill="#F1F1F1" height="365.3438" id="A" rx="2.5" ry="2.5" style="stroke:#181818;stroke-width:0.5;" width="471" x="623.5" y="78.2969"/><ellipse cx="805.25" cy="94.2969" fill="#A9DCDF" rx="11" ry="11" style="stroke:#181818;stroke-width:1.0;"/><path d="M800.4219,100.0469 L803.7656,87.8594 L806.9063,87.8594 L810.2813,100.0469 L807.8125,100.0469 L807.0781,97.0313 L803.5625,97.0313 L802.8125,100.0469 L800.4219,100.0469 Z M804.8281,92 L804.0781,95 L806.5938,95 L805.875,92 Q805.7344,91.4219 805.6094,90.875 Q805.4844,90.3125 805.3438,89.7344 Q805.2344,90.3125 805.0938,90.875 Q804.9531,91.4219 804.8281,92 Z " fill="#000000"/><text fill="#000000" font-family="sans-serif" font-size="14" font-style="italic" lengthAdjust="spacing" textLength="99" x="825.75" y="99.1436">abstractClasse</text><line style="stroke:#181818;stroke-width:0.5;" x1="624.5" x2="1093.5" y1="110.2969" y2="110.2969"/><rect fill="none" height="6" style="stroke:#C82930;stroke-width:1.0;" width="6" x="631.5" y="141.2422"/><text fill="#000000" font-family="sans-serif" font-size="14" lengthAdjust="spacing" text-decoration="underline" textLength="148" x="643.5" y="147.5889">CONST_PRIVEE : type</text><line style="stroke:#181818;stroke-width:1.0;stroke-dasharray:1.0,2.0;" x1="624.5" x2="823" y1="126.4453" y2="126.4453"/><text fill="#000000" font-family="sans-serif" font-size="14" lengthAdjust="spacing" textLength="72" x="823" y="130.792">Constante</text><line style="stroke:#181818;stroke-width:1.0;stroke-dasharray:1.0,2.0;" x1="895" x2="1093.5" y1="126.4453" y2="126.4453"/><rect fill="none" height="6" style="stroke:#C82930;stroke-width:1.0;" width="6" x="631.5" y="177.8359"/><text fill="#000000" font-family="sans-serif" font-size="14" lengthAdjust="spacing" textLength="134" x="643.5" y="184.1826">attributPrivee : type</text><polygon fill="none" points="634.5,192.1328,638.5,196.1328,634.5,200.1328,630.5,196.1328" style="stroke:#B38D22;stroke-width:1.0;"/><text fill="#000000" font-family="sans-serif" font-size="14" lengthAdjust="spacing" textLength="147" x="643.5" y="200.4795">attributProtege : type</text><polygon fill="none" points="634.5,209.4297,630.5,215.4297,638.5,215.4297" style="stroke:#1963A0;stroke-width:1.0;"/><text fill="#000000" font-family="sans-serif" font-size="14" lengthAdjust="spacing" textLength="151" x="643.5" y="216.7764">attributPackage : type</text><ellipse cx="634.5" cy="229.7266" fill="none" rx="3" ry="3" style="stroke:#038048;stroke-width:1.0;"/><text fill="#000000" font-family="sans-serif" font-size="14" lengthAdjust="spacing" textLength="133" x="643.5" y="233.0732">attributPublic : type</text><line style="stroke:#181818;stroke-width:1.0;stroke-dasharray:1.0,2.0;" x1="624.5" x2="830" y1="163.0391" y2="163.0391"/><text fill="#000000" font-family="sans-serif" font-size="14" lengthAdjust="spacing" textLength="58" x="830" y="167.3857">Attributs</text><line style="stroke:#181818;stroke-width:1.0;stroke-dasharray:1.0,2.0;" x1="888" x2="1093.5" y1="163.0391" y2="163.0391"/><line style="stroke:#181818;stroke-width:1.0;" x1="624.5" x2="1093.5" y1="240.375" y2="240.375"/><line style="stroke:#181818;stroke-width:1.0;" x1="624.5" x2="1093.5" y1="242.375" y2="242.375"/><rect fill="#F24D5C" height="6" style="stroke:#C82930;stroke-width:1.0;" width="6" x="631.5" y="271.3203"/><text fill="#000000" font-family="sans-serif" font-size="14" lengthAdjust="spacing" textLength="397" x="643.5" y="277.667">methodePrive2(typeParams) : typeRetour # retourDefault</text><polygon fill="#FFFF44" points="634.5,285.6172,638.5,289.6172,634.5,293.6172,630.5,289.6172" style="stroke:#B38D22;stroke-width:1.0;"/><text fill="#000000" font-family="sans-serif" font-size="14" lengthAdjust="spacing" textLength="410" x="643.5" y="293.9639">methodeProtege(typeParams) : typeRetour # retourDefault</text><polygon fill="#4177AF" points="634.5,302.9141,630.5,308.9141,638.5,308.9141" style="stroke:#1963A0;stroke-width:1.0;"/><text fill="#000000" font-family="sans-serif" font-size="14" lengthAdjust="spacing" textLength="414" x="643.5" y="310.2607">methodePackage(typeParams) : typeRetour # retourDefault</text><ellipse cx="634.5" cy="323.2109" fill="#84BE84" rx="3" ry="3" style="stroke:#038048;stroke-width:1.0;"/><text fill="#000000" font-family="sans-serif" font-size="14" lengthAdjust="spacing" textLength="396" x="643.5" y="326.5576">methodePublic(typeParams) : typeRetour # retourDefault</text><line style="stroke:#181818;stroke-width:1.0;stroke-dasharray:1.0,2.0;" x1="624.5" x2="824" y1="256.5234" y2="256.5234"/><text fill="#000000" font-family="sans-serif" font-size="14" lengthAdjust="spacing" textLength="70" x="824" y="260.8701">Methodes</text><line style="stroke:#181818;stroke-width:1.0;stroke-dasharray:1.0,2.0;" x1="894" x2="1093.5" y1="256.5234" y2="256.5234"/><rect fill="#F24D5C" height="6" style="stroke:#C82930;stroke-width:1.0;" width="6" x="631.5" y="356.8047"/><text fill="#000000" font-family="sans-serif" font-size="14" lengthAdjust="spacing" textLength="402" x="643.5" y="363.1514">@methodePrive(typeParams) : typeRetour # retourDefault</text><line style="stroke:#181818;stroke-width:1.0;stroke-dasharray:1.0,2.0;" x1="624.5" x2="793" y1="342.0078" y2="342.0078"/><text fill="#000000" font-family="sans-serif" font-size="14" lengthAdjust="spacing" textLength="132" x="793" y="346.3545">Methodes Override</text><line style="stroke:#181818;stroke-width:1.0;stroke-dasharray:1.0,2.0;" x1="925" x2="1093.5" y1="342.0078" y2="342.0078"/><rect fill="#F24D5C" height="6" style="stroke:#C82930;stroke-width:1.0;" width="6" x="631.5" y="393.3984"/><text fill="#000000" font-family="sans-serif" font-size="14" font-style="italic" lengthAdjust="spacing" textLength="445" x="643.5" y="399.7451">methodePriveAbstract(typeParams) : typeRetour # retourDefault</text><line style="stroke:#181818;stroke-width:1.0;stroke-dasharray:1.0,2.0;" x1="624.5" x2="788" y1="378.6016" y2="378.6016"/><text fill="#000000" font-family="sans-serif" font-size="14" lengthAdjust="spacing" textLength="142" x="788" y="382.9482">Methodes abstraites</text><line style="stroke:#181818;stroke-width:1.0;stroke-dasharray:1.0,2.0;" x1="930" x2="1093.5" y1="378.6016" y2="378.6016"/><rect fill="#F24D5C" height="6" style="stroke:#C82930;stroke-width:1.0;" width="6" x="631.5" y="429.9922"/><text fill="#000000" font-family="sans-serif" font-size="14" lengthAdjust="spacing" text-decoration="underline" textLength="426" x="643.5" y="436.3389">methodePriveStatic(typeParams) : typeRetour # retourDefault</text><line style="stroke:#181818;stroke-width:1.0;stroke-dasharray:1.0,2.0;" x1="624.5" x2="790" y1="415.1953" y2="415.1953"/><text fill="#000000" font-family="sans-serif" font-size="14" lengthAdjust="spacing" textLength="138" x="790" y="419.542">Methodes statiques</text><line style="stroke:#181818;stroke-width:1.0;stroke-dasharray:1.0,2.0;" x1="928" x2="1093.5" y1="415.1953" y2="415.1953"/></g><!--class C--><g id="elem_C"><rect codeLine="57" fill="#F1F1F1" height="328.75" id="C" rx="2.5" ry="2.5" style="stroke:#181818;stroke-width:0.5;" width="461" x="1211.5" y="96.2969"/><ellipse cx="1414.75" cy="112.2969" fill="#ADD1B2" rx="11" ry="11" style="stroke:#181818;stroke-width:1.0;"/><path d="M1414.2188,119.2188 Q1412.4688,119.2188 1411.3281,118.4844 Q1410.2031,117.7344 1409.6406,116.3906 Q1409.0938,115.0313 1409.0938,113.2344 Q1409.0938,111.2031 1409.75,109.75 Q1410.4063,108.2969 1411.6875,107.5156 Q1412.9688,106.7344 1414.8438,106.7344 Q1415.7344,106.7344 1416.4063,106.9219 Q1417.0781,107.0938 1417.7656,107.4375 L1416.9531,109.4531 Q1416.3281,109.1406 1415.7813,109.0156 Q1415.25,108.8906 1414.7656,108.8906 Q1413.5938,108.8906 1412.8906,109.4219 Q1412.1875,109.9531 1411.8906,110.9063 Q1411.5938,111.8594 1411.5938,113.125 Q1411.5938,115.1406 1412.3125,116.1094 Q1413.0313,117.0625 1414.625,117.0625 Q1415.2188,117.0625 1415.8438,116.9063 Q1416.4688,116.75 1417.2969,116.375 L1417.2969,118.5938 Q1416.5625,118.9063 1415.7656,119.0625 Q1414.9844,119.2188 1414.2188,119.2188 Z " fill="#000000"/><text fill="#000000" font-family="sans-serif" font-size="14" lengthAdjust="spacing" textLength="46" x="1435.25" y="117.1436">Classe</text><line style="stroke:#181818;stroke-width:0.5;" x1="1212.5" x2="1671.5" y1="128.2969" y2="128.2969"/><rect fill="none" height="6" style="stroke:#C82930;stroke-width:1.0;" width="6" x="1219.5" y="159.2422"/><text fill="#000000" font-family="sans-serif" font-size="14" lengthAdjust="spacing" text-decoration="underline" textLength="148" x="1231.5" y="165.5889">CONST_PRIVEE : type</text><line style="stroke:#181818;stroke-width:1.0;stroke-dasharray:1.0,2.0;" x1="1212.5" x2="1406" y1="144.4453" y2="144.4453"/><text fill="#000000" font-family="sans-serif" font-size="14" lengthAdjust="spacing" textLength="72" x="1406" y="148.792">Constante</text><line style="stroke:#181818;stroke-width:1.0;stroke-dasharray:1.0,2.0;" x1="1478" x2="1671.5" y1="144.4453" y2="144.4453"/><rect fill="none" height="6" style="stroke:#C82930;stroke-width:1.0;" width="6" x="1219.5" y="195.8359"/><text fill="#000000" font-family="sans-serif" font-size="14" lengthAdjust="spacing" textLength="134" x="1231.5" y="202.1826">attributPrivee : type</text><polygon fill="none" points="1222.5,210.1328,1226.5,214.1328,1222.5,218.1328,1218.5,214.1328" style="stroke:#B38D22;stroke-width:1.0;"/><text fill="#000000" font-family="sans-serif" font-size="14" lengthAdjust="spacing" textLength="147" x="1231.5" y="218.4795">attributProtege : type</text><polygon fill="none" points="1222.5,227.4297,1218.5,233.4297,1226.5,233.4297" style="stroke:#1963A0;stroke-width:1.0;"/><text fill="#000000" font-family="sans-serif" font-size="14" lengthAdjust="spacing" textLength="151" x="1231.5" y="234.7764">attributPackage : type</text><ellipse cx="1222.5" cy="247.7266" fill="none" rx="3" ry="3" style="stroke:#038048;stroke-width:1.0;"/><text fill="#000000" font-family="sans-serif" font-size="14" lengthAdjust="spacing" textLength="133" x="1231.5" y="251.0732">attributPublic : type</text><line style="stroke:#181818;stroke-width:1.0;stroke-dasharray:1.0,2.0;" x1="1212.5" x2="1413" y1="181.0391" y2="181.0391"/><text fill="#000000" font-family="sans-serif" font-size="14" lengthAdjust="spacing" textLength="58" x="1413" y="185.3857">Attributs</text><line style="stroke:#181818;stroke-width:1.0;stroke-dasharray:1.0,2.0;" x1="1471" x2="1671.5" y1="181.0391" y2="181.0391"/><line style="stroke:#181818;stroke-width:1.0;" x1="1212.5" x2="1671.5" y1="258.375" y2="258.375"/><line style="stroke:#181818;stroke-width:1.0;" x1="1212.5" x2="1671.5" y1="260.375" y2="260.375"/><rect fill="#F24D5C" height="6" style="stroke:#C82930;stroke-width:1.0;" width="6" x="1219.5" y="289.3203"/><text fill="#000000" font-family="sans-serif" font-size="14" lengthAdjust="spacing" textLength="397" x="1231.5" y="295.667">methodePrive3(typeParams) : typeRetour # retourDefault</text><polygon fill="#FFFF44" points="1222.5,303.6172,1226.5,307.6172,1222.5,311.6172,1218.5,307.6172" style="stroke:#B38D22;stroke-width:1.0;"/><text fill="#000000" font-family="sans-serif" font-size="14" lengthAdjust="spacing" textLength="419" x="1231.5" y="311.9639">methodeProtege2(typeParams) : typeRetour # retourDefault</text><polygon fill="#4177AF" points="1222.5,320.9141,1218.5,326.9141,1226.5,326.9141" style="stroke:#1963A0;stroke-width:1.0;"/><text fill="#000000" font-family="sans-serif" font-size="14" lengthAdjust="spacing" textLength="423" x="1231.5" y="328.2607">methodePackage2(typeParams) : typeRetour # retourDefault</text><ellipse cx="1222.5" cy="341.2109" fill="#84BE84" rx="3" ry="3" style="stroke:#038048;stroke-width:1.0;"/><text fill="#000000" font-family="sans-serif" font-size="14" lengthAdjust="spacing" textLength="405" x="1231.5" y="344.5576">methodePublic2(typeParams) : typeRetour # retourDefault</text><line style="stroke:#181818;stroke-width:1.0;stroke-dasharray:1.0,2.0;" x1="1212.5" x2="1407" y1="274.5234" y2="274.5234"/><text fill="#000000" font-family="sans-serif" font-size="14" lengthAdjust="spacing" textLength="70" x="1407" y="278.8701">Methodes</text><line style="stroke:#181818;stroke-width:1.0;stroke-dasharray:1.0,2.0;" x1="1477" x2="1671.5" y1="274.5234" y2="274.5234"/><rect fill="#F24D5C" height="6" style="stroke:#C82930;stroke-width:1.0;" width="6" x="1219.5" y="374.8047"/><text fill="#000000" font-family="sans-serif" font-size="14" lengthAdjust="spacing" textLength="411" x="1231.5" y="381.1514">@methodePrive2(typeParams) : typeRetour # retourDefault</text><line style="stroke:#181818;stroke-width:1.0;stroke-dasharray:1.0,2.0;" x1="1212.5" x2="1376" y1="360.0078" y2="360.0078"/><text fill="#000000" font-family="sans-serif" font-size="14" lengthAdjust="spacing" textLength="132" x="1376" y="364.3545">Methodes Override</text><line style="stroke:#181818;stroke-width:1.0;stroke-dasharray:1.0,2.0;" x1="1508" x2="1671.5" y1="360.0078" y2="360.0078"/><rect fill="#F24D5C" height="6" style="stroke:#C82930;stroke-width:1.0;" width="6" x="1219.5" y="411.3984"/><text fill="#000000" font-family="sans-serif" font-size="14" lengthAdjust="spacing" text-decoration="underline" textLength="435" x="1231.5" y="417.7451">methodePriveStatic2(typeParams) : typeRetour # retourDefault</text><line style="stroke:#181818;stroke-width:1.0;stroke-dasharray:1.0,2.0;" x1="1212.5" x2="1373" y1="396.6016" y2="396.6016"/><text fill="#000000" font-family="sans-serif" font-size="14" lengthAdjust="spacing" textLength="138" x="1373" y="400.9482">Methodes statiques</text><line style="stroke:#181818;stroke-width:1.0;stroke-dasharray:1.0,2.0;" x1="1511" x2="1671.5" y1="396.6016" y2="396.6016"/></g><!--reverse link I to A--><g id="link_I_A"><path d="M502.48,260.7969 C542.44,260.7969 583.66,260.7969 623.27,260.7969 " fill="none" id="I-backto-A" style="stroke:#181818;stroke-width:1.0;stroke-dasharray:7.0,7.0;"/><polygon fill="none" points="502.35,267.7969,482.35,260.7969,502.35,253.7969,502.35,267.7969" style="stroke:#181818;stroke-width:1.0;"/><path d="M504.25,227.7969 L504.25,252.7969 L601.25,252.7969 L601.25,237.7969 L591.25,227.7969 L504.25,227.7969 " fill="#FEFFDD" style="stroke:#181818;stroke-width:0.5;"/><path d="M591.25,227.7969 L591.25,237.7969 L601.25,237.7969 L591.25,227.7969 " fill="#FEFFDD" style="stroke:#181818;stroke-width:0.5;"/><text fill="#000000" font-family="sans-serif" font-size="13" lengthAdjust="spacing" textLength="76" x="510.25" y="244.8638">implements</text></g><!--link I to A--><!--reverse link A to C--><g id="link_A_C"><path d="M1115.21,260.7969 C1147.16,260.7969 1179.67,260.7969 1211.2,260.7969 " fill="none" id="A-backto-C" style="stroke:#181818;stroke-width:1.0;"/><polygon fill="none" points="1114.87,267.7969,1094.87,260.7969,1114.87,253.7969,1114.87,267.7969" style="stroke:#181818;stroke-width:1.0;"/><path d="M1117,227.7969 L1117,252.7969 L1189,252.7969 L1189,237.7969 L1179,227.7969 L1117,227.7969 " fill="#FEFFDD" style="stroke:#181818;stroke-width:0.5;"/><path d="M1179,227.7969 L1179,237.7969 L1189,237.7969 L1179,227.7969 " fill="#FEFFDD" style="stroke:#181818;stroke-width:0.5;"/><text fill="#000000" font-family="sans-serif" font-size="13" lengthAdjust="spacing" textLength="51" x="1123" y="244.8638">extends</text></g><!--link A to C--><text fill="#888888" font-family="sans-serif" font-size="10" lengthAdjust="spacing" textLength="269" x="706.5" y="474.5791">La legende commune &#224; tout les diagrammes de classes</text><!--SRC=[xLRDRjD043vxdsAQ70gg4YHpGss5CJrO2ZHgW0j2Q6sFdLNNwx0_5IXAduKhpz4NOxssOwSMI0c14oVlpiv-t-pCVF9efZd237CKAQIe86KqbxGeqEuWuLGfL8ISA4sbLYO6xbp9YYQtDD_U77EMBtNC3SAQU4neb1bD44PHknn1i82eElMcKrYWuQ2_hIpBATLQijXee4OlIydKmm-OJgtVEcF8qmsiBRbcoGRE8Bn-ktZtUVx-rImAuGMS9oKl9UGIKLncJ51-_ioPBXsunRYug0dVeCLsxqFWfrs0DL7XJYk2UeLp4tEMFAb0vjIcGpsrRDNk1dLf98n1kiLhpAZX-X577U_lgNgFsk5SEFCUp1lYqLXfIHDTrmj6xJvqvNEP3zhCXwMmp3QeN-HuqkRu9lfmTTLmrrU3fb1gz-e4sWhE9Rj3xEwq7kEUHwbjnmnTxZkNfhC6BcUTYyjKvp4eycwg9ziCL_7v-rHrYp7kCDmB3WAvtuBKRpm8v4WzUds7Kh8K1xbwsK_MeUXr1p8zgCMwxSt7PGaQ-nzfxeiP4dQDtQSxWim2OCMAOu72AY8Ydh2D0QK0piIj1UiEYTVeigV7yByUcqeyFueU_QC8qZ-68ls_Aqd_doh4tqyYTQE7W5-r7GkiHWQoQ4u8yIAOV5ooD4NnILRJmwJo3WR6a6p8INN5n8GaMFrE8IlBwZEZpJXY9vMoA8n0UFWEDYPjxRrHHlLccPy0]--></g></svg>