<?xml version="1.0" encoding="UTF-8" standalone="no"?><svg xmlns="http://www.w3.org/2000/svg" xmlns:xlink="http://www.w3.org/1999/xlink" contentScriptType="application/ecmascript" contentStyleType="text/css" height="454px" preserveAspectRatio="none" style="width:692px;height:454px;" version="1.1" viewBox="0 0 692 454" width="692px" zoomAndPan="magnify"><defs><filter height="300%" id="fymiloytfw04q" width="300%" x="-1" y="-1"><feGaussianBlur result="blurOut" stdDeviation="2.0"/><feColorMatrix in="blurOut" result="blurOut2" type="matrix" values="0 0 0 0 0 0 0 0 0 0 0 0 0 0 0 0 0 0 .4 0"/><feOffset dx="4.0" dy="4.0" in="blurOut2" result="blurOut3"/><feBlend in="SourceGraphic" in2="blurOut3" mode="normal"/></filter></defs><g><text fill="#000000" font-family="sans-serif" font-size="18" lengthAdjust="spacingAndGlyphs" textLength="468" x="118" y="16.708">diagramme des classes stockant les actions du joueur</text><!--MD5=[2a767d2205d721f88f5fe4b54046fb2b]
cluster Move--><polygon fill="#D3D3D3" filter="url(#fymiloytfw04q)" points="22,44.9531,70,44.9531,77,67.25,670,67.25,670,405.9531,22,405.9531,22,44.9531" style="stroke: #000000; stroke-width: 1.5;"/><line style="stroke: #000000; stroke-width: 1.5;" x1="22" x2="77" y1="67.25" y2="67.25"/><text fill="#000000" font-family="sans-serif" font-size="14" font-weight="bold" lengthAdjust="spacingAndGlyphs" textLength="42" x="26" y="59.9482">Move</text><!--MD5=[1981719fa3982d92ef7fd3f06d73b3e7]
class Move--><rect fill="#FEFECE" filter="url(#fymiloytfw04q)" height="137.6328" id="Move" style="stroke: #A80036; stroke-width: 1.5;" width="168" x="229" y="79.9531"/><ellipse cx="274.25" cy="95.9531" fill="#A9DCDF" rx="11" ry="11" style="stroke: #A80036; stroke-width: 1.0;"/><path d="M274.3594,91.2969 L273.2031,96.375 L275.5313,96.375 L274.3594,91.2969 Z M272.875,89.0625 L275.8594,89.0625 L279.2188,101.4531 L276.7656,101.4531 L276,98.3906 L272.7188,98.3906 L271.9688,101.4531 L269.5313,101.4531 L272.875,89.0625 Z "/><text fill="#000000" font-family="sans-serif" font-size="12" font-style="italic" lengthAdjust="spacingAndGlyphs" textLength="69" x="294.75" y="100.1074">MoveCoord</text><line style="stroke: #A80036; stroke-width: 1.5;" x1="230" x2="396" y1="111.9531" y2="111.9531"/><rect fill="none" height="6" style="stroke: #C82930; stroke-width: 1.0;" width="6" x="237" y="119.9531"/><text fill="#000000" font-family="sans-serif" font-size="11" lengthAdjust="spacingAndGlyphs" textLength="78" x="249" y="126.1636">coord : Coord</text><line style="stroke: #A80036; stroke-width: 1.5;" x1="230" x2="396" y1="132.7578" y2="132.7578"/><ellipse cx="240" cy="143.7578" fill="#84BE84" rx="3" ry="3" style="stroke: #038048; stroke-width: 1.0;"/><text fill="#000000" font-family="sans-serif" font-size="11" lengthAdjust="spacingAndGlyphs" text-decoration="underline" textLength="105" x="249" y="146.9683">new Move() : Move</text><ellipse cx="240" cy="156.5625" fill="#84BE84" rx="3" ry="3" style="stroke: #038048; stroke-width: 1.0;"/><text fill="#000000" font-family="sans-serif" font-size="11" lengthAdjust="spacingAndGlyphs" text-decoration="underline" textLength="139" x="249" y="159.7729">new Move(Coord) : Move</text><ellipse cx="240" cy="169.3672" fill="#84BE84" rx="3" ry="3" style="stroke: #038048; stroke-width: 1.0;"/><text fill="#000000" font-family="sans-serif" font-size="11" lengthAdjust="spacingAndGlyphs" textLength="142" x="249" y="172.5776">getCoord(void) : Coord #</text><ellipse cx="240" cy="182.1719" fill="#84BE84" rx="3" ry="3" style="stroke: #038048; stroke-width: 1.0;"/><text fill="#000000" font-family="sans-serif" font-size="11" lengthAdjust="spacingAndGlyphs" textLength="142" x="249" y="185.3823">setCoord(Coord) : void #</text><ellipse cx="240" cy="194.9766" fill="#84BE84" rx="3" ry="3" style="stroke: #038048; stroke-width: 1.0;"/><text fill="#000000" font-family="sans-serif" font-size="11" lengthAdjust="spacingAndGlyphs" textLength="121" x="249" y="198.187">getNew(void) : Object</text><ellipse cx="240" cy="207.7813" fill="#84BE84" rx="3" ry="3" style="stroke: #038048; stroke-width: 1.0;"/><text fill="#000000" font-family="sans-serif" font-size="11" lengthAdjust="spacingAndGlyphs" textLength="116" x="249" y="210.9917">getOld(void) : Object</text><!--MD5=[bd08b69b9a685225b7cb6d44118bbefc]
class MoveV--><rect fill="#FEFECE" filter="url(#fymiloytfw04q)" height="112.0234" id="MoveV" style="stroke: #A80036; stroke-width: 1.5;" width="225" x="38.5" y="277.9531"/><ellipse cx="113.25" cy="293.9531" fill="#ADD1B2" rx="11" ry="11" style="stroke: #A80036; stroke-width: 1.0;"/><path d="M116.2188,299.5938 Q115.6406,299.8906 115,300.0313 Q114.3594,300.1875 113.6563,300.1875 Q111.1563,300.1875 109.8281,298.5469 Q108.5156,296.8906 108.5156,293.7656 Q108.5156,290.6406 109.8281,288.9844 Q111.1563,287.3281 113.6563,287.3281 Q114.3594,287.3281 115,287.4844 Q115.6563,287.6406 116.2188,287.9375 L116.2188,290.6563 Q115.5938,290.0781 115,289.8125 Q114.4063,289.5313 113.7813,289.5313 Q112.4375,289.5313 111.75,290.6094 Q111.0625,291.6719 111.0625,293.7656 Q111.0625,295.8594 111.75,296.9375 Q112.4375,298 113.7813,298 Q114.4063,298 115,297.7344 Q115.5938,297.4531 116.2188,296.875 L116.2188,299.5938 Z "/><text fill="#000000" font-family="sans-serif" font-size="12" lengthAdjust="spacingAndGlyphs" textLength="67" x="133.75" y="298.1074">MoveValue</text><line style="stroke: #A80036; stroke-width: 1.5;" x1="39.5" x2="262.5" y1="309.9531" y2="309.9531"/><rect fill="none" height="6" style="stroke: #C82930; stroke-width: 1.0;" width="6" x="46.5" y="317.9531"/><text fill="#000000" font-family="sans-serif" font-size="11" lengthAdjust="spacingAndGlyphs" textLength="75" x="58.5" y="324.1636">valueOld : int</text><rect fill="none" height="6" style="stroke: #C82930; stroke-width: 1.0;" width="6" x="46.5" y="330.7578"/><text fill="#000000" font-family="sans-serif" font-size="11" lengthAdjust="spacingAndGlyphs" textLength="80" x="58.5" y="336.9683">valueNew : int</text><line style="stroke: #A80036; stroke-width: 1.5;" x1="39.5" x2="262.5" y1="343.5625" y2="343.5625"/><ellipse cx="49.5" cy="354.5625" fill="#84BE84" rx="3" ry="3" style="stroke: #038048; stroke-width: 1.0;"/><text fill="#000000" font-family="sans-serif" font-size="11" lengthAdjust="spacingAndGlyphs" text-decoration="underline" textLength="199" x="58.5" y="357.7729">new MoveValue(int,int) : MoveValue</text><ellipse cx="49.5" cy="367.3672" fill="#84BE84" rx="3" ry="3" style="stroke: #038048; stroke-width: 1.0;"/><text fill="#000000" font-family="sans-serif" font-size="11" lengthAdjust="spacingAndGlyphs" textLength="128" x="58.5" y="370.5776">@getOld(void) : Object</text><ellipse cx="49.5" cy="380.1719" fill="#84BE84" rx="3" ry="3" style="stroke: #038048; stroke-width: 1.0;"/><text fill="#000000" font-family="sans-serif" font-size="11" lengthAdjust="spacingAndGlyphs" textLength="133" x="58.5" y="383.3823">@getNew(void) : Object</text><!--MD5=[185fb4beb44acbf328822d72de6f29a8]
class MoveN--><rect fill="#FEFECE" filter="url(#fymiloytfw04q)" height="112.0234" id="MoveN" style="stroke: #A80036; stroke-width: 1.5;" width="355" x="298.5" y="277.9531"/><ellipse cx="437.25" cy="293.9531" fill="#ADD1B2" rx="11" ry="11" style="stroke: #A80036; stroke-width: 1.0;"/><path d="M440.2188,299.5938 Q439.6406,299.8906 439,300.0313 Q438.3594,300.1875 437.6563,300.1875 Q435.1563,300.1875 433.8281,298.5469 Q432.5156,296.8906 432.5156,293.7656 Q432.5156,290.6406 433.8281,288.9844 Q435.1563,287.3281 437.6563,287.3281 Q438.3594,287.3281 439,287.4844 Q439.6563,287.6406 440.2188,287.9375 L440.2188,290.6563 Q439.5938,290.0781 439,289.8125 Q438.4063,289.5313 437.7813,289.5313 Q436.4375,289.5313 435.75,290.6094 Q435.0625,291.6719 435.0625,293.7656 Q435.0625,295.8594 435.75,296.9375 Q436.4375,298 437.7813,298 Q438.4063,298 439,297.7344 Q439.5938,297.4531 440.2188,296.875 L440.2188,299.5938 Z "/><text fill="#000000" font-family="sans-serif" font-size="12" lengthAdjust="spacingAndGlyphs" textLength="69" x="457.75" y="298.1074">MoveNotes</text><line style="stroke: #A80036; stroke-width: 1.5;" x1="299.5" x2="652.5" y1="309.9531" y2="309.9531"/><rect fill="none" height="6" style="stroke: #C82930; stroke-width: 1.0;" width="6" x="306.5" y="317.9531"/><text fill="#000000" font-family="sans-serif" font-size="11" lengthAdjust="spacingAndGlyphs" textLength="140" x="318.5" y="324.1636">notesOld : Set&lt;Integer&gt;</text><rect fill="none" height="6" style="stroke: #C82930; stroke-width: 1.0;" width="6" x="306.5" y="330.7578"/><text fill="#000000" font-family="sans-serif" font-size="11" lengthAdjust="spacingAndGlyphs" textLength="145" x="318.5" y="336.9683">notesNew : Set&lt;Integer&gt;</text><line style="stroke: #A80036; stroke-width: 1.5;" x1="299.5" x2="652.5" y1="343.5625" y2="343.5625"/><ellipse cx="309.5" cy="354.5625" fill="#84BE84" rx="3" ry="3" style="stroke: #038048; stroke-width: 1.0;"/><text fill="#000000" font-family="sans-serif" font-size="11" lengthAdjust="spacingAndGlyphs" text-decoration="underline" textLength="329" x="318.5" y="357.7729">new MoveNotes(Set&lt;Integer&gt;,Set&lt;Integer&gt;) : MoveNotes</text><ellipse cx="309.5" cy="367.3672" fill="#84BE84" rx="3" ry="3" style="stroke: #038048; stroke-width: 1.0;"/><text fill="#000000" font-family="sans-serif" font-size="11" lengthAdjust="spacingAndGlyphs" textLength="128" x="318.5" y="370.5776">@getOld(void) : Object</text><ellipse cx="309.5" cy="380.1719" fill="#84BE84" rx="3" ry="3" style="stroke: #038048; stroke-width: 1.0;"/><text fill="#000000" font-family="sans-serif" font-size="11" lengthAdjust="spacingAndGlyphs" textLength="133" x="318.5" y="383.3823">@getNew(void) : Object</text><!--MD5=[214f7d1ba4b71baaee465801c69c66b8]
reverse link Move to MoveV--><path d="M239.39,233.1131 C225.95,248.2931 212.24,263.7731 199.75,277.8831 " fill="none" id="Move&lt;-MoveV" style="stroke: #A80036; stroke-width: 1.0;"/><polygon fill="none" points="234.18,228.4331,252.68,218.0931,244.66,237.7131,234.18,228.4331" style="stroke: #A80036; stroke-width: 1.0;"/><!--MD5=[4f51247628bb45062b4db0a831af49aa]
reverse link Move to MoveN--><path d="M387.07,233.1131 C400.59,248.2931 414.38,263.7731 426.95,277.8831 " fill="none" id="Move&lt;-MoveN" style="stroke: #A80036; stroke-width: 1.0;"/><polygon fill="none" points="381.77,237.6831,373.7,218.0931,392.22,228.3731,381.77,237.6831" style="stroke: #A80036; stroke-width: 1.0;"/><text fill="#888888" font-family="sans-serif" font-size="10" lengthAdjust="spacingAndGlyphs" textLength="337" x="183.5" y="441.2354">Les classes stockant les actions du joueur afin de pouvoir les restituer.</text><!--MD5=[88de95102d8d1af6e90f54e523a0ffb3]
@startuml classes_move

title diagramme des classes stockant les actions du joueur

package "Move" #lightgrey {
	abstract class "MoveCoord" AS Move {
		{field} - coord : Coord
		{method} {static} + new Move() : Move
		{method} {static} + new Move(Coord) : Move
		{method} + getCoord(void) : Coord #
		{method} + setCoord(Coord) : void #
		{method} + getNew(void) : Object
		{method} + getOld(void) : Object
	}
	class "MoveValue" AS MoveV {
		{field} - valueOld : int
		{field} - valueNew : int
		{method} {static} + new MoveValue(int,int) : MoveValue
		{method} + @getOld(void) : Object
		{method} + @getNew(void) : Object
	}
	class MoveV extends Move
	class "MoveNotes" AS MoveN {
		{field} - notesOld : Set<Integer>
		{field} - notesNew : Set<Integer>
		{method} {static} + new MoveNotes(Set<Integer>,Set<Integer>) : MoveNotes
		{method} + @getOld(void) : Object
		{method} + @getNew(void) : Object
	}
	class MoveN extends Move
}

center footer Les classes stockant les actions du joueur afin de pouvoir les restituer.
@enduml

PlantUML version 1.2020.02(Sun Mar 01 11:22:07 CET 2020)
(GPL source distribution)
Java Runtime: OpenJDK Runtime Environment
JVM: OpenJDK 64-Bit Server VM
Java Version: 17.0.9+9-Ubuntu-122.04
Operating System: Linux
Default Encoding: UTF-8
Language: en
Country: GB
--></g></svg>