<?xml version="1.0" encoding="UTF-8" standalone="no"?><svg xmlns="http://www.w3.org/2000/svg" xmlns:xlink="http://www.w3.org/1999/xlink" contentScriptType="application/ecmascript" contentStyleType="text/css" height="639px" preserveAspectRatio="none" style="width:1219px;height:639px;" version="1.1" viewBox="0 0 1219 639" width="1219px" zoomAndPan="magnify"><defs><filter height="300%" id="ffgc6nwnh890h" width="300%" x="-1" y="-1"><feGaussianBlur result="blurOut" stdDeviation="2.0"/><feColorMatrix in="blurOut" result="blurOut2" type="matrix" values="0 0 0 0 0 0 0 0 0 0 0 0 0 0 0 0 0 0 .4 0"/><feOffset dx="4.0" dy="4.0" in="blurOut2" result="blurOut3"/><feBlend in="SourceGraphic" in2="blurOut3" mode="normal"/></filter></defs><g><text fill="#000000" font-family="sans-serif" font-size="18" lengthAdjust="spacingAndGlyphs" textLength="487" x="372" y="16.708">"Diagramme des classes stockant les actions du joueur"</text><!--MD5=[86674ab5735079aa6b5321d691891463]
cluster legend--><polygon fill="#ADD8E6" filter="url(#ffgc6nwnh890h)" points="22,89.9531,82,89.9531,89,112.25,525,112.25,525,590.9531,22,590.9531,22,89.9531" style="stroke: #000000; stroke-width: 1.5;"/><line style="stroke: #000000; stroke-width: 1.5;" x1="22" x2="89" y1="112.25" y2="112.25"/><text fill="#000000" font-family="sans-serif" font-size="14" font-weight="bold" lengthAdjust="spacingAndGlyphs" textLength="54" x="26" y="104.9482">legend</text><!--MD5=[2a767d2205d721f88f5fe4b54046fb2b]
cluster Move--><polygon fill="#D3D3D3" filter="url(#ffgc6nwnh890h)" points="549,44.9531,597,44.9531,604,67.25,1197,67.25,1197,517.9531,549,517.9531,549,44.9531" style="stroke: #000000; stroke-width: 1.5;"/><line style="stroke: #000000; stroke-width: 1.5;" x1="549" x2="604" y1="67.25" y2="67.25"/><text fill="#000000" font-family="sans-serif" font-size="14" font-weight="bold" lengthAdjust="spacingAndGlyphs" textLength="42" x="553" y="59.9482">Move</text><!--MD5=[4cac391c179f8787f20d7dddb517ad5a]
class G--><rect fill="#FEFECE" filter="url(#ffgc6nwnh890h)" height="258.0078" id="G" style="stroke: #A80036; stroke-width: 1.5;" width="364" x="145" y="316.9531"/><ellipse cx="253.25" cy="335.9219" fill="#FFFFFF" rx="11" ry="11" style="stroke: #A80036; stroke-width: 1.0;"/><path d="M252.7344,336.4844 Q250.875,335.7813 250.2188,335.0156 Q249.5781,334.2344 249.5781,332.9219 Q249.5781,331.2344 250.6563,330.2656 Q251.7344,329.2969 253.6094,329.2969 Q254.4688,329.2969 255.3125,329.5 Q256.1719,329.6875 257.0156,330.0781 L257.0156,332.4688 Q256.2344,331.9063 255.4063,331.625 Q254.5938,331.3281 253.7969,331.3281 Q252.9219,331.3281 252.4375,331.6875 Q251.9688,332.0469 251.9688,332.7031 Q251.9688,333.2188 252.3125,333.5625 Q252.6563,333.8906 253.75,334.2969 L254.8125,334.7031 Q256.2969,335.25 257,336.1563 Q257.7188,337.0625 257.7188,338.4375 Q257.7188,340.3125 256.6094,341.2344 Q255.5,342.1563 253.25,342.1563 Q252.3281,342.1563 251.4063,341.9375 Q250.4844,341.7188 249.625,341.2969 L249.625,338.7656 Q250.5938,339.4531 251.5156,339.7969 Q252.4375,340.1406 253.3281,340.1406 Q254.2344,340.1406 254.7344,339.7344 Q255.2344,339.3125 255.2344,338.5781 Q255.2344,338.0156 254.8906,337.6094 Q254.5625,337.1875 253.9375,336.9375 L252.7344,336.4844 Z "/><text fill="#000000" font-family="sans-serif" font-size="12" font-style="italic" lengthAdjust="spacingAndGlyphs" textLength="73" x="271.75" y="333.0918">«Singleton»</text><text fill="#000000" font-family="sans-serif" font-size="12" lengthAdjust="spacingAndGlyphs" textLength="49" x="283.75" y="347.0605">General</text><rect fill="#FFFFFF" height="15.9688" style="stroke: #000000; stroke-width: 1.0; stroke-dasharray: 2.0,2.0;" width="68" x="444" y="313.9531"/><text fill="#000000" font-family="sans-serif" font-size="12" font-style="italic" lengthAdjust="spacingAndGlyphs" textLength="58" x="449" y="326.0918">? general</text><line style="stroke: #A80036; stroke-width: 1.5;" x1="146" x2="508" y1="354.8906" y2="354.8906"/><rect fill="none" height="6" style="stroke: #C82930; stroke-width: 1.0;" width="6" x="153" y="379.6953"/><text fill="#000000" font-family="sans-serif" font-size="11" lengthAdjust="spacingAndGlyphs" textLength="112" x="165" y="385.9058">attributPrivee : type</text><polygon fill="none" points="156,390.5,160,394.5,156,398.5,152,394.5" style="stroke: #B38D22; stroke-width: 1.0;"/><text fill="#000000" font-family="sans-serif" font-size="11" lengthAdjust="spacingAndGlyphs" textLength="121" x="165" y="398.7104">attributProtege : type</text><polygon fill="none" points="156,404.3047,152,410.3047,160,410.3047" style="stroke: #1963A0; stroke-width: 1.0;"/><text fill="#000000" font-family="sans-serif" font-size="11" lengthAdjust="spacingAndGlyphs" textLength="124" x="165" y="411.5151">attributPackage : type</text><ellipse cx="156" cy="421.1094" fill="none" rx="3" ry="3" style="stroke: #038048; stroke-width: 1.0;"/><text fill="#000000" font-family="sans-serif" font-size="11" lengthAdjust="spacingAndGlyphs" textLength="110" x="165" y="424.3198">attributPublic : type</text><line style="stroke: #A80036; stroke-width: 1.0; stroke-dasharray: 1.0,2.0;" x1="146" x2="303" y1="369.293" y2="369.293"/><text fill="#000000" font-family="sans-serif" font-size="11" lengthAdjust="spacingAndGlyphs" textLength="48" x="303" y="372.6011">Attributs</text><line style="stroke: #A80036; stroke-width: 1.0; stroke-dasharray: 1.0,2.0;" x1="351" x2="508" y1="369.293" y2="369.293"/><line style="stroke: #A80036; stroke-width: 1.0;" x1="146" x2="508" y1="430.9141" y2="430.9141"/><line style="stroke: #A80036; stroke-width: 1.0;" x1="146" x2="508" y1="432.9141" y2="432.9141"/><rect fill="#F24D5C" height="6" style="stroke: #C82930; stroke-width: 1.0;" width="6" x="153" y="455.7188"/><text fill="#000000" font-family="sans-serif" font-size="11" lengthAdjust="spacingAndGlyphs" textLength="319" x="165" y="461.9292">methodePrive(typeParams) : typeRetour # retourDefault</text><polygon fill="#FFFF44" points="156,466.5234,160,470.5234,156,474.5234,152,470.5234" style="stroke: #B38D22; stroke-width: 1.0;"/><text fill="#000000" font-family="sans-serif" font-size="11" lengthAdjust="spacingAndGlyphs" textLength="335" x="165" y="474.7339">methodeProtege(typeParams) : typeRetour # retourDefault</text><polygon fill="#4177AF" points="156,480.3281,152,486.3281,160,486.3281" style="stroke: #1963A0; stroke-width: 1.0;"/><text fill="#000000" font-family="sans-serif" font-size="11" lengthAdjust="spacingAndGlyphs" textLength="338" x="165" y="487.5386">methodePackage(typeParams) : typeRetour # retourDefault</text><ellipse cx="156" cy="497.1328" fill="#84BE84" rx="3" ry="3" style="stroke: #038048; stroke-width: 1.0;"/><text fill="#000000" font-family="sans-serif" font-size="11" lengthAdjust="spacingAndGlyphs" textLength="324" x="165" y="500.3433">methodePublic(typeParams) : typeRetour # retourDefault</text><line style="stroke: #A80036; stroke-width: 1.0; stroke-dasharray: 1.0,2.0;" x1="146" x2="299.5" y1="445.3164" y2="445.3164"/><text fill="#000000" font-family="sans-serif" font-size="11" lengthAdjust="spacingAndGlyphs" textLength="55" x="299.5" y="448.6245">Methodes</text><line style="stroke: #A80036; stroke-width: 1.0; stroke-dasharray: 1.0,2.0;" x1="354.5" x2="508" y1="445.3164" y2="445.3164"/><text fill="#000000" font-family="sans-serif" font-size="11" lengthAdjust="spacingAndGlyphs" textLength="352" x="151" y="529.9526">@methodeOverride(typeParams) : typeRetour # retourDefault</text><text fill="#000000" font-family="sans-serif" font-size="11" font-style="italic" lengthAdjust="spacingAndGlyphs" textLength="340" x="151" y="542.7573">methodeAbstract(typeParams) : typeRetour # retourDefault</text><text fill="#000000" font-family="sans-serif" font-size="11" lengthAdjust="spacingAndGlyphs" text-decoration="underline" textLength="323" x="151" y="555.562">methodeStatic(typeParams) : typeRetour # retourDefault</text><text fill="#008000" font-family="sans-serif" font-size="11" lengthAdjust="spacingAndGlyphs" text-decoration="underline" textLength="24" x="151" y="568.3667">final</text><text fill="#000000" font-family="sans-serif" font-size="11" lengthAdjust="spacingAndGlyphs" text-decoration="underline" textLength="317" x="179" y="568.3667">methodeFinal(typeParams) : typeRetour # retourDefault</text><line style="stroke: #A80036; stroke-width: 1.0; stroke-dasharray: 1.0,2.0;" x1="146" x2="273.5" y1="513.3398" y2="513.3398"/><text fill="#000000" font-family="sans-serif" font-size="11" lengthAdjust="spacingAndGlyphs" textLength="107" x="273.5" y="516.6479">Methodes Speciale</text><line style="stroke: #A80036; stroke-width: 1.0; stroke-dasharray: 1.0,2.0;" x1="380.5" x2="508" y1="513.3398" y2="513.3398"/><!--MD5=[a46ee5ce0ceb0380cf446a08a056dce4]
class A--><rect fill="#FEFECE" filter="url(#ffgc6nwnh890h)" height="48" id="A" style="stroke: #A80036; stroke-width: 1.5;" width="123" x="84.5" y="124.9531"/><ellipse cx="99.5" cy="140.9531" fill="#A9DCDF" rx="11" ry="11" style="stroke: #A80036; stroke-width: 1.0;"/><path d="M99.6094,136.2969 L98.4531,141.375 L100.7813,141.375 L99.6094,136.2969 Z M98.125,134.0625 L101.1094,134.0625 L104.4688,146.4531 L102.0156,146.4531 L101.25,143.3906 L97.9688,143.3906 L97.2188,146.4531 L94.7813,146.4531 L98.125,134.0625 Z "/><text fill="#000000" font-family="sans-serif" font-size="12" font-style="italic" lengthAdjust="spacingAndGlyphs" textLength="91" x="113.5" y="145.1074">abstractClasse</text><line style="stroke: #A80036; stroke-width: 1.5;" x1="85.5" x2="206.5" y1="156.9531" y2="156.9531"/><line style="stroke: #A80036; stroke-width: 1.5;" x1="85.5" x2="206.5" y1="164.9531" y2="164.9531"/><!--MD5=[378b18254a1b2429f435e93f5e5cc50c]
class C--><rect fill="#FEFECE" filter="url(#ffgc6nwnh890h)" height="48" id="C" style="stroke: #A80036; stroke-width: 1.5;" width="72" x="38" y="421.9531"/><ellipse cx="53" cy="437.9531" fill="#ADD1B2" rx="11" ry="11" style="stroke: #A80036; stroke-width: 1.0;"/><path d="M55.9688,443.5938 Q55.3906,443.8906 54.75,444.0313 Q54.1094,444.1875 53.4063,444.1875 Q50.9063,444.1875 49.5781,442.5469 Q48.2656,440.8906 48.2656,437.7656 Q48.2656,434.6406 49.5781,432.9844 Q50.9063,431.3281 53.4063,431.3281 Q54.1094,431.3281 54.75,431.4844 Q55.4063,431.6406 55.9688,431.9375 L55.9688,434.6563 Q55.3438,434.0781 54.75,433.8125 Q54.1563,433.5313 53.5313,433.5313 Q52.1875,433.5313 51.5,434.6094 Q50.8125,435.6719 50.8125,437.7656 Q50.8125,439.8594 51.5,440.9375 Q52.1875,442 53.5313,442 Q54.1563,442 54.75,441.7344 Q55.3438,441.4531 55.9688,440.875 L55.9688,443.5938 Z "/><text fill="#000000" font-family="sans-serif" font-size="12" lengthAdjust="spacingAndGlyphs" textLength="40" x="67" y="442.1074">classe</text><line style="stroke: #A80036; stroke-width: 1.5;" x1="39" x2="109" y1="453.9531" y2="453.9531"/><line style="stroke: #A80036; stroke-width: 1.5;" x1="39" x2="109" y1="461.9531" y2="461.9531"/><!--MD5=[1981719fa3982d92ef7fd3f06d73b3e7]
class Move--><rect fill="#FEFECE" filter="url(#ffgc6nwnh890h)" height="137.6328" id="Move" style="stroke: #A80036; stroke-width: 1.5;" width="168" x="756" y="79.9531"/><ellipse cx="801.25" cy="95.9531" fill="#A9DCDF" rx="11" ry="11" style="stroke: #A80036; stroke-width: 1.0;"/><path d="M801.3594,91.2969 L800.2031,96.375 L802.5313,96.375 L801.3594,91.2969 Z M799.875,89.0625 L802.8594,89.0625 L806.2188,101.4531 L803.7656,101.4531 L803,98.3906 L799.7188,98.3906 L798.9688,101.4531 L796.5313,101.4531 L799.875,89.0625 Z "/><text fill="#000000" font-family="sans-serif" font-size="12" font-style="italic" lengthAdjust="spacingAndGlyphs" textLength="69" x="821.75" y="100.1074">MoveCoord</text><line style="stroke: #A80036; stroke-width: 1.5;" x1="757" x2="923" y1="111.9531" y2="111.9531"/><rect fill="none" height="6" style="stroke: #C82930; stroke-width: 1.0;" width="6" x="764" y="119.9531"/><text fill="#000000" font-family="sans-serif" font-size="11" lengthAdjust="spacingAndGlyphs" textLength="78" x="776" y="126.1636">coord : Coord</text><line style="stroke: #A80036; stroke-width: 1.5;" x1="757" x2="923" y1="132.7578" y2="132.7578"/><ellipse cx="767" cy="143.7578" fill="#84BE84" rx="3" ry="3" style="stroke: #038048; stroke-width: 1.0;"/><text fill="#000000" font-family="sans-serif" font-size="11" lengthAdjust="spacingAndGlyphs" text-decoration="underline" textLength="105" x="776" y="146.9683">new Move() : Move</text><ellipse cx="767" cy="156.5625" fill="#84BE84" rx="3" ry="3" style="stroke: #038048; stroke-width: 1.0;"/><text fill="#000000" font-family="sans-serif" font-size="11" lengthAdjust="spacingAndGlyphs" text-decoration="underline" textLength="139" x="776" y="159.7729">new Move(Coord) : Move</text><ellipse cx="767" cy="169.3672" fill="#84BE84" rx="3" ry="3" style="stroke: #038048; stroke-width: 1.0;"/><text fill="#000000" font-family="sans-serif" font-size="11" lengthAdjust="spacingAndGlyphs" textLength="142" x="776" y="172.5776">getCoord(void) : Coord #</text><ellipse cx="767" cy="182.1719" fill="#84BE84" rx="3" ry="3" style="stroke: #038048; stroke-width: 1.0;"/><text fill="#000000" font-family="sans-serif" font-size="11" lengthAdjust="spacingAndGlyphs" textLength="142" x="776" y="185.3823">setCoord(Coord) : void #</text><ellipse cx="767" cy="194.9766" fill="#84BE84" rx="3" ry="3" style="stroke: #038048; stroke-width: 1.0;"/><text fill="#000000" font-family="sans-serif" font-size="11" lengthAdjust="spacingAndGlyphs" textLength="121" x="776" y="198.187">getNew(void) : Object</text><ellipse cx="767" cy="207.7813" fill="#84BE84" rx="3" ry="3" style="stroke: #038048; stroke-width: 1.0;"/><text fill="#000000" font-family="sans-serif" font-size="11" lengthAdjust="spacingAndGlyphs" textLength="116" x="776" y="210.9917">getOld(void) : Object</text><!--MD5=[bd08b69b9a685225b7cb6d44118bbefc]
class MoveV--><rect fill="#FEFECE" filter="url(#ffgc6nwnh890h)" height="112.0234" id="MoveV" style="stroke: #A80036; stroke-width: 1.5;" width="225" x="565.5" y="389.9531"/><ellipse cx="640.25" cy="405.9531" fill="#ADD1B2" rx="11" ry="11" style="stroke: #A80036; stroke-width: 1.0;"/><path d="M643.2188,411.5938 Q642.6406,411.8906 642,412.0313 Q641.3594,412.1875 640.6563,412.1875 Q638.1563,412.1875 636.8281,410.5469 Q635.5156,408.8906 635.5156,405.7656 Q635.5156,402.6406 636.8281,400.9844 Q638.1563,399.3281 640.6563,399.3281 Q641.3594,399.3281 642,399.4844 Q642.6563,399.6406 643.2188,399.9375 L643.2188,402.6563 Q642.5938,402.0781 642,401.8125 Q641.4063,401.5313 640.7813,401.5313 Q639.4375,401.5313 638.75,402.6094 Q638.0625,403.6719 638.0625,405.7656 Q638.0625,407.8594 638.75,408.9375 Q639.4375,410 640.7813,410 Q641.4063,410 642,409.7344 Q642.5938,409.4531 643.2188,408.875 L643.2188,411.5938 Z "/><text fill="#000000" font-family="sans-serif" font-size="12" lengthAdjust="spacingAndGlyphs" textLength="67" x="660.75" y="410.1074">MoveValue</text><line style="stroke: #A80036; stroke-width: 1.5;" x1="566.5" x2="789.5" y1="421.9531" y2="421.9531"/><rect fill="none" height="6" style="stroke: #C82930; stroke-width: 1.0;" width="6" x="573.5" y="429.9531"/><text fill="#000000" font-family="sans-serif" font-size="11" lengthAdjust="spacingAndGlyphs" textLength="75" x="585.5" y="436.1636">valueOld : int</text><rect fill="none" height="6" style="stroke: #C82930; stroke-width: 1.0;" width="6" x="573.5" y="442.7578"/><text fill="#000000" font-family="sans-serif" font-size="11" lengthAdjust="spacingAndGlyphs" textLength="80" x="585.5" y="448.9683">valueNew : int</text><line style="stroke: #A80036; stroke-width: 1.5;" x1="566.5" x2="789.5" y1="455.5625" y2="455.5625"/><ellipse cx="576.5" cy="466.5625" fill="#84BE84" rx="3" ry="3" style="stroke: #038048; stroke-width: 1.0;"/><text fill="#000000" font-family="sans-serif" font-size="11" lengthAdjust="spacingAndGlyphs" text-decoration="underline" textLength="199" x="585.5" y="469.7729">new MoveValue(int,int) : MoveValue</text><ellipse cx="576.5" cy="479.3672" fill="#84BE84" rx="3" ry="3" style="stroke: #038048; stroke-width: 1.0;"/><text fill="#000000" font-family="sans-serif" font-size="11" lengthAdjust="spacingAndGlyphs" textLength="128" x="585.5" y="482.5776">@getOld(void) : Object</text><ellipse cx="576.5" cy="492.1719" fill="#84BE84" rx="3" ry="3" style="stroke: #038048; stroke-width: 1.0;"/><text fill="#000000" font-family="sans-serif" font-size="11" lengthAdjust="spacingAndGlyphs" textLength="133" x="585.5" y="495.3823">@getNew(void) : Object</text><!--MD5=[185fb4beb44acbf328822d72de6f29a8]
class MoveN--><rect fill="#FEFECE" filter="url(#ffgc6nwnh890h)" height="112.0234" id="MoveN" style="stroke: #A80036; stroke-width: 1.5;" width="355" x="825.5" y="389.9531"/><ellipse cx="964.25" cy="405.9531" fill="#ADD1B2" rx="11" ry="11" style="stroke: #A80036; stroke-width: 1.0;"/><path d="M967.2188,411.5938 Q966.6406,411.8906 966,412.0313 Q965.3594,412.1875 964.6563,412.1875 Q962.1563,412.1875 960.8281,410.5469 Q959.5156,408.8906 959.5156,405.7656 Q959.5156,402.6406 960.8281,400.9844 Q962.1563,399.3281 964.6563,399.3281 Q965.3594,399.3281 966,399.4844 Q966.6563,399.6406 967.2188,399.9375 L967.2188,402.6563 Q966.5938,402.0781 966,401.8125 Q965.4063,401.5313 964.7813,401.5313 Q963.4375,401.5313 962.75,402.6094 Q962.0625,403.6719 962.0625,405.7656 Q962.0625,407.8594 962.75,408.9375 Q963.4375,410 964.7813,410 Q965.4063,410 966,409.7344 Q966.5938,409.4531 967.2188,408.875 L967.2188,411.5938 Z "/><text fill="#000000" font-family="sans-serif" font-size="12" lengthAdjust="spacingAndGlyphs" textLength="69" x="984.75" y="410.1074">MoveNotes</text><line style="stroke: #A80036; stroke-width: 1.5;" x1="826.5" x2="1179.5" y1="421.9531" y2="421.9531"/><rect fill="none" height="6" style="stroke: #C82930; stroke-width: 1.0;" width="6" x="833.5" y="429.9531"/><text fill="#000000" font-family="sans-serif" font-size="11" lengthAdjust="spacingAndGlyphs" textLength="140" x="845.5" y="436.1636">notesOld : Set&lt;Integer&gt;</text><rect fill="none" height="6" style="stroke: #C82930; stroke-width: 1.0;" width="6" x="833.5" y="442.7578"/><text fill="#000000" font-family="sans-serif" font-size="11" lengthAdjust="spacingAndGlyphs" textLength="145" x="845.5" y="448.9683">notesNew : Set&lt;Integer&gt;</text><line style="stroke: #A80036; stroke-width: 1.5;" x1="826.5" x2="1179.5" y1="455.5625" y2="455.5625"/><ellipse cx="836.5" cy="466.5625" fill="#84BE84" rx="3" ry="3" style="stroke: #038048; stroke-width: 1.0;"/><text fill="#000000" font-family="sans-serif" font-size="11" lengthAdjust="spacingAndGlyphs" text-decoration="underline" textLength="329" x="845.5" y="469.7729">new MoveNotes(Set&lt;Integer&gt;,Set&lt;Integer&gt;) : MoveNotes</text><ellipse cx="836.5" cy="479.3672" fill="#84BE84" rx="3" ry="3" style="stroke: #038048; stroke-width: 1.0;"/><text fill="#000000" font-family="sans-serif" font-size="11" lengthAdjust="spacingAndGlyphs" textLength="128" x="845.5" y="482.5776">@getOld(void) : Object</text><ellipse cx="836.5" cy="492.1719" fill="#84BE84" rx="3" ry="3" style="stroke: #038048; stroke-width: 1.0;"/><text fill="#000000" font-family="sans-serif" font-size="11" lengthAdjust="spacingAndGlyphs" textLength="133" x="845.5" y="495.3823">@getNew(void) : Object</text><!--MD5=[6013407b2d7d18ee76edeb15fc603e3a]
link A to G--><!--MD5=[80a3efbc162ec9a29a5e48a2a8b8bfdd]
link C to G--><!--MD5=[518367c1e7fbaa215fad71504a99bd4f]
reverse link A to C--><path d="M135.56,192.7231 C120.1,256.0531 91.67,372.5731 79.62,421.9131 " fill="none" id="A&lt;-C" style="stroke: #A80036; stroke-width: 1.0;"/><polygon fill="none" points="128.81,190.8731,140.35,173.1031,142.41,194.1931,128.81,190.8731" style="stroke: #A80036; stroke-width: 1.0;"/><path d="M125,252.9531 L125,277.9531 L223,277.9531 L223,262.9531 L213,252.9531 L125,252.9531 " fill="#FBFB77" filter="url(#ffgc6nwnh890h)" style="stroke: #A80036; stroke-width: 1.0;"/><path d="M213,252.9531 L213,262.9531 L223,262.9531 L213,252.9531 " fill="#FBFB77" style="stroke: #A80036; stroke-width: 1.0;"/><text fill="#000000" font-family="sans-serif" font-size="13" lengthAdjust="spacingAndGlyphs" textLength="77" x="131" y="270.02">C extends A</text><!--MD5=[214f7d1ba4b71baaee465801c69c66b8]
reverse link Move to MoveV--><path d="M792.91,235.7131 C765.67,285.3131 732.18,346.2831 708.4,389.5831 " fill="none" id="Move&lt;-MoveV" style="stroke: #A80036; stroke-width: 1.0;"/><polygon fill="none" points="786.87,232.1631,802.63,218.0031,799.14,238.9031,786.87,232.1631" style="stroke: #A80036; stroke-width: 1.0;"/><!--MD5=[4f51247628bb45062b4db0a831af49aa]
reverse link Move to MoveN--><path d="M887.38,235.7131 C914.79,285.3131 948.48,346.2831 972.41,389.5831 " fill="none" id="Move&lt;-MoveN" style="stroke: #A80036; stroke-width: 1.0;"/><polygon fill="none" points="881.15,238.8931,877.6,218.0031,893.4,232.1231,881.15,238.8931" style="stroke: #A80036; stroke-width: 1.0;"/><text fill="#888888" font-family="sans-serif" font-size="10" lengthAdjust="spacingAndGlyphs" textLength="347" x="442" y="626.2354">"Les classes stockant les actions du joueur afin de pouvoir les restituer."</text><!--MD5=[30f352deb87c7e404a3506ad93118100]
@startuml move

title "Diagramme des classes stockant les actions du joueur"

package "legend" #lightblue {
  class "General" AS G < ? general > << (S,#FFFFFF) Singleton >> {
    .. Attributs ..
    {field} - attributPrivee : type
    {field} # attributProtege : type
    {field} ~ attributPackage : type
    {field} + attributPublic : type
    ==
    .. Methodes ..
    {method} - methodePrive(typeParams) : typeRetour # retourDefault
    {method} # methodeProtege(typeParams) : typeRetour # retourDefault
    {method} ~ methodePackage(typeParams) : typeRetour # retourDefault
    {method} + methodePublic(typeParams) : typeRetour # retourDefault
    .. Methodes Speciale ..
    {method} @methodeOverride(typeParams) : typeRetour # retourDefault
    {method} {abstract} methodeAbstract(typeParams) : typeRetour # retourDefault
    {method} {static} methodeStatic(typeParams) : typeRetour # retourDefault
    {method} {static} <color green>final</color> methodeFinal(typeParams) : typeRetour # retourDefault
  }

    abstract class "abstractClasse" AS A
    A -[hidden]r- -> G
    class "classe" AS C
    C -[hidden]r-> G

    class C extends A
    note on link : C extends A
}

package "Move" #lightgrey {
	abstract class "MoveCoord" AS Move {
		{field} - coord : Coord
		{method} {static} + new Move() : Move
		{method} {static} + new Move(Coord) : Move
		{method} + getCoord(void) : Coord #
		{method} + setCoord(Coord) : void #
		{method} + getNew(void) : Object
		{method} + getOld(void) : Object
	}
	class "MoveValue" AS MoveV {
		{field} - valueOld : int
		{field} - valueNew : int
		{method} {static} + new MoveValue(int,int) : MoveValue
		{method} + @getOld(void) : Object
		{method} + @getNew(void) : Object
	}
	class MoveV extends Move
	class "MoveNotes" AS MoveN {
		{field} - notesOld : Set<Integer>
		{field} - notesNew : Set<Integer>
		{method} {static} + new MoveNotes(Set<Integer>,Set<Integer>) : MoveNotes
		{method} + @getOld(void) : Object
		{method} + @getNew(void) : Object
	}
	class MoveN extends Move
}

center footer "Les classes stockant les actions du joueur afin de pouvoir les restituer."
@enduml

PlantUML version 1.2020.02(Sun Mar 01 11:22:07 CET 2020)
(GPL source distribution)
Java Runtime: OpenJDK Runtime Environment
JVM: OpenJDK 64-Bit Server VM
Java Version: 17.0.9+9-Ubuntu-122.04
Operating System: Linux
Default Encoding: UTF-8
Language: en
Country: GB
--></g></svg>